<?xml version="1.0" encoding="UTF-8"?>
<svg xmlns="http://www.w3.org/2000/svg" xmlns:xlink="http://www.w3.org/1999/xlink"
     width="710.45" height="323.298348716525" viewBox="0 0 710.45 323.298348716525">
<defs>
</defs>
<rect x="0.5" y="0.5" width="709.45" height="322.298348716525" rx="18.0" ry="18.0" fill="#FFFFFF" stroke="#D4D8DD" stroke-width="1.0" />
<text x="22.75" y="32.17748138716" font-size="8.0636094" text-anchor="start" dominant-baseline="text-after-edge" font-family="Roboto, sans-serif" fill="#6F768B">LAYERS</text>
<rect x="16.0" y="33.790203267159995" width="64.09260324" height="17.919132" rx="3.5838264000000004" ry="3.5838264000000004" fill="#037065" />
<text x="27.265621264" y="42.74976926716" font-size="8.0636094" text-anchor="end" dominant-baseline="central" font-family="Roboto, sans-serif" fill="white">0</text>
<text x="34.015621264" y="42.74976926716" font-size="8.0636094" text-anchor="start" dominant-baseline="central" font-family="Roboto, sans-serif" fill="white">BASE</text>
<circle cx="359.92708932249997" cy="43.1463315097975" r="8.379836599927499" fill="#053F3A" />
<rect x="351.03198768891997" y="16.0" width="17.79020326716" height="17.79020326716" rx="1.3342652450369998" ry="1.3342652450369998" fill="#86BE81" />
<rect x="351.03198768891997" y="31.121672777085998" width="17.79020326716" height="2.6685304900739997" rx="1.3342652450369998" ry="1.3342652450369998" fill="#079E7C" />
<rect x="369.2832175651375" y="33.790203267159995" width="17.79020326716" height="17.79020326716" rx="1.3342652450369998" ry="1.3342652450369998" fill="#079E7C" />
<rect x="369.2832175651375" y="33.790203267159995" width="2.6685304900739997" height="17.79020326716" rx="1.3342652450369998" ry="1.3342652450369998" fill="#037065" />
<rect x="351.03198768891997" y="52.502459752434994" width="17.79020326716" height="17.79020326716" rx="1.3342652450369998" ry="1.3342652450369998" fill="#037065" />
<rect x="351.03198768891997" y="52.502459752434994" width="17.79020326716" height="2.6685304900739997" rx="1.3342652450369998" ry="1.3342652450369998" fill="#053F3A" />
<rect x="332.78075781270246" y="33.790203267159995" width="17.79020326716" height="17.79020326716" rx="1.3342652450369998" ry="1.3342652450369998" fill="#BDDCA7" />
<rect x="347.9024305897885" y="33.790203267159995" width="2.6685304900739997" height="17.79020326716" rx="1.3342652450369998" ry="1.3342652450369998" fill="#86BE81" />
<circle cx="287.6886647275" cy="43.1463315097975" r="8.379836599927499" fill="#053F3A" />
<rect x="278.79356309392" y="16.0" width="17.79020326716" height="17.79020326716" rx="1.3342652450369998" ry="1.3342652450369998" fill="#86BE81" />
<rect x="278.79356309392" y="31.121672777085998" width="17.79020326716" height="2.6685304900739997" rx="1.3342652450369998" ry="1.3342652450369998" fill="#079E7C" />
<rect x="297.0447929701375" y="33.790203267159995" width="17.79020326716" height="17.79020326716" rx="1.3342652450369998" ry="1.3342652450369998" fill="#079E7C" />
<rect x="297.0447929701375" y="33.790203267159995" width="2.6685304900739997" height="17.79020326716" rx="1.3342652450369998" ry="1.3342652450369998" fill="#037065" />
<rect x="278.79356309392" y="52.502459752434994" width="17.79020326716" height="17.79020326716" rx="1.3342652450369998" ry="1.3342652450369998" fill="#037065" />
<rect x="278.79356309392" y="52.502459752434994" width="17.79020326716" height="2.6685304900739997" rx="1.3342652450369998" ry="1.3342652450369998" fill="#053F3A" />
<rect x="260.5423332177025" y="33.790203267159995" width="17.79020326716" height="17.79020326716" rx="1.3342652450369998" ry="1.3342652450369998" fill="#BDDCA7" />
<rect x="275.6640059947885" y="33.790203267159995" width="2.6685304900739997" height="17.79020326716" rx="1.3342652450369998" ry="1.3342652450369998" fill="#86BE81" />
<circle cx="215.45024013249997" cy="43.1463315097975" r="8.379836599927499" fill="#053F3A" />
<rect x="206.55513849891997" y="16.0" width="17.79020326716" height="17.79020326716" rx="1.3342652450369998" ry="1.3342652450369998" fill="#86BE81" />
<rect x="206.55513849891997" y="31.121672777085998" width="17.79020326716" height="2.6685304900739997" rx="1.3342652450369998" ry="1.3342652450369998" fill="#079E7C" />
<rect x="224.80636837513748" y="33.790203267159995" width="17.79020326716" height="17.79020326716" rx="1.3342652450369998" ry="1.3342652450369998" fill="#079E7C" />
<rect x="224.80636837513748" y="33.790203267159995" width="2.6685304900739997" height="17.79020326716" rx="1.3342652450369998" ry="1.3342652450369998" fill="#037065" />
<rect x="206.55513849891997" y="52.502459752434994" width="17.79020326716" height="17.79020326716" rx="1.3342652450369998" ry="1.3342652450369998" fill="#037065" />
<rect x="206.55513849891997" y="52.502459752434994" width="17.79020326716" height="2.6685304900739997" rx="1.3342652450369998" ry="1.3342652450369998" fill="#053F3A" />
<rect x="188.3039086227025" y="33.790203267159995" width="17.79020326716" height="17.79020326716" rx="1.3342652450369998" ry="1.3342652450369998" fill="#BDDCA7" />
<rect x="203.42558139978848" y="33.790203267159995" width="2.6685304900739997" height="17.79020326716" rx="1.3342652450369998" ry="1.3342652450369998" fill="#86BE81" />
<circle cx="143.2118155375" cy="43.1463315097975" r="8.379836599927499" fill="#053F3A" />
<rect x="134.31671390392" y="16.0" width="17.79020326716" height="17.79020326716" rx="1.3342652450369998" ry="1.3342652450369998" fill="#86BE81" />
<rect x="134.31671390392" y="31.121672777085998" width="17.79020326716" height="2.6685304900739997" rx="1.3342652450369998" ry="1.3342652450369998" fill="#079E7C" />
<rect x="152.5679437801375" y="33.790203267159995" width="17.79020326716" height="17.79020326716" rx="1.3342652450369998" ry="1.3342652450369998" fill="#079E7C" />
<rect x="152.5679437801375" y="33.790203267159995" width="2.6685304900739997" height="17.79020326716" rx="1.3342652450369998" ry="1.3342652450369998" fill="#037065" />
<rect x="134.31671390392" y="52.502459752434994" width="17.79020326716" height="17.79020326716" rx="1.3342652450369998" ry="1.3342652450369998" fill="#037065" />
<rect x="134.31671390392" y="52.502459752434994" width="17.79020326716" height="2.6685304900739997" rx="1.3342652450369998" ry="1.3342652450369998" fill="#053F3A" />
<rect x="116.0654840277025" y="33.790203267159995" width="17.79020326716" height="17.79020326716" rx="1.3342652450369998" ry="1.3342652450369998" fill="#BDDCA7" />
<rect x="131.1871568047885" y="33.790203267159995" width="2.6685304900739997" height="17.79020326716" rx="1.3342652450369998" ry="1.3342652450369998" fill="#86BE81" />
<circle cx="450.1655139175" cy="43.1463315097975" r="8.379836599927499" fill="#053F3A" />
<rect x="441.27041228392" y="16.0" width="17.79020326716" height="17.79020326716" rx="1.3342652450369998" ry="1.3342652450369998" fill="#86BE81" />
<rect x="441.27041228392" y="31.121672777085998" width="17.79020326716" height="2.6685304900739997" rx="1.3342652450369998" ry="1.3342652450369998" fill="#079E7C" />
<rect x="459.5216421601375" y="33.790203267159995" width="17.79020326716" height="17.79020326716" rx="1.3342652450369998" ry="1.3342652450369998" fill="#BDDCA7" />
<rect x="459.5216421601375" y="33.790203267159995" width="2.6685304900739997" height="17.79020326716" rx="1.3342652450369998" ry="1.3342652450369998" fill="#86BE81" />
<rect x="441.27041228392" y="52.502459752434994" width="17.79020326716" height="17.79020326716" rx="1.3342652450369998" ry="1.3342652450369998" fill="#037065" />
<rect x="441.27041228392" y="52.502459752434994" width="17.79020326716" height="2.6685304900739997" rx="1.3342652450369998" ry="1.3342652450369998" fill="#053F3A" />
<rect x="423.0191824077025" y="33.790203267159995" width="17.79020326716" height="17.79020326716" rx="1.3342652450369998" ry="1.3342652450369998" fill="#079E7C" />
<rect x="438.1408551847885" y="33.790203267159995" width="2.6685304900739997" height="17.79020326716" rx="1.3342652450369998" ry="1.3342652450369998" fill="#037065" />
<circle cx="522.4039385125" cy="43.1463315097975" r="8.379836599927499" fill="#053F3A" />
<rect x="513.50883687892" y="16.0" width="17.79020326716" height="17.79020326716" rx="1.3342652450369998" ry="1.3342652450369998" fill="#86BE81" />
<rect x="513.50883687892" y="31.121672777085998" width="17.79020326716" height="2.6685304900739997" rx="1.3342652450369998" ry="1.3342652450369998" fill="#079E7C" />
<rect x="531.7600667551375" y="33.790203267159995" width="17.79020326716" height="17.79020326716" rx="1.3342652450369998" ry="1.3342652450369998" fill="#BDDCA7" />
<rect x="531.7600667551375" y="33.790203267159995" width="2.6685304900739997" height="17.79020326716" rx="1.3342652450369998" ry="1.3342652450369998" fill="#86BE81" />
<rect x="513.50883687892" y="52.502459752434994" width="17.79020326716" height="17.79020326716" rx="1.3342652450369998" ry="1.3342652450369998" fill="#037065" />
<rect x="513.50883687892" y="52.502459752434994" width="17.79020326716" height="2.6685304900739997" rx="1.3342652450369998" ry="1.3342652450369998" fill="#053F3A" />
<rect x="495.25760700270246" y="33.790203267159995" width="17.79020326716" height="17.79020326716" rx="1.3342652450369998" ry="1.3342652450369998" fill="#079E7C" />
<rect x="510.3792797797885" y="33.790203267159995" width="2.6685304900739997" height="17.79020326716" rx="1.3342652450369998" ry="1.3342652450369998" fill="#037065" />
<circle cx="594.6423631075" cy="43.1463315097975" r="8.379836599927499" fill="#053F3A" />
<rect x="585.74726147392" y="16.0" width="17.79020326716" height="17.79020326716" rx="1.3342652450369998" ry="1.3342652450369998" fill="#86BE81" />
<rect x="585.74726147392" y="31.121672777085998" width="17.79020326716" height="2.6685304900739997" rx="1.3342652450369998" ry="1.3342652450369998" fill="#079E7C" />
<rect x="603.9984913501376" y="33.790203267159995" width="17.79020326716" height="17.79020326716" rx="1.3342652450369998" ry="1.3342652450369998" fill="#BDDCA7" />
<rect x="603.9984913501376" y="33.790203267159995" width="2.6685304900739997" height="17.79020326716" rx="1.3342652450369998" ry="1.3342652450369998" fill="#86BE81" />
<rect x="585.74726147392" y="52.502459752434994" width="17.79020326716" height="17.79020326716" rx="1.3342652450369998" ry="1.3342652450369998" fill="#037065" />
<rect x="585.74726147392" y="52.502459752434994" width="17.79020326716" height="2.6685304900739997" rx="1.3342652450369998" ry="1.3342652450369998" fill="#053F3A" />
<rect x="567.4960315977025" y="33.790203267159995" width="17.79020326716" height="17.79020326716" rx="1.3342652450369998" ry="1.3342652450369998" fill="#079E7C" />
<rect x="582.6177043747886" y="33.790203267159995" width="2.6685304900739997" height="17.79020326716" rx="1.3342652450369998" ry="1.3342652450369998" fill="#037065" />
<circle cx="666.8807877025" cy="43.1463315097975" r="8.379836599927499" fill="#053F3A" />
<rect x="657.98568606892" y="16.0" width="17.79020326716" height="17.79020326716" rx="1.3342652450369998" ry="1.3342652450369998" fill="#86BE81" />
<rect x="657.98568606892" y="31.121672777085998" width="17.79020326716" height="2.6685304900739997" rx="1.3342652450369998" ry="1.3342652450369998" fill="#079E7C" />
<rect x="676.2369159451375" y="33.790203267159995" width="17.79020326716" height="17.79020326716" rx="1.3342652450369998" ry="1.3342652450369998" fill="#BDDCA7" />
<rect x="676.2369159451375" y="33.790203267159995" width="2.6685304900739997" height="17.79020326716" rx="1.3342652450369998" ry="1.3342652450369998" fill="#86BE81" />
<rect x="657.98568606892" y="52.502459752434994" width="17.79020326716" height="17.79020326716" rx="1.3342652450369998" ry="1.3342652450369998" fill="#037065" />
<rect x="657.98568606892" y="52.502459752434994" width="17.79020326716" height="2.6685304900739997" rx="1.3342652450369998" ry="1.3342652450369998" fill="#053F3A" />
<rect x="639.7344561927025" y="33.790203267159995" width="17.79020326716" height="17.79020326716" rx="1.3342652450369998" ry="1.3342652450369998" fill="#079E7C" />
<rect x="654.8561289697885" y="33.790203267159995" width="2.6685304900739997" height="17.79020326716" rx="1.3342652450369998" ry="1.3342652450369998" fill="#037065" />
<rect x="16.0" y="198.053225944495" width="64.09260324" height="17.919132" rx="3.5838264000000004" ry="3.5838264000000004" fill="#0E7695" />
<text x="27.265621264" y="207.012791944495" font-size="8.0636094" text-anchor="end" dominant-baseline="central" font-family="Roboto, sans-serif" fill="white">1</text>
<text x="34.015621264" y="207.012791944495" font-size="8.0636094" text-anchor="start" dominant-baseline="central" font-family="Roboto, sans-serif" fill="white">LOWER</text>
<circle cx="359.92708932249997" cy="207.40935418713252" r="8.379836599927499" fill="#1D3052" />
<rect x="351.03198768891997" y="180.26302267733502" width="17.79020326716" height="17.79020326716" rx="1.3342652450369998" ry="1.3342652450369998" fill="#7AC0C6" />
<rect x="351.03198768891997" y="195.384695454421" width="17.79020326716" height="2.6685304900739997" rx="1.3342652450369998" ry="1.3342652450369998" fill="#05A1B0" />
<rect x="369.2832175651375" y="198.053225944495" width="17.79020326716" height="17.79020326716" rx="1.3342652450369998" ry="1.3342652450369998" fill="#05A1B0" />
<rect x="369.2832175651375" y="198.053225944495" width="2.6685304900739997" height="17.79020326716" rx="1.3342652450369998" ry="1.3342652450369998" fill="#0E7695" />
<rect x="351.03198768891997" y="216.76548242977" width="17.79020326716" height="17.79020326716" rx="1.3342652450369998" ry="1.3342652450369998" fill="#0E7695" />
<rect x="351.03198768891997" y="216.76548242977" width="17.79020326716" height="2.6685304900739997" rx="1.3342652450369998" ry="1.3342652450369998" fill="#1D3052" />
<rect x="332.78075781270246" y="198.053225944495" width="17.79020326716" height="17.79020326716" rx="1.3342652450369998" ry="1.3342652450369998" fill="#A6D7DE" />
<rect x="347.9024305897885" y="198.053225944495" width="2.6685304900739997" height="17.79020326716" rx="1.3342652450369998" ry="1.3342652450369998" fill="#7AC0C6" />
<circle cx="287.6886647275" cy="207.40935418713252" r="8.379836599927499" fill="#1D3052" />
<rect x="278.79356309392" y="180.26302267733502" width="17.79020326716" height="17.79020326716" rx="1.3342652450369998" ry="1.3342652450369998" fill="#7AC0C6" />
<rect x="278.79356309392" y="195.384695454421" width="17.79020326716" height="2.6685304900739997" rx="1.3342652450369998" ry="1.3342652450369998" fill="#05A1B0" />
<rect x="297.0447929701375" y="198.053225944495" width="17.79020326716" height="17.79020326716" rx="1.3342652450369998" ry="1.3342652450369998" fill="#05A1B0" />
<rect x="297.0447929701375" y="198.053225944495" width="2.6685304900739997" height="17.79020326716" rx="1.3342652450369998" ry="1.3342652450369998" fill="#0E7695" />
<rect x="278.79356309392" y="216.76548242977" width="17.79020326716" height="17.79020326716" rx="1.3342652450369998" ry="1.3342652450369998" fill="#0E7695" />
<rect x="278.79356309392" y="216.76548242977" width="17.79020326716" height="2.6685304900739997" rx="1.3342652450369998" ry="1.3342652450369998" fill="#1D3052" />
<rect x="260.5423332177025" y="198.053225944495" width="17.79020326716" height="17.79020326716" rx="1.3342652450369998" ry="1.3342652450369998" fill="#A6D7DE" />
<rect x="275.6640059947885" y="198.053225944495" width="2.6685304900739997" height="17.79020326716" rx="1.3342652450369998" ry="1.3342652450369998" fill="#7AC0C6" />
<circle cx="215.45024013249997" cy="207.40935418713252" r="8.379836599927499" fill="#1D3052" />
<rect x="206.55513849891997" y="180.26302267733502" width="17.79020326716" height="17.79020326716" rx="1.3342652450369998" ry="1.3342652450369998" fill="#7AC0C6" />
<rect x="206.55513849891997" y="195.384695454421" width="17.79020326716" height="2.6685304900739997" rx="1.3342652450369998" ry="1.3342652450369998" fill="#05A1B0" />
<rect x="224.80636837513748" y="198.053225944495" width="17.79020326716" height="17.79020326716" rx="1.3342652450369998" ry="1.3342652450369998" fill="#05A1B0" />
<rect x="224.80636837513748" y="198.053225944495" width="2.6685304900739997" height="17.79020326716" rx="1.3342652450369998" ry="1.3342652450369998" fill="#0E7695" />
<rect x="206.55513849891997" y="216.76548242977" width="17.79020326716" height="17.79020326716" rx="1.3342652450369998" ry="1.3342652450369998" fill="#0E7695" />
<rect x="206.55513849891997" y="216.76548242977" width="17.79020326716" height="2.6685304900739997" rx="1.3342652450369998" ry="1.3342652450369998" fill="#1D3052" />
<rect x="188.3039086227025" y="198.053225944495" width="17.79020326716" height="17.79020326716" rx="1.3342652450369998" ry="1.3342652450369998" fill="#A6D7DE" />
<rect x="203.42558139978848" y="198.053225944495" width="2.6685304900739997" height="17.79020326716" rx="1.3342652450369998" ry="1.3342652450369998" fill="#7AC0C6" />
<circle cx="143.2118155375" cy="207.40935418713252" r="8.379836599927499" fill="#1D3052" />
<rect x="134.31671390392" y="180.26302267733502" width="17.79020326716" height="17.79020326716" rx="1.3342652450369998" ry="1.3342652450369998" fill="#7AC0C6" />
<rect x="134.31671390392" y="195.384695454421" width="17.79020326716" height="2.6685304900739997" rx="1.3342652450369998" ry="1.3342652450369998" fill="#05A1B0" />
<rect x="152.5679437801375" y="198.053225944495" width="17.79020326716" height="17.79020326716" rx="1.3342652450369998" ry="1.3342652450369998" fill="#05A1B0" />
<rect x="152.5679437801375" y="198.053225944495" width="2.6685304900739997" height="17.79020326716" rx="1.3342652450369998" ry="1.3342652450369998" fill="#0E7695" />
<rect x="134.31671390392" y="216.76548242977" width="17.79020326716" height="17.79020326716" rx="1.3342652450369998" ry="1.3342652450369998" fill="#0E7695" />
<rect x="134.31671390392" y="216.76548242977" width="17.79020326716" height="2.6685304900739997" rx="1.3342652450369998" ry="1.3342652450369998" fill="#1D3052" />
<rect x="116.0654840277025" y="198.053225944495" width="17.79020326716" height="17.79020326716" rx="1.3342652450369998" ry="1.3342652450369998" fill="#A6D7DE" />
<rect x="131.1871568047885" y="198.053225944495" width="2.6685304900739997" height="17.79020326716" rx="1.3342652450369998" ry="1.3342652450369998" fill="#7AC0C6" />
<circle cx="450.1655139175" cy="207.40935418713252" r="8.379836599927499" fill="#1D3052" />
<rect x="441.27041228392" y="180.26302267733502" width="17.79020326716" height="17.79020326716" rx="1.3342652450369998" ry="1.3342652450369998" fill="#7AC0C6" />
<rect x="441.27041228392" y="195.384695454421" width="17.79020326716" height="2.6685304900739997" rx="1.3342652450369998" ry="1.3342652450369998" fill="#05A1B0" />
<rect x="459.5216421601375" y="198.053225944495" width="17.79020326716" height="17.79020326716" rx="1.3342652450369998" ry="1.3342652450369998" fill="#A6D7DE" />
<rect x="459.5216421601375" y="198.053225944495" width="2.6685304900739997" height="17.79020326716" rx="1.3342652450369998" ry="1.3342652450369998" fill="#7AC0C6" />
<rect x="441.27041228392" y="216.76548242977" width="17.79020326716" height="17.79020326716" rx="1.3342652450369998" ry="1.3342652450369998" fill="#0E7695" />
<rect x="441.27041228392" y="216.76548242977" width="17.79020326716" height="2.6685304900739997" rx="1.3342652450369998" ry="1.3342652450369998" fill="#1D3052" />
<rect x="423.0191824077025" y="198.053225944495" width="17.79020326716" height="17.79020326716" rx="1.3342652450369998" ry="1.3342652450369998" fill="#05A1B0" />
<rect x="438.1408551847885" y="198.053225944495" width="2.6685304900739997" height="17.79020326716" rx="1.3342652450369998" ry="1.3342652450369998" fill="#0E7695" />
<circle cx="522.4039385125" cy="207.40935418713252" r="8.379836599927499" fill="#1D3052" />
<rect x="513.50883687892" y="180.26302267733502" width="17.79020326716" height="17.79020326716" rx="1.3342652450369998" ry="1.3342652450369998" fill="#7AC0C6" />
<rect x="513.50883687892" y="195.384695454421" width="17.79020326716" height="2.6685304900739997" rx="1.3342652450369998" ry="1.3342652450369998" fill="#05A1B0" />
<rect x="531.7600667551375" y="198.053225944495" width="17.79020326716" height="17.79020326716" rx="1.3342652450369998" ry="1.3342652450369998" fill="#A6D7DE" />
<rect x="531.7600667551375" y="198.053225944495" width="2.6685304900739997" height="17.79020326716" rx="1.3342652450369998" ry="1.3342652450369998" fill="#7AC0C6" />
<rect x="513.50883687892" y="216.76548242977" width="17.79020326716" height="17.79020326716" rx="1.3342652450369998" ry="1.3342652450369998" fill="#0E7695" />
<rect x="513.50883687892" y="216.76548242977" width="17.79020326716" height="2.6685304900739997" rx="1.3342652450369998" ry="1.3342652450369998" fill="#1D3052" />
<rect x="495.25760700270246" y="198.053225944495" width="17.79020326716" height="17.79020326716" rx="1.3342652450369998" ry="1.3342652450369998" fill="#05A1B0" />
<rect x="510.3792797797885" y="198.053225944495" width="2.6685304900739997" height="17.79020326716" rx="1.3342652450369998" ry="1.3342652450369998" fill="#0E7695" />
<circle cx="594.6423631075" cy="207.40935418713252" r="8.379836599927499" fill="#1D3052" />
<rect x="585.74726147392" y="180.26302267733502" width="17.79020326716" height="17.79020326716" rx="1.3342652450369998" ry="1.3342652450369998" fill="#7AC0C6" />
<rect x="585.74726147392" y="195.384695454421" width="17.79020326716" height="2.6685304900739997" rx="1.3342652450369998" ry="1.3342652450369998" fill="#05A1B0" />
<rect x="603.9984913501376" y="198.053225944495" width="17.79020326716" height="17.79020326716" rx="1.3342652450369998" ry="1.3342652450369998" fill="#A6D7DE" />
<rect x="603.9984913501376" y="198.053225944495" width="2.6685304900739997" height="17.79020326716" rx="1.3342652450369998" ry="1.3342652450369998" fill="#7AC0C6" />
<rect x="585.74726147392" y="216.76548242977" width="17.79020326716" height="17.79020326716" rx="1.3342652450369998" ry="1.3342652450369998" fill="#0E7695" />
<rect x="585.74726147392" y="216.76548242977" width="17.79020326716" height="2.6685304900739997" rx="1.3342652450369998" ry="1.3342652450369998" fill="#1D3052" />
<rect x="567.4960315977025" y="198.053225944495" width="17.79020326716" height="17.79020326716" rx="1.3342652450369998" ry="1.3342652450369998" fill="#05A1B0" />
<rect x="582.6177043747886" y="198.053225944495" width="2.6685304900739997" height="17.79020326716" rx="1.3342652450369998" ry="1.3342652450369998" fill="#0E7695" />
<circle cx="666.8807877025" cy="207.40935418713252" r="8.379836599927499" fill="#1D3052" />
<rect x="657.98568606892" y="180.26302267733502" width="17.79020326716" height="17.79020326716" rx="1.3342652450369998" ry="1.3342652450369998" fill="#7AC0C6" />
<rect x="657.98568606892" y="195.384695454421" width="17.79020326716" height="2.6685304900739997" rx="1.3342652450369998" ry="1.3342652450369998" fill="#05A1B0" />
<rect x="676.2369159451375" y="198.053225944495" width="17.79020326716" height="17.79020326716" rx="1.3342652450369998" ry="1.3342652450369998" fill="#A6D7DE" />
<rect x="676.2369159451375" y="198.053225944495" width="2.6685304900739997" height="17.79020326716" rx="1.3342652450369998" ry="1.3342652450369998" fill="#7AC0C6" />
<rect x="657.98568606892" y="216.76548242977" width="17.79020326716" height="17.79020326716" rx="1.3342652450369998" ry="1.3342652450369998" fill="#0E7695" />
<rect x="657.98568606892" y="216.76548242977" width="17.79020326716" height="2.6685304900739997" rx="1.3342652450369998" ry="1.3342652450369998" fill="#1D3052" />
<rect x="639.7344561927025" y="198.053225944495" width="17.79020326716" height="17.79020326716" rx="1.3342652450369998" ry="1.3342652450369998" fill="#05A1B0" />
<rect x="654.8561289697885" y="198.053225944495" width="2.6685304900739997" height="17.79020326716" rx="1.3342652450369998" ry="1.3342652450369998" fill="#0E7695" />
<rect x="16.0" y="270.34588896409" width="64.09260324" height="17.919132" rx="3.5838264000000004" ry="3.5838264000000004" fill="#8673B5" />
<text x="27.265621264" y="279.30545496409" font-size="8.0636094" text-anchor="end" dominant-baseline="central" font-family="Roboto, sans-serif" fill="white">2</text>
<text x="34.015621264" y="279.30545496409" font-size="8.0636094" text-anchor="start" dominant-baseline="central" font-family="Roboto, sans-serif" fill="white">RAISE</text>
<circle cx="359.92708932249997" cy="279.70201720672753" r="8.379836599927499" fill="#31164F" />
<rect x="351.03198768891997" y="252.55568569693003" width="17.79020326716" height="17.79020326716" rx="1.3342652450369998" ry="1.3342652450369998" fill="#A69DC6" />
<rect x="351.03198768891997" y="267.67735847401605" width="17.79020326716" height="2.6685304900739997" rx="1.3342652450369998" ry="1.3342652450369998" fill="#8673B5" />
<rect x="369.2832175651375" y="270.34588896409" width="17.79020326716" height="17.79020326716" rx="1.3342652450369998" ry="1.3342652450369998" fill="#8673B5" />
<rect x="369.2832175651375" y="270.34588896409" width="2.6685304900739997" height="17.79020326716" rx="1.3342652450369998" ry="1.3342652450369998" fill="#605181" />
<rect x="351.03198768891997" y="289.05814544936504" width="17.79020326716" height="17.79020326716" rx="1.3342652450369998" ry="1.3342652450369998" fill="#605181" />
<rect x="351.03198768891997" y="289.05814544936504" width="17.79020326716" height="2.6685304900739997" rx="1.3342652450369998" ry="1.3342652450369998" fill="#31164F" />
<rect x="332.78075781270246" y="270.34588896409" width="17.79020326716" height="17.79020326716" rx="1.3342652450369998" ry="1.3342652450369998" fill="#CDC5EA" />
<rect x="347.9024305897885" y="270.34588896409" width="2.6685304900739997" height="17.79020326716" rx="1.3342652450369998" ry="1.3342652450369998" fill="#A69DC6" />
<circle cx="287.6886647275" cy="279.70201720672753" r="8.379836599927499" fill="#31164F" />
<rect x="278.79356309392" y="252.55568569693003" width="17.79020326716" height="17.79020326716" rx="1.3342652450369998" ry="1.3342652450369998" fill="#A69DC6" />
<rect x="278.79356309392" y="267.67735847401605" width="17.79020326716" height="2.6685304900739997" rx="1.3342652450369998" ry="1.3342652450369998" fill="#8673B5" />
<rect x="297.0447929701375" y="270.34588896409" width="17.79020326716" height="17.79020326716" rx="1.3342652450369998" ry="1.3342652450369998" fill="#8673B5" />
<rect x="297.0447929701375" y="270.34588896409" width="2.6685304900739997" height="17.79020326716" rx="1.3342652450369998" ry="1.3342652450369998" fill="#605181" />
<rect x="278.79356309392" y="289.05814544936504" width="17.79020326716" height="17.79020326716" rx="1.3342652450369998" ry="1.3342652450369998" fill="#605181" />
<rect x="278.79356309392" y="289.05814544936504" width="17.79020326716" height="2.6685304900739997" rx="1.3342652450369998" ry="1.3342652450369998" fill="#31164F" />
<rect x="260.5423332177025" y="270.34588896409" width="17.79020326716" height="17.79020326716" rx="1.3342652450369998" ry="1.3342652450369998" fill="#CDC5EA" />
<rect x="275.6640059947885" y="270.34588896409" width="2.6685304900739997" height="17.79020326716" rx="1.3342652450369998" ry="1.3342652450369998" fill="#A69DC6" />
<circle cx="215.45024013249997" cy="279.70201720672753" r="8.379836599927499" fill="#31164F" />
<rect x="206.55513849891997" y="252.55568569693003" width="17.79020326716" height="17.79020326716" rx="1.3342652450369998" ry="1.3342652450369998" fill="#A69DC6" />
<rect x="206.55513849891997" y="267.67735847401605" width="17.79020326716" height="2.6685304900739997" rx="1.3342652450369998" ry="1.3342652450369998" fill="#8673B5" />
<rect x="224.80636837513748" y="270.34588896409" width="17.79020326716" height="17.79020326716" rx="1.3342652450369998" ry="1.3342652450369998" fill="#8673B5" />
<rect x="224.80636837513748" y="270.34588896409" width="2.6685304900739997" height="17.79020326716" rx="1.3342652450369998" ry="1.3342652450369998" fill="#605181" />
<rect x="206.55513849891997" y="289.05814544936504" width="17.79020326716" height="17.79020326716" rx="1.3342652450369998" ry="1.3342652450369998" fill="#605181" />
<rect x="206.55513849891997" y="289.05814544936504" width="17.79020326716" height="2.6685304900739997" rx="1.3342652450369998" ry="1.3342652450369998" fill="#31164F" />
<rect x="188.3039086227025" y="270.34588896409" width="17.79020326716" height="17.79020326716" rx="1.3342652450369998" ry="1.3342652450369998" fill="#CDC5EA" />
<rect x="203.42558139978848" y="270.34588896409" width="2.6685304900739997" height="17.79020326716" rx="1.3342652450369998" ry="1.3342652450369998" fill="#A69DC6" />
<circle cx="143.2118155375" cy="279.70201720672753" r="8.379836599927499" fill="#31164F" />
<rect x="134.31671390392" y="252.55568569693003" width="17.79020326716" height="17.79020326716" rx="1.3342652450369998" ry="1.3342652450369998" fill="#A69DC6" />
<rect x="134.31671390392" y="267.67735847401605" width="17.79020326716" height="2.6685304900739997" rx="1.3342652450369998" ry="1.3342652450369998" fill="#8673B5" />
<rect x="152.5679437801375" y="270.34588896409" width="17.79020326716" height="17.79020326716" rx="1.3342652450369998" ry="1.3342652450369998" fill="#8673B5" />
<rect x="152.5679437801375" y="270.34588896409" width="2.6685304900739997" height="17.79020326716" rx="1.3342652450369998" ry="1.3342652450369998" fill="#605181" />
<rect x="134.31671390392" y="289.05814544936504" width="17.79020326716" height="17.79020326716" rx="1.3342652450369998" ry="1.3342652450369998" fill="#605181" />
<rect x="134.31671390392" y="289.05814544936504" width="17.79020326716" height="2.6685304900739997" rx="1.3342652450369998" ry="1.3342652450369998" fill="#31164F" />
<rect x="116.0654840277025" y="270.34588896409" width="17.79020326716" height="17.79020326716" rx="1.3342652450369998" ry="1.3342652450369998" fill="#CDC5EA" />
<rect x="131.1871568047885" y="270.34588896409" width="2.6685304900739997" height="17.79020326716" rx="1.3342652450369998" ry="1.3342652450369998" fill="#A69DC6" />
<circle cx="450.1655139175" cy="279.70201720672753" r="8.379836599927499" fill="#31164F" />
<rect x="441.27041228392" y="252.55568569693003" width="17.79020326716" height="17.79020326716" rx="1.3342652450369998" ry="1.3342652450369998" fill="#A69DC6" />
<rect x="441.27041228392" y="267.67735847401605" width="17.79020326716" height="2.6685304900739997" rx="1.3342652450369998" ry="1.3342652450369998" fill="#8673B5" />
<rect x="459.5216421601375" y="270.34588896409" width="17.79020326716" height="17.79020326716" rx="1.3342652450369998" ry="1.3342652450369998" fill="#CDC5EA" />
<rect x="459.5216421601375" y="270.34588896409" width="2.6685304900739997" height="17.79020326716" rx="1.3342652450369998" ry="1.3342652450369998" fill="#A69DC6" />
<rect x="441.27041228392" y="289.05814544936504" width="17.79020326716" height="17.79020326716" rx="1.3342652450369998" ry="1.3342652450369998" fill="#605181" />
<rect x="441.27041228392" y="289.05814544936504" width="17.79020326716" height="2.6685304900739997" rx="1.3342652450369998" ry="1.3342652450369998" fill="#31164F" />
<rect x="423.0191824077025" y="270.34588896409" width="17.79020326716" height="17.79020326716" rx="1.3342652450369998" ry="1.3342652450369998" fill="#8673B5" />
<rect x="438.1408551847885" y="270.34588896409" width="2.6685304900739997" height="17.79020326716" rx="1.3342652450369998" ry="1.3342652450369998" fill="#605181" />
<circle cx="522.4039385125" cy="279.70201720672753" r="8.379836599927499" fill="#31164F" />
<rect x="513.50883687892" y="252.55568569693003" width="17.79020326716" height="17.79020326716" rx="1.3342652450369998" ry="1.3342652450369998" fill="#A69DC6" />
<rect x="513.50883687892" y="267.67735847401605" width="17.79020326716" height="2.6685304900739997" rx="1.3342652450369998" ry="1.3342652450369998" fill="#8673B5" />
<rect x="531.7600667551375" y="270.34588896409" width="17.79020326716" height="17.79020326716" rx="1.3342652450369998" ry="1.3342652450369998" fill="#CDC5EA" />
<rect x="531.7600667551375" y="270.34588896409" width="2.6685304900739997" height="17.79020326716" rx="1.3342652450369998" ry="1.3342652450369998" fill="#A69DC6" />
<rect x="513.50883687892" y="289.05814544936504" width="17.79020326716" height="17.79020326716" rx="1.3342652450369998" ry="1.3342652450369998" fill="#605181" />
<rect x="513.50883687892" y="289.05814544936504" width="17.79020326716" height="2.6685304900739997" rx="1.3342652450369998" ry="1.3342652450369998" fill="#31164F" />
<rect x="495.25760700270246" y="270.34588896409" width="17.79020326716" height="17.79020326716" rx="1.3342652450369998" ry="1.3342652450369998" fill="#8673B5" />
<rect x="510.3792797797885" y="270.34588896409" width="2.6685304900739997" height="17.79020326716" rx="1.3342652450369998" ry="1.3342652450369998" fill="#605181" />
<circle cx="594.6423631075" cy="279.70201720672753" r="8.379836599927499" fill="#31164F" />
<rect x="585.74726147392" y="252.55568569693003" width="17.79020326716" height="17.79020326716" rx="1.3342652450369998" ry="1.3342652450369998" fill="#A69DC6" />
<rect x="585.74726147392" y="267.67735847401605" width="17.79020326716" height="2.6685304900739997" rx="1.3342652450369998" ry="1.3342652450369998" fill="#8673B5" />
<rect x="603.9984913501376" y="270.34588896409" width="17.79020326716" height="17.79020326716" rx="1.3342652450369998" ry="1.3342652450369998" fill="#CDC5EA" />
<rect x="603.9984913501376" y="270.34588896409" width="2.6685304900739997" height="17.79020326716" rx="1.3342652450369998" ry="1.3342652450369998" fill="#A69DC6" />
<rect x="585.74726147392" y="289.05814544936504" width="17.79020326716" height="17.79020326716" rx="1.3342652450369998" ry="1.3342652450369998" fill="#605181" />
<rect x="585.74726147392" y="289.05814544936504" width="17.79020326716" height="2.6685304900739997" rx="1.3342652450369998" ry="1.3342652450369998" fill="#31164F" />
<rect x="567.4960315977025" y="270.34588896409" width="17.79020326716" height="17.79020326716" rx="1.3342652450369998" ry="1.3342652450369998" fill="#8673B5" />
<rect x="582.6177043747886" y="270.34588896409" width="2.6685304900739997" height="17.79020326716" rx="1.3342652450369998" ry="1.3342652450369998" fill="#605181" />
<circle cx="666.8807877025" cy="279.70201720672753" r="8.379836599927499" fill="#31164F" />
<rect x="657.98568606892" y="252.55568569693003" width="17.79020326716" height="17.79020326716" rx="1.3342652450369998" ry="1.3342652450369998" fill="#A69DC6" />
<rect x="657.98568606892" y="267.67735847401605" width="17.79020326716" height="2.6685304900739997" rx="1.3342652450369998" ry="1.3342652450369998" fill="#8673B5" />
<rect x="676.2369159451375" y="270.34588896409" width="17.79020326716" height="17.79020326716" rx="1.3342652450369998" ry="1.3342652450369998" fill="#CDC5EA" />
<rect x="676.2369159451375" y="270.34588896409" width="2.6685304900739997" height="17.79020326716" rx="1.3342652450369998" ry="1.3342652450369998" fill="#A69DC6" />
<rect x="657.98568606892" y="289.05814544936504" width="17.79020326716" height="17.79020326716" rx="1.3342652450369998" ry="1.3342652450369998" fill="#605181" />
<rect x="657.98568606892" y="289.05814544936504" width="17.79020326716" height="2.6685304900739997" rx="1.3342652450369998" ry="1.3342652450369998" fill="#31164F" />
<rect x="639.7344561927025" y="270.34588896409" width="17.79020326716" height="17.79020326716" rx="1.3342652450369998" ry="1.3342652450369998" fill="#8673B5" />
<rect x="654.8561289697885" y="270.34588896409" width="2.6685304900739997" height="17.79020326716" rx="1.3342652450369998" ry="1.3342652450369998" fill="#605181" />
<rect x="16.0" y="92.6170840457398" width="64.09260324" height="17.919132" rx="3.5838264000000004" ry="3.5838264000000004" fill="black" />
<text x="22.75" y="101.5766500457398" font-size="8.0636094" text-anchor="start" dominant-baseline="central" font-family="Roboto, sans-serif" fill="white">THUMBS</text>
<path d="M319.3132629394531 91.70274353027344C319.3132629394531 90.76883697509766 319.69586181640625 89.87570190429688 320.37188720703125 89.23138427734375C321.0479431152344 88.58706665039062 321.9584045410156 88.24781799316406 322.8912353515625 88.29266357421875H337.40081787109375C338.3336486816406 88.24781799316406 339.2441101074219 88.58706665039062 339.920166015625 89.23138427734375C340.59619140625 89.87570190429688 340.978759765625 90.76883697509766 340.978759765625 91.70274353027344L344.2071533203125 158.8529510498047C344.2071533203125 160.67471313476562 342.7767639160156 162.175537109375 340.95709228515625 162.2630157470703H319.3349609375C317.5152893066406 162.175537109375 316.08489990234375 160.67471313476562 316.08489990234375 158.8529510498047L317.3558044433594 132.41822814941406L326.5909729003906 132.01524353027344C327.4829406738281 132.01524353027344 328.336181640625 131.65087890625 328.9529724121094 131.00656127929688C329.5697937011719 130.3622589111328 329.8966064453125 129.4939422607422 329.85772705078125 128.6028289794922V119.33861541748047C329.85772705078125 117.53271484375 328.3937683105469 116.0687484741211 326.5878601074219 116.0687484741211H318.1418151855469ZM322.4833984375 96.34941101074219 322.0379943847656 108.04118347167969C322.0379943847656 109.69467163085938 323.3450012207031 111.05242156982422 324.997314453125 111.11536407470703H335.29473876953125C336.947021484375 111.05242156982422 338.2540588378906 109.69467163085938 338.2540588378906 108.04118347167969L337.80865478515625 96.34941101074219C337.80865478515625 95.51317596435547 337.4682312011719 94.71298217773438 336.86578369140625 94.13304138183594C336.2633361816406 93.5531005859375 335.45074462890625 93.24340057373047 334.6151123046875 93.27523040771484H325.67694091796875C324.84130859375 93.24340057373047 324.0287170410156 93.5531005859375 323.42626953125 94.13304138183594C322.8238220214844 94.71298217773438 322.4833984375 95.51317596435547 322.4833984375 96.34941101074219Z" fill="#037065" />
<path fill="#6F768B" d="M 273.60011203436494 93.31822189924777 A 2.14261152888958 2.14261152888958 0 0 1 275.7427235632545 91.1756103703582 L 314.30973108326697 91.1756103703582 A 2.14261152888958 2.14261152888958 0 0 1 316.3494512848851 93.31574997760416 L 315.44161048366414 112.19883864299959 A 2.14261152888958 2.14261152888958 0 0 1 313.1961076275031 114.33897825024555 L 275.7427235632545 114.33897825024555 A 2.14261152888958 2.14261152888958 0 0 1 273.60011203436494 112.19636672135597 Z" />
<path fill="#053F3A" d="M 286.3707454499272 119.33861589275331 A 2.1166902917445602 2.1166902917445602 0 0 1 288.48743574167173 117.22192560100875 L 326.5878609930739 117.22192560100875 A 2.1166902917445602 2.1166902917445602 0 0 1 328.7045512848184 119.33861589275331 L 328.7045512848184 128.65205317642938 A 2.1166902917445602 2.1166902917445602 0 0 1 326.5898733487901 130.86102032356428 L 288.4854233859555 132.52375995830613 A 2.1166902917445602 2.1166902917445602 0 0 1 286.3707454499272 130.4993465219519 Z" />
<path fill="#6F768B" d="M 343.9490046756608 93.44899561263776 A 2.2760110663920003 2.2760110663920003 0 0 1 346.1157183746355 91.1756103703582 L 387.0839175696915 91.1756103703582 A 2.2760110663920003 2.2760110663920003 0 0 1 389.3599286360835 93.4516214367502 L 389.3599286360835 112.24330254901236 A 2.2760110663920003 2.2760110663920003 0 0 1 387.0839175696915 114.51931361540436 L 347.2380117998781 114.51931361540436 A 2.2760110663920003 2.2760110663920003 0 0 1 344.8527033660688 112.2459283731248 Z" />
<path fill="#6F768B" d="M 345.20580268764263 119.59039426186163 A 2.1906606514023 2.1906606514023 0 0 1 347.2912646229058 117.40226096616756 L 386.7231563481472 117.40226096616756 A 2.1906606514023 2.1906606514023 0 0 1 388.9138169995495 119.59292161756986 L 388.9138169995495 138.64112599821232 A 2.1906606514023 2.1906606514023 0 0 1 386.7231563481472 140.83178664961463 L 348.4176841269177 140.83178664961463 A 2.1906606514023 2.1906606514023 0 0 1 346.1218247593763 138.64365335392054 Z" />
<path fill="#053F3A" d="M 323.63739089559 96.3502448470602 A 1.9232293511012402 1.9232293511012402 0 0 1 325.63383302107786 94.42840951941011 L 334.65821689932216 94.42840951941011 A 1.9232293511012402 1.9232293511012402 0 0 1 336.65465902481003 96.3502448470602 L 337.09999635329865 108.04034971988543 A 1.9232293511012402 1.9232293511012402 0 0 1 335.2499797765841 109.96218504753551 L 325.0420701438159 109.96218504753551 A 1.9232293511012402 1.9232293511012402 0 0 1 323.19205356710137 108.04034971988543 Z" />
<path d="M469.11383056640625 91.70274353027344C469.11383056640625 90.76883697509766 469.49639892578125 89.87570190429688 470.1724548339844 89.23138427734375C470.8484802246094 88.58706665039062 471.75897216796875 88.24781799316406 472.6918029785156 88.29266357421875H487.20135498046875C488.1341857910156 88.24781799316406 489.044677734375 88.58706665039062 489.720703125 89.23138427734375C490.3967590332031 89.87570190429688 490.7793273925781 90.76883697509766 490.7793273925781 91.70274353027344L491.9507751464844 116.0687484741211H483.5047302246094C481.6988525390625 116.0687484741211 480.23486328125 117.53271484375 480.23486328125 119.33861541748047V128.6028289794922C480.19598388671875 129.4939422607422 480.5228271484375 130.3622589111328 481.1396179199219 131.00656127929688C481.7564392089844 131.65087890625 482.60968017578125 132.01524353027344 483.50164794921875 132.01524353027344L492.7367858886719 132.41822814941406L494.0076904296875 158.8529510498047C494.0076904296875 160.67471313476562 492.5773010253906 162.175537109375 490.75762939453125 162.2630157470703H469.1355285644531C467.31585693359375 162.175537109375 465.8854675292969 160.67471313476562 465.8854675292969 158.8529510498047ZM472.2839660644531 96.34941101074219 471.83856201171875 108.04118347167969C471.83856201171875 109.69467163085938 473.14556884765625 111.05242156982422 474.7978515625 111.11536407470703H485.0953063964844C486.7475891113281 111.05242156982422 488.0545959472656 109.69467163085938 488.0545959472656 108.04118347167969L487.60919189453125 96.34941101074219C487.60919189453125 95.51317596435547 487.2687683105469 94.71298217773438 486.66632080078125 94.13304138183594C486.0638732910156 93.5531005859375 485.2513122558594 93.24340057373047 484.4156799316406 93.27523040771484H475.47747802734375C474.641845703125 93.24340057373047 473.82928466796875 93.5531005859375 473.2268371582031 94.13304138183594C472.6243591308594 94.71298217773438 472.2839660644531 95.51317596435547 472.2839660644531 96.34941101074219Z" fill="#037065" />
<path fill="#6F768B" d="M 493.7431519551149 93.31574997760416 A 2.14261152888958 2.14261152888958 0 0 1 495.78287215673305 91.1756103703582 L 534.3498796767456 91.1756103703582 A 2.14261152888958 2.14261152888958 0 0 1 536.4924912056351 93.31822189924777 L 536.4924912056351 112.19636672135597 A 2.14261152888958 2.14261152888958 0 0 1 534.3498796767456 114.33897825024555 L 496.8964956124969 114.33897825024555 A 2.14261152888958 2.14261152888958 0 0 1 494.6509927563359 112.19883864299959 Z" />
<path fill="#053F3A" d="M 481.3880519551816 119.33861589275331 A 2.1166902917445602 2.1166902917445602 0 0 1 483.5047422469261 117.22192560100875 L 521.6051674983282 117.22192560100875 A 2.1166902917445602 2.1166902917445602 0 0 1 523.7218577900728 119.33861589275331 L 523.7218577900728 130.4993465219519 A 2.1166902917445602 2.1166902917445602 0 0 1 521.6071798540445 132.52375995830613 L 483.5027298912099 130.86102032356428 A 2.1166902917445602 2.1166902917445602 0 0 1 481.3880519551816 128.65205317642938 Z" />
<path fill="#6F768B" d="M 420.73267460391656 93.4516214367502 A 2.2760110663920003 2.2760110663920003 0 0 1 423.0086856703086 91.1756103703582 L 463.9768848653646 91.1756103703582 A 2.2760110663920003 2.2760110663920003 0 0 1 466.1435985643393 93.44899561263776 L 465.2398998739313 112.2459283731248 A 2.2760110663920003 2.2760110663920003 0 0 1 462.85459144012196 114.51931361540436 L 423.0086856703086 114.51931361540436 A 2.2760110663920003 2.2760110663920003 0 0 1 420.73267460391656 112.24330254901236 Z" />
<path fill="#6F768B" d="M 421.1787862404505 119.59292161756986 A 2.1906606514023 2.1906606514023 0 0 1 423.3694468918528 117.40226096616756 L 462.8013386170942 117.40226096616756 A 2.1906606514023 2.1906606514023 0 0 1 464.8868005523574 119.59039426186163 L 463.9707784806237 138.64365335392054 A 2.1906606514023 2.1906606514023 0 0 1 461.6749191130823 140.83178664961463 L 423.3694468918528 140.83178664961463 A 2.1906606514023 2.1906606514023 0 0 1 421.1787862404505 138.64112599821232 Z" />
<path fill="#053F3A" d="M 473.43794421519 96.3502448470602 A 1.9232293511012402 1.9232293511012402 0 0 1 475.43438634067786 94.42840951941011 L 484.45877021892215 94.42840951941011 A 1.9232293511012402 1.9232293511012402 0 0 1 486.45521234441003 96.3502448470602 L 486.90054967289865 108.04034971988543 A 1.9232293511012402 1.9232293511012402 0 0 1 485.0505330961841 109.96218504753551 L 474.8426234634159 109.96218504753551 A 1.9232293511012402 1.9232293511012402 0 0 1 472.99260688670137 108.04034971988543 Z" />
</svg>