<?xml version="1.0" encoding="UTF-8"?>
<svg xmlns="http://www.w3.org/2000/svg" xmlns:xlink="http://www.w3.org/1999/xlink"
     width="710.45" height="323.29834871652497" viewBox="0 0 710.45 323.29834871652497">
<defs>
</defs>
<rect x="0.5" y="0.5" width="709.45" height="322.29834871652497" rx="18.0" ry="18.0" fill="#FFFFFF" stroke="#D4D8DD" stroke-width="1.0" />
<text x="22.75" y="32.17748138716" font-size="8.0636094" text-anchor="start" dominant-baseline="text-after-edge" font-family="Roboto, sans-serif" fill="#6F768B">LAYERS</text>
<rect x="16.0" y="33.790203267159995" width="64.09260324" height="17.919132" rx="3.5838264000000004" ry="3.5838264000000004" fill="#8673B5" />
<text x="27.265621264" y="42.74976926716" font-size="8.0636094" text-anchor="end" dominant-baseline="central" font-family="Roboto, sans-serif" fill="white">2</text>
<text x="34.015621264" y="42.74976926716" font-size="8.0636094" text-anchor="start" dominant-baseline="central" font-family="Roboto, sans-serif" fill="white">RAISE</text>
<circle cx="359.92708932249997" cy="43.1463315097975" r="8.379836599927499" fill="#31164F" />
<rect x="351.03198768891997" y="16.0" width="17.79020326716" height="17.79020326716" rx="1.3342652450369998" ry="1.3342652450369998" fill="#A69DC6" />
<rect x="351.03198768891997" y="31.121672777085998" width="17.79020326716" height="2.6685304900739997" rx="1.3342652450369998" ry="1.3342652450369998" fill="#8673B5" />
<rect x="369.2832175651375" y="33.790203267159995" width="17.79020326716" height="17.79020326716" rx="1.3342652450369998" ry="1.3342652450369998" fill="#8673B5" />
<rect x="369.2832175651375" y="33.790203267159995" width="2.6685304900739997" height="17.79020326716" rx="1.3342652450369998" ry="1.3342652450369998" fill="#605181" />
<rect x="351.03198768891997" y="52.502459752434994" width="17.79020326716" height="17.79020326716" rx="1.3342652450369998" ry="1.3342652450369998" fill="#605181" />
<rect x="351.03198768891997" y="52.502459752434994" width="17.79020326716" height="2.6685304900739997" rx="1.3342652450369998" ry="1.3342652450369998" fill="#31164F" />
<rect x="332.78075781270246" y="33.790203267159995" width="17.79020326716" height="17.79020326716" rx="1.3342652450369998" ry="1.3342652450369998" fill="#CDC5EA" />
<rect x="347.9024305897885" y="33.790203267159995" width="2.6685304900739997" height="17.79020326716" rx="1.3342652450369998" ry="1.3342652450369998" fill="#A69DC6" />
<circle cx="287.6886647275" cy="43.1463315097975" r="8.379836599927499" fill="#31164F" />
<rect x="278.79356309392" y="16.0" width="17.79020326716" height="17.79020326716" rx="1.3342652450369998" ry="1.3342652450369998" fill="#A69DC6" />
<rect x="278.79356309392" y="31.121672777085998" width="17.79020326716" height="2.6685304900739997" rx="1.3342652450369998" ry="1.3342652450369998" fill="#8673B5" />
<rect x="297.0447929701375" y="33.790203267159995" width="17.79020326716" height="17.79020326716" rx="1.3342652450369998" ry="1.3342652450369998" fill="#8673B5" />
<rect x="297.0447929701375" y="33.790203267159995" width="2.6685304900739997" height="17.79020326716" rx="1.3342652450369998" ry="1.3342652450369998" fill="#605181" />
<rect x="278.79356309392" y="52.502459752434994" width="17.79020326716" height="17.79020326716" rx="1.3342652450369998" ry="1.3342652450369998" fill="#605181" />
<rect x="278.79356309392" y="52.502459752434994" width="17.79020326716" height="2.6685304900739997" rx="1.3342652450369998" ry="1.3342652450369998" fill="#31164F" />
<rect x="260.5423332177025" y="33.790203267159995" width="17.79020326716" height="17.79020326716" rx="1.3342652450369998" ry="1.3342652450369998" fill="#CDC5EA" />
<rect x="275.6640059947885" y="33.790203267159995" width="2.6685304900739997" height="17.79020326716" rx="1.3342652450369998" ry="1.3342652450369998" fill="#A69DC6" />
<circle cx="215.45024013249997" cy="43.1463315097975" r="8.379836599927499" fill="#31164F" />
<rect x="206.55513849891997" y="16.0" width="17.79020326716" height="17.79020326716" rx="1.3342652450369998" ry="1.3342652450369998" fill="#A69DC6" />
<rect x="206.55513849891997" y="31.121672777085998" width="17.79020326716" height="2.6685304900739997" rx="1.3342652450369998" ry="1.3342652450369998" fill="#8673B5" />
<rect x="224.80636837513748" y="33.790203267159995" width="17.79020326716" height="17.79020326716" rx="1.3342652450369998" ry="1.3342652450369998" fill="#8673B5" />
<rect x="224.80636837513748" y="33.790203267159995" width="2.6685304900739997" height="17.79020326716" rx="1.3342652450369998" ry="1.3342652450369998" fill="#605181" />
<rect x="206.55513849891997" y="52.502459752434994" width="17.79020326716" height="17.79020326716" rx="1.3342652450369998" ry="1.3342652450369998" fill="#605181" />
<rect x="206.55513849891997" y="52.502459752434994" width="17.79020326716" height="2.6685304900739997" rx="1.3342652450369998" ry="1.3342652450369998" fill="#31164F" />
<rect x="188.3039086227025" y="33.790203267159995" width="17.79020326716" height="17.79020326716" rx="1.3342652450369998" ry="1.3342652450369998" fill="#CDC5EA" />
<rect x="203.42558139978848" y="33.790203267159995" width="2.6685304900739997" height="17.79020326716" rx="1.3342652450369998" ry="1.3342652450369998" fill="#A69DC6" />
<circle cx="143.2118155375" cy="43.1463315097975" r="8.379836599927499" fill="#31164F" />
<rect x="134.31671390392" y="16.0" width="17.79020326716" height="17.79020326716" rx="1.3342652450369998" ry="1.3342652450369998" fill="#A69DC6" />
<rect x="134.31671390392" y="31.121672777085998" width="17.79020326716" height="2.6685304900739997" rx="1.3342652450369998" ry="1.3342652450369998" fill="#8673B5" />
<rect x="152.5679437801375" y="33.790203267159995" width="17.79020326716" height="17.79020326716" rx="1.3342652450369998" ry="1.3342652450369998" fill="#8673B5" />
<rect x="152.5679437801375" y="33.790203267159995" width="2.6685304900739997" height="17.79020326716" rx="1.3342652450369998" ry="1.3342652450369998" fill="#605181" />
<rect x="134.31671390392" y="52.502459752434994" width="17.79020326716" height="17.79020326716" rx="1.3342652450369998" ry="1.3342652450369998" fill="#605181" />
<rect x="134.31671390392" y="52.502459752434994" width="17.79020326716" height="2.6685304900739997" rx="1.3342652450369998" ry="1.3342652450369998" fill="#31164F" />
<rect x="116.0654840277025" y="33.790203267159995" width="17.79020326716" height="17.79020326716" rx="1.3342652450369998" ry="1.3342652450369998" fill="#CDC5EA" />
<rect x="131.1871568047885" y="33.790203267159995" width="2.6685304900739997" height="17.79020326716" rx="1.3342652450369998" ry="1.3342652450369998" fill="#A69DC6" />
<circle cx="450.1655139175" cy="43.1463315097975" r="8.379836599927499" fill="#31164F" />
<rect x="441.27041228392" y="16.0" width="17.79020326716" height="17.79020326716" rx="1.3342652450369998" ry="1.3342652450369998" fill="#A69DC6" />
<rect x="441.27041228392" y="31.121672777085998" width="17.79020326716" height="2.6685304900739997" rx="1.3342652450369998" ry="1.3342652450369998" fill="#8673B5" />
<rect x="459.5216421601375" y="33.790203267159995" width="17.79020326716" height="17.79020326716" rx="1.3342652450369998" ry="1.3342652450369998" fill="#CDC5EA" />
<rect x="459.5216421601375" y="33.790203267159995" width="2.6685304900739997" height="17.79020326716" rx="1.3342652450369998" ry="1.3342652450369998" fill="#A69DC6" />
<rect x="441.27041228392" y="52.502459752434994" width="17.79020326716" height="17.79020326716" rx="1.3342652450369998" ry="1.3342652450369998" fill="#605181" />
<rect x="441.27041228392" y="52.502459752434994" width="17.79020326716" height="2.6685304900739997" rx="1.3342652450369998" ry="1.3342652450369998" fill="#31164F" />
<rect x="423.0191824077025" y="33.790203267159995" width="17.79020326716" height="17.79020326716" rx="1.3342652450369998" ry="1.3342652450369998" fill="#8673B5" />
<rect x="438.1408551847885" y="33.790203267159995" width="2.6685304900739997" height="17.79020326716" rx="1.3342652450369998" ry="1.3342652450369998" fill="#605181" />
<circle cx="522.4039385125" cy="43.1463315097975" r="8.379836599927499" fill="#31164F" />
<rect x="513.50883687892" y="16.0" width="17.79020326716" height="17.79020326716" rx="1.3342652450369998" ry="1.3342652450369998" fill="#A69DC6" />
<rect x="513.50883687892" y="31.121672777085998" width="17.79020326716" height="2.6685304900739997" rx="1.3342652450369998" ry="1.3342652450369998" fill="#8673B5" />
<rect x="531.7600667551375" y="33.790203267159995" width="17.79020326716" height="17.79020326716" rx="1.3342652450369998" ry="1.3342652450369998" fill="#CDC5EA" />
<rect x="531.7600667551375" y="33.790203267159995" width="2.6685304900739997" height="17.79020326716" rx="1.3342652450369998" ry="1.3342652450369998" fill="#A69DC6" />
<rect x="513.50883687892" y="52.502459752434994" width="17.79020326716" height="17.79020326716" rx="1.3342652450369998" ry="1.3342652450369998" fill="#605181" />
<rect x="513.50883687892" y="52.502459752434994" width="17.79020326716" height="2.6685304900739997" rx="1.3342652450369998" ry="1.3342652450369998" fill="#31164F" />
<rect x="495.25760700270246" y="33.790203267159995" width="17.79020326716" height="17.79020326716" rx="1.3342652450369998" ry="1.3342652450369998" fill="#8673B5" />
<rect x="510.3792797797885" y="33.790203267159995" width="2.6685304900739997" height="17.79020326716" rx="1.3342652450369998" ry="1.3342652450369998" fill="#605181" />
<circle cx="594.6423631075" cy="43.1463315097975" r="8.379836599927499" fill="#31164F" />
<rect x="585.74726147392" y="16.0" width="17.79020326716" height="17.79020326716" rx="1.3342652450369998" ry="1.3342652450369998" fill="#A69DC6" />
<rect x="585.74726147392" y="31.121672777085998" width="17.79020326716" height="2.6685304900739997" rx="1.3342652450369998" ry="1.3342652450369998" fill="#8673B5" />
<rect x="603.9984913501376" y="33.790203267159995" width="17.79020326716" height="17.79020326716" rx="1.3342652450369998" ry="1.3342652450369998" fill="#CDC5EA" />
<rect x="603.9984913501376" y="33.790203267159995" width="2.6685304900739997" height="17.79020326716" rx="1.3342652450369998" ry="1.3342652450369998" fill="#A69DC6" />
<rect x="585.74726147392" y="52.502459752434994" width="17.79020326716" height="17.79020326716" rx="1.3342652450369998" ry="1.3342652450369998" fill="#605181" />
<rect x="585.74726147392" y="52.502459752434994" width="17.79020326716" height="2.6685304900739997" rx="1.3342652450369998" ry="1.3342652450369998" fill="#31164F" />
<rect x="567.4960315977025" y="33.790203267159995" width="17.79020326716" height="17.79020326716" rx="1.3342652450369998" ry="1.3342652450369998" fill="#8673B5" />
<rect x="582.6177043747886" y="33.790203267159995" width="2.6685304900739997" height="17.79020326716" rx="1.3342652450369998" ry="1.3342652450369998" fill="#605181" />
<circle cx="666.8807877025" cy="43.1463315097975" r="8.379836599927499" fill="#31164F" />
<rect x="657.98568606892" y="16.0" width="17.79020326716" height="17.79020326716" rx="1.3342652450369998" ry="1.3342652450369998" fill="#A69DC6" />
<rect x="657.98568606892" y="31.121672777085998" width="17.79020326716" height="2.6685304900739997" rx="1.3342652450369998" ry="1.3342652450369998" fill="#8673B5" />
<rect x="676.2369159451375" y="33.790203267159995" width="17.79020326716" height="17.79020326716" rx="1.3342652450369998" ry="1.3342652450369998" fill="#CDC5EA" />
<rect x="676.2369159451375" y="33.790203267159995" width="2.6685304900739997" height="17.79020326716" rx="1.3342652450369998" ry="1.3342652450369998" fill="#A69DC6" />
<rect x="657.98568606892" y="52.502459752434994" width="17.79020326716" height="17.79020326716" rx="1.3342652450369998" ry="1.3342652450369998" fill="#605181" />
<rect x="657.98568606892" y="52.502459752434994" width="17.79020326716" height="2.6685304900739997" rx="1.3342652450369998" ry="1.3342652450369998" fill="#31164F" />
<rect x="639.7344561927025" y="33.790203267159995" width="17.79020326716" height="17.79020326716" rx="1.3342652450369998" ry="1.3342652450369998" fill="#8673B5" />
<rect x="654.8561289697885" y="33.790203267159995" width="2.6685304900739997" height="17.79020326716" rx="1.3342652450369998" ry="1.3342652450369998" fill="#605181" />
<rect x="16.0" y="106.08286628675499" width="64.09260324" height="17.919132" rx="3.5838264000000004" ry="3.5838264000000004" fill="#0E7695" />
<text x="27.265621264" y="115.04243228675499" font-size="8.0636094" text-anchor="end" dominant-baseline="central" font-family="Roboto, sans-serif" fill="white">1</text>
<text x="34.015621264" y="115.04243228675499" font-size="8.0636094" text-anchor="start" dominant-baseline="central" font-family="Roboto, sans-serif" fill="white">LOWER</text>
<circle cx="359.92708932249997" cy="115.43899452939249" r="8.379836599927499" fill="#1D3052" />
<rect x="351.03198768891997" y="88.292663019595" width="17.79020326716" height="17.79020326716" rx="1.3342652450369998" ry="1.3342652450369998" fill="#7AC0C6" />
<rect x="351.03198768891997" y="103.41433579668099" width="17.79020326716" height="2.6685304900739997" rx="1.3342652450369998" ry="1.3342652450369998" fill="#05A1B0" />
<rect x="369.2832175651375" y="106.08286628675499" width="17.79020326716" height="17.79020326716" rx="1.3342652450369998" ry="1.3342652450369998" fill="#05A1B0" />
<rect x="369.2832175651375" y="106.08286628675499" width="2.6685304900739997" height="17.79020326716" rx="1.3342652450369998" ry="1.3342652450369998" fill="#0E7695" />
<rect x="351.03198768891997" y="124.79512277203" width="17.79020326716" height="17.79020326716" rx="1.3342652450369998" ry="1.3342652450369998" fill="#0E7695" />
<rect x="351.03198768891997" y="124.79512277203" width="17.79020326716" height="2.6685304900739997" rx="1.3342652450369998" ry="1.3342652450369998" fill="#1D3052" />
<rect x="332.78075781270246" y="106.08286628675499" width="17.79020326716" height="17.79020326716" rx="1.3342652450369998" ry="1.3342652450369998" fill="#A6D7DE" />
<rect x="347.9024305897885" y="106.08286628675499" width="2.6685304900739997" height="17.79020326716" rx="1.3342652450369998" ry="1.3342652450369998" fill="#7AC0C6" />
<circle cx="287.6886647275" cy="115.43899452939249" r="8.379836599927499" fill="#1D3052" />
<rect x="278.79356309392" y="88.292663019595" width="17.79020326716" height="17.79020326716" rx="1.3342652450369998" ry="1.3342652450369998" fill="#7AC0C6" />
<rect x="278.79356309392" y="103.41433579668099" width="17.79020326716" height="2.6685304900739997" rx="1.3342652450369998" ry="1.3342652450369998" fill="#05A1B0" />
<rect x="297.0447929701375" y="106.08286628675499" width="17.79020326716" height="17.79020326716" rx="1.3342652450369998" ry="1.3342652450369998" fill="#05A1B0" />
<rect x="297.0447929701375" y="106.08286628675499" width="2.6685304900739997" height="17.79020326716" rx="1.3342652450369998" ry="1.3342652450369998" fill="#0E7695" />
<rect x="278.79356309392" y="124.79512277203" width="17.79020326716" height="17.79020326716" rx="1.3342652450369998" ry="1.3342652450369998" fill="#0E7695" />
<rect x="278.79356309392" y="124.79512277203" width="17.79020326716" height="2.6685304900739997" rx="1.3342652450369998" ry="1.3342652450369998" fill="#1D3052" />
<rect x="260.5423332177025" y="106.08286628675499" width="17.79020326716" height="17.79020326716" rx="1.3342652450369998" ry="1.3342652450369998" fill="#A6D7DE" />
<rect x="275.6640059947885" y="106.08286628675499" width="2.6685304900739997" height="17.79020326716" rx="1.3342652450369998" ry="1.3342652450369998" fill="#7AC0C6" />
<circle cx="215.45024013249997" cy="115.43899452939249" r="8.379836599927499" fill="#1D3052" />
<rect x="206.55513849891997" y="88.292663019595" width="17.79020326716" height="17.79020326716" rx="1.3342652450369998" ry="1.3342652450369998" fill="#7AC0C6" />
<rect x="206.55513849891997" y="103.41433579668099" width="17.79020326716" height="2.6685304900739997" rx="1.3342652450369998" ry="1.3342652450369998" fill="#05A1B0" />
<rect x="224.80636837513748" y="106.08286628675499" width="17.79020326716" height="17.79020326716" rx="1.3342652450369998" ry="1.3342652450369998" fill="#05A1B0" />
<rect x="224.80636837513748" y="106.08286628675499" width="2.6685304900739997" height="17.79020326716" rx="1.3342652450369998" ry="1.3342652450369998" fill="#0E7695" />
<rect x="206.55513849891997" y="124.79512277203" width="17.79020326716" height="17.79020326716" rx="1.3342652450369998" ry="1.3342652450369998" fill="#0E7695" />
<rect x="206.55513849891997" y="124.79512277203" width="17.79020326716" height="2.6685304900739997" rx="1.3342652450369998" ry="1.3342652450369998" fill="#1D3052" />
<rect x="188.3039086227025" y="106.08286628675499" width="17.79020326716" height="17.79020326716" rx="1.3342652450369998" ry="1.3342652450369998" fill="#A6D7DE" />
<rect x="203.42558139978848" y="106.08286628675499" width="2.6685304900739997" height="17.79020326716" rx="1.3342652450369998" ry="1.3342652450369998" fill="#7AC0C6" />
<circle cx="143.2118155375" cy="115.43899452939249" r="8.379836599927499" fill="#1D3052" />
<rect x="134.31671390392" y="88.292663019595" width="17.79020326716" height="17.79020326716" rx="1.3342652450369998" ry="1.3342652450369998" fill="#7AC0C6" />
<rect x="134.31671390392" y="103.41433579668099" width="17.79020326716" height="2.6685304900739997" rx="1.3342652450369998" ry="1.3342652450369998" fill="#05A1B0" />
<rect x="152.5679437801375" y="106.08286628675499" width="17.79020326716" height="17.79020326716" rx="1.3342652450369998" ry="1.3342652450369998" fill="#05A1B0" />
<rect x="152.5679437801375" y="106.08286628675499" width="2.6685304900739997" height="17.79020326716" rx="1.3342652450369998" ry="1.3342652450369998" fill="#0E7695" />
<rect x="134.31671390392" y="124.79512277203" width="17.79020326716" height="17.79020326716" rx="1.3342652450369998" ry="1.3342652450369998" fill="#0E7695" />
<rect x="134.31671390392" y="124.79512277203" width="17.79020326716" height="2.6685304900739997" rx="1.3342652450369998" ry="1.3342652450369998" fill="#1D3052" />
<rect x="116.0654840277025" y="106.08286628675499" width="17.79020326716" height="17.79020326716" rx="1.3342652450369998" ry="1.3342652450369998" fill="#A6D7DE" />
<rect x="131.1871568047885" y="106.08286628675499" width="2.6685304900739997" height="17.79020326716" rx="1.3342652450369998" ry="1.3342652450369998" fill="#7AC0C6" />
<circle cx="450.1655139175" cy="115.43899452939249" r="8.379836599927499" fill="#1D3052" />
<rect x="441.27041228392" y="88.292663019595" width="17.79020326716" height="17.79020326716" rx="1.3342652450369998" ry="1.3342652450369998" fill="#7AC0C6" />
<rect x="441.27041228392" y="103.41433579668099" width="17.79020326716" height="2.6685304900739997" rx="1.3342652450369998" ry="1.3342652450369998" fill="#05A1B0" />
<rect x="459.5216421601375" y="106.08286628675499" width="17.79020326716" height="17.79020326716" rx="1.3342652450369998" ry="1.3342652450369998" fill="#A6D7DE" />
<rect x="459.5216421601375" y="106.08286628675499" width="2.6685304900739997" height="17.79020326716" rx="1.3342652450369998" ry="1.3342652450369998" fill="#7AC0C6" />
<rect x="441.27041228392" y="124.79512277203" width="17.79020326716" height="17.79020326716" rx="1.3342652450369998" ry="1.3342652450369998" fill="#0E7695" />
<rect x="441.27041228392" y="124.79512277203" width="17.79020326716" height="2.6685304900739997" rx="1.3342652450369998" ry="1.3342652450369998" fill="#1D3052" />
<rect x="423.0191824077025" y="106.08286628675499" width="17.79020326716" height="17.79020326716" rx="1.3342652450369998" ry="1.3342652450369998" fill="#05A1B0" />
<rect x="438.1408551847885" y="106.08286628675499" width="2.6685304900739997" height="17.79020326716" rx="1.3342652450369998" ry="1.3342652450369998" fill="#0E7695" />
<circle cx="522.4039385125" cy="115.43899452939249" r="8.379836599927499" fill="#1D3052" />
<rect x="513.50883687892" y="88.292663019595" width="17.79020326716" height="17.79020326716" rx="1.3342652450369998" ry="1.3342652450369998" fill="#7AC0C6" />
<rect x="513.50883687892" y="103.41433579668099" width="17.79020326716" height="2.6685304900739997" rx="1.3342652450369998" ry="1.3342652450369998" fill="#05A1B0" />
<rect x="531.7600667551375" y="106.08286628675499" width="17.79020326716" height="17.79020326716" rx="1.3342652450369998" ry="1.3342652450369998" fill="#A6D7DE" />
<rect x="531.7600667551375" y="106.08286628675499" width="2.6685304900739997" height="17.79020326716" rx="1.3342652450369998" ry="1.3342652450369998" fill="#7AC0C6" />
<rect x="513.50883687892" y="124.79512277203" width="17.79020326716" height="17.79020326716" rx="1.3342652450369998" ry="1.3342652450369998" fill="#0E7695" />
<rect x="513.50883687892" y="124.79512277203" width="17.79020326716" height="2.6685304900739997" rx="1.3342652450369998" ry="1.3342652450369998" fill="#1D3052" />
<rect x="495.25760700270246" y="106.08286628675499" width="17.79020326716" height="17.79020326716" rx="1.3342652450369998" ry="1.3342652450369998" fill="#05A1B0" />
<rect x="510.3792797797885" y="106.08286628675499" width="2.6685304900739997" height="17.79020326716" rx="1.3342652450369998" ry="1.3342652450369998" fill="#0E7695" />
<circle cx="594.6423631075" cy="115.43899452939249" r="8.379836599927499" fill="#1D3052" />
<rect x="585.74726147392" y="88.292663019595" width="17.79020326716" height="17.79020326716" rx="1.3342652450369998" ry="1.3342652450369998" fill="#7AC0C6" />
<rect x="585.74726147392" y="103.41433579668099" width="17.79020326716" height="2.6685304900739997" rx="1.3342652450369998" ry="1.3342652450369998" fill="#05A1B0" />
<rect x="603.9984913501376" y="106.08286628675499" width="17.79020326716" height="17.79020326716" rx="1.3342652450369998" ry="1.3342652450369998" fill="#A6D7DE" />
<rect x="603.9984913501376" y="106.08286628675499" width="2.6685304900739997" height="17.79020326716" rx="1.3342652450369998" ry="1.3342652450369998" fill="#7AC0C6" />
<rect x="585.74726147392" y="124.79512277203" width="17.79020326716" height="17.79020326716" rx="1.3342652450369998" ry="1.3342652450369998" fill="#0E7695" />
<rect x="585.74726147392" y="124.79512277203" width="17.79020326716" height="2.6685304900739997" rx="1.3342652450369998" ry="1.3342652450369998" fill="#1D3052" />
<rect x="567.4960315977025" y="106.08286628675499" width="17.79020326716" height="17.79020326716" rx="1.3342652450369998" ry="1.3342652450369998" fill="#05A1B0" />
<rect x="582.6177043747886" y="106.08286628675499" width="2.6685304900739997" height="17.79020326716" rx="1.3342652450369998" ry="1.3342652450369998" fill="#0E7695" />
<circle cx="666.8807877025" cy="115.43899452939249" r="8.379836599927499" fill="#1D3052" />
<rect x="657.98568606892" y="88.292663019595" width="17.79020326716" height="17.79020326716" rx="1.3342652450369998" ry="1.3342652450369998" fill="#7AC0C6" />
<rect x="657.98568606892" y="103.41433579668099" width="17.79020326716" height="2.6685304900739997" rx="1.3342652450369998" ry="1.3342652450369998" fill="#05A1B0" />
<rect x="676.2369159451375" y="106.08286628675499" width="17.79020326716" height="17.79020326716" rx="1.3342652450369998" ry="1.3342652450369998" fill="#A6D7DE" />
<rect x="676.2369159451375" y="106.08286628675499" width="2.6685304900739997" height="17.79020326716" rx="1.3342652450369998" ry="1.3342652450369998" fill="#7AC0C6" />
<rect x="657.98568606892" y="124.79512277203" width="17.79020326716" height="17.79020326716" rx="1.3342652450369998" ry="1.3342652450369998" fill="#0E7695" />
<rect x="657.98568606892" y="124.79512277203" width="17.79020326716" height="2.6685304900739997" rx="1.3342652450369998" ry="1.3342652450369998" fill="#1D3052" />
<rect x="639.7344561927025" y="106.08286628675499" width="17.79020326716" height="17.79020326716" rx="1.3342652450369998" ry="1.3342652450369998" fill="#05A1B0" />
<rect x="654.8561289697885" y="106.08286628675499" width="2.6685304900739997" height="17.79020326716" rx="1.3342652450369998" ry="1.3342652450369998" fill="#0E7695" />
<rect x="16.0" y="178.37552930635" width="64.09260324" height="17.919132" rx="3.5838264000000004" ry="3.5838264000000004" fill="#037065" />
<text x="27.265621264" y="187.33509530634998" font-size="8.0636094" text-anchor="end" dominant-baseline="central" font-family="Roboto, sans-serif" fill="white">0</text>
<text x="34.015621264" y="187.33509530634998" font-size="8.0636094" text-anchor="start" dominant-baseline="central" font-family="Roboto, sans-serif" fill="white">BASE</text>
<circle cx="359.92708932249997" cy="187.7316575489875" r="8.379836599927499" fill="#053F3A" />
<rect x="351.03198768891997" y="160.58532603919" width="17.79020326716" height="17.79020326716" rx="1.3342652450369998" ry="1.3342652450369998" fill="#86BE81" />
<rect x="351.03198768891997" y="175.70699881627598" width="17.79020326716" height="2.6685304900739997" rx="1.3342652450369998" ry="1.3342652450369998" fill="#079E7C" />
<rect x="369.2832175651375" y="178.37552930635" width="17.79020326716" height="17.79020326716" rx="1.3342652450369998" ry="1.3342652450369998" fill="#079E7C" />
<rect x="369.2832175651375" y="178.37552930635" width="2.6685304900739997" height="17.79020326716" rx="1.3342652450369998" ry="1.3342652450369998" fill="#037065" />
<rect x="351.03198768891997" y="197.08778579162498" width="17.79020326716" height="17.79020326716" rx="1.3342652450369998" ry="1.3342652450369998" fill="#037065" />
<rect x="351.03198768891997" y="197.08778579162498" width="17.79020326716" height="2.6685304900739997" rx="1.3342652450369998" ry="1.3342652450369998" fill="#053F3A" />
<rect x="332.78075781270246" y="178.37552930635" width="17.79020326716" height="17.79020326716" rx="1.3342652450369998" ry="1.3342652450369998" fill="#BDDCA7" />
<rect x="347.9024305897885" y="178.37552930635" width="2.6685304900739997" height="17.79020326716" rx="1.3342652450369998" ry="1.3342652450369998" fill="#86BE81" />
<circle cx="287.6886647275" cy="187.7316575489875" r="8.379836599927499" fill="#053F3A" />
<rect x="278.79356309392" y="160.58532603919" width="17.79020326716" height="17.79020326716" rx="1.3342652450369998" ry="1.3342652450369998" fill="#86BE81" />
<rect x="278.79356309392" y="175.70699881627598" width="17.79020326716" height="2.6685304900739997" rx="1.3342652450369998" ry="1.3342652450369998" fill="#079E7C" />
<rect x="297.0447929701375" y="178.37552930635" width="17.79020326716" height="17.79020326716" rx="1.3342652450369998" ry="1.3342652450369998" fill="#079E7C" />
<rect x="297.0447929701375" y="178.37552930635" width="2.6685304900739997" height="17.79020326716" rx="1.3342652450369998" ry="1.3342652450369998" fill="#037065" />
<rect x="278.79356309392" y="197.08778579162498" width="17.79020326716" height="17.79020326716" rx="1.3342652450369998" ry="1.3342652450369998" fill="#037065" />
<rect x="278.79356309392" y="197.08778579162498" width="17.79020326716" height="2.6685304900739997" rx="1.3342652450369998" ry="1.3342652450369998" fill="#053F3A" />
<rect x="260.5423332177025" y="178.37552930635" width="17.79020326716" height="17.79020326716" rx="1.3342652450369998" ry="1.3342652450369998" fill="#BDDCA7" />
<rect x="275.6640059947885" y="178.37552930635" width="2.6685304900739997" height="17.79020326716" rx="1.3342652450369998" ry="1.3342652450369998" fill="#86BE81" />
<circle cx="215.45024013249997" cy="187.7316575489875" r="8.379836599927499" fill="#053F3A" />
<rect x="206.55513849891997" y="160.58532603919" width="17.79020326716" height="17.79020326716" rx="1.3342652450369998" ry="1.3342652450369998" fill="#86BE81" />
<rect x="206.55513849891997" y="175.70699881627598" width="17.79020326716" height="2.6685304900739997" rx="1.3342652450369998" ry="1.3342652450369998" fill="#079E7C" />
<rect x="224.80636837513748" y="178.37552930635" width="17.79020326716" height="17.79020326716" rx="1.3342652450369998" ry="1.3342652450369998" fill="#079E7C" />
<rect x="224.80636837513748" y="178.37552930635" width="2.6685304900739997" height="17.79020326716" rx="1.3342652450369998" ry="1.3342652450369998" fill="#037065" />
<rect x="206.55513849891997" y="197.08778579162498" width="17.79020326716" height="17.79020326716" rx="1.3342652450369998" ry="1.3342652450369998" fill="#037065" />
<rect x="206.55513849891997" y="197.08778579162498" width="17.79020326716" height="2.6685304900739997" rx="1.3342652450369998" ry="1.3342652450369998" fill="#053F3A" />
<rect x="188.3039086227025" y="178.37552930635" width="17.79020326716" height="17.79020326716" rx="1.3342652450369998" ry="1.3342652450369998" fill="#BDDCA7" />
<rect x="203.42558139978848" y="178.37552930635" width="2.6685304900739997" height="17.79020326716" rx="1.3342652450369998" ry="1.3342652450369998" fill="#86BE81" />
<circle cx="143.2118155375" cy="187.7316575489875" r="8.379836599927499" fill="#053F3A" />
<rect x="134.31671390392" y="160.58532603919" width="17.79020326716" height="17.79020326716" rx="1.3342652450369998" ry="1.3342652450369998" fill="#86BE81" />
<rect x="134.31671390392" y="175.70699881627598" width="17.79020326716" height="2.6685304900739997" rx="1.3342652450369998" ry="1.3342652450369998" fill="#079E7C" />
<rect x="152.5679437801375" y="178.37552930635" width="17.79020326716" height="17.79020326716" rx="1.3342652450369998" ry="1.3342652450369998" fill="#079E7C" />
<rect x="152.5679437801375" y="178.37552930635" width="2.6685304900739997" height="17.79020326716" rx="1.3342652450369998" ry="1.3342652450369998" fill="#037065" />
<rect x="134.31671390392" y="197.08778579162498" width="17.79020326716" height="17.79020326716" rx="1.3342652450369998" ry="1.3342652450369998" fill="#037065" />
<rect x="134.31671390392" y="197.08778579162498" width="17.79020326716" height="2.6685304900739997" rx="1.3342652450369998" ry="1.3342652450369998" fill="#053F3A" />
<rect x="116.0654840277025" y="178.37552930635" width="17.79020326716" height="17.79020326716" rx="1.3342652450369998" ry="1.3342652450369998" fill="#BDDCA7" />
<rect x="131.1871568047885" y="178.37552930635" width="2.6685304900739997" height="17.79020326716" rx="1.3342652450369998" ry="1.3342652450369998" fill="#86BE81" />
<circle cx="450.1655139175" cy="187.7316575489875" r="8.379836599927499" fill="#053F3A" />
<rect x="441.27041228392" y="160.58532603919" width="17.79020326716" height="17.79020326716" rx="1.3342652450369998" ry="1.3342652450369998" fill="#86BE81" />
<rect x="441.27041228392" y="175.70699881627598" width="17.79020326716" height="2.6685304900739997" rx="1.3342652450369998" ry="1.3342652450369998" fill="#079E7C" />
<rect x="459.5216421601375" y="178.37552930635" width="17.79020326716" height="17.79020326716" rx="1.3342652450369998" ry="1.3342652450369998" fill="#BDDCA7" />
<rect x="459.5216421601375" y="178.37552930635" width="2.6685304900739997" height="17.79020326716" rx="1.3342652450369998" ry="1.3342652450369998" fill="#86BE81" />
<rect x="441.27041228392" y="197.08778579162498" width="17.79020326716" height="17.79020326716" rx="1.3342652450369998" ry="1.3342652450369998" fill="#037065" />
<rect x="441.27041228392" y="197.08778579162498" width="17.79020326716" height="2.6685304900739997" rx="1.3342652450369998" ry="1.3342652450369998" fill="#053F3A" />
<rect x="423.0191824077025" y="178.37552930635" width="17.79020326716" height="17.79020326716" rx="1.3342652450369998" ry="1.3342652450369998" fill="#079E7C" />
<rect x="438.1408551847885" y="178.37552930635" width="2.6685304900739997" height="17.79020326716" rx="1.3342652450369998" ry="1.3342652450369998" fill="#037065" />
<circle cx="522.4039385125" cy="187.7316575489875" r="8.379836599927499" fill="#053F3A" />
<rect x="513.50883687892" y="160.58532603919" width="17.79020326716" height="17.79020326716" rx="1.3342652450369998" ry="1.3342652450369998" fill="#86BE81" />
<rect x="513.50883687892" y="175.70699881627598" width="17.79020326716" height="2.6685304900739997" rx="1.3342652450369998" ry="1.3342652450369998" fill="#079E7C" />
<rect x="531.7600667551375" y="178.37552930635" width="17.79020326716" height="17.79020326716" rx="1.3342652450369998" ry="1.3342652450369998" fill="#BDDCA7" />
<rect x="531.7600667551375" y="178.37552930635" width="2.6685304900739997" height="17.79020326716" rx="1.3342652450369998" ry="1.3342652450369998" fill="#86BE81" />
<rect x="513.50883687892" y="197.08778579162498" width="17.79020326716" height="17.79020326716" rx="1.3342652450369998" ry="1.3342652450369998" fill="#037065" />
<rect x="513.50883687892" y="197.08778579162498" width="17.79020326716" height="2.6685304900739997" rx="1.3342652450369998" ry="1.3342652450369998" fill="#053F3A" />
<rect x="495.25760700270246" y="178.37552930635" width="17.79020326716" height="17.79020326716" rx="1.3342652450369998" ry="1.3342652450369998" fill="#079E7C" />
<rect x="510.3792797797885" y="178.37552930635" width="2.6685304900739997" height="17.79020326716" rx="1.3342652450369998" ry="1.3342652450369998" fill="#037065" />
<circle cx="594.6423631075" cy="187.7316575489875" r="8.379836599927499" fill="#053F3A" />
<rect x="585.74726147392" y="160.58532603919" width="17.79020326716" height="17.79020326716" rx="1.3342652450369998" ry="1.3342652450369998" fill="#86BE81" />
<rect x="585.74726147392" y="175.70699881627598" width="17.79020326716" height="2.6685304900739997" rx="1.3342652450369998" ry="1.3342652450369998" fill="#079E7C" />
<rect x="603.9984913501376" y="178.37552930635" width="17.79020326716" height="17.79020326716" rx="1.3342652450369998" ry="1.3342652450369998" fill="#BDDCA7" />
<rect x="603.9984913501376" y="178.37552930635" width="2.6685304900739997" height="17.79020326716" rx="1.3342652450369998" ry="1.3342652450369998" fill="#86BE81" />
<rect x="585.74726147392" y="197.08778579162498" width="17.79020326716" height="17.79020326716" rx="1.3342652450369998" ry="1.3342652450369998" fill="#037065" />
<rect x="585.74726147392" y="197.08778579162498" width="17.79020326716" height="2.6685304900739997" rx="1.3342652450369998" ry="1.3342652450369998" fill="#053F3A" />
<rect x="567.4960315977025" y="178.37552930635" width="17.79020326716" height="17.79020326716" rx="1.3342652450369998" ry="1.3342652450369998" fill="#079E7C" />
<rect x="582.6177043747886" y="178.37552930635" width="2.6685304900739997" height="17.79020326716" rx="1.3342652450369998" ry="1.3342652450369998" fill="#037065" />
<circle cx="666.8807877025" cy="187.7316575489875" r="8.379836599927499" fill="#053F3A" />
<rect x="657.98568606892" y="160.58532603919" width="17.79020326716" height="17.79020326716" rx="1.3342652450369998" ry="1.3342652450369998" fill="#86BE81" />
<rect x="657.98568606892" y="175.70699881627598" width="17.79020326716" height="2.6685304900739997" rx="1.3342652450369998" ry="1.3342652450369998" fill="#079E7C" />
<rect x="676.2369159451375" y="178.37552930635" width="17.79020326716" height="17.79020326716" rx="1.3342652450369998" ry="1.3342652450369998" fill="#BDDCA7" />
<rect x="676.2369159451375" y="178.37552930635" width="2.6685304900739997" height="17.79020326716" rx="1.3342652450369998" ry="1.3342652450369998" fill="#86BE81" />
<rect x="657.98568606892" y="197.08778579162498" width="17.79020326716" height="17.79020326716" rx="1.3342652450369998" ry="1.3342652450369998" fill="#037065" />
<rect x="657.98568606892" y="197.08778579162498" width="17.79020326716" height="2.6685304900739997" rx="1.3342652450369998" ry="1.3342652450369998" fill="#053F3A" />
<rect x="639.7344561927025" y="178.37552930635" width="17.79020326716" height="17.79020326716" rx="1.3342652450369998" ry="1.3342652450369998" fill="#079E7C" />
<rect x="654.8561289697885" y="178.37552930635" width="2.6685304900739997" height="17.79020326716" rx="1.3342652450369998" ry="1.3342652450369998" fill="#037065" />
<rect x="16.0" y="237.20241008492977" width="64.09260324" height="17.919132" rx="3.5838264000000004" ry="3.5838264000000004" fill="black" />
<text x="22.75" y="246.16197608492976" font-size="8.0636094" text-anchor="start" dominant-baseline="central" font-family="Roboto, sans-serif" fill="white">THUMBS</text>
<path d="M317.9792785644531 236.28807067871094C317.9792785644531 235.35415649414062 318.3618469238281 234.46102905273438 319.03790283203125 233.81671142578125C319.71392822265625 233.17239379882812 320.6244201660156 232.83314514160156 321.5572509765625 232.87799072265625H336.0668029785156C336.9996337890625 232.83314514160156 337.9101257324219 233.17239379882812 338.5861511230469 233.81671142578125C339.26220703125 234.46102905273438 339.644775390625 235.35415649414062 339.644775390625 236.28807067871094L342.8731384277344 303.4382629394531C342.8731384277344 305.2600402832031 341.4427490234375 306.7608642578125 339.6230773925781 306.8483581542969H318.0009765625C316.1813049316406 306.7608642578125 314.75091552734375 305.2600402832031 314.75091552734375 303.4382629394531L316.0218200683594 277.0035705566406L325.2569885253906 276.6005859375C326.14892578125 276.6005859375 327.0021667480469 276.2362060546875 327.6189880371094 275.5918884277344C328.23577880859375 274.94757080078125 328.5626220703125 274.0792541503906 328.52374267578125 273.1881408691406V263.9239501953125C328.52374267578125 262.1180419921875 327.05975341796875 260.6540832519531 325.2538757324219 260.6540832519531H316.8078308105469ZM321.1494140625 240.9347381591797 320.7040100097656 252.6265106201172C320.7040100097656 254.27999877929688 322.0110168457031 255.6377410888672 323.6632995605469 255.70068359375H333.96075439453125C335.613037109375 255.6377410888672 336.9200439453125 254.27999877929688 336.9200439453125 252.6265106201172L336.4746398925781 240.9347381591797C336.4746398925781 240.0985107421875 336.1342468261719 239.29830932617188 335.5317687988281 238.71836853027344C334.9293212890625 238.138427734375 334.11676025390625 237.82872009277344 333.2811279296875 237.8605499267578H324.3429260253906C323.5072937011719 237.82872009277344 322.6947326660156 238.138427734375 322.09228515625 238.71836853027344C321.4898376464844 239.29830932617188 321.1494140625 240.0985107421875 321.1494140625 240.9347381591797Z" fill="#037065" />
<path fill="#6F768B" d="M 272.26611665934075 237.90354793843775 A 2.14261152888958 2.14261152888958 0 0 1 274.4087281882303 235.76093640954818 L 312.9757357082428 235.76093640954818 A 2.14261152888958 2.14261152888958 0 0 1 315.0154559098609 237.90107601679412 L 314.10761510863995 256.7841646821896 A 2.14261152888958 2.14261152888958 0 0 1 311.86211225247894 258.92430428943555 L 274.4087281882303 258.92430428943555 A 2.14261152888958 2.14261152888958 0 0 1 272.26611665934075 256.781692760546 Z" />
<path fill="#053F3A" d="M 285.036750074903 263.92394193194326 A 2.1166902917445602 2.1166902917445602 0 0 1 287.15344036664754 261.80725164019873 L 325.2538656180497 261.80725164019873 A 2.1166902917445602 2.1166902917445602 0 0 1 327.37055590979423 263.92394193194326 L 327.37055590979423 273.2373792156194 A 2.1166902917445602 2.1166902917445602 0 0 1 325.2558779737659 275.44634636275424 L 287.15142801093134 277.10908599749615 A 2.1166902917445602 2.1166902917445602 0 0 1 285.036750074903 275.08467256114193 Z" />
<path fill="#6F768B" d="M 342.61500930063653 238.03432165182775 A 2.2760110663920003 2.2760110663920003 0 0 1 344.78172299961125 235.76093640954818 L 385.7499221946672 235.76093640954818 A 2.2760110663920003 2.2760110663920003 0 0 1 388.0259332610592 238.03694747594017 L 388.0259332610592 256.8286285882023 A 2.2760110663920003 2.2760110663920003 0 0 1 385.7499221946672 259.10463965459434 L 345.90401642485386 259.10463965459434 A 2.2760110663920003 2.2760110663920003 0 0 1 343.51870799104455 256.83125441231476 Z" />
<path fill="#6F768B" d="M 343.87180731261844 264.17572030105157 A 2.1906606514023 2.1906606514023 0 0 1 345.95726924788164 261.9875870053575 L 385.389160973123 261.9875870053575 A 2.1906606514023 2.1906606514023 0 0 1 387.5798216245253 264.1782476567598 L 387.5798216245253 283.2264520374023 A 2.1906606514023 2.1906606514023 0 0 1 385.389160973123 285.4171126888046 L 347.08368875189353 285.4171126888046 A 2.1906606514023 2.1906606514023 0 0 1 344.7878293843521 283.22897939311054 Z" />
<path fill="#053F3A" d="M 322.3033955205658 240.93557088625016 A 1.9232293511012402 1.9232293511012402 0 0 1 324.2998376460537 239.01373555860008 L 333.32422152429797 239.01373555860008 A 1.9232293511012402 1.9232293511012402 0 0 1 335.32066364978584 240.93557088625016 L 335.76600097827446 252.6256757590754 A 1.9232293511012402 1.9232293511012402 0 0 1 333.9159844015599 254.54751108672548 L 323.70807476879173 254.54751108672548 A 1.9232293511012402 1.9232293511012402 0 0 1 321.8580581920772 252.6256757590754 Z" />
<path d="M470.44781494140625 236.28807067871094C470.44781494140625 235.35415649414062 470.8304138183594 234.46102905273438 471.5064392089844 233.81671142578125C472.1824951171875 233.17239379882812 473.09295654296875 232.83314514160156 474.0257873535156 232.87799072265625H488.5353698730469C489.46820068359375 232.83314514160156 490.378662109375 233.17239379882812 491.0546875 233.81671142578125C491.7307434082031 234.46102905273438 492.1133117675781 235.35415649414062 492.1133117675781 236.28807067871094L493.2847595214844 260.6540832519531H484.8387451171875C483.0328369140625 260.6540832519531 481.5688781738281 262.1180419921875 481.5688781738281 263.9239501953125V273.1881408691406C481.5299987792969 274.0792541503906 481.8568115234375 274.94757080078125 482.4736328125 275.5918884277344C483.0904235839844 276.2362060546875 483.94366455078125 276.6005859375 484.83563232421875 276.6005859375L494.07080078125 277.0035705566406L495.3417053222656 303.4382629394531C495.3417053222656 305.2600402832031 493.9112854003906 306.7608642578125 492.09161376953125 306.8483581542969H470.4695129394531C468.64984130859375 306.7608642578125 467.2194519042969 305.2600402832031 467.2194519042969 303.4382629394531ZM473.6179504394531 240.9347381591797 473.17254638671875 252.6265106201172C473.17254638671875 254.27999877929688 474.47955322265625 255.6377410888672 476.1318664550781 255.70068359375H486.4292907714844C488.0815734863281 255.6377410888672 489.3885803222656 254.27999877929688 489.3885803222656 252.6265106201172L488.94317626953125 240.9347381591797C488.94317626953125 240.0985107421875 488.602783203125 239.29830932617188 488.0003356933594 238.71836853027344C487.3978576660156 238.138427734375 486.5852966308594 237.82872009277344 485.7496643066406 237.8605499267578H476.81146240234375C475.9758605957031 237.82872009277344 475.16326904296875 238.138427734375 474.5608215332031 238.71836853027344C473.9583740234375 239.29830932617188 473.6179504394531 240.0985107421875 473.6179504394531 240.9347381591797Z" fill="#037065" />
<path fill="#6F768B" d="M 495.0771473301391 237.90107601679412 A 2.14261152888958 2.14261152888958 0 0 1 497.11686753175724 235.76093640954818 L 535.6838750517697 235.76093640954818 A 2.14261152888958 2.14261152888958 0 0 1 537.8264865806593 237.90354793843775 L 537.8264865806593 256.781692760546 A 2.14261152888958 2.14261152888958 0 0 1 535.6838750517697 258.92430428943555 L 498.2304909875211 258.92430428943555 A 2.14261152888958 2.14261152888958 0 0 1 495.98498813136007 256.7841646821896 Z" />
<path fill="#053F3A" d="M 482.7220473302058 263.92394193194326 A 2.1166902917445602 2.1166902917445602 0 0 1 484.8387376219503 261.80725164019873 L 522.9391628733524 261.80725164019873 A 2.1166902917445602 2.1166902917445602 0 0 1 525.055853165097 263.92394193194326 L 525.055853165097 275.08467256114193 A 2.1166902917445602 2.1166902917445602 0 0 1 522.9411752290687 277.10908599749615 L 484.8367252662341 275.44634636275424 A 2.1166902917445602 2.1166902917445602 0 0 1 482.7220473302058 273.2373792156194 Z" />
<path fill="#6F768B" d="M 422.06666997894075 238.03694747594017 A 2.2760110663920003 2.2760110663920003 0 0 1 424.34268104533277 235.76093640954818 L 465.31088024038877 235.76093640954818 A 2.2760110663920003 2.2760110663920003 0 0 1 467.4775939393635 238.03432165182775 L 466.57389524895547 256.83125441231476 A 2.2760110663920003 2.2760110663920003 0 0 1 464.18858681514615 259.10463965459434 L 424.34268104533277 259.10463965459434 A 2.2760110663920003 2.2760110663920003 0 0 1 422.06666997894075 256.8286285882023 Z" />
<path fill="#6F768B" d="M 422.5127816154747 264.1782476567598 A 2.1906606514023 2.1906606514023 0 0 1 424.703442266877 261.9875870053575 L 464.1353339921184 261.9875870053575 A 2.1906606514023 2.1906606514023 0 0 1 466.2207959273816 264.17572030105157 L 465.3047738556479 283.22897939311054 A 2.1906606514023 2.1906606514023 0 0 1 463.0089144881065 285.4171126888046 L 424.703442266877 285.4171126888046 A 2.1906606514023 2.1906606514023 0 0 1 422.5127816154747 283.2264520374023 Z" />
<path fill="#053F3A" d="M 474.7719395902142 240.93557088625016 A 1.9232293511012402 1.9232293511012402 0 0 1 476.76838171570205 239.01373555860008 L 485.79276559394634 239.01373555860008 A 1.9232293511012402 1.9232293511012402 0 0 1 487.7892077194342 240.93557088625016 L 488.23454504792284 252.6256757590754 A 1.9232293511012402 1.9232293511012402 0 0 1 486.3845284712083 254.54751108672548 L 476.1766188384401 254.54751108672548 A 1.9232293511012402 1.9232293511012402 0 0 1 474.32660226172555 252.6256757590754 Z" />
</svg>