<?xml version="1.0" encoding="UTF-8"?>
<svg xmlns="http://www.w3.org/2000/svg" xmlns:xlink="http://www.w3.org/1999/xlink"
     width="350.0" height="240.0" viewBox="0 0 350.0 240.0">
<defs>
</defs>
<rect x="0.5" y="0.5" width="349.0" height="239.0" rx="18.0" ry="18.0" fill="#FFFFFF" stroke="#D4D8DD" stroke-width="1.0" />
<path fill="#037065" d="M 143.58708757630453 22.638578412865826 A 9.9 9.9 0 0 1 153.9625 12.75 L 196.0375 12.75 A 9.9 9.9 0 0 1 206.41291242369547 22.638578412865826 L 215.77458757630453 217.36142158713417 A 9.9 9.9 0 0 1 206.35 227.25 L 143.65 227.25 A 9.9 9.9 0 0 1 134.22541242369547 217.36142158713417 Z" />
<path fill="#6F768B" d="M 14.619999999999994 31.56 A 6.2700000000000005 6.2700000000000005 0 0 1 20.889999999999993 25.29 L 133.75 25.29 A 6.2700000000000005 6.2700000000000005 0 0 1 139.61486588674683 31.5468975019796 L 136.03613411325318 86.81688628180417 A 6.2700000000000005 6.2700000000000005 0 0 1 129.361 93.07378378378377 L 20.889999999999993 93.07378378378377 A 6.2700000000000005 6.2700000000000005 0 0 1 14.619999999999994 86.80378378378377 Z" />
<path fill="white" d="M 42.900999999999996 107.009 A 6.138000000000001 6.138000000000001 0 0 1 49.038999999999994 100.871 L 165.66099999999997 100.871 A 6.138000000000001 6.138000000000001 0 0 1 171.79899999999998 107.009 L 171.79899999999998 140.227856 A 6.138000000000001 6.138000000000001 0 0 1 165.66809696299404 146.66093556694992 L 49.03190303700594 152.2746204330501 A 6.138000000000001 6.138000000000001 0 0 1 42.900999999999996 146.4317 Z" />
<path fill="#053F3A" d="M 45.97 110.078 A 6.138000000000001 6.138000000000001 0 0 1 52.108 103.94 L 162.592 103.94 A 6.138000000000001 6.138000000000001 0 0 1 168.73000000000002 110.078 L 168.73000000000002 137.0852 A 6.138000000000001 6.138000000000001 0 0 1 162.59783544953862 143.49078536220193 L 52.10216455046138 148.31241463779804 A 6.138000000000001 6.138000000000001 0 0 1 45.97 142.44199999999998 Z" />
<path fill="#6F768B" d="M 210.36544102553748 31.87873547927314 A 6.6000000000000005 6.6000000000000005 0 0 1 216.57999999999998 25.29 L 335.38 25.29 A 6.6000000000000005 6.6000000000000005 0 0 1 341.98 31.89 L 341.98 86.3823076923077 A 6.6000000000000005 6.6000000000000005 0 0 1 335.38 92.9823076923077 L 220.54 92.9823076923077 A 6.6000000000000005 6.6000000000000005 0 0 1 213.5545589744625 86.39357221303456 Z" />
<path fill="#6F768B" d="M 215.26216188917869 110.28380995375628 A 6.3525 6.3525 0 0 1 221.2825 103.94 L 335.6275 103.94 A 6.3525 6.3525 0 0 1 341.98 110.2925 L 341.98 165.52867647058824 A 6.3525 6.3525 0 0 1 335.6275 171.88117647058823 L 224.8399 171.88117647058823 A 6.3525 6.3525 0 0 1 218.15523811082133 165.53736651683195 Z" />
<path fill="#053F3A" stroke="white" stroke-width="2.145" d="M 155.0633339498165 43.40331638004725 A 5.577 5.577 0 0 1 160.84300000000002 37.83 L 189.157 37.83 A 5.577 5.577 0 0 1 194.93666605018353 43.40331638004725 L 196.2473339498165 79.44668361995276 A 5.577 5.577 0 0 1 190.87300000000002 85.02000000000001 L 159.127 85.02000000000001 A 5.577 5.577 0 0 1 153.75266605018354 79.44668361995276 Z" />
<path d="M118.9,192.93 L137.75,192.93" stroke="#A69DC6" stroke-width="2.0" />
<circle cx="137.75" cy="192.93" r="2.0" fill="#A69DC6" />
<circle cx="102.4" cy="192.93" r="16.5" fill="#8673B5" stroke="#A69DC6" stroke-width="2.0" />
<text x="96.955" y="192.93" font-size="19.8" text-anchor="start" dominant-baseline="central" font-family="Roboto, sans-serif" fill="white" opacity="1.0">2</text>
</svg>