<?xml version="1.0" encoding="UTF-8"?>
<svg xmlns="http://www.w3.org/2000/svg" xmlns:xlink="http://www.w3.org/1999/xlink"
     width="710.45" height="323.29834871652497" viewBox="0 0 710.45 323.29834871652497">
<defs>
</defs>
<rect x="0.5" y="0.5" width="709.45" height="322.29834871652497" rx="18.0" ry="18.0" fill="#FFFFFF" stroke="#D4D8DD" stroke-width="1.0" />
<text x="22.75" y="32.17748138716" font-size="8.0636094" text-anchor="start" dominant-baseline="text-after-edge" font-family="Roboto, sans-serif" fill="#6F768B">LAYERS</text>
<rect x="16.0" y="33.790203267159995" width="64.09260324" height="17.919132" rx="3.5838264000000004" ry="3.5838264000000004" fill="#037065" />
<text x="27.265621264" y="42.74976926716" font-size="8.0636094" text-anchor="end" dominant-baseline="central" font-family="Roboto, sans-serif" fill="white">0</text>
<text x="34.015621264" y="42.74976926716" font-size="8.0636094" text-anchor="start" dominant-baseline="central" font-family="Roboto, sans-serif" fill="white">BASE</text>
<circle cx="359.92708932249997" cy="43.1463315097975" r="8.379836599927499" fill="#053F3A" />
<rect x="351.03198768891997" y="16.0" width="17.79020326716" height="17.79020326716" rx="1.3342652450369998" ry="1.3342652450369998" fill="#86BE81" />
<rect x="351.03198768891997" y="31.121672777085998" width="17.79020326716" height="2.6685304900739997" rx="1.3342652450369998" ry="1.3342652450369998" fill="#079E7C" />
<rect x="369.2832175651375" y="33.790203267159995" width="17.79020326716" height="17.79020326716" rx="1.3342652450369998" ry="1.3342652450369998" fill="#079E7C" />
<rect x="369.2832175651375" y="33.790203267159995" width="2.6685304900739997" height="17.79020326716" rx="1.3342652450369998" ry="1.3342652450369998" fill="#037065" />
<rect x="351.03198768891997" y="52.502459752434994" width="17.79020326716" height="17.79020326716" rx="1.3342652450369998" ry="1.3342652450369998" fill="#037065" />
<rect x="351.03198768891997" y="52.502459752434994" width="17.79020326716" height="2.6685304900739997" rx="1.3342652450369998" ry="1.3342652450369998" fill="#053F3A" />
<rect x="332.78075781270246" y="33.790203267159995" width="17.79020326716" height="17.79020326716" rx="1.3342652450369998" ry="1.3342652450369998" fill="#BDDCA7" />
<rect x="347.9024305897885" y="33.790203267159995" width="2.6685304900739997" height="17.79020326716" rx="1.3342652450369998" ry="1.3342652450369998" fill="#86BE81" />
<circle cx="287.6886647275" cy="43.1463315097975" r="8.379836599927499" fill="#053F3A" />
<rect x="278.79356309392" y="16.0" width="17.79020326716" height="17.79020326716" rx="1.3342652450369998" ry="1.3342652450369998" fill="#86BE81" />
<rect x="278.79356309392" y="31.121672777085998" width="17.79020326716" height="2.6685304900739997" rx="1.3342652450369998" ry="1.3342652450369998" fill="#079E7C" />
<rect x="297.0447929701375" y="33.790203267159995" width="17.79020326716" height="17.79020326716" rx="1.3342652450369998" ry="1.3342652450369998" fill="#079E7C" />
<rect x="297.0447929701375" y="33.790203267159995" width="2.6685304900739997" height="17.79020326716" rx="1.3342652450369998" ry="1.3342652450369998" fill="#037065" />
<rect x="278.79356309392" y="52.502459752434994" width="17.79020326716" height="17.79020326716" rx="1.3342652450369998" ry="1.3342652450369998" fill="#037065" />
<rect x="278.79356309392" y="52.502459752434994" width="17.79020326716" height="2.6685304900739997" rx="1.3342652450369998" ry="1.3342652450369998" fill="#053F3A" />
<rect x="260.5423332177025" y="33.790203267159995" width="17.79020326716" height="17.79020326716" rx="1.3342652450369998" ry="1.3342652450369998" fill="#BDDCA7" />
<rect x="275.6640059947885" y="33.790203267159995" width="2.6685304900739997" height="17.79020326716" rx="1.3342652450369998" ry="1.3342652450369998" fill="#86BE81" />
<circle cx="215.45024013249997" cy="43.1463315097975" r="8.379836599927499" fill="#053F3A" />
<rect x="206.55513849891997" y="16.0" width="17.79020326716" height="17.79020326716" rx="1.3342652450369998" ry="1.3342652450369998" fill="#86BE81" />
<rect x="206.55513849891997" y="31.121672777085998" width="17.79020326716" height="2.6685304900739997" rx="1.3342652450369998" ry="1.3342652450369998" fill="#079E7C" />
<rect x="224.80636837513748" y="33.790203267159995" width="17.79020326716" height="17.79020326716" rx="1.3342652450369998" ry="1.3342652450369998" fill="#079E7C" />
<rect x="224.80636837513748" y="33.790203267159995" width="2.6685304900739997" height="17.79020326716" rx="1.3342652450369998" ry="1.3342652450369998" fill="#037065" />
<rect x="206.55513849891997" y="52.502459752434994" width="17.79020326716" height="17.79020326716" rx="1.3342652450369998" ry="1.3342652450369998" fill="#037065" />
<rect x="206.55513849891997" y="52.502459752434994" width="17.79020326716" height="2.6685304900739997" rx="1.3342652450369998" ry="1.3342652450369998" fill="#053F3A" />
<rect x="188.3039086227025" y="33.790203267159995" width="17.79020326716" height="17.79020326716" rx="1.3342652450369998" ry="1.3342652450369998" fill="#BDDCA7" />
<rect x="203.42558139978848" y="33.790203267159995" width="2.6685304900739997" height="17.79020326716" rx="1.3342652450369998" ry="1.3342652450369998" fill="#86BE81" />
<circle cx="143.2118155375" cy="43.1463315097975" r="8.379836599927499" fill="#053F3A" />
<rect x="134.31671390392" y="16.0" width="17.79020326716" height="17.79020326716" rx="1.3342652450369998" ry="1.3342652450369998" fill="#86BE81" />
<rect x="134.31671390392" y="31.121672777085998" width="17.79020326716" height="2.6685304900739997" rx="1.3342652450369998" ry="1.3342652450369998" fill="#079E7C" />
<rect x="152.5679437801375" y="33.790203267159995" width="17.79020326716" height="17.79020326716" rx="1.3342652450369998" ry="1.3342652450369998" fill="#079E7C" />
<rect x="152.5679437801375" y="33.790203267159995" width="2.6685304900739997" height="17.79020326716" rx="1.3342652450369998" ry="1.3342652450369998" fill="#037065" />
<rect x="134.31671390392" y="52.502459752434994" width="17.79020326716" height="17.79020326716" rx="1.3342652450369998" ry="1.3342652450369998" fill="#037065" />
<rect x="134.31671390392" y="52.502459752434994" width="17.79020326716" height="2.6685304900739997" rx="1.3342652450369998" ry="1.3342652450369998" fill="#053F3A" />
<rect x="116.0654840277025" y="33.790203267159995" width="17.79020326716" height="17.79020326716" rx="1.3342652450369998" ry="1.3342652450369998" fill="#BDDCA7" />
<rect x="131.1871568047885" y="33.790203267159995" width="2.6685304900739997" height="17.79020326716" rx="1.3342652450369998" ry="1.3342652450369998" fill="#86BE81" />
<circle cx="450.1655139175" cy="43.1463315097975" r="8.379836599927499" fill="#053F3A" />
<rect x="441.27041228392" y="16.0" width="17.79020326716" height="17.79020326716" rx="1.3342652450369998" ry="1.3342652450369998" fill="#86BE81" />
<rect x="441.27041228392" y="31.121672777085998" width="17.79020326716" height="2.6685304900739997" rx="1.3342652450369998" ry="1.3342652450369998" fill="#079E7C" />
<rect x="459.5216421601375" y="33.790203267159995" width="17.79020326716" height="17.79020326716" rx="1.3342652450369998" ry="1.3342652450369998" fill="#BDDCA7" />
<rect x="459.5216421601375" y="33.790203267159995" width="2.6685304900739997" height="17.79020326716" rx="1.3342652450369998" ry="1.3342652450369998" fill="#86BE81" />
<rect x="441.27041228392" y="52.502459752434994" width="17.79020326716" height="17.79020326716" rx="1.3342652450369998" ry="1.3342652450369998" fill="#037065" />
<rect x="441.27041228392" y="52.502459752434994" width="17.79020326716" height="2.6685304900739997" rx="1.3342652450369998" ry="1.3342652450369998" fill="#053F3A" />
<rect x="423.0191824077025" y="33.790203267159995" width="17.79020326716" height="17.79020326716" rx="1.3342652450369998" ry="1.3342652450369998" fill="#079E7C" />
<rect x="438.1408551847885" y="33.790203267159995" width="2.6685304900739997" height="17.79020326716" rx="1.3342652450369998" ry="1.3342652450369998" fill="#037065" />
<circle cx="522.4039385125" cy="43.1463315097975" r="8.379836599927499" fill="#053F3A" />
<rect x="513.50883687892" y="16.0" width="17.79020326716" height="17.79020326716" rx="1.3342652450369998" ry="1.3342652450369998" fill="#86BE81" />
<rect x="513.50883687892" y="31.121672777085998" width="17.79020326716" height="2.6685304900739997" rx="1.3342652450369998" ry="1.3342652450369998" fill="#079E7C" />
<rect x="531.7600667551375" y="33.790203267159995" width="17.79020326716" height="17.79020326716" rx="1.3342652450369998" ry="1.3342652450369998" fill="#BDDCA7" />
<rect x="531.7600667551375" y="33.790203267159995" width="2.6685304900739997" height="17.79020326716" rx="1.3342652450369998" ry="1.3342652450369998" fill="#86BE81" />
<rect x="513.50883687892" y="52.502459752434994" width="17.79020326716" height="17.79020326716" rx="1.3342652450369998" ry="1.3342652450369998" fill="#037065" />
<rect x="513.50883687892" y="52.502459752434994" width="17.79020326716" height="2.6685304900739997" rx="1.3342652450369998" ry="1.3342652450369998" fill="#053F3A" />
<rect x="495.25760700270246" y="33.790203267159995" width="17.79020326716" height="17.79020326716" rx="1.3342652450369998" ry="1.3342652450369998" fill="#079E7C" />
<rect x="510.3792797797885" y="33.790203267159995" width="2.6685304900739997" height="17.79020326716" rx="1.3342652450369998" ry="1.3342652450369998" fill="#037065" />
<circle cx="594.6423631075" cy="43.1463315097975" r="8.379836599927499" fill="#053F3A" />
<rect x="585.74726147392" y="16.0" width="17.79020326716" height="17.79020326716" rx="1.3342652450369998" ry="1.3342652450369998" fill="#86BE81" />
<rect x="585.74726147392" y="31.121672777085998" width="17.79020326716" height="2.6685304900739997" rx="1.3342652450369998" ry="1.3342652450369998" fill="#079E7C" />
<rect x="603.9984913501376" y="33.790203267159995" width="17.79020326716" height="17.79020326716" rx="1.3342652450369998" ry="1.3342652450369998" fill="#BDDCA7" />
<rect x="603.9984913501376" y="33.790203267159995" width="2.6685304900739997" height="17.79020326716" rx="1.3342652450369998" ry="1.3342652450369998" fill="#86BE81" />
<rect x="585.74726147392" y="52.502459752434994" width="17.79020326716" height="17.79020326716" rx="1.3342652450369998" ry="1.3342652450369998" fill="#037065" />
<rect x="585.74726147392" y="52.502459752434994" width="17.79020326716" height="2.6685304900739997" rx="1.3342652450369998" ry="1.3342652450369998" fill="#053F3A" />
<rect x="567.4960315977025" y="33.790203267159995" width="17.79020326716" height="17.79020326716" rx="1.3342652450369998" ry="1.3342652450369998" fill="#079E7C" />
<rect x="582.6177043747886" y="33.790203267159995" width="2.6685304900739997" height="17.79020326716" rx="1.3342652450369998" ry="1.3342652450369998" fill="#037065" />
<circle cx="666.8807877025" cy="43.1463315097975" r="8.379836599927499" fill="#053F3A" />
<rect x="657.98568606892" y="16.0" width="17.79020326716" height="17.79020326716" rx="1.3342652450369998" ry="1.3342652450369998" fill="#86BE81" />
<rect x="657.98568606892" y="31.121672777085998" width="17.79020326716" height="2.6685304900739997" rx="1.3342652450369998" ry="1.3342652450369998" fill="#079E7C" />
<rect x="676.2369159451375" y="33.790203267159995" width="17.79020326716" height="17.79020326716" rx="1.3342652450369998" ry="1.3342652450369998" fill="#BDDCA7" />
<rect x="676.2369159451375" y="33.790203267159995" width="2.6685304900739997" height="17.79020326716" rx="1.3342652450369998" ry="1.3342652450369998" fill="#86BE81" />
<rect x="657.98568606892" y="52.502459752434994" width="17.79020326716" height="17.79020326716" rx="1.3342652450369998" ry="1.3342652450369998" fill="#037065" />
<rect x="657.98568606892" y="52.502459752434994" width="17.79020326716" height="2.6685304900739997" rx="1.3342652450369998" ry="1.3342652450369998" fill="#053F3A" />
<rect x="639.7344561927025" y="33.790203267159995" width="17.79020326716" height="17.79020326716" rx="1.3342652450369998" ry="1.3342652450369998" fill="#079E7C" />
<rect x="654.8561289697885" y="33.790203267159995" width="2.6685304900739997" height="17.79020326716" rx="1.3342652450369998" ry="1.3342652450369998" fill="#037065" />
<rect x="16.0" y="106.08286628675499" width="64.09260324" height="17.919132" rx="3.5838264000000004" ry="3.5838264000000004" fill="#0E7695" />
<text x="27.265621264" y="115.04243228675499" font-size="8.0636094" text-anchor="end" dominant-baseline="central" font-family="Roboto, sans-serif" fill="white">1</text>
<text x="34.015621264" y="115.04243228675499" font-size="8.0636094" text-anchor="start" dominant-baseline="central" font-family="Roboto, sans-serif" fill="white">LOWER</text>
<circle cx="359.92708932249997" cy="115.43899452939249" r="8.379836599927499" fill="#1D3052" />
<rect x="351.03198768891997" y="88.292663019595" width="17.79020326716" height="17.79020326716" rx="1.3342652450369998" ry="1.3342652450369998" fill="#7AC0C6" />
<rect x="351.03198768891997" y="103.41433579668099" width="17.79020326716" height="2.6685304900739997" rx="1.3342652450369998" ry="1.3342652450369998" fill="#05A1B0" />
<rect x="369.2832175651375" y="106.08286628675499" width="17.79020326716" height="17.79020326716" rx="1.3342652450369998" ry="1.3342652450369998" fill="#05A1B0" />
<rect x="369.2832175651375" y="106.08286628675499" width="2.6685304900739997" height="17.79020326716" rx="1.3342652450369998" ry="1.3342652450369998" fill="#0E7695" />
<rect x="351.03198768891997" y="124.79512277203" width="17.79020326716" height="17.79020326716" rx="1.3342652450369998" ry="1.3342652450369998" fill="#0E7695" />
<rect x="351.03198768891997" y="124.79512277203" width="17.79020326716" height="2.6685304900739997" rx="1.3342652450369998" ry="1.3342652450369998" fill="#1D3052" />
<rect x="332.78075781270246" y="106.08286628675499" width="17.79020326716" height="17.79020326716" rx="1.3342652450369998" ry="1.3342652450369998" fill="#A6D7DE" />
<rect x="347.9024305897885" y="106.08286628675499" width="2.6685304900739997" height="17.79020326716" rx="1.3342652450369998" ry="1.3342652450369998" fill="#7AC0C6" />
<circle cx="287.6886647275" cy="115.43899452939249" r="8.379836599927499" fill="#1D3052" />
<rect x="278.79356309392" y="88.292663019595" width="17.79020326716" height="17.79020326716" rx="1.3342652450369998" ry="1.3342652450369998" fill="#7AC0C6" />
<rect x="278.79356309392" y="103.41433579668099" width="17.79020326716" height="2.6685304900739997" rx="1.3342652450369998" ry="1.3342652450369998" fill="#05A1B0" />
<rect x="297.0447929701375" y="106.08286628675499" width="17.79020326716" height="17.79020326716" rx="1.3342652450369998" ry="1.3342652450369998" fill="#05A1B0" />
<rect x="297.0447929701375" y="106.08286628675499" width="2.6685304900739997" height="17.79020326716" rx="1.3342652450369998" ry="1.3342652450369998" fill="#0E7695" />
<rect x="278.79356309392" y="124.79512277203" width="17.79020326716" height="17.79020326716" rx="1.3342652450369998" ry="1.3342652450369998" fill="#0E7695" />
<rect x="278.79356309392" y="124.79512277203" width="17.79020326716" height="2.6685304900739997" rx="1.3342652450369998" ry="1.3342652450369998" fill="#1D3052" />
<rect x="260.5423332177025" y="106.08286628675499" width="17.79020326716" height="17.79020326716" rx="1.3342652450369998" ry="1.3342652450369998" fill="#A6D7DE" />
<rect x="275.6640059947885" y="106.08286628675499" width="2.6685304900739997" height="17.79020326716" rx="1.3342652450369998" ry="1.3342652450369998" fill="#7AC0C6" />
<circle cx="215.45024013249997" cy="115.43899452939249" r="8.379836599927499" fill="#1D3052" />
<rect x="206.55513849891997" y="88.292663019595" width="17.79020326716" height="17.79020326716" rx="1.3342652450369998" ry="1.3342652450369998" fill="#7AC0C6" />
<rect x="206.55513849891997" y="103.41433579668099" width="17.79020326716" height="2.6685304900739997" rx="1.3342652450369998" ry="1.3342652450369998" fill="#05A1B0" />
<rect x="224.80636837513748" y="106.08286628675499" width="17.79020326716" height="17.79020326716" rx="1.3342652450369998" ry="1.3342652450369998" fill="#05A1B0" />
<rect x="224.80636837513748" y="106.08286628675499" width="2.6685304900739997" height="17.79020326716" rx="1.3342652450369998" ry="1.3342652450369998" fill="#0E7695" />
<rect x="206.55513849891997" y="124.79512277203" width="17.79020326716" height="17.79020326716" rx="1.3342652450369998" ry="1.3342652450369998" fill="#0E7695" />
<rect x="206.55513849891997" y="124.79512277203" width="17.79020326716" height="2.6685304900739997" rx="1.3342652450369998" ry="1.3342652450369998" fill="#1D3052" />
<rect x="188.3039086227025" y="106.08286628675499" width="17.79020326716" height="17.79020326716" rx="1.3342652450369998" ry="1.3342652450369998" fill="#A6D7DE" />
<rect x="203.42558139978848" y="106.08286628675499" width="2.6685304900739997" height="17.79020326716" rx="1.3342652450369998" ry="1.3342652450369998" fill="#7AC0C6" />
<circle cx="143.2118155375" cy="115.43899452939249" r="8.379836599927499" fill="#1D3052" />
<rect x="134.31671390392" y="88.292663019595" width="17.79020326716" height="17.79020326716" rx="1.3342652450369998" ry="1.3342652450369998" fill="#7AC0C6" />
<rect x="134.31671390392" y="103.41433579668099" width="17.79020326716" height="2.6685304900739997" rx="1.3342652450369998" ry="1.3342652450369998" fill="#05A1B0" />
<rect x="152.5679437801375" y="106.08286628675499" width="17.79020326716" height="17.79020326716" rx="1.3342652450369998" ry="1.3342652450369998" fill="#05A1B0" />
<rect x="152.5679437801375" y="106.08286628675499" width="2.6685304900739997" height="17.79020326716" rx="1.3342652450369998" ry="1.3342652450369998" fill="#0E7695" />
<rect x="134.31671390392" y="124.79512277203" width="17.79020326716" height="17.79020326716" rx="1.3342652450369998" ry="1.3342652450369998" fill="#0E7695" />
<rect x="134.31671390392" y="124.79512277203" width="17.79020326716" height="2.6685304900739997" rx="1.3342652450369998" ry="1.3342652450369998" fill="#1D3052" />
<rect x="116.0654840277025" y="106.08286628675499" width="17.79020326716" height="17.79020326716" rx="1.3342652450369998" ry="1.3342652450369998" fill="#A6D7DE" />
<rect x="131.1871568047885" y="106.08286628675499" width="2.6685304900739997" height="17.79020326716" rx="1.3342652450369998" ry="1.3342652450369998" fill="#7AC0C6" />
<circle cx="450.1655139175" cy="115.43899452939249" r="8.379836599927499" fill="#1D3052" />
<rect x="441.27041228392" y="88.292663019595" width="17.79020326716" height="17.79020326716" rx="1.3342652450369998" ry="1.3342652450369998" fill="#7AC0C6" />
<rect x="441.27041228392" y="103.41433579668099" width="17.79020326716" height="2.6685304900739997" rx="1.3342652450369998" ry="1.3342652450369998" fill="#05A1B0" />
<rect x="459.5216421601375" y="106.08286628675499" width="17.79020326716" height="17.79020326716" rx="1.3342652450369998" ry="1.3342652450369998" fill="#A6D7DE" />
<rect x="459.5216421601375" y="106.08286628675499" width="2.6685304900739997" height="17.79020326716" rx="1.3342652450369998" ry="1.3342652450369998" fill="#7AC0C6" />
<rect x="441.27041228392" y="124.79512277203" width="17.79020326716" height="17.79020326716" rx="1.3342652450369998" ry="1.3342652450369998" fill="#0E7695" />
<rect x="441.27041228392" y="124.79512277203" width="17.79020326716" height="2.6685304900739997" rx="1.3342652450369998" ry="1.3342652450369998" fill="#1D3052" />
<rect x="423.0191824077025" y="106.08286628675499" width="17.79020326716" height="17.79020326716" rx="1.3342652450369998" ry="1.3342652450369998" fill="#05A1B0" />
<rect x="438.1408551847885" y="106.08286628675499" width="2.6685304900739997" height="17.79020326716" rx="1.3342652450369998" ry="1.3342652450369998" fill="#0E7695" />
<circle cx="522.4039385125" cy="115.43899452939249" r="8.379836599927499" fill="#1D3052" />
<rect x="513.50883687892" y="88.292663019595" width="17.79020326716" height="17.79020326716" rx="1.3342652450369998" ry="1.3342652450369998" fill="#7AC0C6" />
<rect x="513.50883687892" y="103.41433579668099" width="17.79020326716" height="2.6685304900739997" rx="1.3342652450369998" ry="1.3342652450369998" fill="#05A1B0" />
<rect x="531.7600667551375" y="106.08286628675499" width="17.79020326716" height="17.79020326716" rx="1.3342652450369998" ry="1.3342652450369998" fill="#A6D7DE" />
<rect x="531.7600667551375" y="106.08286628675499" width="2.6685304900739997" height="17.79020326716" rx="1.3342652450369998" ry="1.3342652450369998" fill="#7AC0C6" />
<rect x="513.50883687892" y="124.79512277203" width="17.79020326716" height="17.79020326716" rx="1.3342652450369998" ry="1.3342652450369998" fill="#0E7695" />
<rect x="513.50883687892" y="124.79512277203" width="17.79020326716" height="2.6685304900739997" rx="1.3342652450369998" ry="1.3342652450369998" fill="#1D3052" />
<rect x="495.25760700270246" y="106.08286628675499" width="17.79020326716" height="17.79020326716" rx="1.3342652450369998" ry="1.3342652450369998" fill="#05A1B0" />
<rect x="510.3792797797885" y="106.08286628675499" width="2.6685304900739997" height="17.79020326716" rx="1.3342652450369998" ry="1.3342652450369998" fill="#0E7695" />
<circle cx="594.6423631075" cy="115.43899452939249" r="8.379836599927499" fill="#1D3052" />
<rect x="585.74726147392" y="88.292663019595" width="17.79020326716" height="17.79020326716" rx="1.3342652450369998" ry="1.3342652450369998" fill="#7AC0C6" />
<rect x="585.74726147392" y="103.41433579668099" width="17.79020326716" height="2.6685304900739997" rx="1.3342652450369998" ry="1.3342652450369998" fill="#05A1B0" />
<rect x="603.9984913501376" y="106.08286628675499" width="17.79020326716" height="17.79020326716" rx="1.3342652450369998" ry="1.3342652450369998" fill="#A6D7DE" />
<rect x="603.9984913501376" y="106.08286628675499" width="2.6685304900739997" height="17.79020326716" rx="1.3342652450369998" ry="1.3342652450369998" fill="#7AC0C6" />
<rect x="585.74726147392" y="124.79512277203" width="17.79020326716" height="17.79020326716" rx="1.3342652450369998" ry="1.3342652450369998" fill="#0E7695" />
<rect x="585.74726147392" y="124.79512277203" width="17.79020326716" height="2.6685304900739997" rx="1.3342652450369998" ry="1.3342652450369998" fill="#1D3052" />
<rect x="567.4960315977025" y="106.08286628675499" width="17.79020326716" height="17.79020326716" rx="1.3342652450369998" ry="1.3342652450369998" fill="#05A1B0" />
<rect x="582.6177043747886" y="106.08286628675499" width="2.6685304900739997" height="17.79020326716" rx="1.3342652450369998" ry="1.3342652450369998" fill="#0E7695" />
<circle cx="666.8807877025" cy="115.43899452939249" r="8.379836599927499" fill="#1D3052" />
<rect x="657.98568606892" y="88.292663019595" width="17.79020326716" height="17.79020326716" rx="1.3342652450369998" ry="1.3342652450369998" fill="#7AC0C6" />
<rect x="657.98568606892" y="103.41433579668099" width="17.79020326716" height="2.6685304900739997" rx="1.3342652450369998" ry="1.3342652450369998" fill="#05A1B0" />
<rect x="676.2369159451375" y="106.08286628675499" width="17.79020326716" height="17.79020326716" rx="1.3342652450369998" ry="1.3342652450369998" fill="#A6D7DE" />
<rect x="676.2369159451375" y="106.08286628675499" width="2.6685304900739997" height="17.79020326716" rx="1.3342652450369998" ry="1.3342652450369998" fill="#7AC0C6" />
<rect x="657.98568606892" y="124.79512277203" width="17.79020326716" height="17.79020326716" rx="1.3342652450369998" ry="1.3342652450369998" fill="#0E7695" />
<rect x="657.98568606892" y="124.79512277203" width="17.79020326716" height="2.6685304900739997" rx="1.3342652450369998" ry="1.3342652450369998" fill="#1D3052" />
<rect x="639.7344561927025" y="106.08286628675499" width="17.79020326716" height="17.79020326716" rx="1.3342652450369998" ry="1.3342652450369998" fill="#05A1B0" />
<rect x="654.8561289697885" y="106.08286628675499" width="2.6685304900739997" height="17.79020326716" rx="1.3342652450369998" ry="1.3342652450369998" fill="#0E7695" />
<rect x="16.0" y="270.34588896409" width="64.09260324" height="17.919132" rx="3.5838264000000004" ry="3.5838264000000004" fill="#8673B5" />
<text x="27.265621264" y="279.30545496409" font-size="8.0636094" text-anchor="end" dominant-baseline="central" font-family="Roboto, sans-serif" fill="white">2</text>
<text x="34.015621264" y="279.30545496409" font-size="8.0636094" text-anchor="start" dominant-baseline="central" font-family="Roboto, sans-serif" fill="white">RAISE</text>
<circle cx="359.92708932249997" cy="279.7020172067275" r="8.379836599927499" fill="#31164F" />
<rect x="351.03198768891997" y="252.55568569693" width="17.79020326716" height="17.79020326716" rx="1.3342652450369998" ry="1.3342652450369998" fill="#A69DC6" />
<rect x="351.03198768891997" y="267.67735847401605" width="17.79020326716" height="2.6685304900739997" rx="1.3342652450369998" ry="1.3342652450369998" fill="#8673B5" />
<rect x="369.2832175651375" y="270.34588896409" width="17.79020326716" height="17.79020326716" rx="1.3342652450369998" ry="1.3342652450369998" fill="#8673B5" />
<rect x="369.2832175651375" y="270.34588896409" width="2.6685304900739997" height="17.79020326716" rx="1.3342652450369998" ry="1.3342652450369998" fill="#605181" />
<rect x="351.03198768891997" y="289.058145449365" width="17.79020326716" height="17.79020326716" rx="1.3342652450369998" ry="1.3342652450369998" fill="#605181" />
<rect x="351.03198768891997" y="289.058145449365" width="17.79020326716" height="2.6685304900739997" rx="1.3342652450369998" ry="1.3342652450369998" fill="#31164F" />
<rect x="332.78075781270246" y="270.34588896409" width="17.79020326716" height="17.79020326716" rx="1.3342652450369998" ry="1.3342652450369998" fill="#CDC5EA" />
<rect x="347.9024305897885" y="270.34588896409" width="2.6685304900739997" height="17.79020326716" rx="1.3342652450369998" ry="1.3342652450369998" fill="#A69DC6" />
<circle cx="287.6886647275" cy="279.7020172067275" r="8.379836599927499" fill="#31164F" />
<rect x="278.79356309392" y="252.55568569693" width="17.79020326716" height="17.79020326716" rx="1.3342652450369998" ry="1.3342652450369998" fill="#A69DC6" />
<rect x="278.79356309392" y="267.67735847401605" width="17.79020326716" height="2.6685304900739997" rx="1.3342652450369998" ry="1.3342652450369998" fill="#8673B5" />
<rect x="297.0447929701375" y="270.34588896409" width="17.79020326716" height="17.79020326716" rx="1.3342652450369998" ry="1.3342652450369998" fill="#8673B5" />
<rect x="297.0447929701375" y="270.34588896409" width="2.6685304900739997" height="17.79020326716" rx="1.3342652450369998" ry="1.3342652450369998" fill="#605181" />
<rect x="278.79356309392" y="289.058145449365" width="17.79020326716" height="17.79020326716" rx="1.3342652450369998" ry="1.3342652450369998" fill="#605181" />
<rect x="278.79356309392" y="289.058145449365" width="17.79020326716" height="2.6685304900739997" rx="1.3342652450369998" ry="1.3342652450369998" fill="#31164F" />
<rect x="260.5423332177025" y="270.34588896409" width="17.79020326716" height="17.79020326716" rx="1.3342652450369998" ry="1.3342652450369998" fill="#CDC5EA" />
<rect x="275.6640059947885" y="270.34588896409" width="2.6685304900739997" height="17.79020326716" rx="1.3342652450369998" ry="1.3342652450369998" fill="#A69DC6" />
<circle cx="215.45024013249997" cy="279.7020172067275" r="8.379836599927499" fill="#31164F" />
<rect x="206.55513849891997" y="252.55568569693" width="17.79020326716" height="17.79020326716" rx="1.3342652450369998" ry="1.3342652450369998" fill="#A69DC6" />
<rect x="206.55513849891997" y="267.67735847401605" width="17.79020326716" height="2.6685304900739997" rx="1.3342652450369998" ry="1.3342652450369998" fill="#8673B5" />
<rect x="224.80636837513748" y="270.34588896409" width="17.79020326716" height="17.79020326716" rx="1.3342652450369998" ry="1.3342652450369998" fill="#8673B5" />
<rect x="224.80636837513748" y="270.34588896409" width="2.6685304900739997" height="17.79020326716" rx="1.3342652450369998" ry="1.3342652450369998" fill="#605181" />
<rect x="206.55513849891997" y="289.058145449365" width="17.79020326716" height="17.79020326716" rx="1.3342652450369998" ry="1.3342652450369998" fill="#605181" />
<rect x="206.55513849891997" y="289.058145449365" width="17.79020326716" height="2.6685304900739997" rx="1.3342652450369998" ry="1.3342652450369998" fill="#31164F" />
<rect x="188.3039086227025" y="270.34588896409" width="17.79020326716" height="17.79020326716" rx="1.3342652450369998" ry="1.3342652450369998" fill="#CDC5EA" />
<rect x="203.42558139978848" y="270.34588896409" width="2.6685304900739997" height="17.79020326716" rx="1.3342652450369998" ry="1.3342652450369998" fill="#A69DC6" />
<circle cx="143.2118155375" cy="279.7020172067275" r="8.379836599927499" fill="#31164F" />
<rect x="134.31671390392" y="252.55568569693" width="17.79020326716" height="17.79020326716" rx="1.3342652450369998" ry="1.3342652450369998" fill="#A69DC6" />
<rect x="134.31671390392" y="267.67735847401605" width="17.79020326716" height="2.6685304900739997" rx="1.3342652450369998" ry="1.3342652450369998" fill="#8673B5" />
<rect x="152.5679437801375" y="270.34588896409" width="17.79020326716" height="17.79020326716" rx="1.3342652450369998" ry="1.3342652450369998" fill="#8673B5" />
<rect x="152.5679437801375" y="270.34588896409" width="2.6685304900739997" height="17.79020326716" rx="1.3342652450369998" ry="1.3342652450369998" fill="#605181" />
<rect x="134.31671390392" y="289.058145449365" width="17.79020326716" height="17.79020326716" rx="1.3342652450369998" ry="1.3342652450369998" fill="#605181" />
<rect x="134.31671390392" y="289.058145449365" width="17.79020326716" height="2.6685304900739997" rx="1.3342652450369998" ry="1.3342652450369998" fill="#31164F" />
<rect x="116.0654840277025" y="270.34588896409" width="17.79020326716" height="17.79020326716" rx="1.3342652450369998" ry="1.3342652450369998" fill="#CDC5EA" />
<rect x="131.1871568047885" y="270.34588896409" width="2.6685304900739997" height="17.79020326716" rx="1.3342652450369998" ry="1.3342652450369998" fill="#A69DC6" />
<circle cx="450.1655139175" cy="279.7020172067275" r="8.379836599927499" fill="#31164F" />
<rect x="441.27041228392" y="252.55568569693" width="17.79020326716" height="17.79020326716" rx="1.3342652450369998" ry="1.3342652450369998" fill="#A69DC6" />
<rect x="441.27041228392" y="267.67735847401605" width="17.79020326716" height="2.6685304900739997" rx="1.3342652450369998" ry="1.3342652450369998" fill="#8673B5" />
<rect x="459.5216421601375" y="270.34588896409" width="17.79020326716" height="17.79020326716" rx="1.3342652450369998" ry="1.3342652450369998" fill="#CDC5EA" />
<rect x="459.5216421601375" y="270.34588896409" width="2.6685304900739997" height="17.79020326716" rx="1.3342652450369998" ry="1.3342652450369998" fill="#A69DC6" />
<rect x="441.27041228392" y="289.058145449365" width="17.79020326716" height="17.79020326716" rx="1.3342652450369998" ry="1.3342652450369998" fill="#605181" />
<rect x="441.27041228392" y="289.058145449365" width="17.79020326716" height="2.6685304900739997" rx="1.3342652450369998" ry="1.3342652450369998" fill="#31164F" />
<rect x="423.0191824077025" y="270.34588896409" width="17.79020326716" height="17.79020326716" rx="1.3342652450369998" ry="1.3342652450369998" fill="#8673B5" />
<rect x="438.1408551847885" y="270.34588896409" width="2.6685304900739997" height="17.79020326716" rx="1.3342652450369998" ry="1.3342652450369998" fill="#605181" />
<circle cx="522.4039385125" cy="279.7020172067275" r="8.379836599927499" fill="#31164F" />
<rect x="513.50883687892" y="252.55568569693" width="17.79020326716" height="17.79020326716" rx="1.3342652450369998" ry="1.3342652450369998" fill="#A69DC6" />
<rect x="513.50883687892" y="267.67735847401605" width="17.79020326716" height="2.6685304900739997" rx="1.3342652450369998" ry="1.3342652450369998" fill="#8673B5" />
<rect x="531.7600667551375" y="270.34588896409" width="17.79020326716" height="17.79020326716" rx="1.3342652450369998" ry="1.3342652450369998" fill="#CDC5EA" />
<rect x="531.7600667551375" y="270.34588896409" width="2.6685304900739997" height="17.79020326716" rx="1.3342652450369998" ry="1.3342652450369998" fill="#A69DC6" />
<rect x="513.50883687892" y="289.058145449365" width="17.79020326716" height="17.79020326716" rx="1.3342652450369998" ry="1.3342652450369998" fill="#605181" />
<rect x="513.50883687892" y="289.058145449365" width="17.79020326716" height="2.6685304900739997" rx="1.3342652450369998" ry="1.3342652450369998" fill="#31164F" />
<rect x="495.25760700270246" y="270.34588896409" width="17.79020326716" height="17.79020326716" rx="1.3342652450369998" ry="1.3342652450369998" fill="#8673B5" />
<rect x="510.3792797797885" y="270.34588896409" width="2.6685304900739997" height="17.79020326716" rx="1.3342652450369998" ry="1.3342652450369998" fill="#605181" />
<circle cx="594.6423631075" cy="279.7020172067275" r="8.379836599927499" fill="#31164F" />
<rect x="585.74726147392" y="252.55568569693" width="17.79020326716" height="17.79020326716" rx="1.3342652450369998" ry="1.3342652450369998" fill="#A69DC6" />
<rect x="585.74726147392" y="267.67735847401605" width="17.79020326716" height="2.6685304900739997" rx="1.3342652450369998" ry="1.3342652450369998" fill="#8673B5" />
<rect x="603.9984913501376" y="270.34588896409" width="17.79020326716" height="17.79020326716" rx="1.3342652450369998" ry="1.3342652450369998" fill="#CDC5EA" />
<rect x="603.9984913501376" y="270.34588896409" width="2.6685304900739997" height="17.79020326716" rx="1.3342652450369998" ry="1.3342652450369998" fill="#A69DC6" />
<rect x="585.74726147392" y="289.058145449365" width="17.79020326716" height="17.79020326716" rx="1.3342652450369998" ry="1.3342652450369998" fill="#605181" />
<rect x="585.74726147392" y="289.058145449365" width="17.79020326716" height="2.6685304900739997" rx="1.3342652450369998" ry="1.3342652450369998" fill="#31164F" />
<rect x="567.4960315977025" y="270.34588896409" width="17.79020326716" height="17.79020326716" rx="1.3342652450369998" ry="1.3342652450369998" fill="#8673B5" />
<rect x="582.6177043747886" y="270.34588896409" width="2.6685304900739997" height="17.79020326716" rx="1.3342652450369998" ry="1.3342652450369998" fill="#605181" />
<circle cx="666.8807877025" cy="279.7020172067275" r="8.379836599927499" fill="#31164F" />
<rect x="657.98568606892" y="252.55568569693" width="17.79020326716" height="17.79020326716" rx="1.3342652450369998" ry="1.3342652450369998" fill="#A69DC6" />
<rect x="657.98568606892" y="267.67735847401605" width="17.79020326716" height="2.6685304900739997" rx="1.3342652450369998" ry="1.3342652450369998" fill="#8673B5" />
<rect x="676.2369159451375" y="270.34588896409" width="17.79020326716" height="17.79020326716" rx="1.3342652450369998" ry="1.3342652450369998" fill="#CDC5EA" />
<rect x="676.2369159451375" y="270.34588896409" width="2.6685304900739997" height="17.79020326716" rx="1.3342652450369998" ry="1.3342652450369998" fill="#A69DC6" />
<rect x="657.98568606892" y="289.058145449365" width="17.79020326716" height="17.79020326716" rx="1.3342652450369998" ry="1.3342652450369998" fill="#605181" />
<rect x="657.98568606892" y="289.058145449365" width="17.79020326716" height="2.6685304900739997" rx="1.3342652450369998" ry="1.3342652450369998" fill="#31164F" />
<rect x="639.7344561927025" y="270.34588896409" width="17.79020326716" height="17.79020326716" rx="1.3342652450369998" ry="1.3342652450369998" fill="#8673B5" />
<rect x="654.8561289697885" y="270.34588896409" width="2.6685304900739997" height="17.79020326716" rx="1.3342652450369998" ry="1.3342652450369998" fill="#605181" />
<rect x="16.0" y="164.90974706533478" width="64.09260324" height="17.919132" rx="3.5838264000000004" ry="3.5838264000000004" fill="black" />
<text x="22.75" y="173.86931306533478" font-size="8.0636094" text-anchor="start" dominant-baseline="central" font-family="Roboto, sans-serif" fill="white">THUMBS</text>
<path d="M319.3132629394531 163.9954071044922C319.3132629394531 163.06149291992188 319.69586181640625 162.16836547851562 320.37188720703125 161.5240478515625C321.0479431152344 160.87973022460938 321.9584045410156 160.5404815673828 322.8912353515625 160.5853271484375H337.40081787109375C338.3336486816406 160.5404815673828 339.2441101074219 160.87973022460938 339.920166015625 161.5240478515625C340.59619140625 162.16836547851562 340.978759765625 163.06149291992188 340.978759765625 163.9954071044922L344.2071533203125 231.14561462402344C344.2071533203125 232.96737670898438 342.7767639160156 234.46820068359375 340.95709228515625 234.55567932128906H319.3349609375C317.5152893066406 234.46820068359375 316.08489990234375 232.96737670898438 316.08489990234375 231.14561462402344L317.3558044433594 204.7108917236328L326.5909729003906 204.3079071044922C327.4829406738281 204.3079071044922 328.336181640625 203.94354248046875 328.9529724121094 203.29922485351562C329.5697937011719 202.65492248535156 329.8966064453125 201.78660583496094 329.85772705078125 200.89549255371094V191.6312713623047C329.85772705078125 189.82537841796875 328.3937683105469 188.3614044189453 326.5878601074219 188.3614044189453H318.1418151855469ZM322.4833984375 168.64207458496094 322.0379943847656 180.33384704589844C322.0379943847656 181.98733520507812 323.3450012207031 183.34507751464844 324.997314453125 183.40802001953125H335.29473876953125C336.947021484375 183.34507751464844 338.2540588378906 181.98733520507812 338.2540588378906 180.33384704589844L337.80865478515625 168.64207458496094C337.80865478515625 167.80584716796875 337.4682312011719 167.00564575195312 336.86578369140625 166.4257049560547C336.2633361816406 165.84576416015625 335.45074462890625 165.5360565185547 334.6151123046875 165.56788635253906H325.67694091796875C324.84130859375 165.5360565185547 324.0287170410156 165.84576416015625 323.42626953125 166.4257049560547C322.8238220214844 167.00564575195312 322.4833984375 167.80584716796875 322.4833984375 168.64207458496094Z" fill="#0E7695" />
<path fill="#6F768B" d="M 273.60011203436494 165.61088491884277 A 2.14261152888958 2.14261152888958 0 0 1 275.7427235632545 163.4682733899532 L 314.30973108326697 163.4682733899532 A 2.14261152888958 2.14261152888958 0 0 1 316.3494512848851 165.60841299719914 L 315.44161048366414 184.4915016625946 A 2.14261152888958 2.14261152888958 0 0 1 313.1961076275031 186.63164126984054 L 275.7427235632545 186.63164126984054 A 2.14261152888958 2.14261152888958 0 0 1 273.60011203436494 184.48902974095097 Z" />
<path fill="#1D3052" d="M 286.3707454499272 191.6312789123483 A 2.1166902917445602 2.1166902917445602 0 0 1 288.48743574167173 189.51458862060375 L 326.5878609930739 189.51458862060375 A 2.1166902917445602 2.1166902917445602 0 0 1 328.7045512848184 191.6312789123483 L 328.7045512848184 200.94471619602436 A 2.1166902917445602 2.1166902917445602 0 0 1 326.5898733487901 203.15368334315926 L 288.4854233859555 204.8164229779011 A 2.1166902917445602 2.1166902917445602 0 0 1 286.3707454499272 202.7920095415469 Z" />
<path fill="#6F768B" d="M 343.9490046756608 165.74165863223277 A 2.2760110663920003 2.2760110663920003 0 0 1 346.1157183746355 163.4682733899532 L 387.0839175696915 163.4682733899532 A 2.2760110663920003 2.2760110663920003 0 0 1 389.3599286360835 165.74428445634518 L 389.3599286360835 184.53596556860737 A 2.2760110663920003 2.2760110663920003 0 0 1 387.0839175696915 186.81197663499935 L 347.2380117998781 186.81197663499935 A 2.2760110663920003 2.2760110663920003 0 0 1 344.8527033660688 184.53859139271978 Z" />
<path fill="#6F768B" d="M 345.20580268764263 191.88305728145664 A 2.1906606514023 2.1906606514023 0 0 1 347.2912646229058 189.69492398576256 L 386.7231563481472 189.69492398576256 A 2.1906606514023 2.1906606514023 0 0 1 388.9138169995495 191.88558463716487 L 388.9138169995495 210.9337890178073 A 2.1906606514023 2.1906606514023 0 0 1 386.7231563481472 213.1244496692096 L 348.4176841269177 213.1244496692096 A 2.1906606514023 2.1906606514023 0 0 1 346.1218247593763 210.93631637351552 Z" />
<path fill="#1D3052" d="M 323.63739089559 168.64290786665518 A 1.9232293511012402 1.9232293511012402 0 0 1 325.63383302107786 166.7210725390051 L 334.65821689932216 166.7210725390051 A 1.9232293511012402 1.9232293511012402 0 0 1 336.65465902481003 168.64290786665518 L 337.09999635329865 180.3330127394804 A 1.9232293511012402 1.9232293511012402 0 0 1 335.2499797765841 182.2548480671305 L 325.0420701438159 182.2548480671305 A 1.9232293511012402 1.9232293511012402 0 0 1 323.19205356710137 180.3330127394804 Z" />
<path d="M469.11383056640625 163.9954071044922C469.11383056640625 163.06149291992188 469.49639892578125 162.16836547851562 470.1724548339844 161.5240478515625C470.8484802246094 160.87973022460938 471.75897216796875 160.5404815673828 472.6918029785156 160.5853271484375H487.20135498046875C488.1341857910156 160.5404815673828 489.044677734375 160.87973022460938 489.720703125 161.5240478515625C490.3967590332031 162.16836547851562 490.7793273925781 163.06149291992188 490.7793273925781 163.9954071044922L491.9507751464844 188.3614044189453H483.5047302246094C481.6988525390625 188.3614044189453 480.23486328125 189.82537841796875 480.23486328125 191.6312713623047V200.89549255371094C480.19598388671875 201.78660583496094 480.5228271484375 202.65492248535156 481.1396179199219 203.29922485351562C481.7564392089844 203.94354248046875 482.60968017578125 204.3079071044922 483.50164794921875 204.3079071044922L492.7367858886719 204.7108917236328L494.0076904296875 231.14561462402344C494.0076904296875 232.96737670898438 492.5773010253906 234.46820068359375 490.75762939453125 234.55567932128906H469.1355285644531C467.31585693359375 234.46820068359375 465.8854675292969 232.96737670898438 465.8854675292969 231.14561462402344ZM472.2839660644531 168.64207458496094 471.83856201171875 180.33384704589844C471.83856201171875 181.98733520507812 473.14556884765625 183.34507751464844 474.7978515625 183.40802001953125H485.0953063964844C486.7475891113281 183.34507751464844 488.0545959472656 181.98733520507812 488.0545959472656 180.33384704589844L487.60919189453125 168.64207458496094C487.60919189453125 167.80584716796875 487.2687683105469 167.00564575195312 486.66632080078125 166.4257049560547C486.0638732910156 165.84576416015625 485.2513122558594 165.5360565185547 484.4156799316406 165.56788635253906H475.47747802734375C474.641845703125 165.5360565185547 473.82928466796875 165.84576416015625 473.2268371582031 166.4257049560547C472.6243591308594 167.00564575195312 472.2839660644531 167.80584716796875 472.2839660644531 168.64207458496094Z" fill="#0E7695" />
<path fill="#6F768B" d="M 493.7431519551149 165.60841299719914 A 2.14261152888958 2.14261152888958 0 0 1 495.78287215673305 163.4682733899532 L 534.3498796767456 163.4682733899532 A 2.14261152888958 2.14261152888958 0 0 1 536.4924912056351 165.61088491884277 L 536.4924912056351 184.48902974095097 A 2.14261152888958 2.14261152888958 0 0 1 534.3498796767456 186.63164126984054 L 496.8964956124969 186.63164126984054 A 2.14261152888958 2.14261152888958 0 0 1 494.6509927563359 184.4915016625946 Z" />
<path fill="#1D3052" d="M 481.3880519551816 191.6312789123483 A 2.1166902917445602 2.1166902917445602 0 0 1 483.5047422469261 189.51458862060375 L 521.6051674983282 189.51458862060375 A 2.1166902917445602 2.1166902917445602 0 0 1 523.7218577900728 191.6312789123483 L 523.7218577900728 202.7920095415469 A 2.1166902917445602 2.1166902917445602 0 0 1 521.6071798540445 204.8164229779011 L 483.5027298912099 203.15368334315926 A 2.1166902917445602 2.1166902917445602 0 0 1 481.3880519551816 200.94471619602436 Z" />
<path fill="#6F768B" d="M 420.73267460391656 165.74428445634518 A 2.2760110663920003 2.2760110663920003 0 0 1 423.0086856703086 163.4682733899532 L 463.9768848653646 163.4682733899532 A 2.2760110663920003 2.2760110663920003 0 0 1 466.1435985643393 165.74165863223277 L 465.2398998739313 184.53859139271978 A 2.2760110663920003 2.2760110663920003 0 0 1 462.85459144012196 186.81197663499935 L 423.0086856703086 186.81197663499935 A 2.2760110663920003 2.2760110663920003 0 0 1 420.73267460391656 184.53596556860737 Z" />
<path fill="#6F768B" d="M 421.1787862404505 191.88558463716487 A 2.1906606514023 2.1906606514023 0 0 1 423.3694468918528 189.69492398576256 L 462.8013386170942 189.69492398576256 A 2.1906606514023 2.1906606514023 0 0 1 464.8868005523574 191.88305728145664 L 463.9707784806237 210.93631637351552 A 2.1906606514023 2.1906606514023 0 0 1 461.6749191130823 213.1244496692096 L 423.3694468918528 213.1244496692096 A 2.1906606514023 2.1906606514023 0 0 1 421.1787862404505 210.9337890178073 Z" />
<path fill="#1D3052" d="M 473.43794421519 168.64290786665518 A 1.9232293511012402 1.9232293511012402 0 0 1 475.43438634067786 166.7210725390051 L 484.45877021892215 166.7210725390051 A 1.9232293511012402 1.9232293511012402 0 0 1 486.45521234441003 168.64290786665518 L 486.90054967289865 180.3330127394804 A 1.9232293511012402 1.9232293511012402 0 0 1 485.0505330961841 182.2548480671305 L 474.8426234634159 182.2548480671305 A 1.9232293511012402 1.9232293511012402 0 0 1 472.99260688670137 180.3330127394804 Z" />
</svg>