<?xml version="1.0" encoding="UTF-8"?>
<svg xmlns="http://www.w3.org/2000/svg" xmlns:xlink="http://www.w3.org/1999/xlink"
     width="155.0" height="46.0" viewBox="0 0 155.0 46.0">
<defs>
</defs>
<path d="M16.0,12.0 L68.0,12.0 L68.0,34.0 L16.0,34.0 A4.0,4.0,0,0,1,12.0,30.0 L12.0,16.0 A4.0,4.0,0,0,1,16.0,12.0 Z" fill="#B8BCC3" />
<rect x="12.0" y="12.0" width="131.0" height="22.0" rx="4.0" ry="4.0" fill="none" stroke="#6B7280" stroke-width="1.2" />
<text x="29.5" y="23.5" font-size="12.0" text-anchor="start" dominant-baseline="central" font-family="'Symbols Nerd Font', 'Nerd Fonts', monospace" fill="#FFF" opacity="1.0">󰌏 </text>
<text x="43.5" y="22.5" font-size="12.0" text-anchor="start" dominant-baseline="central" font-family="Roboto, sans-serif" fill="#FFF" opacity="1.0">0</text>
<text x="88.0" y="23.5" font-size="12.0" text-anchor="start" dominant-baseline="central" font-family="Roboto, sans-serif" fill="#4B5563" opacity="1.0">MY-TD</text>
<rect x="155.0" y="12.0" width="80.0" height="22.0" rx="4.0" ry="4.0" fill="#FAFAF6" stroke="#4B5563" stroke-opacity="0.18" />
<text x="190.5" y="23.5" font-size="12.0" text-anchor="start" dominant-baseline="central" font-family="Roboto, sans-serif" fill="#4B5563" opacity="1.0">—</text>
<rect x="241.0" y="12.0" width="80.0" height="22.0" rx="4.0" ry="4.0" fill="#FAFAF6" stroke="#4B5563" stroke-opacity="0.18" />
<text x="276.5" y="23.5" font-size="12.0" text-anchor="start" dominant-baseline="central" font-family="Roboto, sans-serif" fill="#4B5563" opacity="1.0">—</text>
<rect x="327.0" y="12.0" width="80.0" height="22.0" rx="4.0" ry="4.0" fill="#FAFAF6" stroke="#4B5563" stroke-opacity="0.18" />
<text x="362.5" y="23.5" font-size="12.0" text-anchor="start" dominant-baseline="central" font-family="Roboto, sans-serif" fill="#4B5563" opacity="1.0">—</text>
<rect x="413.0" y="12.0" width="80.0" height="22.0" rx="4.0" ry="4.0" fill="#FAFAF6" stroke="#4B5563" stroke-opacity="0.18" />
<text x="448.5" y="23.5" font-size="12.0" text-anchor="start" dominant-baseline="central" font-family="Roboto, sans-serif" fill="#4B5563" opacity="1.0">—</text>
<rect x="68.0" y="12.0" width="20.0" height="22.0" fill="#E11D48" fill-opacity="0.35" stroke="#E11D48" stroke-width="1.5" />
<rect x="123.0" y="12.0" width="20.0" height="22.0" fill="#E11D48" fill-opacity="0.35" stroke="#E11D48" stroke-width="1.5" />
</svg>