<?xml version="1.0" encoding="UTF-8"?>
<svg xmlns="http://www.w3.org/2000/svg" xmlns:xlink="http://www.w3.org/1999/xlink"
     width="824.0" height="194.17000000000002" viewBox="0 0 824.0 194.17000000000002">
<defs>
</defs>
<circle cx="97.0" cy="97.08500000000001" r="26.265" fill="#B8BCC3" />
<rect x="69.12" y="12.0" width="55.760000000000005" height="55.760000000000005" rx="4.182" ry="4.182" fill="#B8BCC3" />
<rect x="69.12" y="59.396" width="55.760000000000005" height="8.364" rx="4.182" ry="4.182" fill="#B8BCC3" />
<rect x="126.325" y="67.76" width="55.760000000000005" height="55.760000000000005" rx="4.182" ry="4.182" fill="#B8BCC3" />
<rect x="126.325" y="67.76" width="8.364" height="55.760000000000005" rx="4.182" ry="4.182" fill="#B8BCC3" />
<rect x="69.12" y="126.41000000000001" width="55.760000000000005" height="55.760000000000005" rx="4.182" ry="4.182" fill="#B8BCC3" />
<rect x="69.12" y="126.41000000000001" width="55.760000000000005" height="8.364" rx="4.182" ry="4.182" fill="#B8BCC3" />
<rect x="11.914999999999992" y="67.76" width="55.760000000000005" height="55.760000000000005" rx="4.182" ry="4.182" fill="#B8BCC3" />
<rect x="59.31099999999999" y="67.76" width="8.364" height="55.760000000000005" rx="4.182" ry="4.182" fill="#B8BCC3" />
<circle cx="307.0" cy="97.08500000000001" r="26.265" fill="#B8BCC3" />
<rect x="279.12" y="12.0" width="55.760000000000005" height="55.760000000000005" rx="4.182" ry="4.182" fill="#B8BCC3" />
<rect x="279.12" y="59.396" width="55.760000000000005" height="8.364" rx="4.182" ry="4.182" fill="#B8BCC3" />
<rect x="336.325" y="67.76" width="55.760000000000005" height="55.760000000000005" rx="4.182" ry="4.182" fill="#B8BCC3" />
<rect x="336.325" y="67.76" width="8.364" height="55.760000000000005" rx="4.182" ry="4.182" fill="#B8BCC3" />
<rect x="279.12" y="126.41000000000001" width="55.760000000000005" height="55.760000000000005" rx="4.182" ry="4.182" fill="#B8BCC3" />
<rect x="279.12" y="126.41000000000001" width="55.760000000000005" height="8.364" rx="4.182" ry="4.182" fill="#B8BCC3" />
<rect x="221.915" y="67.76" width="55.760000000000005" height="55.760000000000005" rx="4.182" ry="4.182" fill="#B8BCC3" />
<rect x="269.31100000000004" y="67.76" width="8.364" height="55.760000000000005" rx="4.182" ry="4.182" fill="#B8BCC3" />
<circle cx="517.0" cy="97.08500000000001" r="26.265" fill="#B8BCC3" />
<rect x="489.12" y="12.0" width="55.760000000000005" height="55.760000000000005" rx="4.182" ry="4.182" fill="#B8BCC3" />
<rect x="489.12" y="59.396" width="55.760000000000005" height="8.364" rx="4.182" ry="4.182" fill="#B8BCC3" />
<rect x="546.325" y="67.76" width="55.760000000000005" height="55.760000000000005" rx="4.182" ry="4.182" fill="#B8BCC3" />
<rect x="546.325" y="67.76" width="8.364" height="55.760000000000005" rx="4.182" ry="4.182" fill="#B8BCC3" />
<rect x="489.12" y="126.41000000000001" width="55.760000000000005" height="55.760000000000005" rx="4.182" ry="4.182" fill="#B8BCC3" />
<rect x="489.12" y="126.41000000000001" width="55.760000000000005" height="8.364" rx="4.182" ry="4.182" fill="#B8BCC3" />
<rect x="431.91499999999996" y="67.76" width="55.760000000000005" height="55.760000000000005" rx="4.182" ry="4.182" fill="#B8BCC3" />
<rect x="479.311" y="67.76" width="8.364" height="55.760000000000005" rx="4.182" ry="4.182" fill="#B8BCC3" />
<circle cx="727.0" cy="97.08500000000001" r="26.265" fill="#B8BCC3" />
<rect x="699.12" y="12.0" width="55.760000000000005" height="55.760000000000005" rx="4.182" ry="4.182" fill="#B8BCC3" />
<rect x="699.12" y="59.396" width="55.760000000000005" height="8.364" rx="4.182" ry="4.182" fill="#B8BCC3" />
<rect x="756.325" y="67.76" width="55.760000000000005" height="55.760000000000005" rx="4.182" ry="4.182" fill="#B8BCC3" />
<rect x="756.325" y="67.76" width="8.364" height="55.760000000000005" rx="4.182" ry="4.182" fill="#B8BCC3" />
<rect x="699.12" y="126.41000000000001" width="55.760000000000005" height="55.760000000000005" rx="4.182" ry="4.182" fill="#B8BCC3" />
<rect x="699.12" y="126.41000000000001" width="55.760000000000005" height="8.364" rx="4.182" ry="4.182" fill="#B8BCC3" />
<rect x="641.915" y="67.76" width="55.760000000000005" height="55.760000000000005" rx="4.182" ry="4.182" fill="#B8BCC3" />
<rect x="689.3109999999999" y="67.76" width="8.364" height="55.760000000000005" rx="4.182" ry="4.182" fill="#B8BCC3" />
<rect x="182.0" y="12.0" width="40.0" height="170.17000000000002" fill="#E11D48" fill-opacity="0.35" stroke="#E11D48" stroke-width="1.5" />
<rect x="392.0" y="12.0" width="40.0" height="170.17000000000002" fill="#E11D48" fill-opacity="0.35" stroke="#E11D48" stroke-width="1.5" />
<rect x="602.0" y="12.0" width="40.0" height="170.17000000000002" fill="#E11D48" fill-opacity="0.35" stroke="#E11D48" stroke-width="1.5" />
</svg>