<?xml version="1.0" encoding="UTF-8"?>
<svg xmlns="http://www.w3.org/2000/svg" xmlns:xlink="http://www.w3.org/1999/xlink"
     width="808.0" height="208.0" viewBox="0 0 808.0 208.0">
<defs>
</defs>
<path fill="#B8BCC3" d="M 113.15424551003966 23.191693391175143 A 7.199999999999999 7.199999999999999 0 0 1 120.7 16.0 L 151.3 16.0 A 7.199999999999999 7.199999999999999 0 0 1 158.84575448996034 23.191693391175143 L 165.65424551003966 164.80830660882486 A 7.199999999999999 7.199999999999999 0 0 1 158.8 172.0 L 113.2 172.0 A 7.199999999999999 7.199999999999999 0 0 1 106.34575448996034 164.80830660882486 Z" />
<path fill="#B8BCC3" d="M 19.359999999999996 29.68 A 4.5600000000000005 4.5600000000000005 0 0 1 23.919999999999995 25.119999999999997 L 106.0 25.119999999999997 A 4.5600000000000005 4.5600000000000005 0 0 1 110.26535700854315 29.670470910530618 L 107.66264299145685 69.86682638676668 A 4.5600000000000005 4.5600000000000005 0 0 1 102.80799999999999 74.4172972972973 L 23.919999999999995 74.4172972972973 A 4.5600000000000005 4.5600000000000005 0 0 1 19.359999999999996 69.8572972972973 Z" />
<text x="31.06461538461538" y="49.76864864864864" font-size="12.24" text-anchor="start" dominant-baseline="central" font-family="'Roboto Black', 'Arial Black', sans-serif" fill="#FFFFFF" opacity="1.0">HOLD </text>
<text x="64.96" y="49.76864864864864" font-size="12.24" text-anchor="start" dominant-baseline="central" font-family="'DejaVu Sans Condensed', 'DejaVu Sans', 'Apple Symbols', sans-serif" fill="#7a828f" opacity="1.0">│ </text>
<text x="75.31692307692308" y="49.76864864864864" font-size="12.24" text-anchor="start" dominant-baseline="central" font-family="'Roboto Black', 'Arial Black', sans-serif" fill="#FFFFFF" opacity="1.0">TAP</text>
<path fill="#FFFFFF" d="M 39.928 84.55199999999999 A 4.464 4.464 0 0 1 44.391999999999996 80.088 L 129.208 80.088 A 4.464 4.464 0 0 1 133.672 84.55199999999999 L 133.672 108.711168 A 4.464 4.464 0 0 1 129.21316142763203 113.38977132141812 L 44.38683857236796 117.47245122403642 A 4.464 4.464 0 0 1 39.928 113.22305454545454 Z" />
<path fill="#B8BCC3" d="M 42.16 86.78399999999999 A 4.464 4.464 0 0 1 46.623999999999995 82.32 L 126.976 82.32 A 4.464 4.464 0 0 1 131.44 86.78399999999999 L 131.44 106.4256 A 4.464 4.464 0 0 1 126.98024396330081 111.08420753614688 L 46.61975603669919 114.59084700930767 A 4.464 4.464 0 0 1 42.16 110.32145454545454 Z" />
<text x="51.87287912087912" y="96.60479999999998" font-size="12.754285714285714" text-anchor="start" dominant-baseline="central" font-family="'Roboto Black', 'Arial Black', sans-serif" fill="#FFFFFF" opacity="1.0">HOLD </text>
<text x="87.19243956043957" y="96.6048" font-size="12.754285714285714" text-anchor="start" dominant-baseline="central" font-family="'DejaVu Sans Condensed', 'DejaVu Sans', 'Apple Symbols', sans-serif" fill="#7a828f" opacity="1.0">│ </text>
<text x="97.98452747252747" y="96.60479999999998" font-size="12.754285714285714" text-anchor="start" dominant-baseline="central" font-family="'Roboto Black', 'Arial Black', sans-serif" fill="#FFFFFF" opacity="1.0">TAP</text>
<path fill="#B8BCC3" d="M 161.72032074584544 29.911807621289555 A 4.800000000000001 4.800000000000001 0 0 1 166.24 25.119999999999997 L 252.64 25.119999999999997 A 4.800000000000001 4.800000000000001 0 0 1 257.44 29.919999999999998 L 257.44 69.55076923076923 A 4.800000000000001 4.800000000000001 0 0 1 252.64 74.35076923076923 L 169.12 74.35076923076923 A 4.800000000000001 4.800000000000001 0 0 1 164.03967925415455 69.55896160947968 Z" />
<text x="173.52744939271253" y="49.73538461538462" font-size="12.968421052631578" text-anchor="start" dominant-baseline="central" font-family="'Roboto Black', 'Arial Black', sans-serif" fill="#FFFFFF" opacity="1.0">HOLD </text>
<text x="209.43999999999997" y="49.73538461538462" font-size="12.968421052631578" text-anchor="start" dominant-baseline="central" font-family="'DejaVu Sans Condensed', 'DejaVu Sans', 'Apple Symbols', sans-serif" fill="#7a828f" opacity="1.0">│ </text>
<text x="220.41327935222668" y="49.73538461538462" font-size="12.968421052631578" text-anchor="start" dominant-baseline="central" font-family="'Roboto Black', 'Arial Black', sans-serif" fill="#FFFFFF" opacity="1.0">TAP</text>
<path fill="#B8BCC3" d="M 165.28157228303903 86.9336799663682 A 4.62 4.62 0 0 1 169.66 82.32 L 252.82 82.32 A 4.62 4.62 0 0 1 257.44 86.94 L 257.44 127.11176470588234 A 4.62 4.62 0 0 1 252.82 131.73176470588234 L 172.2472 131.73176470588234 A 4.62 4.62 0 0 1 167.38562771696095 127.11808473951413 Z" />
<text x="176.58438866396762" y="107.02588235294117" font-size="12.514526315789475" text-anchor="start" dominant-baseline="central" font-family="'Roboto Black', 'Arial Black', sans-serif" fill="#FFFFFF" opacity="1.0">HOLD </text>
<text x="211.24" y="107.02588235294115" font-size="12.514526315789475" text-anchor="start" dominant-baseline="central" font-family="'DejaVu Sans Condensed', 'DejaVu Sans', 'Apple Symbols', sans-serif" fill="#7a828f" opacity="1.0">│ </text>
<text x="221.8292145748988" y="107.02588235294117" font-size="12.514526315789475" text-anchor="start" dominant-baseline="central" font-family="'Roboto Black', 'Arial Black', sans-serif" fill="#FFFFFF" opacity="1.0">TAP</text>
<path fill="#B8BCC3" stroke="#FFFFFF" stroke-width="1.5600000000000003" d="M 121.50060650895743 38.29332100367073 A 4.056000000000001 4.056000000000001 0 0 1 125.70400000000001 34.239999999999995 L 146.296 34.239999999999995 A 4.056000000000001 4.056000000000001 0 0 1 150.49939349104258 38.29332100367073 L 151.45260650895744 64.50667899632927 A 4.056000000000001 4.056000000000001 0 0 1 147.544 68.56 L 124.456 68.56 A 4.056000000000001 4.056000000000001 0 0 1 120.54739349104258 64.50667899632927 Z" />
<text x="136.0" y="180.0" font-size="12.0" text-anchor="middle" dominant-baseline="text-before-edge" font-family="Roboto, sans-serif" fill="#4B5563">"qmk"</text>
<path fill="#B8BCC3" d="M 381.15424551003963 23.191693391175143 A 7.199999999999999 7.199999999999999 0 0 1 388.7 16.0 L 419.3 16.0 A 7.199999999999999 7.199999999999999 0 0 1 426.84575448996037 23.191693391175143 L 433.65424551003963 164.80830660882486 A 7.199999999999999 7.199999999999999 0 0 1 426.8 172.0 L 381.2 172.0 A 7.199999999999999 7.199999999999999 0 0 1 374.34575448996037 164.80830660882486 Z" />
<path fill="#B8BCC3" d="M 287.36 29.68 A 4.5600000000000005 4.5600000000000005 0 0 1 291.92 25.119999999999997 L 374.0 25.119999999999997 A 4.5600000000000005 4.5600000000000005 0 0 1 378.26535700854316 29.670470910530618 L 375.66264299145683 69.86682638676668 A 4.5600000000000005 4.5600000000000005 0 0 1 370.808 74.4172972972973 L 291.92 74.4172972972973 A 4.5600000000000005 4.5600000000000005 0 0 1 287.36 69.8572972972973 Z" />
<text x="299.0646153846154" y="49.76864864864864" font-size="12.24" text-anchor="start" dominant-baseline="central" font-family="'Roboto Black', 'Arial Black', sans-serif" fill="#FFFFFF" opacity="1.0">TAP </text>
<text x="325.4276923076923" y="49.76864864864864" font-size="12.24" text-anchor="start" dominant-baseline="central" font-family="'DejaVu Sans Condensed', 'DejaVu Sans', 'Apple Symbols', sans-serif" fill="#7a828f" opacity="1.0">│ </text>
<text x="335.7846153846154" y="49.76864864864864" font-size="12.24" text-anchor="start" dominant-baseline="central" font-family="'Roboto Black', 'Arial Black', sans-serif" fill="#FFFFFF" opacity="1.0">HOLD</text>
<path fill="#FFFFFF" d="M 307.928 84.55199999999999 A 4.464 4.464 0 0 1 312.392 80.088 L 397.208 80.088 A 4.464 4.464 0 0 1 401.672 84.55199999999999 L 401.672 108.711168 A 4.464 4.464 0 0 1 397.2131614276321 113.38977132141812 L 312.38683857236794 117.47245122403642 A 4.464 4.464 0 0 1 307.928 113.22305454545454 Z" />
<path fill="#B8BCC3" d="M 310.16 86.78399999999999 A 4.464 4.464 0 0 1 314.624 82.32 L 394.97600000000006 82.32 A 4.464 4.464 0 0 1 399.44000000000005 86.78399999999999 L 399.44000000000005 106.4256 A 4.464 4.464 0 0 1 394.9802439633009 111.08420753614688 L 314.6197560366992 114.59084700930767 A 4.464 4.464 0 0 1 310.16 110.32145454545454 Z" />
<text x="319.8728791208792" y="96.60479999999998" font-size="12.754285714285714" text-anchor="start" dominant-baseline="central" font-family="'Roboto Black', 'Arial Black', sans-serif" fill="#FFFFFF" opacity="1.0">TAP </text>
<text x="347.3436483516484" y="96.6048" font-size="12.754285714285714" text-anchor="start" dominant-baseline="central" font-family="'DejaVu Sans Condensed', 'DejaVu Sans', 'Apple Symbols', sans-serif" fill="#7a828f" opacity="1.0">│ </text>
<text x="358.13573626373636" y="96.60479999999998" font-size="12.754285714285714" text-anchor="start" dominant-baseline="central" font-family="'Roboto Black', 'Arial Black', sans-serif" fill="#FFFFFF" opacity="1.0">HOLD</text>
<path fill="#B8BCC3" d="M 429.7203207458454 29.911807621289555 A 4.800000000000001 4.800000000000001 0 0 1 434.24 25.119999999999997 L 520.6400000000001 25.119999999999997 A 4.800000000000001 4.800000000000001 0 0 1 525.44 29.919999999999998 L 525.44 69.55076923076923 A 4.800000000000001 4.800000000000001 0 0 1 520.6400000000001 74.35076923076923 L 437.12 74.35076923076923 A 4.800000000000001 4.800000000000001 0 0 1 432.0396792541546 69.55896160947968 Z" />
<text x="441.5274493927126" y="49.73538461538462" font-size="12.968421052631578" text-anchor="start" dominant-baseline="central" font-family="'Roboto Black', 'Arial Black', sans-serif" fill="#FFFFFF" opacity="1.0">HOLD </text>
<text x="477.44000000000005" y="49.73538461538462" font-size="12.968421052631578" text-anchor="start" dominant-baseline="central" font-family="'DejaVu Sans Condensed', 'DejaVu Sans', 'Apple Symbols', sans-serif" fill="#7a828f" opacity="1.0">│ </text>
<text x="488.41327935222677" y="49.73538461538462" font-size="12.968421052631578" text-anchor="start" dominant-baseline="central" font-family="'Roboto Black', 'Arial Black', sans-serif" fill="#FFFFFF" opacity="1.0">TAP</text>
<path fill="#B8BCC3" d="M 433.281572283039 86.9336799663682 A 4.62 4.62 0 0 1 437.65999999999997 82.32 L 520.8199999999999 82.32 A 4.62 4.62 0 0 1 525.4399999999999 86.94 L 525.4399999999999 127.11176470588234 A 4.62 4.62 0 0 1 520.8199999999999 131.73176470588234 L 440.24719999999996 131.73176470588234 A 4.62 4.62 0 0 1 435.3856277169609 127.11808473951413 Z" />
<text x="444.58438866396756" y="107.02588235294117" font-size="12.514526315789475" text-anchor="start" dominant-baseline="central" font-family="'Roboto Black', 'Arial Black', sans-serif" fill="#FFFFFF" opacity="1.0">HOLD </text>
<text x="479.23999999999995" y="107.02588235294115" font-size="12.514526315789475" text-anchor="start" dominant-baseline="central" font-family="'DejaVu Sans Condensed', 'DejaVu Sans', 'Apple Symbols', sans-serif" fill="#7a828f" opacity="1.0">│ </text>
<text x="489.82921457489874" y="107.02588235294117" font-size="12.514526315789475" text-anchor="start" dominant-baseline="central" font-family="'Roboto Black', 'Arial Black', sans-serif" fill="#FFFFFF" opacity="1.0">TAP</text>
<path fill="#B8BCC3" stroke="#FFFFFF" stroke-width="1.5600000000000003" d="M 389.5006065089574 38.29332100367073 A 4.056000000000001 4.056000000000001 0 0 1 393.70399999999995 34.239999999999995 L 414.296 34.239999999999995 A 4.056000000000001 4.056000000000001 0 0 1 418.49939349104255 38.29332100367073 L 419.4526065089574 64.50667899632927 A 4.056000000000001 4.056000000000001 0 0 1 415.544 68.56 L 392.45599999999996 68.56 A 4.056000000000001 4.056000000000001 0 0 1 388.54739349104256 64.50667899632927 Z" />
<text x="404.0" y="180.0" font-size="12.0" text-anchor="middle" dominant-baseline="text-before-edge" font-family="Roboto, sans-serif" fill="#4B5563">"inward"</text>
<path fill="#B8BCC3" d="M 649.1542455100397 23.191693391175143 A 7.199999999999999 7.199999999999999 0 0 1 656.7 16.0 L 687.3 16.0 A 7.199999999999999 7.199999999999999 0 0 1 694.8457544899603 23.191693391175143 L 701.6542455100397 164.80830660882486 A 7.199999999999999 7.199999999999999 0 0 1 694.8 172.0 L 649.2 172.0 A 7.199999999999999 7.199999999999999 0 0 1 642.3457544899603 164.80830660882486 Z" />
<path fill="#B8BCC3" d="M 555.36 29.68 A 4.5600000000000005 4.5600000000000005 0 0 1 559.92 25.119999999999997 L 642.0000000000001 25.119999999999997 A 4.5600000000000005 4.5600000000000005 0 0 1 646.2653570085432 29.670470910530618 L 643.6626429914569 69.86682638676668 A 4.5600000000000005 4.5600000000000005 0 0 1 638.8080000000001 74.4172972972973 L 559.92 74.4172972972973 A 4.5600000000000005 4.5600000000000005 0 0 1 555.36 69.8572972972973 Z" />
<text x="567.0646153846154" y="49.76864864864864" font-size="12.24" text-anchor="start" dominant-baseline="central" font-family="'Roboto Black', 'Arial Black', sans-serif" fill="#FFFFFF" opacity="1.0">HOLD </text>
<text x="600.96" y="49.76864864864864" font-size="12.24" text-anchor="start" dominant-baseline="central" font-family="'DejaVu Sans Condensed', 'DejaVu Sans', 'Apple Symbols', sans-serif" fill="#7a828f" opacity="1.0">│ </text>
<text x="611.3169230769231" y="49.76864864864864" font-size="12.24" text-anchor="start" dominant-baseline="central" font-family="'Roboto Black', 'Arial Black', sans-serif" fill="#FFFFFF" opacity="1.0">TAP</text>
<path fill="#FFFFFF" d="M 575.928 84.55199999999999 A 4.464 4.464 0 0 1 580.392 80.088 L 665.208 80.088 A 4.464 4.464 0 0 1 669.672 84.55199999999999 L 669.672 108.711168 A 4.464 4.464 0 0 1 665.213161427632 113.38977132141812 L 580.386838572368 117.47245122403642 A 4.464 4.464 0 0 1 575.928 113.22305454545454 Z" />
<path fill="#B8BCC3" d="M 578.16 86.78399999999999 A 4.464 4.464 0 0 1 582.624 82.32 L 662.9759999999999 82.32 A 4.464 4.464 0 0 1 667.4399999999999 86.78399999999999 L 667.4399999999999 106.4256 A 4.464 4.464 0 0 1 662.9802439633007 111.08420753614688 L 582.6197560366992 114.59084700930767 A 4.464 4.464 0 0 1 578.16 110.32145454545454 Z" />
<text x="587.8728791208791" y="96.60479999999998" font-size="12.754285714285714" text-anchor="start" dominant-baseline="central" font-family="'Roboto Black', 'Arial Black', sans-serif" fill="#FFFFFF" opacity="1.0">HOLD </text>
<text x="623.1924395604395" y="96.6048" font-size="12.754285714285714" text-anchor="start" dominant-baseline="central" font-family="'DejaVu Sans Condensed', 'DejaVu Sans', 'Apple Symbols', sans-serif" fill="#7a828f" opacity="1.0">│ </text>
<text x="633.9845274725275" y="96.60479999999998" font-size="12.754285714285714" text-anchor="start" dominant-baseline="central" font-family="'Roboto Black', 'Arial Black', sans-serif" fill="#FFFFFF" opacity="1.0">TAP</text>
<path fill="#B8BCC3" d="M 697.7203207458455 29.911807621289555 A 4.800000000000001 4.800000000000001 0 0 1 702.24 25.119999999999997 L 788.6400000000001 25.119999999999997 A 4.800000000000001 4.800000000000001 0 0 1 793.44 29.919999999999998 L 793.44 69.55076923076923 A 4.800000000000001 4.800000000000001 0 0 1 788.6400000000001 74.35076923076923 L 705.12 74.35076923076923 A 4.800000000000001 4.800000000000001 0 0 1 700.0396792541546 69.55896160947968 Z" />
<text x="709.5274493927126" y="49.73538461538462" font-size="12.968421052631578" text-anchor="start" dominant-baseline="central" font-family="'Roboto Black', 'Arial Black', sans-serif" fill="#FFFFFF" opacity="1.0">TAP </text>
<text x="737.4594331983806" y="49.73538461538462" font-size="12.968421052631578" text-anchor="start" dominant-baseline="central" font-family="'DejaVu Sans Condensed', 'DejaVu Sans', 'Apple Symbols', sans-serif" fill="#7a828f" opacity="1.0">│ </text>
<text x="748.4327125506073" y="49.73538461538462" font-size="12.968421052631578" text-anchor="start" dominant-baseline="central" font-family="'Roboto Black', 'Arial Black', sans-serif" fill="#FFFFFF" opacity="1.0">HOLD</text>
<path fill="#B8BCC3" d="M 701.2815722830389 86.9336799663682 A 4.62 4.62 0 0 1 705.66 82.32 L 788.8199999999999 82.32 A 4.62 4.62 0 0 1 793.4399999999999 86.94 L 793.4399999999999 127.11176470588234 A 4.62 4.62 0 0 1 788.8199999999999 131.73176470588234 L 708.2471999999999 131.73176470588234 A 4.62 4.62 0 0 1 703.3856277169609 127.11808473951413 Z" />
<text x="712.5843886639676" y="107.02588235294117" font-size="12.514526315789475" text-anchor="start" dominant-baseline="central" font-family="'Roboto Black', 'Arial Black', sans-serif" fill="#FFFFFF" opacity="1.0">TAP </text>
<text x="739.5387530364372" y="107.02588235294115" font-size="12.514526315789475" text-anchor="start" dominant-baseline="central" font-family="'DejaVu Sans Condensed', 'DejaVu Sans', 'Apple Symbols', sans-serif" fill="#7a828f" opacity="1.0">│ </text>
<text x="750.127967611336" y="107.02588235294117" font-size="12.514526315789475" text-anchor="start" dominant-baseline="central" font-family="'Roboto Black', 'Arial Black', sans-serif" fill="#FFFFFF" opacity="1.0">HOLD</text>
<path fill="#B8BCC3" stroke="#FFFFFF" stroke-width="1.5600000000000003" d="M 657.5006065089575 38.29332100367073 A 4.056000000000001 4.056000000000001 0 0 1 661.7040000000001 34.239999999999995 L 682.2959999999999 34.239999999999995 A 4.056000000000001 4.056000000000001 0 0 1 686.4993934910425 38.29332100367073 L 687.4526065089575 64.50667899632927 A 4.056000000000001 4.056000000000001 0 0 1 683.544 68.56 L 660.456 68.56 A 4.056000000000001 4.056000000000001 0 0 1 656.5473934910425 64.50667899632927 Z" />
<text x="672.0" y="180.0" font-size="12.0" text-anchor="middle" dominant-baseline="text-before-edge" font-family="Roboto, sans-serif" fill="#4B5563">"outward"</text>
</svg>