<?xml version="1.0" encoding="UTF-8"?>
<svg xmlns="http://www.w3.org/2000/svg" xmlns:xlink="http://www.w3.org/1999/xlink"
     width="808.0" height="208.0" viewBox="0 0 808.0 208.0">
<defs>
</defs>
<path fill="#6F768B" d="M 113.15424551003966 23.191693391175143 A 7.199999999999999 7.199999999999999 0 0 1 120.7 16.0 L 151.3 16.0 A 7.199999999999999 7.199999999999999 0 0 1 158.84575448996034 23.191693391175143 L 165.65424551003966 164.80830660882486 A 7.199999999999999 7.199999999999999 0 0 1 158.8 172.0 L 113.2 172.0 A 7.199999999999999 7.199999999999999 0 0 1 106.34575448996034 164.80830660882486 Z" />
<text x="115.81155015197568" y="149.01398176291792" font-size="20.680851063829788" text-anchor="start" dominant-baseline="central" font-family="'Roboto Black', 'Arial Black', sans-serif" fill="white" opacity="1.0">SPC</text>
<path fill="#6F768B" d="M 19.359999999999996 29.68 A 4.5600000000000005 4.5600000000000005 0 0 1 23.919999999999995 25.119999999999997 L 106.0 25.119999999999997 A 4.5600000000000005 4.5600000000000005 0 0 1 110.26535700854315 29.670470910530618 L 107.66264299145685 69.86682638676668 A 4.5600000000000005 4.5600000000000005 0 0 1 102.80799999999999 74.4172972972973 L 23.919999999999995 74.4172972972973 A 4.5600000000000005 4.5600000000000005 0 0 1 19.359999999999996 69.8572972972973 Z" />
<text x="30.985185185185188" y="48.81161161161161" font-size="17.226666666666663" text-anchor="start" dominant-baseline="central" font-family="'DejaVu Sans Condensed', 'DejaVu Sans', 'Apple Symbols', sans-serif" fill="white" opacity="1.0">⌘ </text>
<text x="51.08296296296296" y="49.76864864864864" font-size="17.226666666666663" text-anchor="start" dominant-baseline="central" font-family="'DejaVu Sans Condensed', 'DejaVu Sans', 'Apple Symbols', sans-serif" fill="#4e5361" opacity="1.0">│ </text>
<text x="65.4385185185185" y="49.29013013013012" font-size="17.226666666666663" text-anchor="start" dominant-baseline="central" font-family="'Roboto Black', 'Arial Black', sans-serif" fill="white" opacity="1.0">TAB</text>
<path fill="white" d="M 39.928 84.55199999999999 A 4.464 4.464 0 0 1 44.391999999999996 80.088 L 129.208 80.088 A 4.464 4.464 0 0 1 133.672 84.55199999999999 L 133.672 108.711168 A 4.464 4.464 0 0 1 129.21316142763203 113.38977132141812 L 44.38683857236796 117.47245122403642 A 4.464 4.464 0 0 1 39.928 113.22305454545454 Z" />
<path fill="#6F768B" d="M 42.16 86.78399999999999 A 4.464 4.464 0 0 1 46.623999999999995 82.32 L 126.976 82.32 A 4.464 4.464 0 0 1 131.44 86.78399999999999 L 131.44 106.4256 A 4.464 4.464 0 0 1 126.98024396330081 111.08420753614688 L 46.61975603669919 114.59084700930767 A 4.464 4.464 0 0 1 42.16 110.32145454545454 Z" />
<text x="69.91796363636362" y="96.6048" font-size="14.609454545454547" text-anchor="start" dominant-baseline="central" font-family="'DejaVu Sans Condensed', 'DejaVu Sans', 'Apple Symbols', sans-serif" fill="white" opacity="1.0">⌃ </text>
<text x="84.52741818181818" y="96.6048" font-size="14.609454545454547" text-anchor="start" dominant-baseline="central" font-family="'DejaVu Sans Condensed', 'DejaVu Sans', 'Apple Symbols', sans-serif" fill="#4e5361" opacity="1.0">│ </text>
<text x="96.21498181818181" y="96.6048" font-size="14.609454545454547" text-anchor="start" dominant-baseline="central" font-family="'Roboto Black', 'Arial Black', sans-serif" fill="white" opacity="1.0">ESC</text>
<path fill="#6F768B" d="M 161.72032074584544 29.911807621289555 A 4.800000000000001 4.800000000000001 0 0 1 166.24 25.119999999999997 L 252.64 25.119999999999997 A 4.800000000000001 4.800000000000001 0 0 1 257.44 29.919999999999998 L 257.44 69.55076923076923 A 4.800000000000001 4.800000000000001 0 0 1 252.64 74.35076923076923 L 169.12 74.35076923076923 A 4.800000000000001 4.800000000000001 0 0 1 164.03967925415455 69.55896160947968 Z" />
<text x="173.38146341463414" y="50.68429347289424" font-size="18.029268292682925" text-anchor="start" dominant-baseline="central" font-family="'DejaVu Sans Condensed', 'DejaVu Sans', 'Apple Symbols', sans-serif" fill="white" opacity="1.0">⌥ </text>
<text x="197.10418485237483" y="49.73538461538462" font-size="18.029268292682925" text-anchor="start" dominant-baseline="central" font-family="'DejaVu Sans Condensed', 'DejaVu Sans', 'Apple Symbols', sans-serif" fill="#4e5361" opacity="1.0">│ </text>
<text x="211.33781771501924" y="49.26093018662981" font-size="18.029268292682925" text-anchor="start" dominant-baseline="central" font-family="'Roboto Black', 'Arial Black', sans-serif" fill="white" opacity="1.0">ENT</text>
<path fill="#6F768B" d="M 165.28157228303903 86.9336799663682 A 4.62 4.62 0 0 1 169.66 82.32 L 252.82 82.32 A 4.62 4.62 0 0 1 257.44 86.94 L 257.44 127.11176470588234 A 4.62 4.62 0 0 1 252.82 131.73176470588234 L 172.2472 131.73176470588234 A 4.62 4.62 0 0 1 167.38562771696095 127.11808473951413 Z" />
<text x="175.5736" y="106.04872070910555" font-size="19.543232876712327" text-anchor="start" dominant-baseline="central" font-family="'DejaVu Sans Condensed', 'DejaVu Sans', 'Apple Symbols', sans-serif" fill="white" opacity="1.0">⇧ </text>
<text x="196.09399452054794" y="107.02588235294117" font-size="19.543232876712327" text-anchor="start" dominant-baseline="central" font-family="'DejaVu Sans Condensed', 'DejaVu Sans', 'Apple Symbols', sans-serif" fill="#4e5361" opacity="1.0">│ </text>
<text x="212.70574246575342" y="107.02588235294117" font-size="19.543232876712327" text-anchor="start" dominant-baseline="central" font-family="'Roboto Black', 'Arial Black', sans-serif" fill="white" opacity="1.0">DEL</text>
<path fill="#6F768B" stroke="white" stroke-width="1.5600000000000003" d="M 121.50060650895743 38.29332100367073 A 4.056000000000001 4.056000000000001 0 0 1 125.70400000000001 34.239999999999995 L 146.296 34.239999999999995 A 4.056000000000001 4.056000000000001 0 0 1 150.49939349104258 38.29332100367073 L 151.45260650895744 64.50667899632927 A 4.056000000000001 4.056000000000001 0 0 1 147.544 68.56 L 124.456 68.56 A 4.056000000000001 4.056000000000001 0 0 1 120.54739349104258 64.50667899632927 Z" />
<text x="136.0" y="180.0" font-size="12.0" text-anchor="middle" dominant-baseline="text-before-edge" font-family="Roboto, sans-serif" fill="#4B5563">"qmk"</text>
<path fill="#6F768B" d="M 381.15424551003963 23.191693391175143 A 7.199999999999999 7.199999999999999 0 0 1 388.7 16.0 L 419.3 16.0 A 7.199999999999999 7.199999999999999 0 0 1 426.84575448996037 23.191693391175143 L 433.65424551003963 164.80830660882486 A 7.199999999999999 7.199999999999999 0 0 1 426.8 172.0 L 381.2 172.0 A 7.199999999999999 7.199999999999999 0 0 1 374.34575448996037 164.80830660882486 Z" />
<text x="383.81155015197567" y="149.01398176291792" font-size="20.680851063829788" text-anchor="start" dominant-baseline="central" font-family="'Roboto Black', 'Arial Black', sans-serif" fill="white" opacity="1.0">SPC</text>
<path fill="#6F768B" d="M 287.36 29.68 A 4.5600000000000005 4.5600000000000005 0 0 1 291.92 25.119999999999997 L 374.0 25.119999999999997 A 4.5600000000000005 4.5600000000000005 0 0 1 378.26535700854316 29.670470910530618 L 375.66264299145683 69.86682638676668 A 4.5600000000000005 4.5600000000000005 0 0 1 370.808 74.4172972972973 L 291.92 74.4172972972973 A 4.5600000000000005 4.5600000000000005 0 0 1 287.36 69.8572972972973 Z" />
<text x="299.045" y="49.28414864864864" font-size="17.442" text-anchor="start" dominant-baseline="central" font-family="'Roboto Black', 'Arial Black', sans-serif" fill="white" opacity="1.0">TAB </text>
<text x="336.836" y="49.76864864864864" font-size="17.442" text-anchor="start" dominant-baseline="central" font-family="'DejaVu Sans Condensed', 'DejaVu Sans', 'Apple Symbols', sans-serif" fill="#4e5361" opacity="1.0">│ </text>
<text x="351.37100000000004" y="48.79964864864864" font-size="17.442" text-anchor="start" dominant-baseline="central" font-family="'DejaVu Sans Condensed', 'DejaVu Sans', 'Apple Symbols', sans-serif" fill="white" opacity="1.0">⌘</text>
<path fill="white" d="M 307.928 84.55199999999999 A 4.464 4.464 0 0 1 312.392 80.088 L 397.208 80.088 A 4.464 4.464 0 0 1 401.672 84.55199999999999 L 401.672 108.711168 A 4.464 4.464 0 0 1 397.2131614276321 113.38977132141812 L 312.38683857236794 117.47245122403642 A 4.464 4.464 0 0 1 307.928 113.22305454545454 Z" />
<path fill="#6F768B" d="M 310.16 86.78399999999999 A 4.464 4.464 0 0 1 314.624 82.32 L 394.97600000000006 82.32 A 4.464 4.464 0 0 1 399.44000000000005 86.78399999999999 L 399.44000000000005 106.4256 A 4.464 4.464 0 0 1 394.9802439633009 111.08420753614688 L 314.6197560366992 114.59084700930767 A 4.464 4.464 0 0 1 310.16 110.32145454545454 Z" />
<text x="337.9179636363637" y="96.6048" font-size="14.609454545454547" text-anchor="start" dominant-baseline="central" font-family="'Roboto Black', 'Arial Black', sans-serif" fill="white" opacity="1.0">ESC </text>
<text x="368.11083636363645" y="96.6048" font-size="14.609454545454547" text-anchor="start" dominant-baseline="central" font-family="'DejaVu Sans Condensed', 'DejaVu Sans', 'Apple Symbols', sans-serif" fill="#4e5361" opacity="1.0">│ </text>
<text x="379.7984000000001" y="96.6048" font-size="14.609454545454547" text-anchor="start" dominant-baseline="central" font-family="'DejaVu Sans Condensed', 'DejaVu Sans', 'Apple Symbols', sans-serif" fill="white" opacity="1.0">⌃</text>
<path fill="#6F768B" d="M 429.7203207458454 29.911807621289555 A 4.800000000000001 4.800000000000001 0 0 1 434.24 25.119999999999997 L 520.6400000000001 25.119999999999997 A 4.800000000000001 4.800000000000001 0 0 1 525.44 29.919999999999998 L 525.44 69.55076923076923 A 4.800000000000001 4.800000000000001 0 0 1 520.6400000000001 74.35076923076923 L 437.12 74.35076923076923 A 4.800000000000001 4.800000000000001 0 0 1 432.0396792541546 69.55896160947968 Z" />
<text x="441.38146341463414" y="50.68429347289424" font-size="18.029268292682925" text-anchor="start" dominant-baseline="central" font-family="'DejaVu Sans Condensed', 'DejaVu Sans', 'Apple Symbols', sans-serif" fill="white" opacity="1.0">⌥ </text>
<text x="465.10418485237483" y="49.73538461538462" font-size="18.029268292682925" text-anchor="start" dominant-baseline="central" font-family="'DejaVu Sans Condensed', 'DejaVu Sans', 'Apple Symbols', sans-serif" fill="#4e5361" opacity="1.0">│ </text>
<text x="479.33781771501924" y="49.26093018662981" font-size="18.029268292682925" text-anchor="start" dominant-baseline="central" font-family="'Roboto Black', 'Arial Black', sans-serif" fill="white" opacity="1.0">ENT</text>
<path fill="#6F768B" d="M 433.281572283039 86.9336799663682 A 4.62 4.62 0 0 1 437.65999999999997 82.32 L 520.8199999999999 82.32 A 4.62 4.62 0 0 1 525.4399999999999 86.94 L 525.4399999999999 127.11176470588234 A 4.62 4.62 0 0 1 520.8199999999999 131.73176470588234 L 440.24719999999996 131.73176470588234 A 4.62 4.62 0 0 1 435.3856277169609 127.11808473951413 Z" />
<text x="443.57359999999994" y="106.04872070910555" font-size="19.543232876712327" text-anchor="start" dominant-baseline="central" font-family="'DejaVu Sans Condensed', 'DejaVu Sans', 'Apple Symbols', sans-serif" fill="white" opacity="1.0">⇧ </text>
<text x="464.0939945205479" y="107.02588235294117" font-size="19.543232876712327" text-anchor="start" dominant-baseline="central" font-family="'DejaVu Sans Condensed', 'DejaVu Sans', 'Apple Symbols', sans-serif" fill="#4e5361" opacity="1.0">│ </text>
<text x="480.70574246575336" y="107.02588235294117" font-size="19.543232876712327" text-anchor="start" dominant-baseline="central" font-family="'Roboto Black', 'Arial Black', sans-serif" fill="white" opacity="1.0">DEL</text>
<path fill="#6F768B" stroke="white" stroke-width="1.5600000000000003" d="M 389.5006065089574 38.29332100367073 A 4.056000000000001 4.056000000000001 0 0 1 393.70399999999995 34.239999999999995 L 414.296 34.239999999999995 A 4.056000000000001 4.056000000000001 0 0 1 418.49939349104255 38.29332100367073 L 419.4526065089574 64.50667899632927 A 4.056000000000001 4.056000000000001 0 0 1 415.544 68.56 L 392.45599999999996 68.56 A 4.056000000000001 4.056000000000001 0 0 1 388.54739349104256 64.50667899632927 Z" />
<text x="404.0" y="180.0" font-size="12.0" text-anchor="middle" dominant-baseline="text-before-edge" font-family="Roboto, sans-serif" fill="#4B5563">"inward"</text>
<path fill="#6F768B" d="M 649.1542455100397 23.191693391175143 A 7.199999999999999 7.199999999999999 0 0 1 656.7 16.0 L 687.3 16.0 A 7.199999999999999 7.199999999999999 0 0 1 694.8457544899603 23.191693391175143 L 701.6542455100397 164.80830660882486 A 7.199999999999999 7.199999999999999 0 0 1 694.8 172.0 L 649.2 172.0 A 7.199999999999999 7.199999999999999 0 0 1 642.3457544899603 164.80830660882486 Z" />
<text x="651.8115501519757" y="149.01398176291792" font-size="20.680851063829788" text-anchor="start" dominant-baseline="central" font-family="'Roboto Black', 'Arial Black', sans-serif" fill="white" opacity="1.0">SPC</text>
<path fill="#6F768B" d="M 555.36 29.68 A 4.5600000000000005 4.5600000000000005 0 0 1 559.92 25.119999999999997 L 642.0000000000001 25.119999999999997 A 4.5600000000000005 4.5600000000000005 0 0 1 646.2653570085432 29.670470910530618 L 643.6626429914569 69.86682638676668 A 4.5600000000000005 4.5600000000000005 0 0 1 638.8080000000001 74.4172972972973 L 559.92 74.4172972972973 A 4.5600000000000005 4.5600000000000005 0 0 1 555.36 69.8572972972973 Z" />
<text x="566.9851851851852" y="48.81161161161161" font-size="17.226666666666663" text-anchor="start" dominant-baseline="central" font-family="'DejaVu Sans Condensed', 'DejaVu Sans', 'Apple Symbols', sans-serif" fill="white" opacity="1.0">⌘ </text>
<text x="587.0829629629629" y="49.76864864864864" font-size="17.226666666666663" text-anchor="start" dominant-baseline="central" font-family="'DejaVu Sans Condensed', 'DejaVu Sans', 'Apple Symbols', sans-serif" fill="#4e5361" opacity="1.0">│ </text>
<text x="601.4385185185184" y="49.29013013013012" font-size="17.226666666666663" text-anchor="start" dominant-baseline="central" font-family="'Roboto Black', 'Arial Black', sans-serif" fill="white" opacity="1.0">TAB</text>
<path fill="white" d="M 575.928 84.55199999999999 A 4.464 4.464 0 0 1 580.392 80.088 L 665.208 80.088 A 4.464 4.464 0 0 1 669.672 84.55199999999999 L 669.672 108.711168 A 4.464 4.464 0 0 1 665.213161427632 113.38977132141812 L 580.386838572368 117.47245122403642 A 4.464 4.464 0 0 1 575.928 113.22305454545454 Z" />
<path fill="#6F768B" d="M 578.16 86.78399999999999 A 4.464 4.464 0 0 1 582.624 82.32 L 662.9759999999999 82.32 A 4.464 4.464 0 0 1 667.4399999999999 86.78399999999999 L 667.4399999999999 106.4256 A 4.464 4.464 0 0 1 662.9802439633007 111.08420753614688 L 582.6197560366992 114.59084700930767 A 4.464 4.464 0 0 1 578.16 110.32145454545454 Z" />
<text x="605.9179636363637" y="96.6048" font-size="14.609454545454547" text-anchor="start" dominant-baseline="central" font-family="'DejaVu Sans Condensed', 'DejaVu Sans', 'Apple Symbols', sans-serif" fill="white" opacity="1.0">⌃ </text>
<text x="620.5274181818182" y="96.6048" font-size="14.609454545454547" text-anchor="start" dominant-baseline="central" font-family="'DejaVu Sans Condensed', 'DejaVu Sans', 'Apple Symbols', sans-serif" fill="#4e5361" opacity="1.0">│ </text>
<text x="632.2149818181819" y="96.6048" font-size="14.609454545454547" text-anchor="start" dominant-baseline="central" font-family="'Roboto Black', 'Arial Black', sans-serif" fill="white" opacity="1.0">ESC</text>
<path fill="#6F768B" d="M 697.7203207458455 29.911807621289555 A 4.800000000000001 4.800000000000001 0 0 1 702.24 25.119999999999997 L 788.6400000000001 25.119999999999997 A 4.800000000000001 4.800000000000001 0 0 1 793.44 29.919999999999998 L 793.44 69.55076923076923 A 4.800000000000001 4.800000000000001 0 0 1 788.6400000000001 74.35076923076923 L 705.12 74.35076923076923 A 4.800000000000001 4.800000000000001 0 0 1 700.0396792541546 69.55896160947968 Z" />
<text x="708.9362962962963" y="49.25507272454641" font-size="18.25185185185185" text-anchor="start" dominant-baseline="central" font-family="'Roboto Black', 'Arial Black', sans-serif" fill="white" opacity="1.0">ENT </text>
<text x="748.3218713450292" y="49.73538461538462" font-size="18.25185185185185" text-anchor="start" dominant-baseline="central" font-family="'DejaVu Sans Condensed', 'DejaVu Sans', 'Apple Symbols', sans-serif" fill="#4e5361" opacity="1.0">│ </text>
<text x="762.7312280701753" y="50.69600839706103" font-size="18.25185185185185" text-anchor="start" dominant-baseline="central" font-family="'DejaVu Sans Condensed', 'DejaVu Sans', 'Apple Symbols', sans-serif" fill="white" opacity="1.0">⌥</text>
<path fill="#6F768B" d="M 701.2815722830389 86.9336799663682 A 4.62 4.62 0 0 1 705.66 82.32 L 788.8199999999999 82.32 A 4.62 4.62 0 0 1 793.4399999999999 86.94 L 793.4399999999999 127.11176470588234 A 4.62 4.62 0 0 1 788.8199999999999 131.73176470588234 L 708.2471999999999 131.73176470588234 A 4.62 4.62 0 0 1 703.3856277169609 127.11808473951413 Z" />
<text x="711.6635294117648" y="107.02588235294117" font-size="19.764705882352942" text-anchor="start" dominant-baseline="central" font-family="'Roboto Black', 'Arial Black', sans-serif" fill="white" opacity="1.0">DEL </text>
<text x="751.1929411764706" y="107.02588235294117" font-size="19.764705882352942" text-anchor="start" dominant-baseline="central" font-family="'DejaVu Sans Condensed', 'DejaVu Sans', 'Apple Symbols', sans-serif" fill="#4e5361" opacity="1.0">│ </text>
<text x="767.9929411764706" y="106.03764705882352" font-size="19.764705882352942" text-anchor="start" dominant-baseline="central" font-family="'DejaVu Sans Condensed', 'DejaVu Sans', 'Apple Symbols', sans-serif" fill="white" opacity="1.0">⇧</text>
<path fill="#6F768B" stroke="white" stroke-width="1.5600000000000003" d="M 657.5006065089575 38.29332100367073 A 4.056000000000001 4.056000000000001 0 0 1 661.7040000000001 34.239999999999995 L 682.2959999999999 34.239999999999995 A 4.056000000000001 4.056000000000001 0 0 1 686.4993934910425 38.29332100367073 L 687.4526065089575 64.50667899632927 A 4.056000000000001 4.056000000000001 0 0 1 683.544 68.56 L 660.456 68.56 A 4.056000000000001 4.056000000000001 0 0 1 656.5473934910425 64.50667899632927 Z" />
<text x="672.0" y="180.0" font-size="12.0" text-anchor="middle" dominant-baseline="text-before-edge" font-family="Roboto, sans-serif" fill="#4B5563">"outward"</text>
</svg>