<?xml version="1.0" encoding="UTF-8"?>
<svg xmlns="http://www.w3.org/2000/svg" xmlns:xlink="http://www.w3.org/1999/xlink"
     width="720.0" height="272.74833333333333" viewBox="0 0 720.0 272.74833333333333">
<defs>
</defs>
<rect x="0.0" y="0.0" width="720.0" height="272.74833333333333" fill="#FFFFFF" stroke="none" />
<rect x="18.0" y="18.0" width="684.0" height="236.74833333333333" rx="8.0" ry="8.0" fill="#F3F4F6" stroke="#6B7280" stroke-width="4.0" />
<circle cx="311.5" cy="94.86383333333332" r="9.4245" fill="#B8BCC3" />
<rect x="301.496" y="64.33333333333333" width="20.008" height="20.008" rx="1.5006" ry="1.5006" fill="#B8BCC3" />
<rect x="301.496" y="81.34013333333333" width="20.008" height="3.0012" rx="1.5006" ry="1.5006" fill="#B8BCC3" />
<rect x="322.0225" y="84.34133333333332" width="20.008" height="20.008" rx="1.5006" ry="1.5006" fill="#B8BCC3" />
<rect x="322.0225" y="84.34133333333332" width="3.0012" height="20.008" rx="1.5006" ry="1.5006" fill="#B8BCC3" />
<rect x="301.496" y="105.38633333333333" width="20.008" height="20.008" rx="1.5006" ry="1.5006" fill="#B8BCC3" />
<rect x="301.496" y="105.38633333333333" width="20.008" height="3.0012" rx="1.5006" ry="1.5006" fill="#B8BCC3" />
<rect x="280.9695" y="84.34133333333332" width="20.008" height="20.008" rx="1.5006" ry="1.5006" fill="#B8BCC3" />
<rect x="297.9763" y="84.34133333333332" width="3.0012" height="20.008" rx="1.5006" ry="1.5006" fill="#B8BCC3" />
<circle cx="232.5" cy="74.53049999999999" r="9.4245" fill="#B8BCC3" />
<rect x="222.496" y="44.0" width="20.008" height="20.008" rx="1.5006" ry="1.5006" fill="#B8BCC3" />
<rect x="222.496" y="61.0068" width="20.008" height="3.0012" rx="1.5006" ry="1.5006" fill="#B8BCC3" />
<rect x="243.02249999999998" y="64.008" width="20.008" height="20.008" rx="1.5006" ry="1.5006" fill="#B8BCC3" />
<rect x="243.02249999999998" y="64.008" width="3.0012" height="20.008" rx="1.5006" ry="1.5006" fill="#B8BCC3" />
<rect x="222.496" y="85.053" width="20.008" height="20.008" rx="1.5006" ry="1.5006" fill="#B8BCC3" />
<rect x="222.496" y="85.053" width="20.008" height="3.0012" rx="1.5006" ry="1.5006" fill="#B8BCC3" />
<rect x="201.9695" y="64.008" width="20.008" height="20.008" rx="1.5006" ry="1.5006" fill="#B8BCC3" />
<rect x="218.9763" y="64.008" width="3.0012" height="20.008" rx="1.5006" ry="1.5006" fill="#B8BCC3" />
<circle cx="153.5" cy="74.53049999999999" r="9.4245" fill="#B8BCC3" />
<rect x="143.496" y="44.0" width="20.008" height="20.008" rx="1.5006" ry="1.5006" fill="#B8BCC3" />
<rect x="143.496" y="61.0068" width="20.008" height="3.0012" rx="1.5006" ry="1.5006" fill="#B8BCC3" />
<rect x="164.02249999999998" y="64.008" width="20.008" height="20.008" rx="1.5006" ry="1.5006" fill="#B8BCC3" />
<rect x="164.02249999999998" y="64.008" width="3.0012" height="20.008" rx="1.5006" ry="1.5006" fill="#B8BCC3" />
<rect x="143.496" y="85.053" width="20.008" height="20.008" rx="1.5006" ry="1.5006" fill="#B8BCC3" />
<rect x="143.496" y="85.053" width="20.008" height="3.0012" rx="1.5006" ry="1.5006" fill="#B8BCC3" />
<rect x="122.9695" y="64.008" width="20.008" height="20.008" rx="1.5006" ry="1.5006" fill="#B8BCC3" />
<rect x="139.97629999999998" y="64.008" width="3.0012" height="20.008" rx="1.5006" ry="1.5006" fill="#B8BCC3" />
<circle cx="74.5" cy="94.86383333333332" r="9.4245" fill="#B8BCC3" />
<rect x="64.49600000000001" y="64.33333333333333" width="20.008" height="20.008" rx="1.5006" ry="1.5006" fill="#B8BCC3" />
<rect x="64.49600000000001" y="81.34013333333333" width="20.008" height="3.0012" rx="1.5006" ry="1.5006" fill="#B8BCC3" />
<rect x="85.0225" y="84.34133333333332" width="20.008" height="20.008" rx="1.5006" ry="1.5006" fill="#B8BCC3" />
<rect x="85.0225" y="84.34133333333332" width="3.0012" height="20.008" rx="1.5006" ry="1.5006" fill="#B8BCC3" />
<rect x="64.49600000000001" y="105.38633333333333" width="20.008" height="20.008" rx="1.5006" ry="1.5006" fill="#B8BCC3" />
<rect x="64.49600000000001" y="105.38633333333333" width="20.008" height="3.0012" rx="1.5006" ry="1.5006" fill="#B8BCC3" />
<rect x="43.9695" y="84.34133333333332" width="20.008" height="20.008" rx="1.5006" ry="1.5006" fill="#B8BCC3" />
<rect x="60.976299999999995" y="84.34133333333332" width="3.0012" height="20.008" rx="1.5006" ry="1.5006" fill="#B8BCC3" />
<circle cx="408.5" cy="94.86383333333332" r="9.4245" fill="#B8BCC3" />
<rect x="398.496" y="64.33333333333333" width="20.008" height="20.008" rx="1.5006" ry="1.5006" fill="#B8BCC3" />
<rect x="398.496" y="81.34013333333333" width="20.008" height="3.0012" rx="1.5006" ry="1.5006" fill="#B8BCC3" />
<rect x="419.0225" y="84.34133333333332" width="20.008" height="20.008" rx="1.5006" ry="1.5006" fill="#B8BCC3" />
<rect x="419.0225" y="84.34133333333332" width="3.0012" height="20.008" rx="1.5006" ry="1.5006" fill="#B8BCC3" />
<rect x="398.496" y="105.38633333333333" width="20.008" height="20.008" rx="1.5006" ry="1.5006" fill="#B8BCC3" />
<rect x="398.496" y="105.38633333333333" width="20.008" height="3.0012" rx="1.5006" ry="1.5006" fill="#B8BCC3" />
<rect x="377.9695" y="84.34133333333332" width="20.008" height="20.008" rx="1.5006" ry="1.5006" fill="#B8BCC3" />
<rect x="394.9763" y="84.34133333333332" width="3.0012" height="20.008" rx="1.5006" ry="1.5006" fill="#B8BCC3" />
<circle cx="487.5" cy="74.53049999999999" r="9.4245" fill="#B8BCC3" />
<rect x="477.496" y="44.0" width="20.008" height="20.008" rx="1.5006" ry="1.5006" fill="#B8BCC3" />
<rect x="477.496" y="61.0068" width="20.008" height="3.0012" rx="1.5006" ry="1.5006" fill="#B8BCC3" />
<rect x="498.0225" y="64.008" width="20.008" height="20.008" rx="1.5006" ry="1.5006" fill="#B8BCC3" />
<rect x="498.0225" y="64.008" width="3.0012" height="20.008" rx="1.5006" ry="1.5006" fill="#B8BCC3" />
<rect x="477.496" y="85.053" width="20.008" height="20.008" rx="1.5006" ry="1.5006" fill="#B8BCC3" />
<rect x="477.496" y="85.053" width="20.008" height="3.0012" rx="1.5006" ry="1.5006" fill="#B8BCC3" />
<rect x="456.9695" y="64.008" width="20.008" height="20.008" rx="1.5006" ry="1.5006" fill="#B8BCC3" />
<rect x="473.9763" y="64.008" width="3.0012" height="20.008" rx="1.5006" ry="1.5006" fill="#B8BCC3" />
<circle cx="566.5" cy="74.53049999999999" r="9.4245" fill="#B8BCC3" />
<rect x="556.496" y="44.0" width="20.008" height="20.008" rx="1.5006" ry="1.5006" fill="#B8BCC3" />
<rect x="556.496" y="61.0068" width="20.008" height="3.0012" rx="1.5006" ry="1.5006" fill="#B8BCC3" />
<rect x="577.0225" y="64.008" width="20.008" height="20.008" rx="1.5006" ry="1.5006" fill="#B8BCC3" />
<rect x="577.0225" y="64.008" width="3.0012" height="20.008" rx="1.5006" ry="1.5006" fill="#B8BCC3" />
<rect x="556.496" y="85.053" width="20.008" height="20.008" rx="1.5006" ry="1.5006" fill="#B8BCC3" />
<rect x="556.496" y="85.053" width="20.008" height="3.0012" rx="1.5006" ry="1.5006" fill="#B8BCC3" />
<rect x="535.9695" y="64.008" width="20.008" height="20.008" rx="1.5006" ry="1.5006" fill="#B8BCC3" />
<rect x="552.9763" y="64.008" width="3.0012" height="20.008" rx="1.5006" ry="1.5006" fill="#B8BCC3" />
<circle cx="645.5" cy="94.86383333333332" r="9.4245" fill="#B8BCC3" />
<rect x="635.496" y="64.33333333333333" width="20.008" height="20.008" rx="1.5006" ry="1.5006" fill="#B8BCC3" />
<rect x="635.496" y="81.34013333333333" width="20.008" height="3.0012" rx="1.5006" ry="1.5006" fill="#B8BCC3" />
<rect x="656.0225" y="84.34133333333332" width="20.008" height="20.008" rx="1.5006" ry="1.5006" fill="#B8BCC3" />
<rect x="656.0225" y="84.34133333333332" width="3.0012" height="20.008" rx="1.5006" ry="1.5006" fill="#B8BCC3" />
<rect x="635.496" y="105.38633333333333" width="20.008" height="20.008" rx="1.5006" ry="1.5006" fill="#B8BCC3" />
<rect x="635.496" y="105.38633333333333" width="20.008" height="3.0012" rx="1.5006" ry="1.5006" fill="#B8BCC3" />
<rect x="614.9695" y="84.34133333333332" width="20.008" height="20.008" rx="1.5006" ry="1.5006" fill="#B8BCC3" />
<rect x="631.9763" y="84.34133333333332" width="3.0012" height="20.008" rx="1.5006" ry="1.5006" fill="#B8BCC3" />
<path d="M267.5059509277344 151.14480590820312C267.5059509277344 150.11767578125 267.92669677734375 149.13539123535156 268.67022705078125 148.4267578125C269.41375732421875 147.71812438964844 270.41510009765625 147.3450164794922 271.4410400390625 147.3943328857422H287.3989562988281C288.4248962402344 147.3450164794922 289.4262390136719 147.71812438964844 290.1697692871094 148.4267578125C290.9132995605469 149.13539123535156 291.3340759277344 150.11767578125 291.3340759277344 151.14480590820312L294.8846740722656 224.99786376953125C294.8846740722656 227.00148010253906 293.3115234375 228.65211486816406 291.3102111816406 228.7483367919922H267.52978515625C265.52850341796875 228.65211486816406 263.955322265625 227.00148010253906 263.955322265625 224.99786376953125L265.35308837890625 195.92446899414062L275.51007080078125 195.48126220703125C276.4910583496094 195.48126220703125 277.4294738769531 195.0805206298828 278.10784912109375 194.37188720703125C278.7862548828125 193.66326904296875 279.14569091796875 192.70828247070312 279.1029357910156 191.72821044921875V181.5392608642578C279.1029357910156 179.5531005859375 277.4928283691406 177.9429931640625 275.50665283203125 177.9429931640625H266.21759033203125ZM270.9925231933594 156.2552947998047 270.5026550292969 169.1141357421875C270.5026550292969 170.9326629638672 271.94012451171875 172.4259490966797 273.75732421875 172.49517822265625H285.0826721191406C286.8998718261719 172.4259490966797 288.33734130859375 170.9326629638672 288.33734130859375 169.1141357421875L287.8475036621094 156.2552947998047C287.8475036621094 155.33558654785156 287.4731140136719 154.4555206298828 286.8105163574219 153.81768798828125C286.1479187011719 153.17987060546875 285.2542419433594 152.83924865722656 284.335205078125 152.87425231933594H274.5047912597656C273.58575439453125 152.83924865722656 272.69207763671875 153.17987060546875 272.02947998046875 153.81768798828125C271.3669128417969 154.4555206298828 270.9925231933594 155.33558654785156 270.9925231933594 156.2552947998047Z" fill="#B8BCC3" />
<path fill="#B8BCC3" d="M 217.22973593404677 152.92153799999997 A 2.3564846666666663 2.3564846666666663 0 0 1 219.58622060071343 150.5650533333333 L 262.0029446007134 150.5650533333333 A 2.3564846666666663 2.3564846666666663 0 0 1 264.2462674404325 152.91881933384335 L 263.24780696404355 173.68679724273318 A 2.3564846666666663 2.3564846666666663 0 0 1 260.77816047042927 176.0405632432432 L 219.58622060071343 176.0405632432432 A 2.3564846666666663 2.3564846666666663 0 0 1 217.22973593404677 173.68407857657655 Z" />
<path fill="#B8BCC3" d="M 231.27512000000002 181.53925924324324 A 2.327976 2.327976 0 0 1 233.60309600000002 179.21128324324323 L 275.50666400000006 179.21128324324323 A 2.327976 2.327976 0 0 1 277.83464000000004 181.53925924324324 L 277.83464000000004 191.78235364324323 A 2.327976 2.327976 0 0 1 275.5088772268614 194.2118174733438 L 233.60088277313864 196.0405299585972 A 2.327976 2.327976 0 0 1 231.27512000000002 193.81404178869778 Z" />
<path fill="#B8BCC3" d="M 294.6007780436295 153.06536540233188 A 2.5032 2.5032 0 0 1 296.9837707326199 150.5650533333333 L 342.04137073261995 150.5650533333333 A 2.5032 2.5032 0 0 1 344.54457073261995 153.0682533333333 L 344.54457073261995 173.7356994871795 A 2.5032 2.5032 0 0 1 342.04137073261995 176.23889948717948 L 298.2180902592471 176.23889948717948 A 2.5032 2.5032 0 0 1 295.59468294823756 173.7385874181809 Z" />
<path fill="#B8BCC3" d="M 295.98302825763227 181.8161698535906 A 2.40933 2.40933 0 0 1 298.2766587207856 179.40961948717947 L 341.64459872078555 179.40961948717947 A 2.40933 2.40933 0 0 1 344.05392872078556 181.81894948717948 L 344.05392872078556 202.7685247812971 A 2.40933 2.40933 0 0 1 341.64459872078555 205.1778547812971 L 299.5155161868489 205.1778547812971 A 2.40933 2.40933 0 0 1 296.9904866500022 202.77130441488598 Z" />
<path fill="#B8BCC3" d="M 272.26168120660367 156.256214159987 A 2.1152040000000003 2.1152040000000003 0 0 1 274.457406 154.14254333333332 L 284.382594 154.14254333333332 A 2.1152040000000003 2.1152040000000003 0 0 1 286.5783187933963 156.256214159987 L 287.0681092066037 169.11321250667964 A 2.1152040000000003 2.1152040000000003 0 0 1 285.033426 171.22688333333332 L 273.806574 171.22688333333332 A 2.1152040000000003 2.1152040000000003 0 0 1 271.7718907933963 169.11321250667964 Z" />
<path d="M428.6659240722656 151.14480590820312C428.6659240722656 150.11767578125 429.0867004394531 149.13539123535156 429.8302307128906 148.4267578125C430.5737609863281 147.71812438964844 431.5751037597656 147.3450164794922 432.6010437011719 147.3943328857422H448.5589599609375C449.58489990234375 147.3450164794922 450.58624267578125 147.71812438964844 451.32977294921875 148.4267578125C452.07330322265625 149.13539123535156 452.4940490722656 150.11767578125 452.4940490722656 151.14480590820312L453.78240966796875 177.9429931640625H444.49334716796875C442.5071716308594 177.9429931640625 440.8970642089844 179.5531005859375 440.8970642089844 181.5392608642578V191.72821044921875C440.85430908203125 192.70828247070312 441.2137451171875 193.66326904296875 441.89215087890625 194.37188720703125C442.5705261230469 195.0805206298828 443.5089416503906 195.48126220703125 444.48992919921875 195.48126220703125L454.64691162109375 195.92446899414062L456.044677734375 224.99786376953125C456.044677734375 227.00148010253906 454.47149658203125 228.65211486816406 452.47021484375 228.7483367919922H428.6897888183594C426.6884765625 228.65211486816406 425.1153259277344 227.00148010253906 425.1153259277344 224.99786376953125ZM432.1524963378906 156.2552947998047 431.66265869140625 169.1141357421875C431.66265869140625 170.9326629638672 433.1001281738281 172.4259490966797 434.9173278808594 172.49517822265625H446.24267578125C448.05987548828125 172.4259490966797 449.4973449707031 170.9326629638672 449.4973449707031 169.1141357421875L449.0074768066406 156.2552947998047C449.0074768066406 155.33558654785156 448.6330871582031 154.4555206298828 447.97052001953125 153.81768798828125C447.30792236328125 153.17987060546875 446.41424560546875 152.83924865722656 445.4952087402344 152.87425231933594H435.664794921875C434.7457580566406 152.83924865722656 433.8520812988281 153.17987060546875 433.1894836425781 153.81768798828125C432.5268859863281 154.4555206298828 432.1524963378906 155.33558654785156 432.1524963378906 156.2552947998047Z" fill="#B8BCC3" />
<path fill="#B8BCC3" d="M 455.7537325595675 152.91881933384335 A 2.3564846666666663 2.3564846666666663 0 0 1 457.9970553992866 150.5650533333333 L 500.4137793992865 150.5650533333333 A 2.3564846666666663 2.3564846666666663 0 0 1 502.7702640659532 152.92153799999997 L 502.7702640659532 173.68407857657655 A 2.3564846666666663 2.3564846666666663 0 0 1 500.4137793992865 176.0405632432432 L 459.22183952957073 176.0405632432432 A 2.3564846666666663 2.3564846666666663 0 0 1 456.75219303595645 173.68679724273318 Z" />
<path fill="#B8BCC3" d="M 442.16535999999996 181.53925924324324 A 2.327976 2.327976 0 0 1 444.49333599999994 179.21128324324323 L 486.396904 179.21128324324323 A 2.327976 2.327976 0 0 1 488.72488 181.53925924324324 L 488.72488 193.81404178869778 A 2.327976 2.327976 0 0 1 486.39911722686134 196.0405299585972 L 444.4911227731386 194.2118174733438 A 2.327976 2.327976 0 0 1 442.16535999999996 191.78235364324323 Z" />
<path fill="#B8BCC3" d="M 375.4554292673801 153.0682533333333 A 2.5032 2.5032 0 0 1 377.9586292673801 150.5650533333333 L 423.01622926738014 150.5650533333333 A 2.5032 2.5032 0 0 1 425.3992219563706 153.06536540233188 L 424.40531705176244 173.7385874181809 A 2.5032 2.5032 0 0 1 421.7819097407529 176.23889948717948 L 377.9586292673801 176.23889948717948 A 2.5032 2.5032 0 0 1 375.4554292673801 173.7356994871795 Z" />
<path fill="#B8BCC3" d="M 375.94607127921444 181.81894948717948 A 2.40933 2.40933 0 0 1 378.35540127921445 179.40961948717947 L 421.7233412792144 179.40961948717947 A 2.40933 2.40933 0 0 1 424.01697174236773 181.8161698535906 L 423.0095133499978 202.77130441488598 A 2.40933 2.40933 0 0 1 420.4844838131511 205.1778547812971 L 378.35540127921445 205.1778547812971 A 2.40933 2.40933 0 0 1 375.94607127921444 202.7685247812971 Z" />
<path fill="#B8BCC3" d="M 433.42168120660364 156.256214159987 A 2.1152040000000003 2.1152040000000003 0 0 1 435.61740599999996 154.14254333333332 L 445.54259399999995 154.14254333333332 A 2.1152040000000003 2.1152040000000003 0 0 1 447.7383187933963 156.256214159987 L 448.2281092066037 169.11321250667964 A 2.1152040000000003 2.1152040000000003 0 0 1 446.193426 171.22688333333332 L 434.966574 171.22688333333332 A 2.1152040000000003 2.1152040000000003 0 0 1 432.9318907933963 169.11321250667964 Z" />
<rect x="202.0" y="20.0" width="316.0" height="24.0" fill="#E11D48" fill-opacity="0.35" stroke="#E11D48" stroke-width="1.5" />
<rect x="202.0" y="228.74833333333333" width="316.0" height="24.0" fill="#E11D48" fill-opacity="0.35" stroke="#E11D48" stroke-width="1.5" />
<rect x="20.0" y="90.18708333333333" width="24.0" height="92.37416666666667" fill="#E11D48" fill-opacity="0.35" stroke="#E11D48" stroke-width="1.5" />
<rect x="676.0" y="90.18708333333333" width="24.0" height="92.37416666666667" fill="#E11D48" fill-opacity="0.35" stroke="#E11D48" stroke-width="1.5" />
<rect x="0.5" y="0.5" width="719.0" height="271.74833333333333" fill="none" stroke="#9CA3AF" stroke-width="1.0" />
</svg>