<?xml version="1.0" encoding="UTF-8"?>
<svg xmlns="http://www.w3.org/2000/svg" xmlns:xlink="http://www.w3.org/1999/xlink"
     width="1606.0587298762669" height="438.54934527713067" viewBox="0 0 1606.0587298762669 438.54934527713067">
<defs>
</defs>
<text x="23.5" y="34.4071052414816" font-size="9.256084560000001" text-anchor="start" dominant-baseline="text-after-edge" font-family="Roboto, sans-serif" fill="#6F768B">LAYERS</text>
<rect x="16.0" y="36.2583221534816" width="59.894581622400004" height="20.5690768" rx="4.11381536" ry="4.11381536" fill="#8673B5" />
<text x="23.5" y="46.5428605534816" font-size="9.256084560000001" text-anchor="start" dominant-baseline="central" font-family="Roboto, sans-serif" fill="white">LAYER 2</text>
<circle cx="392.0657021626001" cy="46.912470237248606" r="9.5424108924174" fill="#31164F" />
<rect x="381.93654108585923" y="16.0" width="20.2583221534816" height="20.2583221534816" rx="1.51937416151112" ry="1.51937416151112" fill="#A69DC6" />
<rect x="381.93654108585923" y="33.21957383045936" width="20.2583221534816" height="3.03874832302224" rx="1.51937416151112" ry="1.51937416151112" fill="#8673B5" />
<rect x="402.71985024636706" y="36.2583221534816" width="20.2583221534816" height="20.2583221534816" rx="1.51937416151112" ry="1.51937416151112" fill="#8673B5" />
<rect x="402.71985024636706" y="36.2583221534816" width="3.03874832302224" height="20.2583221534816" rx="1.51937416151112" ry="1.51937416151112" fill="#605181" />
<rect x="381.93654108585923" y="57.5666183210156" width="20.2583221534816" height="20.2583221534816" rx="1.51937416151112" ry="1.51937416151112" fill="#605181" />
<rect x="381.93654108585923" y="57.5666183210156" width="20.2583221534816" height="3.03874832302224" rx="1.51937416151112" ry="1.51937416151112" fill="#31164F" />
<rect x="361.15323192535146" y="36.2583221534816" width="20.2583221534816" height="20.2583221534816" rx="1.51937416151112" ry="1.51937416151112" fill="#CDC5EA" />
<rect x="378.3728057558109" y="36.2583221534816" width="3.03874832302224" height="20.2583221534816" rx="1.51937416151112" ry="1.51937416151112" fill="#A69DC6" />
<circle cx="310.3025248654" cy="46.912470237248606" r="9.5424108924174" fill="#31164F" />
<rect x="300.1733637886592" y="16.0" width="20.2583221534816" height="20.2583221534816" rx="1.51937416151112" ry="1.51937416151112" fill="#A69DC6" />
<rect x="300.1733637886592" y="33.21957383045936" width="20.2583221534816" height="3.03874832302224" rx="1.51937416151112" ry="1.51937416151112" fill="#8673B5" />
<rect x="320.956672949167" y="36.2583221534816" width="20.2583221534816" height="20.2583221534816" rx="1.51937416151112" ry="1.51937416151112" fill="#8673B5" />
<rect x="320.956672949167" y="36.2583221534816" width="3.03874832302224" height="20.2583221534816" rx="1.51937416151112" ry="1.51937416151112" fill="#605181" />
<rect x="300.1733637886592" y="57.5666183210156" width="20.2583221534816" height="20.2583221534816" rx="1.51937416151112" ry="1.51937416151112" fill="#605181" />
<rect x="300.1733637886592" y="57.5666183210156" width="20.2583221534816" height="3.03874832302224" rx="1.51937416151112" ry="1.51937416151112" fill="#31164F" />
<rect x="279.3900546281514" y="36.2583221534816" width="20.2583221534816" height="20.2583221534816" rx="1.51937416151112" ry="1.51937416151112" fill="#CDC5EA" />
<rect x="296.6096284586108" y="36.2583221534816" width="3.03874832302224" height="20.2583221534816" rx="1.51937416151112" ry="1.51937416151112" fill="#A69DC6" />
<circle cx="228.53934756820001" cy="46.912470237248606" r="9.5424108924174" fill="#31164F" />
<rect x="218.41018649145923" y="16.0" width="20.2583221534816" height="20.2583221534816" rx="1.51937416151112" ry="1.51937416151112" fill="#A69DC6" />
<rect x="218.41018649145923" y="33.21957383045936" width="20.2583221534816" height="3.03874832302224" rx="1.51937416151112" ry="1.51937416151112" fill="#8673B5" />
<rect x="239.193495651967" y="36.2583221534816" width="20.2583221534816" height="20.2583221534816" rx="1.51937416151112" ry="1.51937416151112" fill="#8673B5" />
<rect x="239.193495651967" y="36.2583221534816" width="3.03874832302224" height="20.2583221534816" rx="1.51937416151112" ry="1.51937416151112" fill="#605181" />
<rect x="218.41018649145923" y="57.5666183210156" width="20.2583221534816" height="20.2583221534816" rx="1.51937416151112" ry="1.51937416151112" fill="#605181" />
<rect x="218.41018649145923" y="57.5666183210156" width="20.2583221534816" height="3.03874832302224" rx="1.51937416151112" ry="1.51937416151112" fill="#31164F" />
<rect x="197.6268773309514" y="36.2583221534816" width="20.2583221534816" height="20.2583221534816" rx="1.51937416151112" ry="1.51937416151112" fill="#CDC5EA" />
<rect x="214.84645116141076" y="36.2583221534816" width="3.03874832302224" height="20.2583221534816" rx="1.51937416151112" ry="1.51937416151112" fill="#A69DC6" />
<circle cx="146.776170271" cy="46.912470237248606" r="9.5424108924174" fill="#31164F" />
<rect x="136.64700919425923" y="16.0" width="20.2583221534816" height="20.2583221534816" rx="1.51937416151112" ry="1.51937416151112" fill="#A69DC6" />
<rect x="136.64700919425923" y="33.21957383045936" width="20.2583221534816" height="3.03874832302224" rx="1.51937416151112" ry="1.51937416151112" fill="#8673B5" />
<rect x="157.430318354767" y="36.2583221534816" width="20.2583221534816" height="20.2583221534816" rx="1.51937416151112" ry="1.51937416151112" fill="#8673B5" />
<rect x="157.430318354767" y="36.2583221534816" width="3.03874832302224" height="20.2583221534816" rx="1.51937416151112" ry="1.51937416151112" fill="#605181" />
<rect x="136.64700919425923" y="57.5666183210156" width="20.2583221534816" height="20.2583221534816" rx="1.51937416151112" ry="1.51937416151112" fill="#605181" />
<rect x="136.64700919425923" y="57.5666183210156" width="20.2583221534816" height="3.03874832302224" rx="1.51937416151112" ry="1.51937416151112" fill="#31164F" />
<rect x="115.86370003375141" y="36.2583221534816" width="20.2583221534816" height="20.2583221534816" rx="1.51937416151112" ry="1.51937416151112" fill="#CDC5EA" />
<rect x="133.08327386421078" y="36.2583221534816" width="3.03874832302224" height="20.2583221534816" rx="1.51937416151112" ry="1.51937416151112" fill="#A69DC6" />
<circle cx="493.8288794598" cy="46.912470237248606" r="9.5424108924174" fill="#31164F" />
<rect x="483.6997183830592" y="16.0" width="20.2583221534816" height="20.2583221534816" rx="1.51937416151112" ry="1.51937416151112" fill="#A69DC6" />
<rect x="483.6997183830592" y="33.21957383045936" width="20.2583221534816" height="3.03874832302224" rx="1.51937416151112" ry="1.51937416151112" fill="#8673B5" />
<rect x="504.483027543567" y="36.2583221534816" width="20.2583221534816" height="20.2583221534816" rx="1.51937416151112" ry="1.51937416151112" fill="#CDC5EA" />
<rect x="504.483027543567" y="36.2583221534816" width="3.03874832302224" height="20.2583221534816" rx="1.51937416151112" ry="1.51937416151112" fill="#A69DC6" />
<rect x="483.6997183830592" y="57.5666183210156" width="20.2583221534816" height="20.2583221534816" rx="1.51937416151112" ry="1.51937416151112" fill="#605181" />
<rect x="483.6997183830592" y="57.5666183210156" width="20.2583221534816" height="3.03874832302224" rx="1.51937416151112" ry="1.51937416151112" fill="#31164F" />
<rect x="462.9164092225514" y="36.2583221534816" width="20.2583221534816" height="20.2583221534816" rx="1.51937416151112" ry="1.51937416151112" fill="#8673B5" />
<rect x="480.1359830530108" y="36.2583221534816" width="3.03874832302224" height="20.2583221534816" rx="1.51937416151112" ry="1.51937416151112" fill="#605181" />
<circle cx="575.5920567569999" cy="46.912470237248606" r="9.5424108924174" fill="#31164F" />
<rect x="565.4628956802592" y="16.0" width="20.2583221534816" height="20.2583221534816" rx="1.51937416151112" ry="1.51937416151112" fill="#A69DC6" />
<rect x="565.4628956802592" y="33.21957383045936" width="20.2583221534816" height="3.03874832302224" rx="1.51937416151112" ry="1.51937416151112" fill="#8673B5" />
<rect x="586.246204840767" y="36.2583221534816" width="20.2583221534816" height="20.2583221534816" rx="1.51937416151112" ry="1.51937416151112" fill="#CDC5EA" />
<rect x="586.246204840767" y="36.2583221534816" width="3.03874832302224" height="20.2583221534816" rx="1.51937416151112" ry="1.51937416151112" fill="#A69DC6" />
<rect x="565.4628956802592" y="57.5666183210156" width="20.2583221534816" height="20.2583221534816" rx="1.51937416151112" ry="1.51937416151112" fill="#605181" />
<rect x="565.4628956802592" y="57.5666183210156" width="20.2583221534816" height="3.03874832302224" rx="1.51937416151112" ry="1.51937416151112" fill="#31164F" />
<rect x="544.6795865197513" y="36.2583221534816" width="20.2583221534816" height="20.2583221534816" rx="1.51937416151112" ry="1.51937416151112" fill="#8673B5" />
<rect x="561.8991603502106" y="36.2583221534816" width="3.03874832302224" height="20.2583221534816" rx="1.51937416151112" ry="1.51937416151112" fill="#605181" />
<circle cx="657.3552340542" cy="46.912470237248606" r="9.5424108924174" fill="#31164F" />
<rect x="647.2260729774592" y="16.0" width="20.2583221534816" height="20.2583221534816" rx="1.51937416151112" ry="1.51937416151112" fill="#A69DC6" />
<rect x="647.2260729774592" y="33.21957383045936" width="20.2583221534816" height="3.03874832302224" rx="1.51937416151112" ry="1.51937416151112" fill="#8673B5" />
<rect x="668.009382137967" y="36.2583221534816" width="20.2583221534816" height="20.2583221534816" rx="1.51937416151112" ry="1.51937416151112" fill="#CDC5EA" />
<rect x="668.009382137967" y="36.2583221534816" width="3.03874832302224" height="20.2583221534816" rx="1.51937416151112" ry="1.51937416151112" fill="#A69DC6" />
<rect x="647.2260729774592" y="57.5666183210156" width="20.2583221534816" height="20.2583221534816" rx="1.51937416151112" ry="1.51937416151112" fill="#605181" />
<rect x="647.2260729774592" y="57.5666183210156" width="20.2583221534816" height="3.03874832302224" rx="1.51937416151112" ry="1.51937416151112" fill="#31164F" />
<rect x="626.4427638169514" y="36.2583221534816" width="20.2583221534816" height="20.2583221534816" rx="1.51937416151112" ry="1.51937416151112" fill="#8673B5" />
<rect x="643.6623376474107" y="36.2583221534816" width="3.03874832302224" height="20.2583221534816" rx="1.51937416151112" ry="1.51937416151112" fill="#605181" />
<circle cx="739.1184113514" cy="46.912470237248606" r="9.5424108924174" fill="#31164F" />
<rect x="728.9892502746593" y="16.0" width="20.2583221534816" height="20.2583221534816" rx="1.51937416151112" ry="1.51937416151112" fill="#A69DC6" />
<rect x="728.9892502746593" y="33.21957383045936" width="20.2583221534816" height="3.03874832302224" rx="1.51937416151112" ry="1.51937416151112" fill="#8673B5" />
<rect x="749.7725594351671" y="36.2583221534816" width="20.2583221534816" height="20.2583221534816" rx="1.51937416151112" ry="1.51937416151112" fill="#CDC5EA" />
<rect x="749.7725594351671" y="36.2583221534816" width="3.03874832302224" height="20.2583221534816" rx="1.51937416151112" ry="1.51937416151112" fill="#A69DC6" />
<rect x="728.9892502746593" y="57.5666183210156" width="20.2583221534816" height="20.2583221534816" rx="1.51937416151112" ry="1.51937416151112" fill="#605181" />
<rect x="728.9892502746593" y="57.5666183210156" width="20.2583221534816" height="3.03874832302224" rx="1.51937416151112" ry="1.51937416151112" fill="#31164F" />
<rect x="708.2059411141514" y="36.2583221534816" width="20.2583221534816" height="20.2583221534816" rx="1.51937416151112" ry="1.51937416151112" fill="#8673B5" />
<rect x="725.4255149446108" y="36.2583221534816" width="3.03874832302224" height="20.2583221534816" rx="1.51937416151112" ry="1.51937416151112" fill="#605181" />
<rect x="16.0" y="118.0832626279788" width="59.894581622400004" height="20.5690768" rx="4.11381536" ry="4.11381536" fill="#0E7695" />
<text x="23.5" y="128.3678010279788" font-size="9.256084560000001" text-anchor="start" dominant-baseline="central" font-family="Roboto, sans-serif" fill="white">LAYER 1</text>
<circle cx="392.0657021626001" cy="128.7374107117458" r="9.5424108924174" fill="#1D3052" />
<rect x="381.93654108585923" y="97.8249404744972" width="20.2583221534816" height="20.2583221534816" rx="1.51937416151112" ry="1.51937416151112" fill="#7AC0C6" />
<rect x="381.93654108585923" y="115.04451430495655" width="20.2583221534816" height="3.03874832302224" rx="1.51937416151112" ry="1.51937416151112" fill="#05A1B0" />
<rect x="402.71985024636706" y="118.0832626279788" width="20.2583221534816" height="20.2583221534816" rx="1.51937416151112" ry="1.51937416151112" fill="#05A1B0" />
<rect x="402.71985024636706" y="118.0832626279788" width="3.03874832302224" height="20.2583221534816" rx="1.51937416151112" ry="1.51937416151112" fill="#0E7695" />
<rect x="381.93654108585923" y="139.3915587955128" width="20.2583221534816" height="20.2583221534816" rx="1.51937416151112" ry="1.51937416151112" fill="#0E7695" />
<rect x="381.93654108585923" y="139.3915587955128" width="20.2583221534816" height="3.03874832302224" rx="1.51937416151112" ry="1.51937416151112" fill="#1D3052" />
<rect x="361.15323192535146" y="118.0832626279788" width="20.2583221534816" height="20.2583221534816" rx="1.51937416151112" ry="1.51937416151112" fill="#A6D7DE" />
<rect x="378.3728057558109" y="118.0832626279788" width="3.03874832302224" height="20.2583221534816" rx="1.51937416151112" ry="1.51937416151112" fill="#7AC0C6" />
<circle cx="310.3025248654" cy="128.7374107117458" r="9.5424108924174" fill="#1D3052" />
<rect x="300.1733637886592" y="97.8249404744972" width="20.2583221534816" height="20.2583221534816" rx="1.51937416151112" ry="1.51937416151112" fill="#7AC0C6" />
<rect x="300.1733637886592" y="115.04451430495655" width="20.2583221534816" height="3.03874832302224" rx="1.51937416151112" ry="1.51937416151112" fill="#05A1B0" />
<rect x="320.956672949167" y="118.0832626279788" width="20.2583221534816" height="20.2583221534816" rx="1.51937416151112" ry="1.51937416151112" fill="#05A1B0" />
<rect x="320.956672949167" y="118.0832626279788" width="3.03874832302224" height="20.2583221534816" rx="1.51937416151112" ry="1.51937416151112" fill="#0E7695" />
<rect x="300.1733637886592" y="139.3915587955128" width="20.2583221534816" height="20.2583221534816" rx="1.51937416151112" ry="1.51937416151112" fill="#0E7695" />
<rect x="300.1733637886592" y="139.3915587955128" width="20.2583221534816" height="3.03874832302224" rx="1.51937416151112" ry="1.51937416151112" fill="#1D3052" />
<rect x="279.3900546281514" y="118.0832626279788" width="20.2583221534816" height="20.2583221534816" rx="1.51937416151112" ry="1.51937416151112" fill="#A6D7DE" />
<rect x="296.6096284586108" y="118.0832626279788" width="3.03874832302224" height="20.2583221534816" rx="1.51937416151112" ry="1.51937416151112" fill="#7AC0C6" />
<circle cx="228.53934756820001" cy="128.7374107117458" r="9.5424108924174" fill="#1D3052" />
<rect x="218.41018649145923" y="97.8249404744972" width="20.2583221534816" height="20.2583221534816" rx="1.51937416151112" ry="1.51937416151112" fill="#7AC0C6" />
<rect x="218.41018649145923" y="115.04451430495655" width="20.2583221534816" height="3.03874832302224" rx="1.51937416151112" ry="1.51937416151112" fill="#05A1B0" />
<rect x="239.193495651967" y="118.0832626279788" width="20.2583221534816" height="20.2583221534816" rx="1.51937416151112" ry="1.51937416151112" fill="#05A1B0" />
<rect x="239.193495651967" y="118.0832626279788" width="3.03874832302224" height="20.2583221534816" rx="1.51937416151112" ry="1.51937416151112" fill="#0E7695" />
<rect x="218.41018649145923" y="139.3915587955128" width="20.2583221534816" height="20.2583221534816" rx="1.51937416151112" ry="1.51937416151112" fill="#0E7695" />
<rect x="218.41018649145923" y="139.3915587955128" width="20.2583221534816" height="3.03874832302224" rx="1.51937416151112" ry="1.51937416151112" fill="#1D3052" />
<rect x="197.6268773309514" y="118.0832626279788" width="20.2583221534816" height="20.2583221534816" rx="1.51937416151112" ry="1.51937416151112" fill="#A6D7DE" />
<rect x="214.84645116141076" y="118.0832626279788" width="3.03874832302224" height="20.2583221534816" rx="1.51937416151112" ry="1.51937416151112" fill="#7AC0C6" />
<circle cx="146.776170271" cy="128.7374107117458" r="9.5424108924174" fill="#1D3052" />
<rect x="136.64700919425923" y="97.8249404744972" width="20.2583221534816" height="20.2583221534816" rx="1.51937416151112" ry="1.51937416151112" fill="#7AC0C6" />
<rect x="136.64700919425923" y="115.04451430495655" width="20.2583221534816" height="3.03874832302224" rx="1.51937416151112" ry="1.51937416151112" fill="#05A1B0" />
<rect x="157.430318354767" y="118.0832626279788" width="20.2583221534816" height="20.2583221534816" rx="1.51937416151112" ry="1.51937416151112" fill="#05A1B0" />
<rect x="157.430318354767" y="118.0832626279788" width="3.03874832302224" height="20.2583221534816" rx="1.51937416151112" ry="1.51937416151112" fill="#0E7695" />
<rect x="136.64700919425923" y="139.3915587955128" width="20.2583221534816" height="20.2583221534816" rx="1.51937416151112" ry="1.51937416151112" fill="#0E7695" />
<rect x="136.64700919425923" y="139.3915587955128" width="20.2583221534816" height="3.03874832302224" rx="1.51937416151112" ry="1.51937416151112" fill="#1D3052" />
<rect x="115.86370003375141" y="118.0832626279788" width="20.2583221534816" height="20.2583221534816" rx="1.51937416151112" ry="1.51937416151112" fill="#A6D7DE" />
<rect x="133.08327386421078" y="118.0832626279788" width="3.03874832302224" height="20.2583221534816" rx="1.51937416151112" ry="1.51937416151112" fill="#7AC0C6" />
<circle cx="493.8288794598" cy="128.7374107117458" r="9.5424108924174" fill="#1D3052" />
<rect x="483.6997183830592" y="97.8249404744972" width="20.2583221534816" height="20.2583221534816" rx="1.51937416151112" ry="1.51937416151112" fill="#7AC0C6" />
<rect x="483.6997183830592" y="115.04451430495655" width="20.2583221534816" height="3.03874832302224" rx="1.51937416151112" ry="1.51937416151112" fill="#05A1B0" />
<rect x="504.483027543567" y="118.0832626279788" width="20.2583221534816" height="20.2583221534816" rx="1.51937416151112" ry="1.51937416151112" fill="#A6D7DE" />
<rect x="504.483027543567" y="118.0832626279788" width="3.03874832302224" height="20.2583221534816" rx="1.51937416151112" ry="1.51937416151112" fill="#7AC0C6" />
<rect x="483.6997183830592" y="139.3915587955128" width="20.2583221534816" height="20.2583221534816" rx="1.51937416151112" ry="1.51937416151112" fill="#0E7695" />
<rect x="483.6997183830592" y="139.3915587955128" width="20.2583221534816" height="3.03874832302224" rx="1.51937416151112" ry="1.51937416151112" fill="#1D3052" />
<rect x="462.9164092225514" y="118.0832626279788" width="20.2583221534816" height="20.2583221534816" rx="1.51937416151112" ry="1.51937416151112" fill="#05A1B0" />
<rect x="480.1359830530108" y="118.0832626279788" width="3.03874832302224" height="20.2583221534816" rx="1.51937416151112" ry="1.51937416151112" fill="#0E7695" />
<circle cx="575.5920567569999" cy="128.7374107117458" r="9.5424108924174" fill="#1D3052" />
<rect x="565.4628956802592" y="97.8249404744972" width="20.2583221534816" height="20.2583221534816" rx="1.51937416151112" ry="1.51937416151112" fill="#7AC0C6" />
<rect x="565.4628956802592" y="115.04451430495655" width="20.2583221534816" height="3.03874832302224" rx="1.51937416151112" ry="1.51937416151112" fill="#05A1B0" />
<rect x="586.246204840767" y="118.0832626279788" width="20.2583221534816" height="20.2583221534816" rx="1.51937416151112" ry="1.51937416151112" fill="#A6D7DE" />
<rect x="586.246204840767" y="118.0832626279788" width="3.03874832302224" height="20.2583221534816" rx="1.51937416151112" ry="1.51937416151112" fill="#7AC0C6" />
<rect x="565.4628956802592" y="139.3915587955128" width="20.2583221534816" height="20.2583221534816" rx="1.51937416151112" ry="1.51937416151112" fill="#0E7695" />
<rect x="565.4628956802592" y="139.3915587955128" width="20.2583221534816" height="3.03874832302224" rx="1.51937416151112" ry="1.51937416151112" fill="#1D3052" />
<rect x="544.6795865197513" y="118.0832626279788" width="20.2583221534816" height="20.2583221534816" rx="1.51937416151112" ry="1.51937416151112" fill="#05A1B0" />
<rect x="561.8991603502106" y="118.0832626279788" width="3.03874832302224" height="20.2583221534816" rx="1.51937416151112" ry="1.51937416151112" fill="#0E7695" />
<circle cx="657.3552340542" cy="128.7374107117458" r="9.5424108924174" fill="#1D3052" />
<rect x="647.2260729774592" y="97.8249404744972" width="20.2583221534816" height="20.2583221534816" rx="1.51937416151112" ry="1.51937416151112" fill="#7AC0C6" />
<rect x="647.2260729774592" y="115.04451430495655" width="20.2583221534816" height="3.03874832302224" rx="1.51937416151112" ry="1.51937416151112" fill="#05A1B0" />
<rect x="668.009382137967" y="118.0832626279788" width="20.2583221534816" height="20.2583221534816" rx="1.51937416151112" ry="1.51937416151112" fill="#A6D7DE" />
<rect x="668.009382137967" y="118.0832626279788" width="3.03874832302224" height="20.2583221534816" rx="1.51937416151112" ry="1.51937416151112" fill="#7AC0C6" />
<rect x="647.2260729774592" y="139.3915587955128" width="20.2583221534816" height="20.2583221534816" rx="1.51937416151112" ry="1.51937416151112" fill="#0E7695" />
<rect x="647.2260729774592" y="139.3915587955128" width="20.2583221534816" height="3.03874832302224" rx="1.51937416151112" ry="1.51937416151112" fill="#1D3052" />
<rect x="626.4427638169514" y="118.0832626279788" width="20.2583221534816" height="20.2583221534816" rx="1.51937416151112" ry="1.51937416151112" fill="#05A1B0" />
<rect x="643.6623376474107" y="118.0832626279788" width="3.03874832302224" height="20.2583221534816" rx="1.51937416151112" ry="1.51937416151112" fill="#0E7695" />
<circle cx="739.1184113514" cy="128.7374107117458" r="9.5424108924174" fill="#1D3052" />
<rect x="728.9892502746593" y="97.8249404744972" width="20.2583221534816" height="20.2583221534816" rx="1.51937416151112" ry="1.51937416151112" fill="#7AC0C6" />
<rect x="728.9892502746593" y="115.04451430495655" width="20.2583221534816" height="3.03874832302224" rx="1.51937416151112" ry="1.51937416151112" fill="#05A1B0" />
<rect x="749.7725594351671" y="118.0832626279788" width="20.2583221534816" height="20.2583221534816" rx="1.51937416151112" ry="1.51937416151112" fill="#A6D7DE" />
<rect x="749.7725594351671" y="118.0832626279788" width="3.03874832302224" height="20.2583221534816" rx="1.51937416151112" ry="1.51937416151112" fill="#7AC0C6" />
<rect x="728.9892502746593" y="139.3915587955128" width="20.2583221534816" height="20.2583221534816" rx="1.51937416151112" ry="1.51937416151112" fill="#0E7695" />
<rect x="728.9892502746593" y="139.3915587955128" width="20.2583221534816" height="3.03874832302224" rx="1.51937416151112" ry="1.51937416151112" fill="#1D3052" />
<rect x="708.2059411141514" y="118.0832626279788" width="20.2583221534816" height="20.2583221534816" rx="1.51937416151112" ry="1.51937416151112" fill="#05A1B0" />
<rect x="725.4255149446108" y="118.0832626279788" width="3.03874832302224" height="20.2583221534816" rx="1.51937416151112" ry="1.51937416151112" fill="#0E7695" />
<rect x="16.0" y="256.6573373475726" width="59.894581622400004" height="20.5690768" rx="4.11381536" ry="4.11381536" fill="#037065" />
<text x="23.5" y="266.94187574757257" font-size="9.256084560000001" text-anchor="start" dominant-baseline="central" font-family="Roboto, sans-serif" fill="white">LAYER 0</text>
<circle cx="392.0657021626001" cy="267.31148543133963" r="9.5424108924174" fill="#053F3A" />
<rect x="381.93654108585923" y="236.39901519409102" width="20.2583221534816" height="20.2583221534816" rx="1.51937416151112" ry="1.51937416151112" fill="#0E7695" />
<rect x="381.93654108585923" y="253.61858902455035" width="20.2583221534816" height="3.03874832302224" rx="1.51937416151112" ry="1.51937416151112" fill="#1D3052" />
<text x="384.2984560650439" y="245.76848919007625" font-size="6.79634033536157" text-anchor="start" dominant-baseline="central" font-family="Roboto, sans-serif" fill="white" opacity="1.0">LT(1)</text>
<rect x="402.71985024636706" y="256.6573373475726" width="20.2583221534816" height="20.2583221534816" rx="1.51937416151112" ry="1.51937416151112" fill="#079E7C" />
<rect x="402.71985024636706" y="256.6573373475726" width="3.03874832302224" height="20.2583221534816" rx="1.51937416151112" ry="1.51937416151112" fill="#037065" />
<rect x="381.93654108585923" y="277.9656335151066" width="20.2583221534816" height="20.2583221534816" rx="1.51937416151112" ry="1.51937416151112" fill="#037065" />
<rect x="381.93654108585923" y="277.9656335151066" width="20.2583221534816" height="3.03874832302224" rx="1.51937416151112" ry="1.51937416151112" fill="#053F3A" />
<rect x="361.15323192535146" y="256.6573373475726" width="20.2583221534816" height="20.2583221534816" rx="1.51937416151112" ry="1.51937416151112" fill="#BDDCA7" />
<rect x="378.3728057558109" y="256.6573373475726" width="3.03874832302224" height="20.2583221534816" rx="1.51937416151112" ry="1.51937416151112" fill="#86BE81" />
<path d="M392.0657021626,230.39901519409102 L392.0657021626,238.39901519409102" stroke="#7AC0C6" stroke-width="1.0" />
<circle cx="392.0657021626" cy="238.39901519409102" r="1.0" fill="#7AC0C6" />
<circle cx="392.0657021626" cy="224.8279766018836" r="5.571038592207441" fill="#0E7695" stroke="#7AC0C6" stroke-width="1.0" />
<text x="390.15563178812886" y="224.8279766018836" font-size="6.685246310648929" text-anchor="start" dominant-baseline="central" font-family="Roboto, sans-serif" fill="white" opacity="1.0">1</text>
<circle cx="310.3025248654" cy="267.31148543133963" r="9.5424108924174" fill="#053F3A" />
<rect x="300.1733637886592" y="236.39901519409102" width="20.2583221534816" height="20.2583221534816" rx="1.51937416151112" ry="1.51937416151112" fill="#8673B5" />
<rect x="300.1733637886592" y="253.61858902455035" width="20.2583221534816" height="3.03874832302224" rx="1.51937416151112" ry="1.51937416151112" fill="#605181" />
<text x="302.53527876784386" y="245.76848919007625" font-size="6.79634033536157" text-anchor="start" dominant-baseline="central" font-family="Roboto, sans-serif" fill="white" opacity="1.0">LT(2)</text>
<rect x="320.956672949167" y="256.6573373475726" width="20.2583221534816" height="20.2583221534816" rx="1.51937416151112" ry="1.51937416151112" fill="#079E7C" />
<rect x="320.956672949167" y="256.6573373475726" width="3.03874832302224" height="20.2583221534816" rx="1.51937416151112" ry="1.51937416151112" fill="#037065" />
<rect x="300.1733637886592" y="277.9656335151066" width="20.2583221534816" height="20.2583221534816" rx="1.51937416151112" ry="1.51937416151112" fill="#037065" />
<rect x="300.1733637886592" y="277.9656335151066" width="20.2583221534816" height="3.03874832302224" rx="1.51937416151112" ry="1.51937416151112" fill="#053F3A" />
<rect x="279.3900546281514" y="256.6573373475726" width="20.2583221534816" height="20.2583221534816" rx="1.51937416151112" ry="1.51937416151112" fill="#BDDCA7" />
<rect x="296.6096284586108" y="256.6573373475726" width="3.03874832302224" height="20.2583221534816" rx="1.51937416151112" ry="1.51937416151112" fill="#86BE81" />
<path d="M310.30252486539996,230.39901519409102 L310.30252486539996,238.39901519409102" stroke="#A69DC6" stroke-width="1.0" />
<circle cx="310.30252486539996" cy="238.39901519409102" r="1.0" fill="#A69DC6" />
<circle cx="310.30252486539996" cy="224.8279766018836" r="5.571038592207441" fill="#8673B5" stroke="#A69DC6" stroke-width="1.0" />
<text x="308.3924544909288" y="224.8279766018836" font-size="6.685246310648929" text-anchor="start" dominant-baseline="central" font-family="Roboto, sans-serif" fill="white" opacity="1.0">2</text>
<circle cx="228.53934756820001" cy="267.31148543133963" r="9.5424108924174" fill="#053F3A" />
<rect x="218.41018649145923" y="236.39901519409102" width="20.2583221534816" height="20.2583221534816" rx="1.51937416151112" ry="1.51937416151112" fill="#86BE81" />
<rect x="218.41018649145923" y="253.61858902455035" width="20.2583221534816" height="3.03874832302224" rx="1.51937416151112" ry="1.51937416151112" fill="#079E7C" />
<rect x="239.193495651967" y="256.6573373475726" width="20.2583221534816" height="20.2583221534816" rx="1.51937416151112" ry="1.51937416151112" fill="#079E7C" />
<rect x="239.193495651967" y="256.6573373475726" width="3.03874832302224" height="20.2583221534816" rx="1.51937416151112" ry="1.51937416151112" fill="#037065" />
<rect x="218.41018649145923" y="277.9656335151066" width="20.2583221534816" height="20.2583221534816" rx="1.51937416151112" ry="1.51937416151112" fill="#037065" />
<rect x="218.41018649145923" y="277.9656335151066" width="20.2583221534816" height="3.03874832302224" rx="1.51937416151112" ry="1.51937416151112" fill="#053F3A" />
<rect x="197.6268773309514" y="256.6573373475726" width="20.2583221534816" height="20.2583221534816" rx="1.51937416151112" ry="1.51937416151112" fill="#BDDCA7" />
<rect x="214.84645116141076" y="256.6573373475726" width="3.03874832302224" height="20.2583221534816" rx="1.51937416151112" ry="1.51937416151112" fill="#86BE81" />
<circle cx="146.776170271" cy="267.31148543133963" r="9.5424108924174" fill="#053F3A" />
<rect x="136.64700919425923" y="236.39901519409102" width="20.2583221534816" height="20.2583221534816" rx="1.51937416151112" ry="1.51937416151112" fill="#86BE81" />
<rect x="136.64700919425923" y="253.61858902455035" width="20.2583221534816" height="3.03874832302224" rx="1.51937416151112" ry="1.51937416151112" fill="#079E7C" />
<rect x="157.430318354767" y="256.6573373475726" width="20.2583221534816" height="20.2583221534816" rx="1.51937416151112" ry="1.51937416151112" fill="#079E7C" />
<rect x="157.430318354767" y="256.6573373475726" width="3.03874832302224" height="20.2583221534816" rx="1.51937416151112" ry="1.51937416151112" fill="#037065" />
<rect x="136.64700919425923" y="277.9656335151066" width="20.2583221534816" height="20.2583221534816" rx="1.51937416151112" ry="1.51937416151112" fill="#037065" />
<rect x="136.64700919425923" y="277.9656335151066" width="20.2583221534816" height="3.03874832302224" rx="1.51937416151112" ry="1.51937416151112" fill="#053F3A" />
<rect x="115.86370003375141" y="256.6573373475726" width="20.2583221534816" height="20.2583221534816" rx="1.51937416151112" ry="1.51937416151112" fill="#BDDCA7" />
<rect x="133.08327386421078" y="256.6573373475726" width="3.03874832302224" height="20.2583221534816" rx="1.51937416151112" ry="1.51937416151112" fill="#86BE81" />
<circle cx="493.8288794598" cy="267.31148543133963" r="9.5424108924174" fill="#053F3A" />
<rect x="483.6997183830592" y="236.39901519409102" width="20.2583221534816" height="20.2583221534816" rx="1.51937416151112" ry="1.51937416151112" fill="#86BE81" />
<rect x="483.6997183830592" y="253.61858902455035" width="20.2583221534816" height="3.03874832302224" rx="1.51937416151112" ry="1.51937416151112" fill="#079E7C" />
<rect x="504.483027543567" y="256.6573373475726" width="20.2583221534816" height="20.2583221534816" rx="1.51937416151112" ry="1.51937416151112" fill="#BDDCA7" />
<rect x="504.483027543567" y="256.6573373475726" width="3.03874832302224" height="20.2583221534816" rx="1.51937416151112" ry="1.51937416151112" fill="#86BE81" />
<rect x="483.6997183830592" y="277.9656335151066" width="20.2583221534816" height="20.2583221534816" rx="1.51937416151112" ry="1.51937416151112" fill="#037065" />
<rect x="483.6997183830592" y="277.9656335151066" width="20.2583221534816" height="3.03874832302224" rx="1.51937416151112" ry="1.51937416151112" fill="#053F3A" />
<rect x="462.9164092225514" y="256.6573373475726" width="20.2583221534816" height="20.2583221534816" rx="1.51937416151112" ry="1.51937416151112" fill="#079E7C" />
<rect x="480.1359830530108" y="256.6573373475726" width="3.03874832302224" height="20.2583221534816" rx="1.51937416151112" ry="1.51937416151112" fill="#037065" />
<circle cx="575.5920567569999" cy="267.31148543133963" r="9.5424108924174" fill="#053F3A" />
<rect x="565.4628956802592" y="236.39901519409102" width="20.2583221534816" height="20.2583221534816" rx="1.51937416151112" ry="1.51937416151112" fill="#86BE81" />
<rect x="565.4628956802592" y="253.61858902455035" width="20.2583221534816" height="3.03874832302224" rx="1.51937416151112" ry="1.51937416151112" fill="#079E7C" />
<rect x="586.246204840767" y="256.6573373475726" width="20.2583221534816" height="20.2583221534816" rx="1.51937416151112" ry="1.51937416151112" fill="#BDDCA7" />
<rect x="586.246204840767" y="256.6573373475726" width="3.03874832302224" height="20.2583221534816" rx="1.51937416151112" ry="1.51937416151112" fill="#86BE81" />
<rect x="565.4628956802592" y="277.9656335151066" width="20.2583221534816" height="20.2583221534816" rx="1.51937416151112" ry="1.51937416151112" fill="#037065" />
<rect x="565.4628956802592" y="277.9656335151066" width="20.2583221534816" height="3.03874832302224" rx="1.51937416151112" ry="1.51937416151112" fill="#053F3A" />
<rect x="544.6795865197513" y="256.6573373475726" width="20.2583221534816" height="20.2583221534816" rx="1.51937416151112" ry="1.51937416151112" fill="#079E7C" />
<rect x="561.8991603502106" y="256.6573373475726" width="3.03874832302224" height="20.2583221534816" rx="1.51937416151112" ry="1.51937416151112" fill="#037065" />
<circle cx="657.3552340542" cy="267.31148543133963" r="9.5424108924174" fill="#053F3A" />
<rect x="647.2260729774592" y="236.39901519409102" width="20.2583221534816" height="20.2583221534816" rx="1.51937416151112" ry="1.51937416151112" fill="#86BE81" />
<rect x="647.2260729774592" y="253.61858902455035" width="20.2583221534816" height="3.03874832302224" rx="1.51937416151112" ry="1.51937416151112" fill="#079E7C" />
<rect x="668.009382137967" y="256.6573373475726" width="20.2583221534816" height="20.2583221534816" rx="1.51937416151112" ry="1.51937416151112" fill="#BDDCA7" />
<rect x="668.009382137967" y="256.6573373475726" width="3.03874832302224" height="20.2583221534816" rx="1.51937416151112" ry="1.51937416151112" fill="#86BE81" />
<rect x="647.2260729774592" y="277.9656335151066" width="20.2583221534816" height="20.2583221534816" rx="1.51937416151112" ry="1.51937416151112" fill="#037065" />
<rect x="647.2260729774592" y="277.9656335151066" width="20.2583221534816" height="3.03874832302224" rx="1.51937416151112" ry="1.51937416151112" fill="#053F3A" />
<rect x="626.4427638169514" y="256.6573373475726" width="20.2583221534816" height="20.2583221534816" rx="1.51937416151112" ry="1.51937416151112" fill="#079E7C" />
<rect x="643.6623376474107" y="256.6573373475726" width="3.03874832302224" height="20.2583221534816" rx="1.51937416151112" ry="1.51937416151112" fill="#037065" />
<circle cx="739.1184113514" cy="267.31148543133963" r="9.5424108924174" fill="#053F3A" />
<rect x="728.9892502746593" y="236.39901519409102" width="20.2583221534816" height="20.2583221534816" rx="1.51937416151112" ry="1.51937416151112" fill="#86BE81" />
<rect x="728.9892502746593" y="253.61858902455035" width="20.2583221534816" height="3.03874832302224" rx="1.51937416151112" ry="1.51937416151112" fill="#079E7C" />
<rect x="749.7725594351671" y="256.6573373475726" width="20.2583221534816" height="20.2583221534816" rx="1.51937416151112" ry="1.51937416151112" fill="#BDDCA7" />
<rect x="749.7725594351671" y="256.6573373475726" width="3.03874832302224" height="20.2583221534816" rx="1.51937416151112" ry="1.51937416151112" fill="#86BE81" />
<rect x="728.9892502746593" y="277.9656335151066" width="20.2583221534816" height="20.2583221534816" rx="1.51937416151112" ry="1.51937416151112" fill="#037065" />
<rect x="728.9892502746593" y="277.9656335151066" width="20.2583221534816" height="3.03874832302224" rx="1.51937416151112" ry="1.51937416151112" fill="#053F3A" />
<rect x="708.2059411141514" y="256.6573373475726" width="20.2583221534816" height="20.2583221534816" rx="1.51937416151112" ry="1.51937416151112" fill="#079E7C" />
<rect x="725.4255149446108" y="256.6573373475726" width="3.03874832302224" height="20.2583221534816" rx="1.51937416151112" ry="1.51937416151112" fill="#037065" />
<rect x="16.0" y="323.1245169072415" width="59.894581622400004" height="20.5690768" rx="4.11381536" ry="4.11381536" fill="black" />
<text x="23.5" y="333.4090553072415" font-size="9.256084560000001" text-anchor="start" dominant-baseline="central" font-family="Roboto, sans-serif" fill="white">THUMBS</text>
<path fill="#037065" d="M 346.1902329647441 322.0883563125654 A 3.86886413577888 3.86886413577888 0 0 1 350.2448855930219 318.22395566858825 L 366.68755817008207 318.22395566858825 A 3.86886413577888 3.86886413577888 0 0 1 370.74221079835985 322.0883563125654 L 374.4007006214651 398.1849446331535 A 3.86886413577888 3.86886413577888 0 0 1 370.7176249781851 402.04934527713067 L 346.21481878491886 402.04934527713067 A 3.86886413577888 3.86886413577888 0 0 1 342.53174314163886 398.1849446331535 Z" />
<path fill="#6F768B" d="M 295.7906228819341 325.57479752656815 A 2.4502806193266244 2.4502806193266244 0 0 1 298.24090350126073 323.1245169072415 L 342.34595464913997 323.1245169072415 A 2.4502806193266244 2.4502806193266244 0 0 1 344.6379111431185 325.5696771442772 L 343.23936296028603 347.1688768791423 A 2.4502806193266244 2.4502806193266244 0 0 1 340.6307582156113 349.614037116178 L 298.24090350126073 349.614037116178 A 2.4502806193266244 2.4502806193266244 0 0 1 295.7906228819341 347.16375649685136 Z" />
<path fill="white" d="M 306.84267809647577 355.0598409791318 A 2.398695764182906 2.398695764182906 0 0 1 309.24137386065865 352.66114521494893 L 354.8165933801339 352.66114521494893 A 2.398695764182906 2.398695764182906 0 0 1 357.2152891443168 355.0598409791318 L 357.2152891443168 368.04158245488975 A 2.398695764182906 2.398695764182906 0 0 1 354.8193668332249 370.55559364874676 L 309.2386004075677 372.74939001723357 A 2.398695764182906 2.398695764182906 0 0 1 306.84267809647577 370.4660096827248 Z" />
<path fill="#053F3A" d="M 308.0420259785672 356.25918886122327 A 2.398695764182906 2.398695764182906 0 0 1 310.4407217427501 353.8604930970404 L 353.61724549804245 353.8604930970404 A 2.398695764182906 2.398695764182906 0 0 1 356.01594126222534 356.25918886122327 L 356.01594126222534 366.8134502236281 A 2.398695764182906 2.398695764182906 0 0 1 353.61952595879353 369.31671683741524 L 310.438441281999 371.2009823505845 A 2.398695764182906 2.398695764182906 0 0 1 308.0420259785672 368.9068574360059 Z" />
<path fill="#6F768B" d="M 372.28683667243126 325.6993575532914 A 2.5792427571859204 2.5792427571859204 0 0 1 374.71545125182325 323.1245169072415 L 421.14182088116985 323.1245169072415 A 2.5792427571859204 2.5792427571859204 0 0 1 423.72106363835576 325.7037596644274 L 423.72106363835576 346.99904601862914 A 2.5792427571859204 2.5792427571859204 0 0 1 421.14182088116985 349.57828877581505 L 376.2629969061348 349.57828877581505 A 2.5792427571859204 2.5792427571859204 0 0 1 373.53312597115496 347.00344812976516 Z" />
<path fill="#6F768B" d="M 374.20044755447793 356.33961822979643 A 2.482521153791448 2.482521153791448 0 0 1 376.55316171631824 353.8604930970404 L 421.23854248456433 353.8604930970404 A 2.482521153791448 2.482521153791448 0 0 1 423.72106363835576 356.3430142508318 L 423.72106363835576 377.9290003260452 A 2.482521153791448 2.482521153791448 0 0 1 421.23854248456433 380.4115214798366 L 377.9433735624415 380.4115214798366 A 2.482521153791448 2.482521153791448 0 0 1 375.33104541669894 377.93239634708056 Z" />
<path fill="#053F3A" stroke="white" stroke-width="0.8382538960854241" d="M 350.67508528876857 330.2030987378254 A 2.1794601298221026 2.1794601298221026 0 0 1 352.9337461673881 328.0250781458947 L 363.9986975957158 328.0250781458947 A 2.1794601298221026 2.1794601298221026 0 0 1 366.2573584743353 330.2030987378254 L 366.76956009360873 344.2886432678433 A 2.1794601298221026 2.1794601298221026 0 0 1 364.6693007125841 346.46666385977403 L 352.2631430505198 346.46666385977403 A 2.1794601298221026 2.1794601298221026 0 0 1 350.16288366949516 344.2886432678433 Z" />
<path fill="#037065" d="M 515.1523708240401 322.0883563125654 A 3.86886413577888 3.86886413577888 0 0 1 519.2070234523178 318.22395566858825 L 535.6496960293782 318.22395566858825 A 3.86886413577888 3.86886413577888 0 0 1 539.7043486576559 322.0883563125654 L 543.3628384807611 398.1849446331535 A 3.86886413577888 3.86886413577888 0 0 1 539.6797628374811 402.04934527713067 L 515.1769566442149 402.04934527713067 A 3.86886413577888 3.86886413577888 0 0 1 511.4938810009349 398.1849446331535 Z" />
<path fill="#6F768B" d="M 541.2566704792814 325.5696771442772 A 2.4502806193266244 2.4502806193266244 0 0 1 543.54862697326 323.1245169072415 L 587.6536781211393 323.1245169072415 A 2.4502806193266244 2.4502806193266244 0 0 1 590.1039587404658 325.57479752656815 L 590.1039587404658 347.16375649685136 A 2.4502806193266244 2.4502806193266244 0 0 1 587.6536781211393 349.614037116178 L 545.2638234067886 349.614037116178 A 2.4502806193266244 2.4502806193266244 0 0 1 542.655218662114 347.1688768791423 Z" />
<path fill="white" d="M 528.6792924780831 355.0598409791318 A 2.398695764182906 2.398695764182906 0 0 1 531.077988242266 352.66114521494893 L 576.6532077617412 352.66114521494893 A 2.398695764182906 2.398695764182906 0 0 1 579.0519035259241 355.0598409791318 L 579.0519035259241 370.4660096827248 A 2.398695764182906 2.398695764182906 0 0 1 576.6559812148322 372.74939001723357 L 531.075214789175 370.55559364874676 A 2.398695764182906 2.398695764182906 0 0 1 528.6792924780831 368.04158245488975 Z" />
<path fill="#053F3A" d="M 529.8786403601746 356.25918886122327 A 2.398695764182906 2.398695764182906 0 0 1 532.2773361243575 353.8604930970404 L 575.4538598796498 353.8604930970404 A 2.398695764182906 2.398695764182906 0 0 1 577.8525556438327 356.25918886122327 L 577.8525556438327 368.9068574360059 A 2.398695764182906 2.398695764182906 0 0 1 575.4561403404009 371.2009823505845 L 532.2750556636064 369.31671683741524 A 2.398695764182906 2.398695764182906 0 0 1 529.8786403601746 366.8134502236281 Z" />
<path fill="#6F768B" d="M 462.1735179840442 325.7037596644274 A 2.5792427571859204 2.5792427571859204 0 0 1 464.75276074123013 323.1245169072415 L 511.17913037057673 323.1245169072415 A 2.5792427571859204 2.5792427571859204 0 0 1 513.6077449499687 325.6993575532914 L 512.361455651245 347.00344812976516 A 2.5792427571859204 2.5792427571859204 0 0 1 509.6315847162652 349.57828877581505 L 464.75276074123013 349.57828877581505 A 2.5792427571859204 2.5792427571859204 0 0 1 462.1735179840442 346.99904601862914 Z" />
<path fill="#6F768B" d="M 462.1735179840442 356.3430142508318 A 2.482521153791448 2.482521153791448 0 0 1 464.65603913783565 353.8604930970404 L 509.34141990608174 353.8604930970404 A 2.482521153791448 2.482521153791448 0 0 1 511.69413406792205 356.33961822979643 L 510.5635362057011 377.93239634708056 A 2.482521153791448 2.482521153791448 0 0 1 507.95120805995856 380.4115214798366 L 464.65603913783565 380.4115214798366 A 2.482521153791448 2.482521153791448 0 0 1 462.1735179840442 377.9290003260452 Z" />
<path fill="#053F3A" stroke="white" stroke-width="0.8382538960854241" d="M 519.6372231480647 330.2030987378254 A 2.1794601298221026 2.1794601298221026 0 0 1 521.8958840266843 328.0250781458947 L 532.9608354550118 328.0250781458947 A 2.1794601298221026 2.1794601298221026 0 0 1 535.2194963336314 330.2030987378254 L 535.7316979529047 344.2886432678433 A 2.1794601298221026 2.1794601298221026 0 0 1 533.63143857188 346.46666385977403 L 521.2252809098159 346.46666385977403 A 2.1794601298221026 2.1794601298221026 0 0 1 519.1250215287912 344.2886432678433 Z" />
<g transform="translate(16.0, 16.0)">
<path d="M294.30252486539996,197.25693800967616 L294.30252486539996,185.1019447175872 L778.309986584178,185.1019447175872 L778.309986584178,30.3874832302224 L766.154993292089,30.3874832302224" fill="none" stroke="#A69DC6" stroke-width="2.1875" stroke-dasharray="0.05 6.125" stroke-linecap="round" opacity="0.7" />
<path d="M376.0657021626,197.25693800967616 L376.0657021626,172.94695142549824 L790.464979876267,172.94695142549824 L790.464979876267,112.2124237047196 L766.154993292089,112.2124237047196" fill="none" stroke="#7AC0C6" stroke-width="2.1875" stroke-dasharray="0.05 6.125" stroke-linecap="round" opacity="0.7" />
</g>
<text x="411.7793649381334" y="410.54934527713067" font-size="12.0" text-anchor="middle" dominant-baseline="text-before-edge" font-family="Roboto, sans-serif" fill="#4B5563">show: true</text>
<text x="843.0587298762669" y="34.4071052414816" font-size="9.256084560000001" text-anchor="start" dominant-baseline="text-after-edge" font-family="Roboto, sans-serif" fill="#6F768B">LAYERS</text>
<rect x="835.5587298762669" y="36.2583221534816" width="59.894581622400004" height="20.5690768" rx="4.11381536" ry="4.11381536" fill="#8673B5" />
<text x="843.0587298762669" y="46.5428605534816" font-size="9.256084560000001" text-anchor="start" dominant-baseline="central" font-family="Roboto, sans-serif" fill="white">LAYER 2</text>
<circle cx="1211.6244320388669" cy="46.912470237248606" r="9.5424108924174" fill="#31164F" />
<rect x="1201.4952709621261" y="16.0" width="20.2583221534816" height="20.2583221534816" rx="1.51937416151112" ry="1.51937416151112" fill="#A69DC6" />
<rect x="1201.4952709621261" y="33.21957383045936" width="20.2583221534816" height="3.03874832302224" rx="1.51937416151112" ry="1.51937416151112" fill="#8673B5" />
<rect x="1222.278580122634" y="36.2583221534816" width="20.2583221534816" height="20.2583221534816" rx="1.51937416151112" ry="1.51937416151112" fill="#8673B5" />
<rect x="1222.278580122634" y="36.2583221534816" width="3.03874832302224" height="20.2583221534816" rx="1.51937416151112" ry="1.51937416151112" fill="#605181" />
<rect x="1201.4952709621261" y="57.5666183210156" width="20.2583221534816" height="20.2583221534816" rx="1.51937416151112" ry="1.51937416151112" fill="#605181" />
<rect x="1201.4952709621261" y="57.5666183210156" width="20.2583221534816" height="3.03874832302224" rx="1.51937416151112" ry="1.51937416151112" fill="#31164F" />
<rect x="1180.7119618016184" y="36.2583221534816" width="20.2583221534816" height="20.2583221534816" rx="1.51937416151112" ry="1.51937416151112" fill="#CDC5EA" />
<rect x="1197.9315356320778" y="36.2583221534816" width="3.03874832302224" height="20.2583221534816" rx="1.51937416151112" ry="1.51937416151112" fill="#A69DC6" />
<circle cx="1129.861254741667" cy="46.912470237248606" r="9.5424108924174" fill="#31164F" />
<rect x="1119.7320936649262" y="16.0" width="20.2583221534816" height="20.2583221534816" rx="1.51937416151112" ry="1.51937416151112" fill="#A69DC6" />
<rect x="1119.7320936649262" y="33.21957383045936" width="20.2583221534816" height="3.03874832302224" rx="1.51937416151112" ry="1.51937416151112" fill="#8673B5" />
<rect x="1140.515402825434" y="36.2583221534816" width="20.2583221534816" height="20.2583221534816" rx="1.51937416151112" ry="1.51937416151112" fill="#8673B5" />
<rect x="1140.515402825434" y="36.2583221534816" width="3.03874832302224" height="20.2583221534816" rx="1.51937416151112" ry="1.51937416151112" fill="#605181" />
<rect x="1119.7320936649262" y="57.5666183210156" width="20.2583221534816" height="20.2583221534816" rx="1.51937416151112" ry="1.51937416151112" fill="#605181" />
<rect x="1119.7320936649262" y="57.5666183210156" width="20.2583221534816" height="3.03874832302224" rx="1.51937416151112" ry="1.51937416151112" fill="#31164F" />
<rect x="1098.9487845044184" y="36.2583221534816" width="20.2583221534816" height="20.2583221534816" rx="1.51937416151112" ry="1.51937416151112" fill="#CDC5EA" />
<rect x="1116.168358334878" y="36.2583221534816" width="3.03874832302224" height="20.2583221534816" rx="1.51937416151112" ry="1.51937416151112" fill="#A69DC6" />
<circle cx="1048.0980774444668" cy="46.912470237248606" r="9.5424108924174" fill="#31164F" />
<rect x="1037.968916367726" y="16.0" width="20.2583221534816" height="20.2583221534816" rx="1.51937416151112" ry="1.51937416151112" fill="#A69DC6" />
<rect x="1037.968916367726" y="33.21957383045936" width="20.2583221534816" height="3.03874832302224" rx="1.51937416151112" ry="1.51937416151112" fill="#8673B5" />
<rect x="1058.7522255282338" y="36.2583221534816" width="20.2583221534816" height="20.2583221534816" rx="1.51937416151112" ry="1.51937416151112" fill="#8673B5" />
<rect x="1058.7522255282338" y="36.2583221534816" width="3.03874832302224" height="20.2583221534816" rx="1.51937416151112" ry="1.51937416151112" fill="#605181" />
<rect x="1037.968916367726" y="57.5666183210156" width="20.2583221534816" height="20.2583221534816" rx="1.51937416151112" ry="1.51937416151112" fill="#605181" />
<rect x="1037.968916367726" y="57.5666183210156" width="20.2583221534816" height="3.03874832302224" rx="1.51937416151112" ry="1.51937416151112" fill="#31164F" />
<rect x="1017.1856072072181" y="36.2583221534816" width="20.2583221534816" height="20.2583221534816" rx="1.51937416151112" ry="1.51937416151112" fill="#CDC5EA" />
<rect x="1034.4051810376775" y="36.2583221534816" width="3.03874832302224" height="20.2583221534816" rx="1.51937416151112" ry="1.51937416151112" fill="#A69DC6" />
<circle cx="966.3349001472668" cy="46.912470237248606" r="9.5424108924174" fill="#31164F" />
<rect x="956.2057390705261" y="16.0" width="20.2583221534816" height="20.2583221534816" rx="1.51937416151112" ry="1.51937416151112" fill="#A69DC6" />
<rect x="956.2057390705261" y="33.21957383045936" width="20.2583221534816" height="3.03874832302224" rx="1.51937416151112" ry="1.51937416151112" fill="#8673B5" />
<rect x="976.9890482310338" y="36.2583221534816" width="20.2583221534816" height="20.2583221534816" rx="1.51937416151112" ry="1.51937416151112" fill="#8673B5" />
<rect x="976.9890482310338" y="36.2583221534816" width="3.03874832302224" height="20.2583221534816" rx="1.51937416151112" ry="1.51937416151112" fill="#605181" />
<rect x="956.2057390705261" y="57.5666183210156" width="20.2583221534816" height="20.2583221534816" rx="1.51937416151112" ry="1.51937416151112" fill="#605181" />
<rect x="956.2057390705261" y="57.5666183210156" width="20.2583221534816" height="3.03874832302224" rx="1.51937416151112" ry="1.51937416151112" fill="#31164F" />
<rect x="935.4224299100182" y="36.2583221534816" width="20.2583221534816" height="20.2583221534816" rx="1.51937416151112" ry="1.51937416151112" fill="#CDC5EA" />
<rect x="952.6420037404775" y="36.2583221534816" width="3.03874832302224" height="20.2583221534816" rx="1.51937416151112" ry="1.51937416151112" fill="#A69DC6" />
<circle cx="1313.3876093360668" cy="46.912470237248606" r="9.5424108924174" fill="#31164F" />
<rect x="1303.258448259326" y="16.0" width="20.2583221534816" height="20.2583221534816" rx="1.51937416151112" ry="1.51937416151112" fill="#A69DC6" />
<rect x="1303.258448259326" y="33.21957383045936" width="20.2583221534816" height="3.03874832302224" rx="1.51937416151112" ry="1.51937416151112" fill="#8673B5" />
<rect x="1324.0417574198339" y="36.2583221534816" width="20.2583221534816" height="20.2583221534816" rx="1.51937416151112" ry="1.51937416151112" fill="#CDC5EA" />
<rect x="1324.0417574198339" y="36.2583221534816" width="3.03874832302224" height="20.2583221534816" rx="1.51937416151112" ry="1.51937416151112" fill="#A69DC6" />
<rect x="1303.258448259326" y="57.5666183210156" width="20.2583221534816" height="20.2583221534816" rx="1.51937416151112" ry="1.51937416151112" fill="#605181" />
<rect x="1303.258448259326" y="57.5666183210156" width="20.2583221534816" height="3.03874832302224" rx="1.51937416151112" ry="1.51937416151112" fill="#31164F" />
<rect x="1282.4751390988183" y="36.2583221534816" width="20.2583221534816" height="20.2583221534816" rx="1.51937416151112" ry="1.51937416151112" fill="#8673B5" />
<rect x="1299.6947129292778" y="36.2583221534816" width="3.03874832302224" height="20.2583221534816" rx="1.51937416151112" ry="1.51937416151112" fill="#605181" />
<circle cx="1395.1507866332668" cy="46.912470237248606" r="9.5424108924174" fill="#31164F" />
<rect x="1385.021625556526" y="16.0" width="20.2583221534816" height="20.2583221534816" rx="1.51937416151112" ry="1.51937416151112" fill="#A69DC6" />
<rect x="1385.021625556526" y="33.21957383045936" width="20.2583221534816" height="3.03874832302224" rx="1.51937416151112" ry="1.51937416151112" fill="#8673B5" />
<rect x="1405.8049347170338" y="36.2583221534816" width="20.2583221534816" height="20.2583221534816" rx="1.51937416151112" ry="1.51937416151112" fill="#CDC5EA" />
<rect x="1405.8049347170338" y="36.2583221534816" width="3.03874832302224" height="20.2583221534816" rx="1.51937416151112" ry="1.51937416151112" fill="#A69DC6" />
<rect x="1385.021625556526" y="57.5666183210156" width="20.2583221534816" height="20.2583221534816" rx="1.51937416151112" ry="1.51937416151112" fill="#605181" />
<rect x="1385.021625556526" y="57.5666183210156" width="20.2583221534816" height="3.03874832302224" rx="1.51937416151112" ry="1.51937416151112" fill="#31164F" />
<rect x="1364.2383163960183" y="36.2583221534816" width="20.2583221534816" height="20.2583221534816" rx="1.51937416151112" ry="1.51937416151112" fill="#8673B5" />
<rect x="1381.4578902264777" y="36.2583221534816" width="3.03874832302224" height="20.2583221534816" rx="1.51937416151112" ry="1.51937416151112" fill="#605181" />
<circle cx="1476.9139639304667" cy="46.912470237248606" r="9.5424108924174" fill="#31164F" />
<rect x="1466.784802853726" y="16.0" width="20.2583221534816" height="20.2583221534816" rx="1.51937416151112" ry="1.51937416151112" fill="#A69DC6" />
<rect x="1466.784802853726" y="33.21957383045936" width="20.2583221534816" height="3.03874832302224" rx="1.51937416151112" ry="1.51937416151112" fill="#8673B5" />
<rect x="1487.5681120142337" y="36.2583221534816" width="20.2583221534816" height="20.2583221534816" rx="1.51937416151112" ry="1.51937416151112" fill="#CDC5EA" />
<rect x="1487.5681120142337" y="36.2583221534816" width="3.03874832302224" height="20.2583221534816" rx="1.51937416151112" ry="1.51937416151112" fill="#A69DC6" />
<rect x="1466.784802853726" y="57.5666183210156" width="20.2583221534816" height="20.2583221534816" rx="1.51937416151112" ry="1.51937416151112" fill="#605181" />
<rect x="1466.784802853726" y="57.5666183210156" width="20.2583221534816" height="3.03874832302224" rx="1.51937416151112" ry="1.51937416151112" fill="#31164F" />
<rect x="1446.0014936932182" y="36.2583221534816" width="20.2583221534816" height="20.2583221534816" rx="1.51937416151112" ry="1.51937416151112" fill="#8673B5" />
<rect x="1463.2210675236777" y="36.2583221534816" width="3.03874832302224" height="20.2583221534816" rx="1.51937416151112" ry="1.51937416151112" fill="#605181" />
<circle cx="1558.6771412276669" cy="46.912470237248606" r="9.5424108924174" fill="#31164F" />
<rect x="1548.5479801509262" y="16.0" width="20.2583221534816" height="20.2583221534816" rx="1.51937416151112" ry="1.51937416151112" fill="#A69DC6" />
<rect x="1548.5479801509262" y="33.21957383045936" width="20.2583221534816" height="3.03874832302224" rx="1.51937416151112" ry="1.51937416151112" fill="#8673B5" />
<rect x="1569.331289311434" y="36.2583221534816" width="20.2583221534816" height="20.2583221534816" rx="1.51937416151112" ry="1.51937416151112" fill="#CDC5EA" />
<rect x="1569.331289311434" y="36.2583221534816" width="3.03874832302224" height="20.2583221534816" rx="1.51937416151112" ry="1.51937416151112" fill="#A69DC6" />
<rect x="1548.5479801509262" y="57.5666183210156" width="20.2583221534816" height="20.2583221534816" rx="1.51937416151112" ry="1.51937416151112" fill="#605181" />
<rect x="1548.5479801509262" y="57.5666183210156" width="20.2583221534816" height="3.03874832302224" rx="1.51937416151112" ry="1.51937416151112" fill="#31164F" />
<rect x="1527.7646709904184" y="36.2583221534816" width="20.2583221534816" height="20.2583221534816" rx="1.51937416151112" ry="1.51937416151112" fill="#8673B5" />
<rect x="1544.9842448208778" y="36.2583221534816" width="3.03874832302224" height="20.2583221534816" rx="1.51937416151112" ry="1.51937416151112" fill="#605181" />
<rect x="835.5587298762669" y="118.0832626279788" width="59.894581622400004" height="20.5690768" rx="4.11381536" ry="4.11381536" fill="#0E7695" />
<text x="843.0587298762669" y="128.3678010279788" font-size="9.256084560000001" text-anchor="start" dominant-baseline="central" font-family="Roboto, sans-serif" fill="white">LAYER 1</text>
<circle cx="1211.6244320388669" cy="128.7374107117458" r="9.5424108924174" fill="#1D3052" />
<rect x="1201.4952709621261" y="97.8249404744972" width="20.2583221534816" height="20.2583221534816" rx="1.51937416151112" ry="1.51937416151112" fill="#7AC0C6" />
<rect x="1201.4952709621261" y="115.04451430495655" width="20.2583221534816" height="3.03874832302224" rx="1.51937416151112" ry="1.51937416151112" fill="#05A1B0" />
<rect x="1222.278580122634" y="118.0832626279788" width="20.2583221534816" height="20.2583221534816" rx="1.51937416151112" ry="1.51937416151112" fill="#05A1B0" />
<rect x="1222.278580122634" y="118.0832626279788" width="3.03874832302224" height="20.2583221534816" rx="1.51937416151112" ry="1.51937416151112" fill="#0E7695" />
<rect x="1201.4952709621261" y="139.3915587955128" width="20.2583221534816" height="20.2583221534816" rx="1.51937416151112" ry="1.51937416151112" fill="#0E7695" />
<rect x="1201.4952709621261" y="139.3915587955128" width="20.2583221534816" height="3.03874832302224" rx="1.51937416151112" ry="1.51937416151112" fill="#1D3052" />
<rect x="1180.7119618016184" y="118.0832626279788" width="20.2583221534816" height="20.2583221534816" rx="1.51937416151112" ry="1.51937416151112" fill="#A6D7DE" />
<rect x="1197.9315356320778" y="118.0832626279788" width="3.03874832302224" height="20.2583221534816" rx="1.51937416151112" ry="1.51937416151112" fill="#7AC0C6" />
<circle cx="1129.861254741667" cy="128.7374107117458" r="9.5424108924174" fill="#1D3052" />
<rect x="1119.7320936649262" y="97.8249404744972" width="20.2583221534816" height="20.2583221534816" rx="1.51937416151112" ry="1.51937416151112" fill="#7AC0C6" />
<rect x="1119.7320936649262" y="115.04451430495655" width="20.2583221534816" height="3.03874832302224" rx="1.51937416151112" ry="1.51937416151112" fill="#05A1B0" />
<rect x="1140.515402825434" y="118.0832626279788" width="20.2583221534816" height="20.2583221534816" rx="1.51937416151112" ry="1.51937416151112" fill="#05A1B0" />
<rect x="1140.515402825434" y="118.0832626279788" width="3.03874832302224" height="20.2583221534816" rx="1.51937416151112" ry="1.51937416151112" fill="#0E7695" />
<rect x="1119.7320936649262" y="139.3915587955128" width="20.2583221534816" height="20.2583221534816" rx="1.51937416151112" ry="1.51937416151112" fill="#0E7695" />
<rect x="1119.7320936649262" y="139.3915587955128" width="20.2583221534816" height="3.03874832302224" rx="1.51937416151112" ry="1.51937416151112" fill="#1D3052" />
<rect x="1098.9487845044184" y="118.0832626279788" width="20.2583221534816" height="20.2583221534816" rx="1.51937416151112" ry="1.51937416151112" fill="#A6D7DE" />
<rect x="1116.168358334878" y="118.0832626279788" width="3.03874832302224" height="20.2583221534816" rx="1.51937416151112" ry="1.51937416151112" fill="#7AC0C6" />
<circle cx="1048.0980774444668" cy="128.7374107117458" r="9.5424108924174" fill="#1D3052" />
<rect x="1037.968916367726" y="97.8249404744972" width="20.2583221534816" height="20.2583221534816" rx="1.51937416151112" ry="1.51937416151112" fill="#7AC0C6" />
<rect x="1037.968916367726" y="115.04451430495655" width="20.2583221534816" height="3.03874832302224" rx="1.51937416151112" ry="1.51937416151112" fill="#05A1B0" />
<rect x="1058.7522255282338" y="118.0832626279788" width="20.2583221534816" height="20.2583221534816" rx="1.51937416151112" ry="1.51937416151112" fill="#05A1B0" />
<rect x="1058.7522255282338" y="118.0832626279788" width="3.03874832302224" height="20.2583221534816" rx="1.51937416151112" ry="1.51937416151112" fill="#0E7695" />
<rect x="1037.968916367726" y="139.3915587955128" width="20.2583221534816" height="20.2583221534816" rx="1.51937416151112" ry="1.51937416151112" fill="#0E7695" />
<rect x="1037.968916367726" y="139.3915587955128" width="20.2583221534816" height="3.03874832302224" rx="1.51937416151112" ry="1.51937416151112" fill="#1D3052" />
<rect x="1017.1856072072181" y="118.0832626279788" width="20.2583221534816" height="20.2583221534816" rx="1.51937416151112" ry="1.51937416151112" fill="#A6D7DE" />
<rect x="1034.4051810376775" y="118.0832626279788" width="3.03874832302224" height="20.2583221534816" rx="1.51937416151112" ry="1.51937416151112" fill="#7AC0C6" />
<circle cx="966.3349001472668" cy="128.7374107117458" r="9.5424108924174" fill="#1D3052" />
<rect x="956.2057390705261" y="97.8249404744972" width="20.2583221534816" height="20.2583221534816" rx="1.51937416151112" ry="1.51937416151112" fill="#7AC0C6" />
<rect x="956.2057390705261" y="115.04451430495655" width="20.2583221534816" height="3.03874832302224" rx="1.51937416151112" ry="1.51937416151112" fill="#05A1B0" />
<rect x="976.9890482310338" y="118.0832626279788" width="20.2583221534816" height="20.2583221534816" rx="1.51937416151112" ry="1.51937416151112" fill="#05A1B0" />
<rect x="976.9890482310338" y="118.0832626279788" width="3.03874832302224" height="20.2583221534816" rx="1.51937416151112" ry="1.51937416151112" fill="#0E7695" />
<rect x="956.2057390705261" y="139.3915587955128" width="20.2583221534816" height="20.2583221534816" rx="1.51937416151112" ry="1.51937416151112" fill="#0E7695" />
<rect x="956.2057390705261" y="139.3915587955128" width="20.2583221534816" height="3.03874832302224" rx="1.51937416151112" ry="1.51937416151112" fill="#1D3052" />
<rect x="935.4224299100182" y="118.0832626279788" width="20.2583221534816" height="20.2583221534816" rx="1.51937416151112" ry="1.51937416151112" fill="#A6D7DE" />
<rect x="952.6420037404775" y="118.0832626279788" width="3.03874832302224" height="20.2583221534816" rx="1.51937416151112" ry="1.51937416151112" fill="#7AC0C6" />
<circle cx="1313.3876093360668" cy="128.7374107117458" r="9.5424108924174" fill="#1D3052" />
<rect x="1303.258448259326" y="97.8249404744972" width="20.2583221534816" height="20.2583221534816" rx="1.51937416151112" ry="1.51937416151112" fill="#7AC0C6" />
<rect x="1303.258448259326" y="115.04451430495655" width="20.2583221534816" height="3.03874832302224" rx="1.51937416151112" ry="1.51937416151112" fill="#05A1B0" />
<rect x="1324.0417574198339" y="118.0832626279788" width="20.2583221534816" height="20.2583221534816" rx="1.51937416151112" ry="1.51937416151112" fill="#A6D7DE" />
<rect x="1324.0417574198339" y="118.0832626279788" width="3.03874832302224" height="20.2583221534816" rx="1.51937416151112" ry="1.51937416151112" fill="#7AC0C6" />
<rect x="1303.258448259326" y="139.3915587955128" width="20.2583221534816" height="20.2583221534816" rx="1.51937416151112" ry="1.51937416151112" fill="#0E7695" />
<rect x="1303.258448259326" y="139.3915587955128" width="20.2583221534816" height="3.03874832302224" rx="1.51937416151112" ry="1.51937416151112" fill="#1D3052" />
<rect x="1282.4751390988183" y="118.0832626279788" width="20.2583221534816" height="20.2583221534816" rx="1.51937416151112" ry="1.51937416151112" fill="#05A1B0" />
<rect x="1299.6947129292778" y="118.0832626279788" width="3.03874832302224" height="20.2583221534816" rx="1.51937416151112" ry="1.51937416151112" fill="#0E7695" />
<circle cx="1395.1507866332668" cy="128.7374107117458" r="9.5424108924174" fill="#1D3052" />
<rect x="1385.021625556526" y="97.8249404744972" width="20.2583221534816" height="20.2583221534816" rx="1.51937416151112" ry="1.51937416151112" fill="#7AC0C6" />
<rect x="1385.021625556526" y="115.04451430495655" width="20.2583221534816" height="3.03874832302224" rx="1.51937416151112" ry="1.51937416151112" fill="#05A1B0" />
<rect x="1405.8049347170338" y="118.0832626279788" width="20.2583221534816" height="20.2583221534816" rx="1.51937416151112" ry="1.51937416151112" fill="#A6D7DE" />
<rect x="1405.8049347170338" y="118.0832626279788" width="3.03874832302224" height="20.2583221534816" rx="1.51937416151112" ry="1.51937416151112" fill="#7AC0C6" />
<rect x="1385.021625556526" y="139.3915587955128" width="20.2583221534816" height="20.2583221534816" rx="1.51937416151112" ry="1.51937416151112" fill="#0E7695" />
<rect x="1385.021625556526" y="139.3915587955128" width="20.2583221534816" height="3.03874832302224" rx="1.51937416151112" ry="1.51937416151112" fill="#1D3052" />
<rect x="1364.2383163960183" y="118.0832626279788" width="20.2583221534816" height="20.2583221534816" rx="1.51937416151112" ry="1.51937416151112" fill="#05A1B0" />
<rect x="1381.4578902264777" y="118.0832626279788" width="3.03874832302224" height="20.2583221534816" rx="1.51937416151112" ry="1.51937416151112" fill="#0E7695" />
<circle cx="1476.9139639304667" cy="128.7374107117458" r="9.5424108924174" fill="#1D3052" />
<rect x="1466.784802853726" y="97.8249404744972" width="20.2583221534816" height="20.2583221534816" rx="1.51937416151112" ry="1.51937416151112" fill="#7AC0C6" />
<rect x="1466.784802853726" y="115.04451430495655" width="20.2583221534816" height="3.03874832302224" rx="1.51937416151112" ry="1.51937416151112" fill="#05A1B0" />
<rect x="1487.5681120142337" y="118.0832626279788" width="20.2583221534816" height="20.2583221534816" rx="1.51937416151112" ry="1.51937416151112" fill="#A6D7DE" />
<rect x="1487.5681120142337" y="118.0832626279788" width="3.03874832302224" height="20.2583221534816" rx="1.51937416151112" ry="1.51937416151112" fill="#7AC0C6" />
<rect x="1466.784802853726" y="139.3915587955128" width="20.2583221534816" height="20.2583221534816" rx="1.51937416151112" ry="1.51937416151112" fill="#0E7695" />
<rect x="1466.784802853726" y="139.3915587955128" width="20.2583221534816" height="3.03874832302224" rx="1.51937416151112" ry="1.51937416151112" fill="#1D3052" />
<rect x="1446.0014936932182" y="118.0832626279788" width="20.2583221534816" height="20.2583221534816" rx="1.51937416151112" ry="1.51937416151112" fill="#05A1B0" />
<rect x="1463.2210675236777" y="118.0832626279788" width="3.03874832302224" height="20.2583221534816" rx="1.51937416151112" ry="1.51937416151112" fill="#0E7695" />
<circle cx="1558.6771412276669" cy="128.7374107117458" r="9.5424108924174" fill="#1D3052" />
<rect x="1548.5479801509262" y="97.8249404744972" width="20.2583221534816" height="20.2583221534816" rx="1.51937416151112" ry="1.51937416151112" fill="#7AC0C6" />
<rect x="1548.5479801509262" y="115.04451430495655" width="20.2583221534816" height="3.03874832302224" rx="1.51937416151112" ry="1.51937416151112" fill="#05A1B0" />
<rect x="1569.331289311434" y="118.0832626279788" width="20.2583221534816" height="20.2583221534816" rx="1.51937416151112" ry="1.51937416151112" fill="#A6D7DE" />
<rect x="1569.331289311434" y="118.0832626279788" width="3.03874832302224" height="20.2583221534816" rx="1.51937416151112" ry="1.51937416151112" fill="#7AC0C6" />
<rect x="1548.5479801509262" y="139.3915587955128" width="20.2583221534816" height="20.2583221534816" rx="1.51937416151112" ry="1.51937416151112" fill="#0E7695" />
<rect x="1548.5479801509262" y="139.3915587955128" width="20.2583221534816" height="3.03874832302224" rx="1.51937416151112" ry="1.51937416151112" fill="#1D3052" />
<rect x="1527.7646709904184" y="118.0832626279788" width="20.2583221534816" height="20.2583221534816" rx="1.51937416151112" ry="1.51937416151112" fill="#05A1B0" />
<rect x="1544.9842448208778" y="118.0832626279788" width="3.03874832302224" height="20.2583221534816" rx="1.51937416151112" ry="1.51937416151112" fill="#0E7695" />
<rect x="835.5587298762669" y="217.05028028689088" width="59.894581622400004" height="20.5690768" rx="4.11381536" ry="4.11381536" fill="#037065" />
<text x="843.0587298762669" y="227.33481868689088" font-size="9.256084560000001" text-anchor="start" dominant-baseline="central" font-family="Roboto, sans-serif" fill="white">LAYER 0</text>
<circle cx="1211.6244320388669" cy="227.70442837065787" r="9.5424108924174" fill="#053F3A" />
<rect x="1201.4952709621261" y="196.79195813340928" width="20.2583221534816" height="20.2583221534816" rx="1.51937416151112" ry="1.51937416151112" fill="#0E7695" />
<rect x="1201.4952709621261" y="214.01153196386863" width="20.2583221534816" height="3.03874832302224" rx="1.51937416151112" ry="1.51937416151112" fill="#1D3052" />
<text x="1203.857185941311" y="206.16143212939454" font-size="6.79634033536157" text-anchor="start" dominant-baseline="central" font-family="Roboto, sans-serif" fill="white" opacity="1.0">LT(1)</text>
<rect x="1222.278580122634" y="217.05028028689088" width="20.2583221534816" height="20.2583221534816" rx="1.51937416151112" ry="1.51937416151112" fill="#079E7C" />
<rect x="1222.278580122634" y="217.05028028689088" width="3.03874832302224" height="20.2583221534816" rx="1.51937416151112" ry="1.51937416151112" fill="#037065" />
<rect x="1201.4952709621261" y="238.35857645442488" width="20.2583221534816" height="20.2583221534816" rx="1.51937416151112" ry="1.51937416151112" fill="#037065" />
<rect x="1201.4952709621261" y="238.35857645442488" width="20.2583221534816" height="3.03874832302224" rx="1.51937416151112" ry="1.51937416151112" fill="#053F3A" />
<rect x="1180.7119618016184" y="217.05028028689088" width="20.2583221534816" height="20.2583221534816" rx="1.51937416151112" ry="1.51937416151112" fill="#BDDCA7" />
<rect x="1197.9315356320778" y="217.05028028689088" width="3.03874832302224" height="20.2583221534816" rx="1.51937416151112" ry="1.51937416151112" fill="#86BE81" />
<path d="M1211.6244320388669,190.79195813340928 L1211.6244320388669,198.79195813340928" stroke="#7AC0C6" stroke-width="1.0" />
<circle cx="1211.6244320388669" cy="198.79195813340928" r="1.0" fill="#7AC0C6" />
<circle cx="1211.6244320388669" cy="185.22091954120185" r="5.571038592207441" fill="#0E7695" stroke="#7AC0C6" stroke-width="1.0" />
<text x="1209.7143616643957" y="185.22091954120185" font-size="6.685246310648929" text-anchor="start" dominant-baseline="central" font-family="Roboto, sans-serif" fill="white" opacity="1.0">1</text>
<circle cx="1129.861254741667" cy="227.70442837065787" r="9.5424108924174" fill="#053F3A" />
<rect x="1119.7320936649262" y="196.79195813340928" width="20.2583221534816" height="20.2583221534816" rx="1.51937416151112" ry="1.51937416151112" fill="#8673B5" />
<rect x="1119.7320936649262" y="214.01153196386863" width="20.2583221534816" height="3.03874832302224" rx="1.51937416151112" ry="1.51937416151112" fill="#605181" />
<text x="1122.094008644111" y="206.16143212939454" font-size="6.79634033536157" text-anchor="start" dominant-baseline="central" font-family="Roboto, sans-serif" fill="white" opacity="1.0">LT(2)</text>
<rect x="1140.515402825434" y="217.05028028689088" width="20.2583221534816" height="20.2583221534816" rx="1.51937416151112" ry="1.51937416151112" fill="#079E7C" />
<rect x="1140.515402825434" y="217.05028028689088" width="3.03874832302224" height="20.2583221534816" rx="1.51937416151112" ry="1.51937416151112" fill="#037065" />
<rect x="1119.7320936649262" y="238.35857645442488" width="20.2583221534816" height="20.2583221534816" rx="1.51937416151112" ry="1.51937416151112" fill="#037065" />
<rect x="1119.7320936649262" y="238.35857645442488" width="20.2583221534816" height="3.03874832302224" rx="1.51937416151112" ry="1.51937416151112" fill="#053F3A" />
<rect x="1098.9487845044184" y="217.05028028689088" width="20.2583221534816" height="20.2583221534816" rx="1.51937416151112" ry="1.51937416151112" fill="#BDDCA7" />
<rect x="1116.168358334878" y="217.05028028689088" width="3.03874832302224" height="20.2583221534816" rx="1.51937416151112" ry="1.51937416151112" fill="#86BE81" />
<path d="M1129.861254741667,190.79195813340928 L1129.861254741667,198.79195813340928" stroke="#A69DC6" stroke-width="1.0" />
<circle cx="1129.861254741667" cy="198.79195813340928" r="1.0" fill="#A69DC6" />
<circle cx="1129.861254741667" cy="185.22091954120185" r="5.571038592207441" fill="#8673B5" stroke="#A69DC6" stroke-width="1.0" />
<text x="1127.9511843671958" y="185.22091954120185" font-size="6.685246310648929" text-anchor="start" dominant-baseline="central" font-family="Roboto, sans-serif" fill="white" opacity="1.0">2</text>
<circle cx="1048.0980774444668" cy="227.70442837065787" r="9.5424108924174" fill="#053F3A" />
<rect x="1037.968916367726" y="196.79195813340928" width="20.2583221534816" height="20.2583221534816" rx="1.51937416151112" ry="1.51937416151112" fill="#86BE81" />
<rect x="1037.968916367726" y="214.01153196386863" width="20.2583221534816" height="3.03874832302224" rx="1.51937416151112" ry="1.51937416151112" fill="#079E7C" />
<rect x="1058.7522255282338" y="217.05028028689088" width="20.2583221534816" height="20.2583221534816" rx="1.51937416151112" ry="1.51937416151112" fill="#079E7C" />
<rect x="1058.7522255282338" y="217.05028028689088" width="3.03874832302224" height="20.2583221534816" rx="1.51937416151112" ry="1.51937416151112" fill="#037065" />
<rect x="1037.968916367726" y="238.35857645442488" width="20.2583221534816" height="20.2583221534816" rx="1.51937416151112" ry="1.51937416151112" fill="#037065" />
<rect x="1037.968916367726" y="238.35857645442488" width="20.2583221534816" height="3.03874832302224" rx="1.51937416151112" ry="1.51937416151112" fill="#053F3A" />
<rect x="1017.1856072072181" y="217.05028028689088" width="20.2583221534816" height="20.2583221534816" rx="1.51937416151112" ry="1.51937416151112" fill="#BDDCA7" />
<rect x="1034.4051810376775" y="217.05028028689088" width="3.03874832302224" height="20.2583221534816" rx="1.51937416151112" ry="1.51937416151112" fill="#86BE81" />
<circle cx="966.3349001472668" cy="227.70442837065787" r="9.5424108924174" fill="#053F3A" />
<rect x="956.2057390705261" y="196.79195813340928" width="20.2583221534816" height="20.2583221534816" rx="1.51937416151112" ry="1.51937416151112" fill="#86BE81" />
<rect x="956.2057390705261" y="214.01153196386863" width="20.2583221534816" height="3.03874832302224" rx="1.51937416151112" ry="1.51937416151112" fill="#079E7C" />
<rect x="976.9890482310338" y="217.05028028689088" width="20.2583221534816" height="20.2583221534816" rx="1.51937416151112" ry="1.51937416151112" fill="#079E7C" />
<rect x="976.9890482310338" y="217.05028028689088" width="3.03874832302224" height="20.2583221534816" rx="1.51937416151112" ry="1.51937416151112" fill="#037065" />
<rect x="956.2057390705261" y="238.35857645442488" width="20.2583221534816" height="20.2583221534816" rx="1.51937416151112" ry="1.51937416151112" fill="#037065" />
<rect x="956.2057390705261" y="238.35857645442488" width="20.2583221534816" height="3.03874832302224" rx="1.51937416151112" ry="1.51937416151112" fill="#053F3A" />
<rect x="935.4224299100182" y="217.05028028689088" width="20.2583221534816" height="20.2583221534816" rx="1.51937416151112" ry="1.51937416151112" fill="#BDDCA7" />
<rect x="952.6420037404775" y="217.05028028689088" width="3.03874832302224" height="20.2583221534816" rx="1.51937416151112" ry="1.51937416151112" fill="#86BE81" />
<circle cx="1313.3876093360668" cy="227.70442837065787" r="9.5424108924174" fill="#053F3A" />
<rect x="1303.258448259326" y="196.79195813340928" width="20.2583221534816" height="20.2583221534816" rx="1.51937416151112" ry="1.51937416151112" fill="#86BE81" />
<rect x="1303.258448259326" y="214.01153196386863" width="20.2583221534816" height="3.03874832302224" rx="1.51937416151112" ry="1.51937416151112" fill="#079E7C" />
<rect x="1324.0417574198339" y="217.05028028689088" width="20.2583221534816" height="20.2583221534816" rx="1.51937416151112" ry="1.51937416151112" fill="#BDDCA7" />
<rect x="1324.0417574198339" y="217.05028028689088" width="3.03874832302224" height="20.2583221534816" rx="1.51937416151112" ry="1.51937416151112" fill="#86BE81" />
<rect x="1303.258448259326" y="238.35857645442488" width="20.2583221534816" height="20.2583221534816" rx="1.51937416151112" ry="1.51937416151112" fill="#037065" />
<rect x="1303.258448259326" y="238.35857645442488" width="20.2583221534816" height="3.03874832302224" rx="1.51937416151112" ry="1.51937416151112" fill="#053F3A" />
<rect x="1282.4751390988183" y="217.05028028689088" width="20.2583221534816" height="20.2583221534816" rx="1.51937416151112" ry="1.51937416151112" fill="#079E7C" />
<rect x="1299.6947129292778" y="217.05028028689088" width="3.03874832302224" height="20.2583221534816" rx="1.51937416151112" ry="1.51937416151112" fill="#037065" />
<circle cx="1395.1507866332668" cy="227.70442837065787" r="9.5424108924174" fill="#053F3A" />
<rect x="1385.021625556526" y="196.79195813340928" width="20.2583221534816" height="20.2583221534816" rx="1.51937416151112" ry="1.51937416151112" fill="#86BE81" />
<rect x="1385.021625556526" y="214.01153196386863" width="20.2583221534816" height="3.03874832302224" rx="1.51937416151112" ry="1.51937416151112" fill="#079E7C" />
<rect x="1405.8049347170338" y="217.05028028689088" width="20.2583221534816" height="20.2583221534816" rx="1.51937416151112" ry="1.51937416151112" fill="#BDDCA7" />
<rect x="1405.8049347170338" y="217.05028028689088" width="3.03874832302224" height="20.2583221534816" rx="1.51937416151112" ry="1.51937416151112" fill="#86BE81" />
<rect x="1385.021625556526" y="238.35857645442488" width="20.2583221534816" height="20.2583221534816" rx="1.51937416151112" ry="1.51937416151112" fill="#037065" />
<rect x="1385.021625556526" y="238.35857645442488" width="20.2583221534816" height="3.03874832302224" rx="1.51937416151112" ry="1.51937416151112" fill="#053F3A" />
<rect x="1364.2383163960183" y="217.05028028689088" width="20.2583221534816" height="20.2583221534816" rx="1.51937416151112" ry="1.51937416151112" fill="#079E7C" />
<rect x="1381.4578902264777" y="217.05028028689088" width="3.03874832302224" height="20.2583221534816" rx="1.51937416151112" ry="1.51937416151112" fill="#037065" />
<circle cx="1476.9139639304667" cy="227.70442837065787" r="9.5424108924174" fill="#053F3A" />
<rect x="1466.784802853726" y="196.79195813340928" width="20.2583221534816" height="20.2583221534816" rx="1.51937416151112" ry="1.51937416151112" fill="#86BE81" />
<rect x="1466.784802853726" y="214.01153196386863" width="20.2583221534816" height="3.03874832302224" rx="1.51937416151112" ry="1.51937416151112" fill="#079E7C" />
<rect x="1487.5681120142337" y="217.05028028689088" width="20.2583221534816" height="20.2583221534816" rx="1.51937416151112" ry="1.51937416151112" fill="#BDDCA7" />
<rect x="1487.5681120142337" y="217.05028028689088" width="3.03874832302224" height="20.2583221534816" rx="1.51937416151112" ry="1.51937416151112" fill="#86BE81" />
<rect x="1466.784802853726" y="238.35857645442488" width="20.2583221534816" height="20.2583221534816" rx="1.51937416151112" ry="1.51937416151112" fill="#037065" />
<rect x="1466.784802853726" y="238.35857645442488" width="20.2583221534816" height="3.03874832302224" rx="1.51937416151112" ry="1.51937416151112" fill="#053F3A" />
<rect x="1446.0014936932182" y="217.05028028689088" width="20.2583221534816" height="20.2583221534816" rx="1.51937416151112" ry="1.51937416151112" fill="#079E7C" />
<rect x="1463.2210675236777" y="217.05028028689088" width="3.03874832302224" height="20.2583221534816" rx="1.51937416151112" ry="1.51937416151112" fill="#037065" />
<circle cx="1558.6771412276669" cy="227.70442837065787" r="9.5424108924174" fill="#053F3A" />
<rect x="1548.5479801509262" y="196.79195813340928" width="20.2583221534816" height="20.2583221534816" rx="1.51937416151112" ry="1.51937416151112" fill="#86BE81" />
<rect x="1548.5479801509262" y="214.01153196386863" width="20.2583221534816" height="3.03874832302224" rx="1.51937416151112" ry="1.51937416151112" fill="#079E7C" />
<rect x="1569.331289311434" y="217.05028028689088" width="20.2583221534816" height="20.2583221534816" rx="1.51937416151112" ry="1.51937416151112" fill="#BDDCA7" />
<rect x="1569.331289311434" y="217.05028028689088" width="3.03874832302224" height="20.2583221534816" rx="1.51937416151112" ry="1.51937416151112" fill="#86BE81" />
<rect x="1548.5479801509262" y="238.35857645442488" width="20.2583221534816" height="20.2583221534816" rx="1.51937416151112" ry="1.51937416151112" fill="#037065" />
<rect x="1548.5479801509262" y="238.35857645442488" width="20.2583221534816" height="3.03874832302224" rx="1.51937416151112" ry="1.51937416151112" fill="#053F3A" />
<rect x="1527.7646709904184" y="217.05028028689088" width="20.2583221534816" height="20.2583221534816" rx="1.51937416151112" ry="1.51937416151112" fill="#079E7C" />
<rect x="1544.9842448208778" y="217.05028028689088" width="3.03874832302224" height="20.2583221534816" rx="1.51937416151112" ry="1.51937416151112" fill="#037065" />
<rect x="835.5587298762669" y="283.51745984655975" width="59.894581622400004" height="20.5690768" rx="4.11381536" ry="4.11381536" fill="black" />
<text x="843.0587298762669" y="293.8019982465597" font-size="9.256084560000001" text-anchor="start" dominant-baseline="central" font-family="Roboto, sans-serif" fill="white">THUMBS</text>
<path fill="#037065" d="M 1165.7489628410108 282.4812992518836 A 3.86886413577888 3.86886413577888 0 0 1 1169.8036154692886 278.6168986079065 L 1186.2462880463488 278.6168986079065 A 3.86886413577888 3.86886413577888 0 0 1 1190.3009406746266 282.4812992518836 L 1193.9594304977318 358.57788757247175 A 3.86886413577888 3.86886413577888 0 0 1 1190.2763548544517 362.4422882164489 L 1165.7735486611857 362.4422882164489 A 3.86886413577888 3.86886413577888 0 0 1 1162.0904730179057 358.57788757247175 Z" />
<path fill="#6F768B" d="M 1115.349352758201 285.9677404658864 A 2.4502806193266244 2.4502806193266244 0 0 1 1117.7996333775275 283.51745984655975 L 1161.9046845254068 283.51745984655975 A 2.4502806193266244 2.4502806193266244 0 0 1 1164.1966410193852 285.9626200835954 L 1162.798092836553 307.56181981846055 A 2.4502806193266244 2.4502806193266244 0 0 1 1160.1894880918783 310.00698005549623 L 1117.7996333775275 310.00698005549623 A 2.4502806193266244 2.4502806193266244 0 0 1 1115.349352758201 307.5566994361696 Z" />
<path fill="white" d="M 1126.4014079727426 315.45278391845005 A 2.398695764182906 2.398695764182906 0 0 1 1128.8001037369256 313.05408815426716 L 1174.3753232564006 313.05408815426716 A 2.398695764182906 2.398695764182906 0 0 1 1176.7740190205836 315.45278391845005 L 1176.7740190205836 328.434525394208 A 2.398695764182906 2.398695764182906 0 0 1 1174.3780967094917 330.948536588065 L 1128.7973302838345 333.1423329565518 A 2.398695764182906 2.398695764182906 0 0 1 1126.4014079727426 330.85895262204303 Z" />
<path fill="#053F3A" d="M 1127.600755854834 316.6521318005415 A 2.398695764182906 2.398695764182906 0 0 1 1129.999451619017 314.2534360363586 L 1173.175975374309 314.2534360363586 A 2.398695764182906 2.398695764182906 0 0 1 1175.574671138492 316.6521318005415 L 1175.574671138492 327.2063931629463 A 2.398695764182906 2.398695764182906 0 0 1 1173.1782558350603 329.7096597767335 L 1129.9971711582657 331.59392528990276 A 2.398695764182906 2.398695764182906 0 0 1 1127.600755854834 329.29980037532414 Z" />
<path fill="#6F768B" d="M 1191.8455665486981 286.09230049260964 A 2.5792427571859204 2.5792427571859204 0 0 1 1194.2741811280903 283.51745984655975 L 1240.7005507574368 283.51745984655975 A 2.5792427571859204 2.5792427571859204 0 0 1 1243.2797935146227 286.09670260374565 L 1243.2797935146227 307.3919889579474 A 2.5792427571859204 2.5792427571859204 0 0 1 1240.7005507574368 309.9712317151333 L 1195.8217267824018 309.9712317151333 A 2.5792427571859204 2.5792427571859204 0 0 1 1193.091855847422 307.3963910690834 Z" />
<path fill="#6F768B" d="M 1193.7591774307448 316.73256116911466 A 2.482521153791448 2.482521153791448 0 0 1 1196.111891592585 314.2534360363586 L 1240.7972723608311 314.2534360363586 A 2.482521153791448 2.482521153791448 0 0 1 1243.2797935146225 316.73595719015003 L 1243.2797935146225 338.3219432653634 A 2.482521153791448 2.482521153791448 0 0 1 1240.7972723608311 340.80446441915484 L 1197.5021034387082 340.80446441915484 A 2.482521153791448 2.482521153791448 0 0 1 1194.8897752929656 338.3253392863988 Z" />
<path fill="#053F3A" stroke="white" stroke-width="0.8382538960854241" d="M 1170.2338151650354 290.59604167714366 A 2.1794601298221026 2.1794601298221026 0 0 1 1172.492476043655 288.41802108521296 L 1183.5574274719827 288.41802108521296 A 2.1794601298221026 2.1794601298221026 0 0 1 1185.8160883506023 290.59604167714366 L 1186.3282899698756 304.68158620716156 A 2.1794601298221026 2.1794601298221026 0 0 1 1184.2280305888512 306.85960679909226 L 1171.8218729267867 306.85960679909226 A 2.1794601298221026 2.1794601298221026 0 0 1 1169.7216135457622 304.68158620716156 Z" />
<path fill="#037065" d="M 1334.7111007003068 282.4812992518836 A 3.86886413577888 3.86886413577888 0 0 1 1338.7657533285847 278.6168986079065 L 1355.2084259056448 278.6168986079065 A 3.86886413577888 3.86886413577888 0 0 1 1359.2630785339227 282.4812992518836 L 1362.9215683570278 358.57788757247175 A 3.86886413577888 3.86886413577888 0 0 1 1359.2384927137477 362.4422882164489 L 1334.7356865204817 362.4422882164489 A 3.86886413577888 3.86886413577888 0 0 1 1331.0526108772017 358.57788757247175 Z" />
<path fill="#6F768B" d="M 1360.8154003555485 285.9626200835954 A 2.4502806193266244 2.4502806193266244 0 0 1 1363.107356849527 283.51745984655975 L 1407.2124079974062 283.51745984655975 A 2.4502806193266244 2.4502806193266244 0 0 1 1409.6626886167328 285.9677404658864 L 1409.6626886167328 307.5566994361696 A 2.4502806193266244 2.4502806193266244 0 0 1 1407.2124079974062 310.00698005549623 L 1364.8225532830556 310.00698005549623 A 2.4502806193266244 2.4502806193266244 0 0 1 1362.213948538381 307.56181981846055 Z" />
<path fill="white" d="M 1348.23802235435 315.45278391845005 A 2.398695764182906 2.398695764182906 0 0 1 1350.636718118533 313.05408815426716 L 1396.211937638008 313.05408815426716 A 2.398695764182906 2.398695764182906 0 0 1 1398.610633402191 315.45278391845005 L 1398.610633402191 330.85895262204303 A 2.398695764182906 2.398695764182906 0 0 1 1396.2147110910992 333.1423329565518 L 1350.633944665442 330.948536588065 A 2.398695764182906 2.398695764182906 0 0 1 1348.23802235435 328.434525394208 Z" />
<path fill="#053F3A" d="M 1349.4373702364414 316.6521318005415 A 2.398695764182906 2.398695764182906 0 0 1 1351.8360660006244 314.2534360363586 L 1395.0125897559165 314.2534360363586 A 2.398695764182906 2.398695764182906 0 0 1 1397.4112855200995 316.6521318005415 L 1397.4112855200995 329.29980037532414 A 2.398695764182906 2.398695764182906 0 0 1 1395.0148702166678 331.59392528990276 L 1351.8337855398731 329.7096597767335 A 2.398695764182906 2.398695764182906 0 0 1 1349.4373702364414 327.2063931629463 Z" />
<path fill="#6F768B" d="M 1281.732247860311 286.09670260374565 A 2.5792427571859204 2.5792427571859204 0 0 1 1284.311490617497 283.51745984655975 L 1330.7378602468434 283.51745984655975 A 2.5792427571859204 2.5792427571859204 0 0 1 1333.1664748262356 286.09230049260964 L 1331.9201855275116 307.3963910690834 A 2.5792427571859204 2.5792427571859204 0 0 1 1329.1903145925319 309.9712317151333 L 1284.311490617497 309.9712317151333 A 2.5792427571859204 2.5792427571859204 0 0 1 1281.732247860311 307.3919889579474 Z" />
<path fill="#6F768B" d="M 1281.732247860311 316.73595719015003 A 2.482521153791448 2.482521153791448 0 0 1 1284.2147690141023 314.2534360363586 L 1328.9001497823485 314.2534360363586 A 2.482521153791448 2.482521153791448 0 0 1 1331.2528639441887 316.73256116911466 L 1330.1222660819678 338.3253392863988 A 2.482521153791448 2.482521153791448 0 0 1 1327.5099379362252 340.80446441915484 L 1284.2147690141023 340.80446441915484 A 2.482521153791448 2.482521153791448 0 0 1 1281.732247860311 338.3219432653634 Z" />
<path fill="#053F3A" stroke="white" stroke-width="0.8382538960854241" d="M 1339.1959530243314 290.59604167714366 A 2.1794601298221026 2.1794601298221026 0 0 1 1341.454613902951 288.41802108521296 L 1352.5195653312787 288.41802108521296 A 2.1794601298221026 2.1794601298221026 0 0 1 1354.7782262098983 290.59604167714366 L 1355.2904278291717 304.68158620716156 A 2.1794601298221026 2.1794601298221026 0 0 1 1353.1901684481472 306.85960679909226 L 1340.7840107860827 306.85960679909226 A 2.1794601298221026 2.1794601298221026 0 0 1 1338.6837514050583 304.68158620716156 Z" />
<text x="1212.8087298762669" y="410.54934527713067" font-size="12.0" text-anchor="middle" dominant-baseline="text-before-edge" font-family="Roboto, sans-serif" fill="#4B5563">show: false</text>
</svg>