<?xml version="1.0" encoding="UTF-8"?>
<svg xmlns="http://www.w3.org/2000/svg" xmlns:xlink="http://www.w3.org/1999/xlink"
     width="823.5587298762669" height="841.4916334935796" viewBox="0 0 823.5587298762669 841.4916334935796">
<defs>
</defs>
<text x="23.5" y="34.4071052414816" font-size="9.256084560000001" text-anchor="start" dominant-baseline="text-after-edge" font-family="Roboto, sans-serif" fill="#6F768B">LAYERS</text>
<rect x="16.0" y="36.2583221534816" width="59.894581622400004" height="20.5690768" rx="4.11381536" ry="4.11381536" fill="#8673B5" />
<text x="23.5" y="46.5428605534816" font-size="9.256084560000001" text-anchor="start" dominant-baseline="central" font-family="Roboto, sans-serif" fill="white">LAYER 2</text>
<circle cx="392.0657021626001" cy="46.912470237248606" r="9.5424108924174" fill="#31164F" />
<rect x="381.93654108585923" y="16.0" width="20.2583221534816" height="20.2583221534816" rx="1.51937416151112" ry="1.51937416151112" fill="#A69DC6" />
<rect x="381.93654108585923" y="33.21957383045936" width="20.2583221534816" height="3.03874832302224" rx="1.51937416151112" ry="1.51937416151112" fill="#8673B5" />
<rect x="402.71985024636706" y="36.2583221534816" width="20.2583221534816" height="20.2583221534816" rx="1.51937416151112" ry="1.51937416151112" fill="#8673B5" />
<rect x="402.71985024636706" y="36.2583221534816" width="3.03874832302224" height="20.2583221534816" rx="1.51937416151112" ry="1.51937416151112" fill="#605181" />
<rect x="381.93654108585923" y="57.5666183210156" width="20.2583221534816" height="20.2583221534816" rx="1.51937416151112" ry="1.51937416151112" fill="#605181" />
<rect x="381.93654108585923" y="57.5666183210156" width="20.2583221534816" height="3.03874832302224" rx="1.51937416151112" ry="1.51937416151112" fill="#31164F" />
<rect x="361.15323192535146" y="36.2583221534816" width="20.2583221534816" height="20.2583221534816" rx="1.51937416151112" ry="1.51937416151112" fill="#CDC5EA" />
<rect x="378.3728057558109" y="36.2583221534816" width="3.03874832302224" height="20.2583221534816" rx="1.51937416151112" ry="1.51937416151112" fill="#A69DC6" />
<circle cx="310.3025248654" cy="46.912470237248606" r="9.5424108924174" fill="#31164F" />
<rect x="300.1733637886592" y="16.0" width="20.2583221534816" height="20.2583221534816" rx="1.51937416151112" ry="1.51937416151112" fill="#A69DC6" />
<rect x="300.1733637886592" y="33.21957383045936" width="20.2583221534816" height="3.03874832302224" rx="1.51937416151112" ry="1.51937416151112" fill="#8673B5" />
<rect x="320.956672949167" y="36.2583221534816" width="20.2583221534816" height="20.2583221534816" rx="1.51937416151112" ry="1.51937416151112" fill="#8673B5" />
<rect x="320.956672949167" y="36.2583221534816" width="3.03874832302224" height="20.2583221534816" rx="1.51937416151112" ry="1.51937416151112" fill="#605181" />
<rect x="300.1733637886592" y="57.5666183210156" width="20.2583221534816" height="20.2583221534816" rx="1.51937416151112" ry="1.51937416151112" fill="#605181" />
<rect x="300.1733637886592" y="57.5666183210156" width="20.2583221534816" height="3.03874832302224" rx="1.51937416151112" ry="1.51937416151112" fill="#31164F" />
<rect x="279.3900546281514" y="36.2583221534816" width="20.2583221534816" height="20.2583221534816" rx="1.51937416151112" ry="1.51937416151112" fill="#CDC5EA" />
<rect x="296.6096284586108" y="36.2583221534816" width="3.03874832302224" height="20.2583221534816" rx="1.51937416151112" ry="1.51937416151112" fill="#A69DC6" />
<circle cx="228.53934756820001" cy="46.912470237248606" r="9.5424108924174" fill="#31164F" />
<rect x="218.41018649145923" y="16.0" width="20.2583221534816" height="20.2583221534816" rx="1.51937416151112" ry="1.51937416151112" fill="#A69DC6" />
<rect x="218.41018649145923" y="33.21957383045936" width="20.2583221534816" height="3.03874832302224" rx="1.51937416151112" ry="1.51937416151112" fill="#8673B5" />
<rect x="239.193495651967" y="36.2583221534816" width="20.2583221534816" height="20.2583221534816" rx="1.51937416151112" ry="1.51937416151112" fill="#8673B5" />
<rect x="239.193495651967" y="36.2583221534816" width="3.03874832302224" height="20.2583221534816" rx="1.51937416151112" ry="1.51937416151112" fill="#605181" />
<rect x="218.41018649145923" y="57.5666183210156" width="20.2583221534816" height="20.2583221534816" rx="1.51937416151112" ry="1.51937416151112" fill="#605181" />
<rect x="218.41018649145923" y="57.5666183210156" width="20.2583221534816" height="3.03874832302224" rx="1.51937416151112" ry="1.51937416151112" fill="#31164F" />
<rect x="197.6268773309514" y="36.2583221534816" width="20.2583221534816" height="20.2583221534816" rx="1.51937416151112" ry="1.51937416151112" fill="#CDC5EA" />
<rect x="214.84645116141076" y="36.2583221534816" width="3.03874832302224" height="20.2583221534816" rx="1.51937416151112" ry="1.51937416151112" fill="#A69DC6" />
<circle cx="146.776170271" cy="46.912470237248606" r="9.5424108924174" fill="#31164F" />
<rect x="136.64700919425923" y="16.0" width="20.2583221534816" height="20.2583221534816" rx="1.51937416151112" ry="1.51937416151112" fill="#A69DC6" />
<rect x="136.64700919425923" y="33.21957383045936" width="20.2583221534816" height="3.03874832302224" rx="1.51937416151112" ry="1.51937416151112" fill="#8673B5" />
<rect x="157.430318354767" y="36.2583221534816" width="20.2583221534816" height="20.2583221534816" rx="1.51937416151112" ry="1.51937416151112" fill="#8673B5" />
<rect x="157.430318354767" y="36.2583221534816" width="3.03874832302224" height="20.2583221534816" rx="1.51937416151112" ry="1.51937416151112" fill="#605181" />
<rect x="136.64700919425923" y="57.5666183210156" width="20.2583221534816" height="20.2583221534816" rx="1.51937416151112" ry="1.51937416151112" fill="#605181" />
<rect x="136.64700919425923" y="57.5666183210156" width="20.2583221534816" height="3.03874832302224" rx="1.51937416151112" ry="1.51937416151112" fill="#31164F" />
<rect x="115.86370003375141" y="36.2583221534816" width="20.2583221534816" height="20.2583221534816" rx="1.51937416151112" ry="1.51937416151112" fill="#CDC5EA" />
<rect x="133.08327386421078" y="36.2583221534816" width="3.03874832302224" height="20.2583221534816" rx="1.51937416151112" ry="1.51937416151112" fill="#A69DC6" />
<circle cx="493.8288794598" cy="46.912470237248606" r="9.5424108924174" fill="#31164F" />
<rect x="483.6997183830592" y="16.0" width="20.2583221534816" height="20.2583221534816" rx="1.51937416151112" ry="1.51937416151112" fill="#A69DC6" />
<rect x="483.6997183830592" y="33.21957383045936" width="20.2583221534816" height="3.03874832302224" rx="1.51937416151112" ry="1.51937416151112" fill="#8673B5" />
<rect x="504.483027543567" y="36.2583221534816" width="20.2583221534816" height="20.2583221534816" rx="1.51937416151112" ry="1.51937416151112" fill="#CDC5EA" />
<rect x="504.483027543567" y="36.2583221534816" width="3.03874832302224" height="20.2583221534816" rx="1.51937416151112" ry="1.51937416151112" fill="#A69DC6" />
<rect x="483.6997183830592" y="57.5666183210156" width="20.2583221534816" height="20.2583221534816" rx="1.51937416151112" ry="1.51937416151112" fill="#605181" />
<rect x="483.6997183830592" y="57.5666183210156" width="20.2583221534816" height="3.03874832302224" rx="1.51937416151112" ry="1.51937416151112" fill="#31164F" />
<rect x="462.9164092225514" y="36.2583221534816" width="20.2583221534816" height="20.2583221534816" rx="1.51937416151112" ry="1.51937416151112" fill="#8673B5" />
<rect x="480.1359830530108" y="36.2583221534816" width="3.03874832302224" height="20.2583221534816" rx="1.51937416151112" ry="1.51937416151112" fill="#605181" />
<circle cx="575.5920567569999" cy="46.912470237248606" r="9.5424108924174" fill="#31164F" />
<rect x="565.4628956802592" y="16.0" width="20.2583221534816" height="20.2583221534816" rx="1.51937416151112" ry="1.51937416151112" fill="#A69DC6" />
<rect x="565.4628956802592" y="33.21957383045936" width="20.2583221534816" height="3.03874832302224" rx="1.51937416151112" ry="1.51937416151112" fill="#8673B5" />
<rect x="586.246204840767" y="36.2583221534816" width="20.2583221534816" height="20.2583221534816" rx="1.51937416151112" ry="1.51937416151112" fill="#CDC5EA" />
<rect x="586.246204840767" y="36.2583221534816" width="3.03874832302224" height="20.2583221534816" rx="1.51937416151112" ry="1.51937416151112" fill="#A69DC6" />
<rect x="565.4628956802592" y="57.5666183210156" width="20.2583221534816" height="20.2583221534816" rx="1.51937416151112" ry="1.51937416151112" fill="#605181" />
<rect x="565.4628956802592" y="57.5666183210156" width="20.2583221534816" height="3.03874832302224" rx="1.51937416151112" ry="1.51937416151112" fill="#31164F" />
<rect x="544.6795865197513" y="36.2583221534816" width="20.2583221534816" height="20.2583221534816" rx="1.51937416151112" ry="1.51937416151112" fill="#8673B5" />
<rect x="561.8991603502106" y="36.2583221534816" width="3.03874832302224" height="20.2583221534816" rx="1.51937416151112" ry="1.51937416151112" fill="#605181" />
<circle cx="657.3552340542" cy="46.912470237248606" r="9.5424108924174" fill="#31164F" />
<rect x="647.2260729774592" y="16.0" width="20.2583221534816" height="20.2583221534816" rx="1.51937416151112" ry="1.51937416151112" fill="#A69DC6" />
<rect x="647.2260729774592" y="33.21957383045936" width="20.2583221534816" height="3.03874832302224" rx="1.51937416151112" ry="1.51937416151112" fill="#8673B5" />
<rect x="668.009382137967" y="36.2583221534816" width="20.2583221534816" height="20.2583221534816" rx="1.51937416151112" ry="1.51937416151112" fill="#CDC5EA" />
<rect x="668.009382137967" y="36.2583221534816" width="3.03874832302224" height="20.2583221534816" rx="1.51937416151112" ry="1.51937416151112" fill="#A69DC6" />
<rect x="647.2260729774592" y="57.5666183210156" width="20.2583221534816" height="20.2583221534816" rx="1.51937416151112" ry="1.51937416151112" fill="#605181" />
<rect x="647.2260729774592" y="57.5666183210156" width="20.2583221534816" height="3.03874832302224" rx="1.51937416151112" ry="1.51937416151112" fill="#31164F" />
<rect x="626.4427638169514" y="36.2583221534816" width="20.2583221534816" height="20.2583221534816" rx="1.51937416151112" ry="1.51937416151112" fill="#8673B5" />
<rect x="643.6623376474107" y="36.2583221534816" width="3.03874832302224" height="20.2583221534816" rx="1.51937416151112" ry="1.51937416151112" fill="#605181" />
<circle cx="739.1184113514" cy="46.912470237248606" r="9.5424108924174" fill="#31164F" />
<rect x="728.9892502746593" y="16.0" width="20.2583221534816" height="20.2583221534816" rx="1.51937416151112" ry="1.51937416151112" fill="#A69DC6" />
<rect x="728.9892502746593" y="33.21957383045936" width="20.2583221534816" height="3.03874832302224" rx="1.51937416151112" ry="1.51937416151112" fill="#8673B5" />
<rect x="749.7725594351671" y="36.2583221534816" width="20.2583221534816" height="20.2583221534816" rx="1.51937416151112" ry="1.51937416151112" fill="#CDC5EA" />
<rect x="749.7725594351671" y="36.2583221534816" width="3.03874832302224" height="20.2583221534816" rx="1.51937416151112" ry="1.51937416151112" fill="#A69DC6" />
<rect x="728.9892502746593" y="57.5666183210156" width="20.2583221534816" height="20.2583221534816" rx="1.51937416151112" ry="1.51937416151112" fill="#605181" />
<rect x="728.9892502746593" y="57.5666183210156" width="20.2583221534816" height="3.03874832302224" rx="1.51937416151112" ry="1.51937416151112" fill="#31164F" />
<rect x="708.2059411141514" y="36.2583221534816" width="20.2583221534816" height="20.2583221534816" rx="1.51937416151112" ry="1.51937416151112" fill="#8673B5" />
<rect x="725.4255149446108" y="36.2583221534816" width="3.03874832302224" height="20.2583221534816" rx="1.51937416151112" ry="1.51937416151112" fill="#605181" />
<rect x="16.0" y="118.0832626279788" width="59.894581622400004" height="20.5690768" rx="4.11381536" ry="4.11381536" fill="#0E7695" />
<text x="23.5" y="128.3678010279788" font-size="9.256084560000001" text-anchor="start" dominant-baseline="central" font-family="Roboto, sans-serif" fill="white">LAYER 1</text>
<circle cx="392.0657021626001" cy="128.7374107117458" r="9.5424108924174" fill="#1D3052" />
<rect x="381.93654108585923" y="97.8249404744972" width="20.2583221534816" height="20.2583221534816" rx="1.51937416151112" ry="1.51937416151112" fill="#7AC0C6" />
<rect x="381.93654108585923" y="115.04451430495655" width="20.2583221534816" height="3.03874832302224" rx="1.51937416151112" ry="1.51937416151112" fill="#05A1B0" />
<rect x="402.71985024636706" y="118.0832626279788" width="20.2583221534816" height="20.2583221534816" rx="1.51937416151112" ry="1.51937416151112" fill="#05A1B0" />
<rect x="402.71985024636706" y="118.0832626279788" width="3.03874832302224" height="20.2583221534816" rx="1.51937416151112" ry="1.51937416151112" fill="#0E7695" />
<rect x="381.93654108585923" y="139.3915587955128" width="20.2583221534816" height="20.2583221534816" rx="1.51937416151112" ry="1.51937416151112" fill="#0E7695" />
<rect x="381.93654108585923" y="139.3915587955128" width="20.2583221534816" height="3.03874832302224" rx="1.51937416151112" ry="1.51937416151112" fill="#1D3052" />
<rect x="361.15323192535146" y="118.0832626279788" width="20.2583221534816" height="20.2583221534816" rx="1.51937416151112" ry="1.51937416151112" fill="#A6D7DE" />
<rect x="378.3728057558109" y="118.0832626279788" width="3.03874832302224" height="20.2583221534816" rx="1.51937416151112" ry="1.51937416151112" fill="#7AC0C6" />
<circle cx="310.3025248654" cy="128.7374107117458" r="9.5424108924174" fill="#1D3052" />
<rect x="300.1733637886592" y="97.8249404744972" width="20.2583221534816" height="20.2583221534816" rx="1.51937416151112" ry="1.51937416151112" fill="#7AC0C6" />
<rect x="300.1733637886592" y="115.04451430495655" width="20.2583221534816" height="3.03874832302224" rx="1.51937416151112" ry="1.51937416151112" fill="#05A1B0" />
<rect x="320.956672949167" y="118.0832626279788" width="20.2583221534816" height="20.2583221534816" rx="1.51937416151112" ry="1.51937416151112" fill="#05A1B0" />
<rect x="320.956672949167" y="118.0832626279788" width="3.03874832302224" height="20.2583221534816" rx="1.51937416151112" ry="1.51937416151112" fill="#0E7695" />
<rect x="300.1733637886592" y="139.3915587955128" width="20.2583221534816" height="20.2583221534816" rx="1.51937416151112" ry="1.51937416151112" fill="#0E7695" />
<rect x="300.1733637886592" y="139.3915587955128" width="20.2583221534816" height="3.03874832302224" rx="1.51937416151112" ry="1.51937416151112" fill="#1D3052" />
<rect x="279.3900546281514" y="118.0832626279788" width="20.2583221534816" height="20.2583221534816" rx="1.51937416151112" ry="1.51937416151112" fill="#A6D7DE" />
<rect x="296.6096284586108" y="118.0832626279788" width="3.03874832302224" height="20.2583221534816" rx="1.51937416151112" ry="1.51937416151112" fill="#7AC0C6" />
<circle cx="228.53934756820001" cy="128.7374107117458" r="9.5424108924174" fill="#1D3052" />
<rect x="218.41018649145923" y="97.8249404744972" width="20.2583221534816" height="20.2583221534816" rx="1.51937416151112" ry="1.51937416151112" fill="#7AC0C6" />
<rect x="218.41018649145923" y="115.04451430495655" width="20.2583221534816" height="3.03874832302224" rx="1.51937416151112" ry="1.51937416151112" fill="#05A1B0" />
<rect x="239.193495651967" y="118.0832626279788" width="20.2583221534816" height="20.2583221534816" rx="1.51937416151112" ry="1.51937416151112" fill="#05A1B0" />
<rect x="239.193495651967" y="118.0832626279788" width="3.03874832302224" height="20.2583221534816" rx="1.51937416151112" ry="1.51937416151112" fill="#0E7695" />
<rect x="218.41018649145923" y="139.3915587955128" width="20.2583221534816" height="20.2583221534816" rx="1.51937416151112" ry="1.51937416151112" fill="#0E7695" />
<rect x="218.41018649145923" y="139.3915587955128" width="20.2583221534816" height="3.03874832302224" rx="1.51937416151112" ry="1.51937416151112" fill="#1D3052" />
<rect x="197.6268773309514" y="118.0832626279788" width="20.2583221534816" height="20.2583221534816" rx="1.51937416151112" ry="1.51937416151112" fill="#A6D7DE" />
<rect x="214.84645116141076" y="118.0832626279788" width="3.03874832302224" height="20.2583221534816" rx="1.51937416151112" ry="1.51937416151112" fill="#7AC0C6" />
<circle cx="146.776170271" cy="128.7374107117458" r="9.5424108924174" fill="#1D3052" />
<rect x="136.64700919425923" y="97.8249404744972" width="20.2583221534816" height="20.2583221534816" rx="1.51937416151112" ry="1.51937416151112" fill="#7AC0C6" />
<rect x="136.64700919425923" y="115.04451430495655" width="20.2583221534816" height="3.03874832302224" rx="1.51937416151112" ry="1.51937416151112" fill="#05A1B0" />
<rect x="157.430318354767" y="118.0832626279788" width="20.2583221534816" height="20.2583221534816" rx="1.51937416151112" ry="1.51937416151112" fill="#05A1B0" />
<rect x="157.430318354767" y="118.0832626279788" width="3.03874832302224" height="20.2583221534816" rx="1.51937416151112" ry="1.51937416151112" fill="#0E7695" />
<rect x="136.64700919425923" y="139.3915587955128" width="20.2583221534816" height="20.2583221534816" rx="1.51937416151112" ry="1.51937416151112" fill="#0E7695" />
<rect x="136.64700919425923" y="139.3915587955128" width="20.2583221534816" height="3.03874832302224" rx="1.51937416151112" ry="1.51937416151112" fill="#1D3052" />
<rect x="115.86370003375141" y="118.0832626279788" width="20.2583221534816" height="20.2583221534816" rx="1.51937416151112" ry="1.51937416151112" fill="#A6D7DE" />
<rect x="133.08327386421078" y="118.0832626279788" width="3.03874832302224" height="20.2583221534816" rx="1.51937416151112" ry="1.51937416151112" fill="#7AC0C6" />
<circle cx="493.8288794598" cy="128.7374107117458" r="9.5424108924174" fill="#1D3052" />
<rect x="483.6997183830592" y="97.8249404744972" width="20.2583221534816" height="20.2583221534816" rx="1.51937416151112" ry="1.51937416151112" fill="#7AC0C6" />
<rect x="483.6997183830592" y="115.04451430495655" width="20.2583221534816" height="3.03874832302224" rx="1.51937416151112" ry="1.51937416151112" fill="#05A1B0" />
<rect x="504.483027543567" y="118.0832626279788" width="20.2583221534816" height="20.2583221534816" rx="1.51937416151112" ry="1.51937416151112" fill="#A6D7DE" />
<rect x="504.483027543567" y="118.0832626279788" width="3.03874832302224" height="20.2583221534816" rx="1.51937416151112" ry="1.51937416151112" fill="#7AC0C6" />
<rect x="483.6997183830592" y="139.3915587955128" width="20.2583221534816" height="20.2583221534816" rx="1.51937416151112" ry="1.51937416151112" fill="#0E7695" />
<rect x="483.6997183830592" y="139.3915587955128" width="20.2583221534816" height="3.03874832302224" rx="1.51937416151112" ry="1.51937416151112" fill="#1D3052" />
<rect x="462.9164092225514" y="118.0832626279788" width="20.2583221534816" height="20.2583221534816" rx="1.51937416151112" ry="1.51937416151112" fill="#05A1B0" />
<rect x="480.1359830530108" y="118.0832626279788" width="3.03874832302224" height="20.2583221534816" rx="1.51937416151112" ry="1.51937416151112" fill="#0E7695" />
<circle cx="575.5920567569999" cy="128.7374107117458" r="9.5424108924174" fill="#1D3052" />
<rect x="565.4628956802592" y="97.8249404744972" width="20.2583221534816" height="20.2583221534816" rx="1.51937416151112" ry="1.51937416151112" fill="#7AC0C6" />
<rect x="565.4628956802592" y="115.04451430495655" width="20.2583221534816" height="3.03874832302224" rx="1.51937416151112" ry="1.51937416151112" fill="#05A1B0" />
<rect x="586.246204840767" y="118.0832626279788" width="20.2583221534816" height="20.2583221534816" rx="1.51937416151112" ry="1.51937416151112" fill="#A6D7DE" />
<rect x="586.246204840767" y="118.0832626279788" width="3.03874832302224" height="20.2583221534816" rx="1.51937416151112" ry="1.51937416151112" fill="#7AC0C6" />
<rect x="565.4628956802592" y="139.3915587955128" width="20.2583221534816" height="20.2583221534816" rx="1.51937416151112" ry="1.51937416151112" fill="#0E7695" />
<rect x="565.4628956802592" y="139.3915587955128" width="20.2583221534816" height="3.03874832302224" rx="1.51937416151112" ry="1.51937416151112" fill="#1D3052" />
<rect x="544.6795865197513" y="118.0832626279788" width="20.2583221534816" height="20.2583221534816" rx="1.51937416151112" ry="1.51937416151112" fill="#05A1B0" />
<rect x="561.8991603502106" y="118.0832626279788" width="3.03874832302224" height="20.2583221534816" rx="1.51937416151112" ry="1.51937416151112" fill="#0E7695" />
<circle cx="657.3552340542" cy="128.7374107117458" r="9.5424108924174" fill="#1D3052" />
<rect x="647.2260729774592" y="97.8249404744972" width="20.2583221534816" height="20.2583221534816" rx="1.51937416151112" ry="1.51937416151112" fill="#7AC0C6" />
<rect x="647.2260729774592" y="115.04451430495655" width="20.2583221534816" height="3.03874832302224" rx="1.51937416151112" ry="1.51937416151112" fill="#05A1B0" />
<rect x="668.009382137967" y="118.0832626279788" width="20.2583221534816" height="20.2583221534816" rx="1.51937416151112" ry="1.51937416151112" fill="#A6D7DE" />
<rect x="668.009382137967" y="118.0832626279788" width="3.03874832302224" height="20.2583221534816" rx="1.51937416151112" ry="1.51937416151112" fill="#7AC0C6" />
<rect x="647.2260729774592" y="139.3915587955128" width="20.2583221534816" height="20.2583221534816" rx="1.51937416151112" ry="1.51937416151112" fill="#0E7695" />
<rect x="647.2260729774592" y="139.3915587955128" width="20.2583221534816" height="3.03874832302224" rx="1.51937416151112" ry="1.51937416151112" fill="#1D3052" />
<rect x="626.4427638169514" y="118.0832626279788" width="20.2583221534816" height="20.2583221534816" rx="1.51937416151112" ry="1.51937416151112" fill="#05A1B0" />
<rect x="643.6623376474107" y="118.0832626279788" width="3.03874832302224" height="20.2583221534816" rx="1.51937416151112" ry="1.51937416151112" fill="#0E7695" />
<circle cx="739.1184113514" cy="128.7374107117458" r="9.5424108924174" fill="#1D3052" />
<rect x="728.9892502746593" y="97.8249404744972" width="20.2583221534816" height="20.2583221534816" rx="1.51937416151112" ry="1.51937416151112" fill="#7AC0C6" />
<rect x="728.9892502746593" y="115.04451430495655" width="20.2583221534816" height="3.03874832302224" rx="1.51937416151112" ry="1.51937416151112" fill="#05A1B0" />
<rect x="749.7725594351671" y="118.0832626279788" width="20.2583221534816" height="20.2583221534816" rx="1.51937416151112" ry="1.51937416151112" fill="#A6D7DE" />
<rect x="749.7725594351671" y="118.0832626279788" width="3.03874832302224" height="20.2583221534816" rx="1.51937416151112" ry="1.51937416151112" fill="#7AC0C6" />
<rect x="728.9892502746593" y="139.3915587955128" width="20.2583221534816" height="20.2583221534816" rx="1.51937416151112" ry="1.51937416151112" fill="#0E7695" />
<rect x="728.9892502746593" y="139.3915587955128" width="20.2583221534816" height="3.03874832302224" rx="1.51937416151112" ry="1.51937416151112" fill="#1D3052" />
<rect x="708.2059411141514" y="118.0832626279788" width="20.2583221534816" height="20.2583221534816" rx="1.51937416151112" ry="1.51937416151112" fill="#05A1B0" />
<rect x="725.4255149446108" y="118.0832626279788" width="3.03874832302224" height="20.2583221534816" rx="1.51937416151112" ry="1.51937416151112" fill="#0E7695" />
<rect x="16.0" y="256.6573373475726" width="59.894581622400004" height="20.5690768" rx="4.11381536" ry="4.11381536" fill="#037065" />
<text x="23.5" y="266.94187574757257" font-size="9.256084560000001" text-anchor="start" dominant-baseline="central" font-family="Roboto, sans-serif" fill="white">LAYER 0</text>
<circle cx="392.0657021626001" cy="267.31148543133963" r="9.5424108924174" fill="#053F3A" />
<rect x="381.93654108585923" y="236.39901519409102" width="20.2583221534816" height="20.2583221534816" rx="1.51937416151112" ry="1.51937416151112" fill="#0E7695" />
<rect x="381.93654108585923" y="253.61858902455035" width="20.2583221534816" height="3.03874832302224" rx="1.51937416151112" ry="1.51937416151112" fill="#1D3052" />
<text x="384.2984560650439" y="245.76848919007625" font-size="6.79634033536157" text-anchor="start" dominant-baseline="central" font-family="Roboto, sans-serif" fill="white" opacity="1.0">LT(1)</text>
<rect x="402.71985024636706" y="256.6573373475726" width="20.2583221534816" height="20.2583221534816" rx="1.51937416151112" ry="1.51937416151112" fill="#079E7C" />
<rect x="402.71985024636706" y="256.6573373475726" width="3.03874832302224" height="20.2583221534816" rx="1.51937416151112" ry="1.51937416151112" fill="#037065" />
<rect x="381.93654108585923" y="277.9656335151066" width="20.2583221534816" height="20.2583221534816" rx="1.51937416151112" ry="1.51937416151112" fill="#037065" />
<rect x="381.93654108585923" y="277.9656335151066" width="20.2583221534816" height="3.03874832302224" rx="1.51937416151112" ry="1.51937416151112" fill="#053F3A" />
<rect x="361.15323192535146" y="256.6573373475726" width="20.2583221534816" height="20.2583221534816" rx="1.51937416151112" ry="1.51937416151112" fill="#BDDCA7" />
<rect x="378.3728057558109" y="256.6573373475726" width="3.03874832302224" height="20.2583221534816" rx="1.51937416151112" ry="1.51937416151112" fill="#86BE81" />
<path d="M392.0657021626,230.39901519409102 L392.0657021626,238.39901519409102" stroke="#7AC0C6" stroke-width="1.0" />
<circle cx="392.0657021626" cy="238.39901519409102" r="1.0" fill="#7AC0C6" />
<circle cx="392.0657021626" cy="224.8279766018836" r="5.571038592207441" fill="#0E7695" stroke="#7AC0C6" stroke-width="1.0" />
<text x="390.15563178812886" y="224.8279766018836" font-size="6.685246310648929" text-anchor="start" dominant-baseline="central" font-family="Roboto, sans-serif" fill="white" opacity="1.0">1</text>
<circle cx="310.3025248654" cy="267.31148543133963" r="9.5424108924174" fill="#053F3A" />
<rect x="300.1733637886592" y="236.39901519409102" width="20.2583221534816" height="20.2583221534816" rx="1.51937416151112" ry="1.51937416151112" fill="#8673B5" />
<rect x="300.1733637886592" y="253.61858902455035" width="20.2583221534816" height="3.03874832302224" rx="1.51937416151112" ry="1.51937416151112" fill="#605181" />
<text x="302.53527876784386" y="245.76848919007625" font-size="6.79634033536157" text-anchor="start" dominant-baseline="central" font-family="Roboto, sans-serif" fill="white" opacity="1.0">LT(2)</text>
<rect x="320.956672949167" y="256.6573373475726" width="20.2583221534816" height="20.2583221534816" rx="1.51937416151112" ry="1.51937416151112" fill="#079E7C" />
<rect x="320.956672949167" y="256.6573373475726" width="3.03874832302224" height="20.2583221534816" rx="1.51937416151112" ry="1.51937416151112" fill="#037065" />
<rect x="300.1733637886592" y="277.9656335151066" width="20.2583221534816" height="20.2583221534816" rx="1.51937416151112" ry="1.51937416151112" fill="#037065" />
<rect x="300.1733637886592" y="277.9656335151066" width="20.2583221534816" height="3.03874832302224" rx="1.51937416151112" ry="1.51937416151112" fill="#053F3A" />
<rect x="279.3900546281514" y="256.6573373475726" width="20.2583221534816" height="20.2583221534816" rx="1.51937416151112" ry="1.51937416151112" fill="#BDDCA7" />
<rect x="296.6096284586108" y="256.6573373475726" width="3.03874832302224" height="20.2583221534816" rx="1.51937416151112" ry="1.51937416151112" fill="#86BE81" />
<path d="M310.30252486539996,230.39901519409102 L310.30252486539996,238.39901519409102" stroke="#A69DC6" stroke-width="1.0" />
<circle cx="310.30252486539996" cy="238.39901519409102" r="1.0" fill="#A69DC6" />
<circle cx="310.30252486539996" cy="224.8279766018836" r="5.571038592207441" fill="#8673B5" stroke="#A69DC6" stroke-width="1.0" />
<text x="308.3924544909288" y="224.8279766018836" font-size="6.685246310648929" text-anchor="start" dominant-baseline="central" font-family="Roboto, sans-serif" fill="white" opacity="1.0">2</text>
<circle cx="228.53934756820001" cy="267.31148543133963" r="9.5424108924174" fill="#053F3A" />
<rect x="218.41018649145923" y="236.39901519409102" width="20.2583221534816" height="20.2583221534816" rx="1.51937416151112" ry="1.51937416151112" fill="#86BE81" />
<rect x="218.41018649145923" y="253.61858902455035" width="20.2583221534816" height="3.03874832302224" rx="1.51937416151112" ry="1.51937416151112" fill="#079E7C" />
<rect x="239.193495651967" y="256.6573373475726" width="20.2583221534816" height="20.2583221534816" rx="1.51937416151112" ry="1.51937416151112" fill="#079E7C" />
<rect x="239.193495651967" y="256.6573373475726" width="3.03874832302224" height="20.2583221534816" rx="1.51937416151112" ry="1.51937416151112" fill="#037065" />
<rect x="218.41018649145923" y="277.9656335151066" width="20.2583221534816" height="20.2583221534816" rx="1.51937416151112" ry="1.51937416151112" fill="#037065" />
<rect x="218.41018649145923" y="277.9656335151066" width="20.2583221534816" height="3.03874832302224" rx="1.51937416151112" ry="1.51937416151112" fill="#053F3A" />
<rect x="197.6268773309514" y="256.6573373475726" width="20.2583221534816" height="20.2583221534816" rx="1.51937416151112" ry="1.51937416151112" fill="#BDDCA7" />
<rect x="214.84645116141076" y="256.6573373475726" width="3.03874832302224" height="20.2583221534816" rx="1.51937416151112" ry="1.51937416151112" fill="#86BE81" />
<circle cx="146.776170271" cy="267.31148543133963" r="9.5424108924174" fill="#053F3A" />
<rect x="136.64700919425923" y="236.39901519409102" width="20.2583221534816" height="20.2583221534816" rx="1.51937416151112" ry="1.51937416151112" fill="#86BE81" />
<rect x="136.64700919425923" y="253.61858902455035" width="20.2583221534816" height="3.03874832302224" rx="1.51937416151112" ry="1.51937416151112" fill="#079E7C" />
<rect x="157.430318354767" y="256.6573373475726" width="20.2583221534816" height="20.2583221534816" rx="1.51937416151112" ry="1.51937416151112" fill="#079E7C" />
<rect x="157.430318354767" y="256.6573373475726" width="3.03874832302224" height="20.2583221534816" rx="1.51937416151112" ry="1.51937416151112" fill="#037065" />
<rect x="136.64700919425923" y="277.9656335151066" width="20.2583221534816" height="20.2583221534816" rx="1.51937416151112" ry="1.51937416151112" fill="#037065" />
<rect x="136.64700919425923" y="277.9656335151066" width="20.2583221534816" height="3.03874832302224" rx="1.51937416151112" ry="1.51937416151112" fill="#053F3A" />
<rect x="115.86370003375141" y="256.6573373475726" width="20.2583221534816" height="20.2583221534816" rx="1.51937416151112" ry="1.51937416151112" fill="#BDDCA7" />
<rect x="133.08327386421078" y="256.6573373475726" width="3.03874832302224" height="20.2583221534816" rx="1.51937416151112" ry="1.51937416151112" fill="#86BE81" />
<circle cx="493.8288794598" cy="267.31148543133963" r="9.5424108924174" fill="#053F3A" />
<rect x="483.6997183830592" y="236.39901519409102" width="20.2583221534816" height="20.2583221534816" rx="1.51937416151112" ry="1.51937416151112" fill="#86BE81" />
<rect x="483.6997183830592" y="253.61858902455035" width="20.2583221534816" height="3.03874832302224" rx="1.51937416151112" ry="1.51937416151112" fill="#079E7C" />
<rect x="504.483027543567" y="256.6573373475726" width="20.2583221534816" height="20.2583221534816" rx="1.51937416151112" ry="1.51937416151112" fill="#BDDCA7" />
<rect x="504.483027543567" y="256.6573373475726" width="3.03874832302224" height="20.2583221534816" rx="1.51937416151112" ry="1.51937416151112" fill="#86BE81" />
<rect x="483.6997183830592" y="277.9656335151066" width="20.2583221534816" height="20.2583221534816" rx="1.51937416151112" ry="1.51937416151112" fill="#037065" />
<rect x="483.6997183830592" y="277.9656335151066" width="20.2583221534816" height="3.03874832302224" rx="1.51937416151112" ry="1.51937416151112" fill="#053F3A" />
<rect x="462.9164092225514" y="256.6573373475726" width="20.2583221534816" height="20.2583221534816" rx="1.51937416151112" ry="1.51937416151112" fill="#079E7C" />
<rect x="480.1359830530108" y="256.6573373475726" width="3.03874832302224" height="20.2583221534816" rx="1.51937416151112" ry="1.51937416151112" fill="#037065" />
<circle cx="575.5920567569999" cy="267.31148543133963" r="9.5424108924174" fill="#053F3A" />
<rect x="565.4628956802592" y="236.39901519409102" width="20.2583221534816" height="20.2583221534816" rx="1.51937416151112" ry="1.51937416151112" fill="#86BE81" />
<rect x="565.4628956802592" y="253.61858902455035" width="20.2583221534816" height="3.03874832302224" rx="1.51937416151112" ry="1.51937416151112" fill="#079E7C" />
<rect x="586.246204840767" y="256.6573373475726" width="20.2583221534816" height="20.2583221534816" rx="1.51937416151112" ry="1.51937416151112" fill="#BDDCA7" />
<rect x="586.246204840767" y="256.6573373475726" width="3.03874832302224" height="20.2583221534816" rx="1.51937416151112" ry="1.51937416151112" fill="#86BE81" />
<rect x="565.4628956802592" y="277.9656335151066" width="20.2583221534816" height="20.2583221534816" rx="1.51937416151112" ry="1.51937416151112" fill="#037065" />
<rect x="565.4628956802592" y="277.9656335151066" width="20.2583221534816" height="3.03874832302224" rx="1.51937416151112" ry="1.51937416151112" fill="#053F3A" />
<rect x="544.6795865197513" y="256.6573373475726" width="20.2583221534816" height="20.2583221534816" rx="1.51937416151112" ry="1.51937416151112" fill="#079E7C" />
<rect x="561.8991603502106" y="256.6573373475726" width="3.03874832302224" height="20.2583221534816" rx="1.51937416151112" ry="1.51937416151112" fill="#037065" />
<circle cx="657.3552340542" cy="267.31148543133963" r="9.5424108924174" fill="#053F3A" />
<rect x="647.2260729774592" y="236.39901519409102" width="20.2583221534816" height="20.2583221534816" rx="1.51937416151112" ry="1.51937416151112" fill="#86BE81" />
<rect x="647.2260729774592" y="253.61858902455035" width="20.2583221534816" height="3.03874832302224" rx="1.51937416151112" ry="1.51937416151112" fill="#079E7C" />
<rect x="668.009382137967" y="256.6573373475726" width="20.2583221534816" height="20.2583221534816" rx="1.51937416151112" ry="1.51937416151112" fill="#BDDCA7" />
<rect x="668.009382137967" y="256.6573373475726" width="3.03874832302224" height="20.2583221534816" rx="1.51937416151112" ry="1.51937416151112" fill="#86BE81" />
<rect x="647.2260729774592" y="277.9656335151066" width="20.2583221534816" height="20.2583221534816" rx="1.51937416151112" ry="1.51937416151112" fill="#037065" />
<rect x="647.2260729774592" y="277.9656335151066" width="20.2583221534816" height="3.03874832302224" rx="1.51937416151112" ry="1.51937416151112" fill="#053F3A" />
<rect x="626.4427638169514" y="256.6573373475726" width="20.2583221534816" height="20.2583221534816" rx="1.51937416151112" ry="1.51937416151112" fill="#079E7C" />
<rect x="643.6623376474107" y="256.6573373475726" width="3.03874832302224" height="20.2583221534816" rx="1.51937416151112" ry="1.51937416151112" fill="#037065" />
<circle cx="739.1184113514" cy="267.31148543133963" r="9.5424108924174" fill="#053F3A" />
<rect x="728.9892502746593" y="236.39901519409102" width="20.2583221534816" height="20.2583221534816" rx="1.51937416151112" ry="1.51937416151112" fill="#86BE81" />
<rect x="728.9892502746593" y="253.61858902455035" width="20.2583221534816" height="3.03874832302224" rx="1.51937416151112" ry="1.51937416151112" fill="#079E7C" />
<rect x="749.7725594351671" y="256.6573373475726" width="20.2583221534816" height="20.2583221534816" rx="1.51937416151112" ry="1.51937416151112" fill="#BDDCA7" />
<rect x="749.7725594351671" y="256.6573373475726" width="3.03874832302224" height="20.2583221534816" rx="1.51937416151112" ry="1.51937416151112" fill="#86BE81" />
<rect x="728.9892502746593" y="277.9656335151066" width="20.2583221534816" height="20.2583221534816" rx="1.51937416151112" ry="1.51937416151112" fill="#037065" />
<rect x="728.9892502746593" y="277.9656335151066" width="20.2583221534816" height="3.03874832302224" rx="1.51937416151112" ry="1.51937416151112" fill="#053F3A" />
<rect x="708.2059411141514" y="256.6573373475726" width="20.2583221534816" height="20.2583221534816" rx="1.51937416151112" ry="1.51937416151112" fill="#079E7C" />
<rect x="725.4255149446108" y="256.6573373475726" width="3.03874832302224" height="20.2583221534816" rx="1.51937416151112" ry="1.51937416151112" fill="#037065" />
<rect x="16.0" y="323.1245169072415" width="59.894581622400004" height="20.5690768" rx="4.11381536" ry="4.11381536" fill="black" />
<text x="23.5" y="333.4090553072415" font-size="9.256084560000001" text-anchor="start" dominant-baseline="central" font-family="Roboto, sans-serif" fill="white">THUMBS</text>
<path fill="#037065" d="M 346.1902329647441 322.0883563125654 A 3.86886413577888 3.86886413577888 0 0 1 350.2448855930219 318.22395566858825 L 366.68755817008207 318.22395566858825 A 3.86886413577888 3.86886413577888 0 0 1 370.74221079835985 322.0883563125654 L 374.4007006214651 398.1849446331535 A 3.86886413577888 3.86886413577888 0 0 1 370.7176249781851 402.04934527713067 L 346.21481878491886 402.04934527713067 A 3.86886413577888 3.86886413577888 0 0 1 342.53174314163886 398.1849446331535 Z" />
<path fill="#6F768B" d="M 295.7906228819341 325.57479752656815 A 2.4502806193266244 2.4502806193266244 0 0 1 298.24090350126073 323.1245169072415 L 342.34595464913997 323.1245169072415 A 2.4502806193266244 2.4502806193266244 0 0 1 344.6379111431185 325.5696771442772 L 343.23936296028603 347.1688768791423 A 2.4502806193266244 2.4502806193266244 0 0 1 340.6307582156113 349.614037116178 L 298.24090350126073 349.614037116178 A 2.4502806193266244 2.4502806193266244 0 0 1 295.7906228819341 347.16375649685136 Z" />
<path fill="white" d="M 306.84267809647577 355.0598409791318 A 2.398695764182906 2.398695764182906 0 0 1 309.24137386065865 352.66114521494893 L 354.8165933801339 352.66114521494893 A 2.398695764182906 2.398695764182906 0 0 1 357.2152891443168 355.0598409791318 L 357.2152891443168 368.04158245488975 A 2.398695764182906 2.398695764182906 0 0 1 354.8193668332249 370.55559364874676 L 309.2386004075677 372.74939001723357 A 2.398695764182906 2.398695764182906 0 0 1 306.84267809647577 370.4660096827248 Z" />
<path fill="#053F3A" d="M 308.0420259785672 356.25918886122327 A 2.398695764182906 2.398695764182906 0 0 1 310.4407217427501 353.8604930970404 L 353.61724549804245 353.8604930970404 A 2.398695764182906 2.398695764182906 0 0 1 356.01594126222534 356.25918886122327 L 356.01594126222534 366.8134502236281 A 2.398695764182906 2.398695764182906 0 0 1 353.61952595879353 369.31671683741524 L 310.438441281999 371.2009823505845 A 2.398695764182906 2.398695764182906 0 0 1 308.0420259785672 368.9068574360059 Z" />
<path fill="#6F768B" d="M 372.28683667243126 325.6993575532914 A 2.5792427571859204 2.5792427571859204 0 0 1 374.71545125182325 323.1245169072415 L 421.14182088116985 323.1245169072415 A 2.5792427571859204 2.5792427571859204 0 0 1 423.72106363835576 325.7037596644274 L 423.72106363835576 346.99904601862914 A 2.5792427571859204 2.5792427571859204 0 0 1 421.14182088116985 349.57828877581505 L 376.2629969061348 349.57828877581505 A 2.5792427571859204 2.5792427571859204 0 0 1 373.53312597115496 347.00344812976516 Z" />
<path fill="#6F768B" d="M 374.20044755447793 356.33961822979643 A 2.482521153791448 2.482521153791448 0 0 1 376.55316171631824 353.8604930970404 L 421.23854248456433 353.8604930970404 A 2.482521153791448 2.482521153791448 0 0 1 423.72106363835576 356.3430142508318 L 423.72106363835576 377.9290003260452 A 2.482521153791448 2.482521153791448 0 0 1 421.23854248456433 380.4115214798366 L 377.9433735624415 380.4115214798366 A 2.482521153791448 2.482521153791448 0 0 1 375.33104541669894 377.93239634708056 Z" />
<path fill="#053F3A" stroke="white" stroke-width="0.8382538960854241" d="M 350.67508528876857 330.2030987378254 A 2.1794601298221026 2.1794601298221026 0 0 1 352.9337461673881 328.0250781458947 L 363.9986975957158 328.0250781458947 A 2.1794601298221026 2.1794601298221026 0 0 1 366.2573584743353 330.2030987378254 L 366.76956009360873 344.2886432678433 A 2.1794601298221026 2.1794601298221026 0 0 1 364.6693007125841 346.46666385977403 L 352.2631430505198 346.46666385977403 A 2.1794601298221026 2.1794601298221026 0 0 1 350.16288366949516 344.2886432678433 Z" />
<path fill="#037065" d="M 515.1523708240401 322.0883563125654 A 3.86886413577888 3.86886413577888 0 0 1 519.2070234523178 318.22395566858825 L 535.6496960293782 318.22395566858825 A 3.86886413577888 3.86886413577888 0 0 1 539.7043486576559 322.0883563125654 L 543.3628384807611 398.1849446331535 A 3.86886413577888 3.86886413577888 0 0 1 539.6797628374811 402.04934527713067 L 515.1769566442149 402.04934527713067 A 3.86886413577888 3.86886413577888 0 0 1 511.4938810009349 398.1849446331535 Z" />
<path fill="#6F768B" d="M 541.2566704792814 325.5696771442772 A 2.4502806193266244 2.4502806193266244 0 0 1 543.54862697326 323.1245169072415 L 587.6536781211393 323.1245169072415 A 2.4502806193266244 2.4502806193266244 0 0 1 590.1039587404658 325.57479752656815 L 590.1039587404658 347.16375649685136 A 2.4502806193266244 2.4502806193266244 0 0 1 587.6536781211393 349.614037116178 L 545.2638234067886 349.614037116178 A 2.4502806193266244 2.4502806193266244 0 0 1 542.655218662114 347.1688768791423 Z" />
<path fill="white" d="M 528.6792924780831 355.0598409791318 A 2.398695764182906 2.398695764182906 0 0 1 531.077988242266 352.66114521494893 L 576.6532077617412 352.66114521494893 A 2.398695764182906 2.398695764182906 0 0 1 579.0519035259241 355.0598409791318 L 579.0519035259241 370.4660096827248 A 2.398695764182906 2.398695764182906 0 0 1 576.6559812148322 372.74939001723357 L 531.075214789175 370.55559364874676 A 2.398695764182906 2.398695764182906 0 0 1 528.6792924780831 368.04158245488975 Z" />
<path fill="#053F3A" d="M 529.8786403601746 356.25918886122327 A 2.398695764182906 2.398695764182906 0 0 1 532.2773361243575 353.8604930970404 L 575.4538598796498 353.8604930970404 A 2.398695764182906 2.398695764182906 0 0 1 577.8525556438327 356.25918886122327 L 577.8525556438327 368.9068574360059 A 2.398695764182906 2.398695764182906 0 0 1 575.4561403404009 371.2009823505845 L 532.2750556636064 369.31671683741524 A 2.398695764182906 2.398695764182906 0 0 1 529.8786403601746 366.8134502236281 Z" />
<path fill="#6F768B" d="M 462.1735179840442 325.7037596644274 A 2.5792427571859204 2.5792427571859204 0 0 1 464.75276074123013 323.1245169072415 L 511.17913037057673 323.1245169072415 A 2.5792427571859204 2.5792427571859204 0 0 1 513.6077449499687 325.6993575532914 L 512.361455651245 347.00344812976516 A 2.5792427571859204 2.5792427571859204 0 0 1 509.6315847162652 349.57828877581505 L 464.75276074123013 349.57828877581505 A 2.5792427571859204 2.5792427571859204 0 0 1 462.1735179840442 346.99904601862914 Z" />
<path fill="#6F768B" d="M 462.1735179840442 356.3430142508318 A 2.482521153791448 2.482521153791448 0 0 1 464.65603913783565 353.8604930970404 L 509.34141990608174 353.8604930970404 A 2.482521153791448 2.482521153791448 0 0 1 511.69413406792205 356.33961822979643 L 510.5635362057011 377.93239634708056 A 2.482521153791448 2.482521153791448 0 0 1 507.95120805995856 380.4115214798366 L 464.65603913783565 380.4115214798366 A 2.482521153791448 2.482521153791448 0 0 1 462.1735179840442 377.9290003260452 Z" />
<path fill="#053F3A" stroke="white" stroke-width="0.8382538960854241" d="M 519.6372231480647 330.2030987378254 A 2.1794601298221026 2.1794601298221026 0 0 1 521.8958840266843 328.0250781458947 L 532.9608354550118 328.0250781458947 A 2.1794601298221026 2.1794601298221026 0 0 1 535.2194963336314 330.2030987378254 L 535.7316979529047 344.2886432678433 A 2.1794601298221026 2.1794601298221026 0 0 1 533.63143857188 346.46666385977403 L 521.2252809098159 346.46666385977403 A 2.1794601298221026 2.1794601298221026 0 0 1 519.1250215287912 344.2886432678433 Z" />
<g transform="translate(16.0, 16.0)">
<path d="M294.30252486539996,197.25693800967616 L294.30252486539996,185.1019447175872 L778.309986584178,185.1019447175872 L778.309986584178,30.3874832302224 L766.154993292089,30.3874832302224" fill="none" stroke="#A69DC6" stroke-width="2.1875" stroke-dasharray="0.05 6.125" stroke-linecap="round" opacity="0.7" />
<path d="M376.0657021626,197.25693800967616 L376.0657021626,172.94695142549824 L790.464979876267,172.94695142549824 L790.464979876267,112.2124237047196 L766.154993292089,112.2124237047196" fill="none" stroke="#7AC0C6" stroke-width="2.1875" stroke-dasharray="0.05 6.125" stroke-linecap="round" opacity="0.7" />
</g>
<text x="411.7793649381334" y="410.54934527713067" font-size="12.0" text-anchor="middle" dominant-baseline="text-before-edge" font-family="Roboto, sans-serif" fill="#4B5563">show: true</text>
<text x="42.029364938133426" y="476.95645051861226" font-size="9.256084560000001" text-anchor="start" dominant-baseline="text-after-edge" font-family="Roboto, sans-serif" fill="#6F768B">LAYERS</text>
<rect x="34.529364938133426" y="478.80766743061224" width="59.894581622400004" height="20.5690768" rx="4.11381536" ry="4.11381536" fill="#8673B5" />
<text x="42.029364938133426" y="489.0922058306122" font-size="9.256084560000001" text-anchor="start" dominant-baseline="central" font-family="Roboto, sans-serif" fill="white">LAYER 2</text>
<circle cx="410.5950671007335" cy="489.4618155143793" r="9.5424108924174" fill="#31164F" />
<rect x="400.46590602399266" y="458.54934527713067" width="20.2583221534816" height="20.2583221534816" rx="1.51937416151112" ry="1.51937416151112" fill="#A69DC6" />
<rect x="400.46590602399266" y="475.76891910759" width="20.2583221534816" height="3.03874832302224" rx="1.51937416151112" ry="1.51937416151112" fill="#8673B5" />
<rect x="421.2492151845005" y="478.80766743061224" width="20.2583221534816" height="20.2583221534816" rx="1.51937416151112" ry="1.51937416151112" fill="#8673B5" />
<rect x="421.2492151845005" y="478.80766743061224" width="3.03874832302224" height="20.2583221534816" rx="1.51937416151112" ry="1.51937416151112" fill="#605181" />
<rect x="400.46590602399266" y="500.11596359814627" width="20.2583221534816" height="20.2583221534816" rx="1.51937416151112" ry="1.51937416151112" fill="#605181" />
<rect x="400.46590602399266" y="500.11596359814627" width="20.2583221534816" height="3.03874832302224" rx="1.51937416151112" ry="1.51937416151112" fill="#31164F" />
<rect x="379.6825968634849" y="478.80766743061224" width="20.2583221534816" height="20.2583221534816" rx="1.51937416151112" ry="1.51937416151112" fill="#CDC5EA" />
<rect x="396.9021706939443" y="478.80766743061224" width="3.03874832302224" height="20.2583221534816" rx="1.51937416151112" ry="1.51937416151112" fill="#A69DC6" />
<circle cx="328.83188980353344" cy="489.4618155143793" r="9.5424108924174" fill="#31164F" />
<rect x="318.7027287267926" y="458.54934527713067" width="20.2583221534816" height="20.2583221534816" rx="1.51937416151112" ry="1.51937416151112" fill="#A69DC6" />
<rect x="318.7027287267926" y="475.76891910759" width="20.2583221534816" height="3.03874832302224" rx="1.51937416151112" ry="1.51937416151112" fill="#8673B5" />
<rect x="339.4860378873004" y="478.80766743061224" width="20.2583221534816" height="20.2583221534816" rx="1.51937416151112" ry="1.51937416151112" fill="#8673B5" />
<rect x="339.4860378873004" y="478.80766743061224" width="3.03874832302224" height="20.2583221534816" rx="1.51937416151112" ry="1.51937416151112" fill="#605181" />
<rect x="318.7027287267926" y="500.11596359814627" width="20.2583221534816" height="20.2583221534816" rx="1.51937416151112" ry="1.51937416151112" fill="#605181" />
<rect x="318.7027287267926" y="500.11596359814627" width="20.2583221534816" height="3.03874832302224" rx="1.51937416151112" ry="1.51937416151112" fill="#31164F" />
<rect x="297.91941956628483" y="478.80766743061224" width="20.2583221534816" height="20.2583221534816" rx="1.51937416151112" ry="1.51937416151112" fill="#CDC5EA" />
<rect x="315.13899339674424" y="478.80766743061224" width="3.03874832302224" height="20.2583221534816" rx="1.51937416151112" ry="1.51937416151112" fill="#A69DC6" />
<circle cx="247.06871250633344" cy="489.4618155143793" r="9.5424108924174" fill="#31164F" />
<rect x="236.93955142959265" y="458.54934527713067" width="20.2583221534816" height="20.2583221534816" rx="1.51937416151112" ry="1.51937416151112" fill="#A69DC6" />
<rect x="236.93955142959265" y="475.76891910759" width="20.2583221534816" height="3.03874832302224" rx="1.51937416151112" ry="1.51937416151112" fill="#8673B5" />
<rect x="257.7228605901004" y="478.80766743061224" width="20.2583221534816" height="20.2583221534816" rx="1.51937416151112" ry="1.51937416151112" fill="#8673B5" />
<rect x="257.7228605901004" y="478.80766743061224" width="3.03874832302224" height="20.2583221534816" rx="1.51937416151112" ry="1.51937416151112" fill="#605181" />
<rect x="236.93955142959265" y="500.11596359814627" width="20.2583221534816" height="20.2583221534816" rx="1.51937416151112" ry="1.51937416151112" fill="#605181" />
<rect x="236.93955142959265" y="500.11596359814627" width="20.2583221534816" height="3.03874832302224" rx="1.51937416151112" ry="1.51937416151112" fill="#31164F" />
<rect x="216.15624226908483" y="478.80766743061224" width="20.2583221534816" height="20.2583221534816" rx="1.51937416151112" ry="1.51937416151112" fill="#CDC5EA" />
<rect x="233.37581609954418" y="478.80766743061224" width="3.03874832302224" height="20.2583221534816" rx="1.51937416151112" ry="1.51937416151112" fill="#A69DC6" />
<circle cx="165.30553520913344" cy="489.4618155143793" r="9.5424108924174" fill="#31164F" />
<rect x="155.17637413239265" y="458.54934527713067" width="20.2583221534816" height="20.2583221534816" rx="1.51937416151112" ry="1.51937416151112" fill="#A69DC6" />
<rect x="155.17637413239265" y="475.76891910759" width="20.2583221534816" height="3.03874832302224" rx="1.51937416151112" ry="1.51937416151112" fill="#8673B5" />
<rect x="175.95968329290042" y="478.80766743061224" width="20.2583221534816" height="20.2583221534816" rx="1.51937416151112" ry="1.51937416151112" fill="#8673B5" />
<rect x="175.95968329290042" y="478.80766743061224" width="3.03874832302224" height="20.2583221534816" rx="1.51937416151112" ry="1.51937416151112" fill="#605181" />
<rect x="155.17637413239265" y="500.11596359814627" width="20.2583221534816" height="20.2583221534816" rx="1.51937416151112" ry="1.51937416151112" fill="#605181" />
<rect x="155.17637413239265" y="500.11596359814627" width="20.2583221534816" height="3.03874832302224" rx="1.51937416151112" ry="1.51937416151112" fill="#31164F" />
<rect x="134.39306497188483" y="478.80766743061224" width="20.2583221534816" height="20.2583221534816" rx="1.51937416151112" ry="1.51937416151112" fill="#CDC5EA" />
<rect x="151.61263880234418" y="478.80766743061224" width="3.03874832302224" height="20.2583221534816" rx="1.51937416151112" ry="1.51937416151112" fill="#A69DC6" />
<circle cx="512.3582443979334" cy="489.4618155143793" r="9.5424108924174" fill="#31164F" />
<rect x="502.2290833211926" y="458.54934527713067" width="20.2583221534816" height="20.2583221534816" rx="1.51937416151112" ry="1.51937416151112" fill="#A69DC6" />
<rect x="502.2290833211926" y="475.76891910759" width="20.2583221534816" height="3.03874832302224" rx="1.51937416151112" ry="1.51937416151112" fill="#8673B5" />
<rect x="523.0123924817004" y="478.80766743061224" width="20.2583221534816" height="20.2583221534816" rx="1.51937416151112" ry="1.51937416151112" fill="#CDC5EA" />
<rect x="523.0123924817004" y="478.80766743061224" width="3.03874832302224" height="20.2583221534816" rx="1.51937416151112" ry="1.51937416151112" fill="#A69DC6" />
<rect x="502.2290833211926" y="500.11596359814627" width="20.2583221534816" height="20.2583221534816" rx="1.51937416151112" ry="1.51937416151112" fill="#605181" />
<rect x="502.2290833211926" y="500.11596359814627" width="20.2583221534816" height="3.03874832302224" rx="1.51937416151112" ry="1.51937416151112" fill="#31164F" />
<rect x="481.44577416068483" y="478.80766743061224" width="20.2583221534816" height="20.2583221534816" rx="1.51937416151112" ry="1.51937416151112" fill="#8673B5" />
<rect x="498.66534799114424" y="478.80766743061224" width="3.03874832302224" height="20.2583221534816" rx="1.51937416151112" ry="1.51937416151112" fill="#605181" />
<circle cx="594.1214216951334" cy="489.4618155143793" r="9.5424108924174" fill="#31164F" />
<rect x="583.9922606183927" y="458.54934527713067" width="20.2583221534816" height="20.2583221534816" rx="1.51937416151112" ry="1.51937416151112" fill="#A69DC6" />
<rect x="583.9922606183927" y="475.76891910759" width="20.2583221534816" height="3.03874832302224" rx="1.51937416151112" ry="1.51937416151112" fill="#8673B5" />
<rect x="604.7755697789005" y="478.80766743061224" width="20.2583221534816" height="20.2583221534816" rx="1.51937416151112" ry="1.51937416151112" fill="#CDC5EA" />
<rect x="604.7755697789005" y="478.80766743061224" width="3.03874832302224" height="20.2583221534816" rx="1.51937416151112" ry="1.51937416151112" fill="#A69DC6" />
<rect x="583.9922606183927" y="500.11596359814627" width="20.2583221534816" height="20.2583221534816" rx="1.51937416151112" ry="1.51937416151112" fill="#605181" />
<rect x="583.9922606183927" y="500.11596359814627" width="20.2583221534816" height="3.03874832302224" rx="1.51937416151112" ry="1.51937416151112" fill="#31164F" />
<rect x="563.2089514578848" y="478.80766743061224" width="20.2583221534816" height="20.2583221534816" rx="1.51937416151112" ry="1.51937416151112" fill="#8673B5" />
<rect x="580.4285252883442" y="478.80766743061224" width="3.03874832302224" height="20.2583221534816" rx="1.51937416151112" ry="1.51937416151112" fill="#605181" />
<circle cx="675.8845989923334" cy="489.4618155143793" r="9.5424108924174" fill="#31164F" />
<rect x="665.7554379155927" y="458.54934527713067" width="20.2583221534816" height="20.2583221534816" rx="1.51937416151112" ry="1.51937416151112" fill="#A69DC6" />
<rect x="665.7554379155927" y="475.76891910759" width="20.2583221534816" height="3.03874832302224" rx="1.51937416151112" ry="1.51937416151112" fill="#8673B5" />
<rect x="686.5387470761004" y="478.80766743061224" width="20.2583221534816" height="20.2583221534816" rx="1.51937416151112" ry="1.51937416151112" fill="#CDC5EA" />
<rect x="686.5387470761004" y="478.80766743061224" width="3.03874832302224" height="20.2583221534816" rx="1.51937416151112" ry="1.51937416151112" fill="#A69DC6" />
<rect x="665.7554379155927" y="500.11596359814627" width="20.2583221534816" height="20.2583221534816" rx="1.51937416151112" ry="1.51937416151112" fill="#605181" />
<rect x="665.7554379155927" y="500.11596359814627" width="20.2583221534816" height="3.03874832302224" rx="1.51937416151112" ry="1.51937416151112" fill="#31164F" />
<rect x="644.9721287550848" y="478.80766743061224" width="20.2583221534816" height="20.2583221534816" rx="1.51937416151112" ry="1.51937416151112" fill="#8673B5" />
<rect x="662.1917025855441" y="478.80766743061224" width="3.03874832302224" height="20.2583221534816" rx="1.51937416151112" ry="1.51937416151112" fill="#605181" />
<circle cx="757.6477762895333" cy="489.4618155143793" r="9.5424108924174" fill="#31164F" />
<rect x="747.5186152127926" y="458.54934527713067" width="20.2583221534816" height="20.2583221534816" rx="1.51937416151112" ry="1.51937416151112" fill="#A69DC6" />
<rect x="747.5186152127926" y="475.76891910759" width="20.2583221534816" height="3.03874832302224" rx="1.51937416151112" ry="1.51937416151112" fill="#8673B5" />
<rect x="768.3019243733004" y="478.80766743061224" width="20.2583221534816" height="20.2583221534816" rx="1.51937416151112" ry="1.51937416151112" fill="#CDC5EA" />
<rect x="768.3019243733004" y="478.80766743061224" width="3.03874832302224" height="20.2583221534816" rx="1.51937416151112" ry="1.51937416151112" fill="#A69DC6" />
<rect x="747.5186152127926" y="500.11596359814627" width="20.2583221534816" height="20.2583221534816" rx="1.51937416151112" ry="1.51937416151112" fill="#605181" />
<rect x="747.5186152127926" y="500.11596359814627" width="20.2583221534816" height="3.03874832302224" rx="1.51937416151112" ry="1.51937416151112" fill="#31164F" />
<rect x="726.7353060522847" y="478.80766743061224" width="20.2583221534816" height="20.2583221534816" rx="1.51937416151112" ry="1.51937416151112" fill="#8673B5" />
<rect x="743.9548798827441" y="478.80766743061224" width="3.03874832302224" height="20.2583221534816" rx="1.51937416151112" ry="1.51937416151112" fill="#605181" />
<rect x="34.529364938133426" y="560.6326079051095" width="59.894581622400004" height="20.5690768" rx="4.11381536" ry="4.11381536" fill="#0E7695" />
<text x="42.029364938133426" y="570.9171463051094" font-size="9.256084560000001" text-anchor="start" dominant-baseline="central" font-family="Roboto, sans-serif" fill="white">LAYER 1</text>
<circle cx="410.5950671007335" cy="571.2867559888765" r="9.5424108924174" fill="#1D3052" />
<rect x="400.46590602399266" y="540.3742857516279" width="20.2583221534816" height="20.2583221534816" rx="1.51937416151112" ry="1.51937416151112" fill="#7AC0C6" />
<rect x="400.46590602399266" y="557.5938595820872" width="20.2583221534816" height="3.03874832302224" rx="1.51937416151112" ry="1.51937416151112" fill="#05A1B0" />
<rect x="421.2492151845005" y="560.6326079051095" width="20.2583221534816" height="20.2583221534816" rx="1.51937416151112" ry="1.51937416151112" fill="#05A1B0" />
<rect x="421.2492151845005" y="560.6326079051095" width="3.03874832302224" height="20.2583221534816" rx="1.51937416151112" ry="1.51937416151112" fill="#0E7695" />
<rect x="400.46590602399266" y="581.9409040726435" width="20.2583221534816" height="20.2583221534816" rx="1.51937416151112" ry="1.51937416151112" fill="#0E7695" />
<rect x="400.46590602399266" y="581.9409040726435" width="20.2583221534816" height="3.03874832302224" rx="1.51937416151112" ry="1.51937416151112" fill="#1D3052" />
<rect x="379.6825968634849" y="560.6326079051095" width="20.2583221534816" height="20.2583221534816" rx="1.51937416151112" ry="1.51937416151112" fill="#A6D7DE" />
<rect x="396.9021706939443" y="560.6326079051095" width="3.03874832302224" height="20.2583221534816" rx="1.51937416151112" ry="1.51937416151112" fill="#7AC0C6" />
<circle cx="328.83188980353344" cy="571.2867559888765" r="9.5424108924174" fill="#1D3052" />
<rect x="318.7027287267926" y="540.3742857516279" width="20.2583221534816" height="20.2583221534816" rx="1.51937416151112" ry="1.51937416151112" fill="#7AC0C6" />
<rect x="318.7027287267926" y="557.5938595820872" width="20.2583221534816" height="3.03874832302224" rx="1.51937416151112" ry="1.51937416151112" fill="#05A1B0" />
<rect x="339.4860378873004" y="560.6326079051095" width="20.2583221534816" height="20.2583221534816" rx="1.51937416151112" ry="1.51937416151112" fill="#05A1B0" />
<rect x="339.4860378873004" y="560.6326079051095" width="3.03874832302224" height="20.2583221534816" rx="1.51937416151112" ry="1.51937416151112" fill="#0E7695" />
<rect x="318.7027287267926" y="581.9409040726435" width="20.2583221534816" height="20.2583221534816" rx="1.51937416151112" ry="1.51937416151112" fill="#0E7695" />
<rect x="318.7027287267926" y="581.9409040726435" width="20.2583221534816" height="3.03874832302224" rx="1.51937416151112" ry="1.51937416151112" fill="#1D3052" />
<rect x="297.91941956628483" y="560.6326079051095" width="20.2583221534816" height="20.2583221534816" rx="1.51937416151112" ry="1.51937416151112" fill="#A6D7DE" />
<rect x="315.13899339674424" y="560.6326079051095" width="3.03874832302224" height="20.2583221534816" rx="1.51937416151112" ry="1.51937416151112" fill="#7AC0C6" />
<circle cx="247.06871250633344" cy="571.2867559888765" r="9.5424108924174" fill="#1D3052" />
<rect x="236.93955142959265" y="540.3742857516279" width="20.2583221534816" height="20.2583221534816" rx="1.51937416151112" ry="1.51937416151112" fill="#7AC0C6" />
<rect x="236.93955142959265" y="557.5938595820872" width="20.2583221534816" height="3.03874832302224" rx="1.51937416151112" ry="1.51937416151112" fill="#05A1B0" />
<rect x="257.7228605901004" y="560.6326079051095" width="20.2583221534816" height="20.2583221534816" rx="1.51937416151112" ry="1.51937416151112" fill="#05A1B0" />
<rect x="257.7228605901004" y="560.6326079051095" width="3.03874832302224" height="20.2583221534816" rx="1.51937416151112" ry="1.51937416151112" fill="#0E7695" />
<rect x="236.93955142959265" y="581.9409040726435" width="20.2583221534816" height="20.2583221534816" rx="1.51937416151112" ry="1.51937416151112" fill="#0E7695" />
<rect x="236.93955142959265" y="581.9409040726435" width="20.2583221534816" height="3.03874832302224" rx="1.51937416151112" ry="1.51937416151112" fill="#1D3052" />
<rect x="216.15624226908483" y="560.6326079051095" width="20.2583221534816" height="20.2583221534816" rx="1.51937416151112" ry="1.51937416151112" fill="#A6D7DE" />
<rect x="233.37581609954418" y="560.6326079051095" width="3.03874832302224" height="20.2583221534816" rx="1.51937416151112" ry="1.51937416151112" fill="#7AC0C6" />
<circle cx="165.30553520913344" cy="571.2867559888765" r="9.5424108924174" fill="#1D3052" />
<rect x="155.17637413239265" y="540.3742857516279" width="20.2583221534816" height="20.2583221534816" rx="1.51937416151112" ry="1.51937416151112" fill="#7AC0C6" />
<rect x="155.17637413239265" y="557.5938595820872" width="20.2583221534816" height="3.03874832302224" rx="1.51937416151112" ry="1.51937416151112" fill="#05A1B0" />
<rect x="175.95968329290042" y="560.6326079051095" width="20.2583221534816" height="20.2583221534816" rx="1.51937416151112" ry="1.51937416151112" fill="#05A1B0" />
<rect x="175.95968329290042" y="560.6326079051095" width="3.03874832302224" height="20.2583221534816" rx="1.51937416151112" ry="1.51937416151112" fill="#0E7695" />
<rect x="155.17637413239265" y="581.9409040726435" width="20.2583221534816" height="20.2583221534816" rx="1.51937416151112" ry="1.51937416151112" fill="#0E7695" />
<rect x="155.17637413239265" y="581.9409040726435" width="20.2583221534816" height="3.03874832302224" rx="1.51937416151112" ry="1.51937416151112" fill="#1D3052" />
<rect x="134.39306497188483" y="560.6326079051095" width="20.2583221534816" height="20.2583221534816" rx="1.51937416151112" ry="1.51937416151112" fill="#A6D7DE" />
<rect x="151.61263880234418" y="560.6326079051095" width="3.03874832302224" height="20.2583221534816" rx="1.51937416151112" ry="1.51937416151112" fill="#7AC0C6" />
<circle cx="512.3582443979334" cy="571.2867559888765" r="9.5424108924174" fill="#1D3052" />
<rect x="502.2290833211926" y="540.3742857516279" width="20.2583221534816" height="20.2583221534816" rx="1.51937416151112" ry="1.51937416151112" fill="#7AC0C6" />
<rect x="502.2290833211926" y="557.5938595820872" width="20.2583221534816" height="3.03874832302224" rx="1.51937416151112" ry="1.51937416151112" fill="#05A1B0" />
<rect x="523.0123924817004" y="560.6326079051095" width="20.2583221534816" height="20.2583221534816" rx="1.51937416151112" ry="1.51937416151112" fill="#A6D7DE" />
<rect x="523.0123924817004" y="560.6326079051095" width="3.03874832302224" height="20.2583221534816" rx="1.51937416151112" ry="1.51937416151112" fill="#7AC0C6" />
<rect x="502.2290833211926" y="581.9409040726435" width="20.2583221534816" height="20.2583221534816" rx="1.51937416151112" ry="1.51937416151112" fill="#0E7695" />
<rect x="502.2290833211926" y="581.9409040726435" width="20.2583221534816" height="3.03874832302224" rx="1.51937416151112" ry="1.51937416151112" fill="#1D3052" />
<rect x="481.44577416068483" y="560.6326079051095" width="20.2583221534816" height="20.2583221534816" rx="1.51937416151112" ry="1.51937416151112" fill="#05A1B0" />
<rect x="498.66534799114424" y="560.6326079051095" width="3.03874832302224" height="20.2583221534816" rx="1.51937416151112" ry="1.51937416151112" fill="#0E7695" />
<circle cx="594.1214216951334" cy="571.2867559888765" r="9.5424108924174" fill="#1D3052" />
<rect x="583.9922606183927" y="540.3742857516279" width="20.2583221534816" height="20.2583221534816" rx="1.51937416151112" ry="1.51937416151112" fill="#7AC0C6" />
<rect x="583.9922606183927" y="557.5938595820872" width="20.2583221534816" height="3.03874832302224" rx="1.51937416151112" ry="1.51937416151112" fill="#05A1B0" />
<rect x="604.7755697789005" y="560.6326079051095" width="20.2583221534816" height="20.2583221534816" rx="1.51937416151112" ry="1.51937416151112" fill="#A6D7DE" />
<rect x="604.7755697789005" y="560.6326079051095" width="3.03874832302224" height="20.2583221534816" rx="1.51937416151112" ry="1.51937416151112" fill="#7AC0C6" />
<rect x="583.9922606183927" y="581.9409040726435" width="20.2583221534816" height="20.2583221534816" rx="1.51937416151112" ry="1.51937416151112" fill="#0E7695" />
<rect x="583.9922606183927" y="581.9409040726435" width="20.2583221534816" height="3.03874832302224" rx="1.51937416151112" ry="1.51937416151112" fill="#1D3052" />
<rect x="563.2089514578848" y="560.6326079051095" width="20.2583221534816" height="20.2583221534816" rx="1.51937416151112" ry="1.51937416151112" fill="#05A1B0" />
<rect x="580.4285252883442" y="560.6326079051095" width="3.03874832302224" height="20.2583221534816" rx="1.51937416151112" ry="1.51937416151112" fill="#0E7695" />
<circle cx="675.8845989923334" cy="571.2867559888765" r="9.5424108924174" fill="#1D3052" />
<rect x="665.7554379155927" y="540.3742857516279" width="20.2583221534816" height="20.2583221534816" rx="1.51937416151112" ry="1.51937416151112" fill="#7AC0C6" />
<rect x="665.7554379155927" y="557.5938595820872" width="20.2583221534816" height="3.03874832302224" rx="1.51937416151112" ry="1.51937416151112" fill="#05A1B0" />
<rect x="686.5387470761004" y="560.6326079051095" width="20.2583221534816" height="20.2583221534816" rx="1.51937416151112" ry="1.51937416151112" fill="#A6D7DE" />
<rect x="686.5387470761004" y="560.6326079051095" width="3.03874832302224" height="20.2583221534816" rx="1.51937416151112" ry="1.51937416151112" fill="#7AC0C6" />
<rect x="665.7554379155927" y="581.9409040726435" width="20.2583221534816" height="20.2583221534816" rx="1.51937416151112" ry="1.51937416151112" fill="#0E7695" />
<rect x="665.7554379155927" y="581.9409040726435" width="20.2583221534816" height="3.03874832302224" rx="1.51937416151112" ry="1.51937416151112" fill="#1D3052" />
<rect x="644.9721287550848" y="560.6326079051095" width="20.2583221534816" height="20.2583221534816" rx="1.51937416151112" ry="1.51937416151112" fill="#05A1B0" />
<rect x="662.1917025855441" y="560.6326079051095" width="3.03874832302224" height="20.2583221534816" rx="1.51937416151112" ry="1.51937416151112" fill="#0E7695" />
<circle cx="757.6477762895333" cy="571.2867559888765" r="9.5424108924174" fill="#1D3052" />
<rect x="747.5186152127926" y="540.3742857516279" width="20.2583221534816" height="20.2583221534816" rx="1.51937416151112" ry="1.51937416151112" fill="#7AC0C6" />
<rect x="747.5186152127926" y="557.5938595820872" width="20.2583221534816" height="3.03874832302224" rx="1.51937416151112" ry="1.51937416151112" fill="#05A1B0" />
<rect x="768.3019243733004" y="560.6326079051095" width="20.2583221534816" height="20.2583221534816" rx="1.51937416151112" ry="1.51937416151112" fill="#A6D7DE" />
<rect x="768.3019243733004" y="560.6326079051095" width="3.03874832302224" height="20.2583221534816" rx="1.51937416151112" ry="1.51937416151112" fill="#7AC0C6" />
<rect x="747.5186152127926" y="581.9409040726435" width="20.2583221534816" height="20.2583221534816" rx="1.51937416151112" ry="1.51937416151112" fill="#0E7695" />
<rect x="747.5186152127926" y="581.9409040726435" width="20.2583221534816" height="3.03874832302224" rx="1.51937416151112" ry="1.51937416151112" fill="#1D3052" />
<rect x="726.7353060522847" y="560.6326079051095" width="20.2583221534816" height="20.2583221534816" rx="1.51937416151112" ry="1.51937416151112" fill="#05A1B0" />
<rect x="743.9548798827441" y="560.6326079051095" width="3.03874832302224" height="20.2583221534816" rx="1.51937416151112" ry="1.51937416151112" fill="#0E7695" />
<rect x="34.529364938133426" y="659.5996255640216" width="59.894581622400004" height="20.5690768" rx="4.11381536" ry="4.11381536" fill="#037065" />
<text x="42.029364938133426" y="669.8841639640216" font-size="9.256084560000001" text-anchor="start" dominant-baseline="central" font-family="Roboto, sans-serif" fill="white">LAYER 0</text>
<circle cx="410.5950671007335" cy="670.2537736477885" r="9.5424108924174" fill="#053F3A" />
<rect x="400.46590602399266" y="639.3413034105399" width="20.2583221534816" height="20.2583221534816" rx="1.51937416151112" ry="1.51937416151112" fill="#0E7695" />
<rect x="400.46590602399266" y="656.5608772409993" width="20.2583221534816" height="3.03874832302224" rx="1.51937416151112" ry="1.51937416151112" fill="#1D3052" />
<text x="402.82782100317735" y="648.7107774065252" font-size="6.79634033536157" text-anchor="start" dominant-baseline="central" font-family="Roboto, sans-serif" fill="white" opacity="1.0">LT(1)</text>
<rect x="421.2492151845005" y="659.5996255640215" width="20.2583221534816" height="20.2583221534816" rx="1.51937416151112" ry="1.51937416151112" fill="#079E7C" />
<rect x="421.2492151845005" y="659.5996255640215" width="3.03874832302224" height="20.2583221534816" rx="1.51937416151112" ry="1.51937416151112" fill="#037065" />
<rect x="400.46590602399266" y="680.9079217315556" width="20.2583221534816" height="20.2583221534816" rx="1.51937416151112" ry="1.51937416151112" fill="#037065" />
<rect x="400.46590602399266" y="680.9079217315556" width="20.2583221534816" height="3.03874832302224" rx="1.51937416151112" ry="1.51937416151112" fill="#053F3A" />
<rect x="379.6825968634849" y="659.5996255640215" width="20.2583221534816" height="20.2583221534816" rx="1.51937416151112" ry="1.51937416151112" fill="#BDDCA7" />
<rect x="396.9021706939443" y="659.5996255640215" width="3.03874832302224" height="20.2583221534816" rx="1.51937416151112" ry="1.51937416151112" fill="#86BE81" />
<path d="M410.59506710073344,633.3413034105399 L410.59506710073344,641.3413034105399" stroke="#7AC0C6" stroke-width="1.0" />
<circle cx="410.59506710073344" cy="641.3413034105399" r="1.0" fill="#7AC0C6" />
<circle cx="410.59506710073344" cy="627.7702648183325" r="5.571038592207441" fill="#0E7695" stroke="#7AC0C6" stroke-width="1.0" />
<text x="408.6849967262623" y="627.7702648183325" font-size="6.685246310648929" text-anchor="start" dominant-baseline="central" font-family="Roboto, sans-serif" fill="white" opacity="1.0">1</text>
<circle cx="328.83188980353344" cy="670.2537736477885" r="9.5424108924174" fill="#053F3A" />
<rect x="318.7027287267926" y="639.3413034105399" width="20.2583221534816" height="20.2583221534816" rx="1.51937416151112" ry="1.51937416151112" fill="#8673B5" />
<rect x="318.7027287267926" y="656.5608772409993" width="20.2583221534816" height="3.03874832302224" rx="1.51937416151112" ry="1.51937416151112" fill="#605181" />
<text x="321.0646437059773" y="648.7107774065252" font-size="6.79634033536157" text-anchor="start" dominant-baseline="central" font-family="Roboto, sans-serif" fill="white" opacity="1.0">LT(2)</text>
<rect x="339.4860378873004" y="659.5996255640215" width="20.2583221534816" height="20.2583221534816" rx="1.51937416151112" ry="1.51937416151112" fill="#079E7C" />
<rect x="339.4860378873004" y="659.5996255640215" width="3.03874832302224" height="20.2583221534816" rx="1.51937416151112" ry="1.51937416151112" fill="#037065" />
<rect x="318.7027287267926" y="680.9079217315556" width="20.2583221534816" height="20.2583221534816" rx="1.51937416151112" ry="1.51937416151112" fill="#037065" />
<rect x="318.7027287267926" y="680.9079217315556" width="20.2583221534816" height="3.03874832302224" rx="1.51937416151112" ry="1.51937416151112" fill="#053F3A" />
<rect x="297.91941956628483" y="659.5996255640215" width="20.2583221534816" height="20.2583221534816" rx="1.51937416151112" ry="1.51937416151112" fill="#BDDCA7" />
<rect x="315.13899339674424" y="659.5996255640215" width="3.03874832302224" height="20.2583221534816" rx="1.51937416151112" ry="1.51937416151112" fill="#86BE81" />
<path d="M328.8318898035334,633.3413034105399 L328.8318898035334,641.3413034105399" stroke="#A69DC6" stroke-width="1.0" />
<circle cx="328.8318898035334" cy="641.3413034105399" r="1.0" fill="#A69DC6" />
<circle cx="328.8318898035334" cy="627.7702648183325" r="5.571038592207441" fill="#8673B5" stroke="#A69DC6" stroke-width="1.0" />
<text x="326.9218194290622" y="627.7702648183325" font-size="6.685246310648929" text-anchor="start" dominant-baseline="central" font-family="Roboto, sans-serif" fill="white" opacity="1.0">2</text>
<circle cx="247.06871250633344" cy="670.2537736477885" r="9.5424108924174" fill="#053F3A" />
<rect x="236.93955142959265" y="639.3413034105399" width="20.2583221534816" height="20.2583221534816" rx="1.51937416151112" ry="1.51937416151112" fill="#86BE81" />
<rect x="236.93955142959265" y="656.5608772409993" width="20.2583221534816" height="3.03874832302224" rx="1.51937416151112" ry="1.51937416151112" fill="#079E7C" />
<rect x="257.7228605901004" y="659.5996255640215" width="20.2583221534816" height="20.2583221534816" rx="1.51937416151112" ry="1.51937416151112" fill="#079E7C" />
<rect x="257.7228605901004" y="659.5996255640215" width="3.03874832302224" height="20.2583221534816" rx="1.51937416151112" ry="1.51937416151112" fill="#037065" />
<rect x="236.93955142959265" y="680.9079217315556" width="20.2583221534816" height="20.2583221534816" rx="1.51937416151112" ry="1.51937416151112" fill="#037065" />
<rect x="236.93955142959265" y="680.9079217315556" width="20.2583221534816" height="3.03874832302224" rx="1.51937416151112" ry="1.51937416151112" fill="#053F3A" />
<rect x="216.15624226908483" y="659.5996255640215" width="20.2583221534816" height="20.2583221534816" rx="1.51937416151112" ry="1.51937416151112" fill="#BDDCA7" />
<rect x="233.37581609954418" y="659.5996255640215" width="3.03874832302224" height="20.2583221534816" rx="1.51937416151112" ry="1.51937416151112" fill="#86BE81" />
<circle cx="165.30553520913344" cy="670.2537736477885" r="9.5424108924174" fill="#053F3A" />
<rect x="155.17637413239265" y="639.3413034105399" width="20.2583221534816" height="20.2583221534816" rx="1.51937416151112" ry="1.51937416151112" fill="#86BE81" />
<rect x="155.17637413239265" y="656.5608772409993" width="20.2583221534816" height="3.03874832302224" rx="1.51937416151112" ry="1.51937416151112" fill="#079E7C" />
<rect x="175.95968329290042" y="659.5996255640215" width="20.2583221534816" height="20.2583221534816" rx="1.51937416151112" ry="1.51937416151112" fill="#079E7C" />
<rect x="175.95968329290042" y="659.5996255640215" width="3.03874832302224" height="20.2583221534816" rx="1.51937416151112" ry="1.51937416151112" fill="#037065" />
<rect x="155.17637413239265" y="680.9079217315556" width="20.2583221534816" height="20.2583221534816" rx="1.51937416151112" ry="1.51937416151112" fill="#037065" />
<rect x="155.17637413239265" y="680.9079217315556" width="20.2583221534816" height="3.03874832302224" rx="1.51937416151112" ry="1.51937416151112" fill="#053F3A" />
<rect x="134.39306497188483" y="659.5996255640215" width="20.2583221534816" height="20.2583221534816" rx="1.51937416151112" ry="1.51937416151112" fill="#BDDCA7" />
<rect x="151.61263880234418" y="659.5996255640215" width="3.03874832302224" height="20.2583221534816" rx="1.51937416151112" ry="1.51937416151112" fill="#86BE81" />
<circle cx="512.3582443979334" cy="670.2537736477885" r="9.5424108924174" fill="#053F3A" />
<rect x="502.2290833211926" y="639.3413034105399" width="20.2583221534816" height="20.2583221534816" rx="1.51937416151112" ry="1.51937416151112" fill="#86BE81" />
<rect x="502.2290833211926" y="656.5608772409993" width="20.2583221534816" height="3.03874832302224" rx="1.51937416151112" ry="1.51937416151112" fill="#079E7C" />
<rect x="523.0123924817004" y="659.5996255640215" width="20.2583221534816" height="20.2583221534816" rx="1.51937416151112" ry="1.51937416151112" fill="#BDDCA7" />
<rect x="523.0123924817004" y="659.5996255640215" width="3.03874832302224" height="20.2583221534816" rx="1.51937416151112" ry="1.51937416151112" fill="#86BE81" />
<rect x="502.2290833211926" y="680.9079217315556" width="20.2583221534816" height="20.2583221534816" rx="1.51937416151112" ry="1.51937416151112" fill="#037065" />
<rect x="502.2290833211926" y="680.9079217315556" width="20.2583221534816" height="3.03874832302224" rx="1.51937416151112" ry="1.51937416151112" fill="#053F3A" />
<rect x="481.44577416068483" y="659.5996255640215" width="20.2583221534816" height="20.2583221534816" rx="1.51937416151112" ry="1.51937416151112" fill="#079E7C" />
<rect x="498.66534799114424" y="659.5996255640215" width="3.03874832302224" height="20.2583221534816" rx="1.51937416151112" ry="1.51937416151112" fill="#037065" />
<circle cx="594.1214216951334" cy="670.2537736477885" r="9.5424108924174" fill="#053F3A" />
<rect x="583.9922606183927" y="639.3413034105399" width="20.2583221534816" height="20.2583221534816" rx="1.51937416151112" ry="1.51937416151112" fill="#86BE81" />
<rect x="583.9922606183927" y="656.5608772409993" width="20.2583221534816" height="3.03874832302224" rx="1.51937416151112" ry="1.51937416151112" fill="#079E7C" />
<rect x="604.7755697789005" y="659.5996255640215" width="20.2583221534816" height="20.2583221534816" rx="1.51937416151112" ry="1.51937416151112" fill="#BDDCA7" />
<rect x="604.7755697789005" y="659.5996255640215" width="3.03874832302224" height="20.2583221534816" rx="1.51937416151112" ry="1.51937416151112" fill="#86BE81" />
<rect x="583.9922606183927" y="680.9079217315556" width="20.2583221534816" height="20.2583221534816" rx="1.51937416151112" ry="1.51937416151112" fill="#037065" />
<rect x="583.9922606183927" y="680.9079217315556" width="20.2583221534816" height="3.03874832302224" rx="1.51937416151112" ry="1.51937416151112" fill="#053F3A" />
<rect x="563.2089514578848" y="659.5996255640215" width="20.2583221534816" height="20.2583221534816" rx="1.51937416151112" ry="1.51937416151112" fill="#079E7C" />
<rect x="580.4285252883442" y="659.5996255640215" width="3.03874832302224" height="20.2583221534816" rx="1.51937416151112" ry="1.51937416151112" fill="#037065" />
<circle cx="675.8845989923334" cy="670.2537736477885" r="9.5424108924174" fill="#053F3A" />
<rect x="665.7554379155927" y="639.3413034105399" width="20.2583221534816" height="20.2583221534816" rx="1.51937416151112" ry="1.51937416151112" fill="#86BE81" />
<rect x="665.7554379155927" y="656.5608772409993" width="20.2583221534816" height="3.03874832302224" rx="1.51937416151112" ry="1.51937416151112" fill="#079E7C" />
<rect x="686.5387470761004" y="659.5996255640215" width="20.2583221534816" height="20.2583221534816" rx="1.51937416151112" ry="1.51937416151112" fill="#BDDCA7" />
<rect x="686.5387470761004" y="659.5996255640215" width="3.03874832302224" height="20.2583221534816" rx="1.51937416151112" ry="1.51937416151112" fill="#86BE81" />
<rect x="665.7554379155927" y="680.9079217315556" width="20.2583221534816" height="20.2583221534816" rx="1.51937416151112" ry="1.51937416151112" fill="#037065" />
<rect x="665.7554379155927" y="680.9079217315556" width="20.2583221534816" height="3.03874832302224" rx="1.51937416151112" ry="1.51937416151112" fill="#053F3A" />
<rect x="644.9721287550848" y="659.5996255640215" width="20.2583221534816" height="20.2583221534816" rx="1.51937416151112" ry="1.51937416151112" fill="#079E7C" />
<rect x="662.1917025855441" y="659.5996255640215" width="3.03874832302224" height="20.2583221534816" rx="1.51937416151112" ry="1.51937416151112" fill="#037065" />
<circle cx="757.6477762895333" cy="670.2537736477885" r="9.5424108924174" fill="#053F3A" />
<rect x="747.5186152127926" y="639.3413034105399" width="20.2583221534816" height="20.2583221534816" rx="1.51937416151112" ry="1.51937416151112" fill="#86BE81" />
<rect x="747.5186152127926" y="656.5608772409993" width="20.2583221534816" height="3.03874832302224" rx="1.51937416151112" ry="1.51937416151112" fill="#079E7C" />
<rect x="768.3019243733004" y="659.5996255640215" width="20.2583221534816" height="20.2583221534816" rx="1.51937416151112" ry="1.51937416151112" fill="#BDDCA7" />
<rect x="768.3019243733004" y="659.5996255640215" width="3.03874832302224" height="20.2583221534816" rx="1.51937416151112" ry="1.51937416151112" fill="#86BE81" />
<rect x="747.5186152127926" y="680.9079217315556" width="20.2583221534816" height="20.2583221534816" rx="1.51937416151112" ry="1.51937416151112" fill="#037065" />
<rect x="747.5186152127926" y="680.9079217315556" width="20.2583221534816" height="3.03874832302224" rx="1.51937416151112" ry="1.51937416151112" fill="#053F3A" />
<rect x="726.7353060522847" y="659.5996255640215" width="20.2583221534816" height="20.2583221534816" rx="1.51937416151112" ry="1.51937416151112" fill="#079E7C" />
<rect x="743.9548798827441" y="659.5996255640215" width="3.03874832302224" height="20.2583221534816" rx="1.51937416151112" ry="1.51937416151112" fill="#037065" />
<rect x="34.529364938133426" y="726.0668051236904" width="59.894581622400004" height="20.5690768" rx="4.11381536" ry="4.11381536" fill="black" />
<text x="42.029364938133426" y="736.3513435236904" font-size="9.256084560000001" text-anchor="start" dominant-baseline="central" font-family="Roboto, sans-serif" fill="white">THUMBS</text>
<path fill="#037065" d="M 364.7195979028775 725.0306445290144 A 3.86886413577888 3.86886413577888 0 0 1 368.7742505311553 721.1662438850371 L 385.2169231082155 721.1662438850371 A 3.86886413577888 3.86886413577888 0 0 1 389.2715757364933 725.0306445290144 L 392.9300655595985 801.1272328496024 A 3.86886413577888 3.86886413577888 0 0 1 389.2469899163185 804.9916334935796 L 364.7441837230523 804.9916334935796 A 3.86886413577888 3.86886413577888 0 0 1 361.0611080797723 801.1272328496024 Z" />
<path fill="#6F768B" d="M 314.3199878200675 728.517085743017 A 2.4502806193266244 2.4502806193266244 0 0 1 316.77026843939416 726.0668051236904 L 360.8753195872734 726.0668051236904 A 2.4502806193266244 2.4502806193266244 0 0 1 363.16727608125194 728.5119653607261 L 361.76872789841946 750.1111650955912 A 2.4502806193266244 2.4502806193266244 0 0 1 359.16012315374473 752.5563253326269 L 316.77026843939416 752.5563253326269 A 2.4502806193266244 2.4502806193266244 0 0 1 314.3199878200675 750.1060447133003 Z" />
<path fill="white" d="M 325.3720430346092 758.0021291955807 A 2.398695764182906 2.398695764182906 0 0 1 327.7707387987921 755.6034334313978 L 373.3459583182673 755.6034334313978 A 2.398695764182906 2.398695764182906 0 0 1 375.7446540824502 758.0021291955807 L 375.7446540824502 770.9838706713385 A 2.398695764182906 2.398695764182906 0 0 1 373.3487317713583 773.4978818651955 L 327.7679653457011 775.6916782336824 A 2.398695764182906 2.398695764182906 0 0 1 325.3720430346092 773.4082978991736 Z" />
<path fill="#053F3A" d="M 326.57139091670064 759.2014770776722 A 2.398695764182906 2.398695764182906 0 0 1 328.9700866808835 756.8027813134893 L 372.1466104361759 756.8027813134893 A 2.398695764182906 2.398695764182906 0 0 1 374.54530620035877 759.2014770776722 L 374.54530620035877 769.755738440077 A 2.398695764182906 2.398695764182906 0 0 1 372.14889089692696 772.2590050538643 L 328.96780622013245 774.1432705670334 A 2.398695764182906 2.398695764182906 0 0 1 326.57139091670064 771.8491456524548 Z" />
<path fill="#6F768B" d="M 390.8162016105647 728.6416457697403 A 2.5792427571859204 2.5792427571859204 0 0 1 393.2448161899567 726.0668051236904 L 439.6711858193033 726.0668051236904 A 2.5792427571859204 2.5792427571859204 0 0 1 442.2504285764892 728.6460478808764 L 442.2504285764892 749.941334235078 A 2.5792427571859204 2.5792427571859204 0 0 1 439.6711858193033 752.520576992264 L 394.7923618442682 752.520576992264 A 2.5792427571859204 2.5792427571859204 0 0 1 392.0624909092884 749.9457363462141 Z" />
<path fill="#6F768B" d="M 392.72981249261136 759.2819064462453 A 2.482521153791448 2.482521153791448 0 0 1 395.08252665445167 756.8027813134893 L 439.76790742269776 756.8027813134893 A 2.482521153791448 2.482521153791448 0 0 1 442.2504285764892 759.2853024672808 L 442.2504285764892 780.871288542494 A 2.482521153791448 2.482521153791448 0 0 1 439.76790742269776 783.3538096962855 L 396.4727385005749 783.3538096962855 A 2.482521153791448 2.482521153791448 0 0 1 393.86041035483237 780.8746845635294 Z" />
<path fill="#053F3A" stroke="white" stroke-width="0.8382538960854241" d="M 369.204450226902 733.1453869542744 A 2.1794601298221026 2.1794601298221026 0 0 1 371.46311110552153 730.9673663623437 L 382.5280625338492 730.9673663623437 A 2.1794601298221026 2.1794601298221026 0 0 1 384.78672341246875 733.1453869542744 L 385.29892503174216 747.2309314842923 A 2.1794601298221026 2.1794601298221026 0 0 1 383.19866565071754 749.408952076223 L 370.7925079886532 749.408952076223 A 2.1794601298221026 2.1794601298221026 0 0 1 368.6922486076286 747.2309314842923 Z" />
<path fill="#037065" d="M 533.6817357621735 725.0306445290144 A 3.86886413577888 3.86886413577888 0 0 1 537.7363883904512 721.1662438850371 L 554.1790609675115 721.1662438850371 A 3.86886413577888 3.86886413577888 0 0 1 558.2337135957893 725.0306445290144 L 561.8922034188945 801.1272328496024 A 3.86886413577888 3.86886413577888 0 0 1 558.2091277756145 804.9916334935796 L 533.7063215823482 804.9916334935796 A 3.86886413577888 3.86886413577888 0 0 1 530.0232459390683 801.1272328496024 Z" />
<path fill="#6F768B" d="M 559.7860354174148 728.5119653607261 A 2.4502806193266244 2.4502806193266244 0 0 1 562.0779919113934 726.0668051236904 L 606.1830430592727 726.0668051236904 A 2.4502806193266244 2.4502806193266244 0 0 1 608.6333236785993 728.517085743017 L 608.6333236785993 750.1060447133003 A 2.4502806193266244 2.4502806193266244 0 0 1 606.1830430592727 752.5563253326269 L 563.793188344922 752.5563253326269 A 2.4502806193266244 2.4502806193266244 0 0 1 561.1845836002474 750.1111650955912 Z" />
<path fill="white" d="M 547.2086574162165 758.0021291955807 A 2.398695764182906 2.398695764182906 0 0 1 549.6073531803994 755.6034334313978 L 595.1825726998746 755.6034334313978 A 2.398695764182906 2.398695764182906 0 0 1 597.5812684640575 758.0021291955807 L 597.5812684640575 773.4082978991736 A 2.398695764182906 2.398695764182906 0 0 1 595.1853461529656 775.6916782336824 L 549.6045797273084 773.4978818651955 A 2.398695764182906 2.398695764182906 0 0 1 547.2086574162165 770.9838706713385 Z" />
<path fill="#053F3A" d="M 548.408005298308 759.2014770776722 A 2.398695764182906 2.398695764182906 0 0 1 550.8067010624909 756.8027813134893 L 593.9832248177833 756.8027813134893 A 2.398695764182906 2.398695764182906 0 0 1 596.3819205819661 759.2014770776722 L 596.3819205819661 771.8491456524548 A 2.398695764182906 2.398695764182906 0 0 1 593.9855052785343 774.1432705670334 L 550.8044206017398 772.2590050538643 A 2.398695764182906 2.398695764182906 0 0 1 548.408005298308 769.755738440077 Z" />
<path fill="#6F768B" d="M 480.70288292217765 728.6460478808764 A 2.5792427571859204 2.5792427571859204 0 0 1 483.28212567936356 726.0668051236904 L 529.7084953087101 726.0668051236904 A 2.5792427571859204 2.5792427571859204 0 0 1 532.1371098881021 728.6416457697403 L 530.8908205893784 749.9457363462141 A 2.5792427571859204 2.5792427571859204 0 0 1 528.1609496543986 752.520576992264 L 483.28212567936356 752.520576992264 A 2.5792427571859204 2.5792427571859204 0 0 1 480.70288292217765 749.941334235078 Z" />
<path fill="#6F768B" d="M 480.70288292217765 759.2853024672808 A 2.482521153791448 2.482521153791448 0 0 1 483.1854040759691 756.8027813134893 L 527.8707848442151 756.8027813134893 A 2.482521153791448 2.482521153791448 0 0 1 530.2234990060555 759.2819064462453 L 529.0929011438345 780.8746845635294 A 2.482521153791448 2.482521153791448 0 0 1 526.4805729980919 783.3538096962855 L 483.1854040759691 783.3538096962855 A 2.482521153791448 2.482521153791448 0 0 1 480.70288292217765 780.871288542494 Z" />
<path fill="#053F3A" stroke="white" stroke-width="0.8382538960854241" d="M 538.1665880861981 733.1453869542744 A 2.1794601298221026 2.1794601298221026 0 0 1 540.4252489648177 730.9673663623437 L 551.4902003931452 730.9673663623437 A 2.1794601298221026 2.1794601298221026 0 0 1 553.7488612717648 733.1453869542744 L 554.2610628910381 747.2309314842923 A 2.1794601298221026 2.1794601298221026 0 0 1 552.1608035100135 749.408952076223 L 539.7546458479493 749.408952076223 A 2.1794601298221026 2.1794601298221026 0 0 1 537.6543864669246 747.2309314842923 Z" />
<text x="411.7793649381334" y="813.4916334935796" font-size="12.0" text-anchor="middle" dominant-baseline="text-before-edge" font-family="Roboto, sans-serif" fill="#4B5563">show: false</text>
</svg>