<?xml version="1.0" encoding="UTF-8"?>
<svg xmlns="http://www.w3.org/2000/svg" xmlns:xlink="http://www.w3.org/1999/xlink"
     width="720.0" height="272.74833333333333" viewBox="0 0 720.0 272.74833333333333">
<defs>
</defs>
<rect x="0.0" y="0.0" width="720.0" height="272.74833333333333" fill="#FFFFFF" stroke="none" />
<rect x="18.0" y="18.0" width="684.0" height="236.74833333333333" rx="8.0" ry="8.0" fill="#F3F4F6" stroke="#6B7280" stroke-width="4.0" />
<circle cx="311.5" cy="94.86383333333332" r="9.4245" fill="#B8BCC3" />
<rect x="301.496" y="64.33333333333333" width="20.008" height="20.008" rx="1.5006" ry="1.5006" fill="#B8BCC3" />
<rect x="301.496" y="81.34013333333333" width="20.008" height="3.0012" rx="1.5006" ry="1.5006" fill="#B8BCC3" />
<rect x="322.0225" y="84.34133333333332" width="20.008" height="20.008" rx="1.5006" ry="1.5006" fill="#B8BCC3" />
<rect x="322.0225" y="84.34133333333332" width="3.0012" height="20.008" rx="1.5006" ry="1.5006" fill="#B8BCC3" />
<rect x="301.496" y="105.38633333333333" width="20.008" height="20.008" rx="1.5006" ry="1.5006" fill="#B8BCC3" />
<rect x="301.496" y="105.38633333333333" width="20.008" height="3.0012" rx="1.5006" ry="1.5006" fill="#B8BCC3" />
<rect x="280.9695" y="84.34133333333332" width="20.008" height="20.008" rx="1.5006" ry="1.5006" fill="#B8BCC3" />
<rect x="297.9763" y="84.34133333333332" width="3.0012" height="20.008" rx="1.5006" ry="1.5006" fill="#B8BCC3" />
<circle cx="232.5" cy="74.53049999999999" r="9.4245" fill="#B8BCC3" />
<rect x="222.496" y="44.0" width="20.008" height="20.008" rx="1.5006" ry="1.5006" fill="#B8BCC3" />
<rect x="222.496" y="61.0068" width="20.008" height="3.0012" rx="1.5006" ry="1.5006" fill="#B8BCC3" />
<rect x="243.02249999999998" y="64.008" width="20.008" height="20.008" rx="1.5006" ry="1.5006" fill="#B8BCC3" />
<rect x="243.02249999999998" y="64.008" width="3.0012" height="20.008" rx="1.5006" ry="1.5006" fill="#B8BCC3" />
<rect x="222.496" y="85.053" width="20.008" height="20.008" rx="1.5006" ry="1.5006" fill="#B8BCC3" />
<rect x="222.496" y="85.053" width="20.008" height="3.0012" rx="1.5006" ry="1.5006" fill="#B8BCC3" />
<rect x="201.9695" y="64.008" width="20.008" height="20.008" rx="1.5006" ry="1.5006" fill="#B8BCC3" />
<rect x="218.9763" y="64.008" width="3.0012" height="20.008" rx="1.5006" ry="1.5006" fill="#B8BCC3" />
<circle cx="153.5" cy="74.53049999999999" r="9.4245" fill="#B8BCC3" />
<rect x="143.496" y="44.0" width="20.008" height="20.008" rx="1.5006" ry="1.5006" fill="#B8BCC3" />
<rect x="143.496" y="61.0068" width="20.008" height="3.0012" rx="1.5006" ry="1.5006" fill="#B8BCC3" />
<rect x="164.02249999999998" y="64.008" width="20.008" height="20.008" rx="1.5006" ry="1.5006" fill="#B8BCC3" />
<rect x="164.02249999999998" y="64.008" width="3.0012" height="20.008" rx="1.5006" ry="1.5006" fill="#B8BCC3" />
<rect x="143.496" y="85.053" width="20.008" height="20.008" rx="1.5006" ry="1.5006" fill="#B8BCC3" />
<rect x="143.496" y="85.053" width="20.008" height="3.0012" rx="1.5006" ry="1.5006" fill="#B8BCC3" />
<rect x="122.9695" y="64.008" width="20.008" height="20.008" rx="1.5006" ry="1.5006" fill="#B8BCC3" />
<rect x="139.97629999999998" y="64.008" width="3.0012" height="20.008" rx="1.5006" ry="1.5006" fill="#B8BCC3" />
<circle cx="74.5" cy="94.86383333333332" r="9.4245" fill="#B8BCC3" />
<rect x="64.49600000000001" y="64.33333333333333" width="20.008" height="20.008" rx="1.5006" ry="1.5006" fill="#B8BCC3" />
<rect x="64.49600000000001" y="81.34013333333333" width="20.008" height="3.0012" rx="1.5006" ry="1.5006" fill="#B8BCC3" />
<rect x="85.0225" y="84.34133333333332" width="20.008" height="20.008" rx="1.5006" ry="1.5006" fill="#B8BCC3" />
<rect x="85.0225" y="84.34133333333332" width="3.0012" height="20.008" rx="1.5006" ry="1.5006" fill="#B8BCC3" />
<rect x="64.49600000000001" y="105.38633333333333" width="20.008" height="20.008" rx="1.5006" ry="1.5006" fill="#B8BCC3" />
<rect x="64.49600000000001" y="105.38633333333333" width="20.008" height="3.0012" rx="1.5006" ry="1.5006" fill="#B8BCC3" />
<rect x="43.9695" y="84.34133333333332" width="20.008" height="20.008" rx="1.5006" ry="1.5006" fill="#B8BCC3" />
<rect x="60.976299999999995" y="84.34133333333332" width="3.0012" height="20.008" rx="1.5006" ry="1.5006" fill="#B8BCC3" />
<circle cx="408.5" cy="94.86383333333332" r="9.4245" fill="#B8BCC3" />
<rect x="398.496" y="64.33333333333333" width="20.008" height="20.008" rx="1.5006" ry="1.5006" fill="#B8BCC3" />
<rect x="398.496" y="81.34013333333333" width="20.008" height="3.0012" rx="1.5006" ry="1.5006" fill="#B8BCC3" />
<rect x="419.0225" y="84.34133333333332" width="20.008" height="20.008" rx="1.5006" ry="1.5006" fill="#B8BCC3" />
<rect x="419.0225" y="84.34133333333332" width="3.0012" height="20.008" rx="1.5006" ry="1.5006" fill="#B8BCC3" />
<rect x="398.496" y="105.38633333333333" width="20.008" height="20.008" rx="1.5006" ry="1.5006" fill="#B8BCC3" />
<rect x="398.496" y="105.38633333333333" width="20.008" height="3.0012" rx="1.5006" ry="1.5006" fill="#B8BCC3" />
<rect x="377.9695" y="84.34133333333332" width="20.008" height="20.008" rx="1.5006" ry="1.5006" fill="#B8BCC3" />
<rect x="394.9763" y="84.34133333333332" width="3.0012" height="20.008" rx="1.5006" ry="1.5006" fill="#B8BCC3" />
<circle cx="487.5" cy="74.53049999999999" r="9.4245" fill="#B8BCC3" />
<rect x="477.496" y="44.0" width="20.008" height="20.008" rx="1.5006" ry="1.5006" fill="#B8BCC3" />
<rect x="477.496" y="61.0068" width="20.008" height="3.0012" rx="1.5006" ry="1.5006" fill="#B8BCC3" />
<rect x="498.0225" y="64.008" width="20.008" height="20.008" rx="1.5006" ry="1.5006" fill="#B8BCC3" />
<rect x="498.0225" y="64.008" width="3.0012" height="20.008" rx="1.5006" ry="1.5006" fill="#B8BCC3" />
<rect x="477.496" y="85.053" width="20.008" height="20.008" rx="1.5006" ry="1.5006" fill="#B8BCC3" />
<rect x="477.496" y="85.053" width="20.008" height="3.0012" rx="1.5006" ry="1.5006" fill="#B8BCC3" />
<rect x="456.9695" y="64.008" width="20.008" height="20.008" rx="1.5006" ry="1.5006" fill="#B8BCC3" />
<rect x="473.9763" y="64.008" width="3.0012" height="20.008" rx="1.5006" ry="1.5006" fill="#B8BCC3" />
<circle cx="566.5" cy="74.53049999999999" r="9.4245" fill="#B8BCC3" />
<rect x="556.496" y="44.0" width="20.008" height="20.008" rx="1.5006" ry="1.5006" fill="#B8BCC3" />
<rect x="556.496" y="61.0068" width="20.008" height="3.0012" rx="1.5006" ry="1.5006" fill="#B8BCC3" />
<rect x="577.0225" y="64.008" width="20.008" height="20.008" rx="1.5006" ry="1.5006" fill="#B8BCC3" />
<rect x="577.0225" y="64.008" width="3.0012" height="20.008" rx="1.5006" ry="1.5006" fill="#B8BCC3" />
<rect x="556.496" y="85.053" width="20.008" height="20.008" rx="1.5006" ry="1.5006" fill="#B8BCC3" />
<rect x="556.496" y="85.053" width="20.008" height="3.0012" rx="1.5006" ry="1.5006" fill="#B8BCC3" />
<rect x="535.9695" y="64.008" width="20.008" height="20.008" rx="1.5006" ry="1.5006" fill="#B8BCC3" />
<rect x="552.9763" y="64.008" width="3.0012" height="20.008" rx="1.5006" ry="1.5006" fill="#B8BCC3" />
<circle cx="645.5" cy="94.86383333333332" r="9.4245" fill="#B8BCC3" />
<rect x="635.496" y="64.33333333333333" width="20.008" height="20.008" rx="1.5006" ry="1.5006" fill="#B8BCC3" />
<rect x="635.496" y="81.34013333333333" width="20.008" height="3.0012" rx="1.5006" ry="1.5006" fill="#B8BCC3" />
<rect x="656.0225" y="84.34133333333332" width="20.008" height="20.008" rx="1.5006" ry="1.5006" fill="#B8BCC3" />
<rect x="656.0225" y="84.34133333333332" width="3.0012" height="20.008" rx="1.5006" ry="1.5006" fill="#B8BCC3" />
<rect x="635.496" y="105.38633333333333" width="20.008" height="20.008" rx="1.5006" ry="1.5006" fill="#B8BCC3" />
<rect x="635.496" y="105.38633333333333" width="20.008" height="3.0012" rx="1.5006" ry="1.5006" fill="#B8BCC3" />
<rect x="614.9695" y="84.34133333333332" width="20.008" height="20.008" rx="1.5006" ry="1.5006" fill="#B8BCC3" />
<rect x="631.9763" y="84.34133333333332" width="3.0012" height="20.008" rx="1.5006" ry="1.5006" fill="#B8BCC3" />
<path d="M267.5059509277344 151.14480590820312C267.5059509277344 150.11767578125 267.92669677734375 149.13539123535156 268.67022705078125 148.4267578125C269.41375732421875 147.71812438964844 270.41510009765625 147.3450164794922 271.4410400390625 147.3943328857422H287.3989562988281C288.4248962402344 147.3450164794922 289.4262390136719 147.71812438964844 290.1697692871094 148.4267578125C290.9132995605469 149.13539123535156 291.3340759277344 150.11767578125 291.3340759277344 151.14480590820312L294.8846740722656 224.99786376953125C294.8846740722656 227.00148010253906 293.3115234375 228.65211486816406 291.3102111816406 228.7483367919922H267.52978515625C265.52850341796875 228.65211486816406 263.955322265625 227.00148010253906 263.955322265625 224.99786376953125L265.2004699707031 199.09898376464844L274.71771240234375 198.68368530273438C275.7851867675781 198.68368530273438 276.80633544921875 198.24761962890625 277.5445251464844 197.4765167236328C278.28271484375 196.70541381835938 278.6738586425781 195.6662139892578 278.6273193359375 194.59974670410156V184.42433166503906C278.6273193359375 182.26304626464844 276.8752746582031 180.510986328125 274.7139892578125 180.510986328125H266.0941162109375ZM270.6752014160156 159.42578125 270.1853332519531 172.2850799560547C270.1853332519531 174.27403259277344 271.75750732421875 175.90724182128906 273.7450256347656 175.9829559326172H285.094970703125C287.0824890136719 175.90724182128906 288.6546630859375 174.27403259277344 288.6546630859375 172.2850799560547L288.164794921875 159.42578125C288.164794921875 158.41989135742188 287.75531005859375 157.4573516845703 287.0306396484375 156.75975036621094C286.3059387207031 156.06214904785156 285.3285217285156 155.68960571289062 284.3233642578125 155.7279052734375H274.51666259765625C273.5115051269531 155.68960571289062 272.5340576171875 156.06214904785156 271.80938720703125 156.75975036621094C271.0846862792969 157.4573516845703 270.6752014160156 158.41989135742188 270.6752014160156 159.42578125Z" fill="#B8BCC3" />
<path fill="#B8BCC3" d="M 216.09477890107016 154.48047533333332 A 2.330062 2.330062 0 0 1 218.42484090107016 152.15041333333332 L 260.36595690107015 152.15041333333332 A 2.330062 2.330062 0 0 1 262.5841259290721 154.47778715089282 L 261.59686093751725 175.01289897523327 A 2.330062 2.330062 0 0 1 259.1549059655192 177.34027279279277 L 218.42484090107016 177.34027279279277 A 2.330062 2.330062 0 0 1 216.09477890107016 175.01021079279278 Z" />
<path fill="#B8BCC3" d="M 230.48244 184.42432879279278 A 2.327976 2.327976 0 0 1 232.810416 182.09635279279277 L 274.71398400000004 182.09635279279277 A 2.327976 2.327976 0 0 1 277.04196 184.42432879279278 L 277.04196 194.66742319279277 A 2.327976 2.327976 0 0 1 274.71619722686137 197.09688702289336 L 232.80820277313862 198.92559950814675 A 2.327976 2.327976 0 0 1 230.48244 196.69911133824732 Z" />
<path fill="#B8BCC3" d="M 296.26418840993944 154.6507254023319 A 2.5032 2.5032 0 0 1 298.6471810989299 152.15041333333332 L 343.7047810989299 152.15041333333332 A 2.5032 2.5032 0 0 1 346.2079810989299 154.6536133333333 L 346.2079810989299 175.32105948717947 A 2.5032 2.5032 0 0 1 343.7047810989299 177.82425948717946 L 299.8815006255571 177.82425948717946 A 2.5032 2.5032 0 0 1 297.2580933145476 175.3239474181809 Z" />
<path fill="#B8BCC3" d="M 297.7226578547115 184.9868898535906 A 2.40933 2.40933 0 0 1 300.0162883178648 182.5803394871795 L 343.38422831786477 182.5803394871795 A 2.40933 2.40933 0 0 1 345.7935583178648 184.9896694871795 L 345.7935583178648 205.9392447812971 A 2.40933 2.40933 0 0 1 343.38422831786477 208.34857478129712 L 301.2551457839281 208.34857478129712 A 2.40933 2.40933 0 0 1 298.7301162470814 205.942024414886 Z" />
<path fill="#B8BCC3" d="M 272.26168120660367 159.42693415998698 A 2.1152040000000003 2.1152040000000003 0 0 1 274.457406 157.3132633333333 L 284.382594 157.3132633333333 A 2.1152040000000003 2.1152040000000003 0 0 1 286.5783187933963 159.42693415998698 L 287.0681092066037 172.28393250667963 A 2.1152040000000003 2.1152040000000003 0 0 1 285.033426 174.3976033333333 L 273.806574 174.3976033333333 A 2.1152040000000003 2.1152040000000003 0 0 1 271.7718907933963 172.28393250667963 Z" />
<path d="M428.6659240722656 151.14480590820312C428.6659240722656 150.11767578125 429.0867004394531 149.13539123535156 429.8302307128906 148.4267578125C430.5737609863281 147.71812438964844 431.5751037597656 147.3450164794922 432.6010437011719 147.3943328857422H448.5589599609375C449.58489990234375 147.3450164794922 450.58624267578125 147.71812438964844 451.32977294921875 148.4267578125C452.07330322265625 149.13539123535156 452.4940490722656 150.11767578125 452.4940490722656 151.14480590820312L453.9058837890625 180.510986328125H445.2860107421875C443.1247253417969 180.510986328125 441.3726806640625 182.26304626464844 441.3726806640625 184.42433166503906V194.59974670410156C441.3261413574219 195.6662139892578 441.71728515625 196.70541381835938 442.4554748535156 197.4765167236328C443.19366455078125 198.24761962890625 444.2148132324219 198.68368530273438 445.28228759765625 198.68368530273438L454.7995300292969 199.09898376464844L456.044677734375 224.99786376953125C456.044677734375 227.00148010253906 454.47149658203125 228.65211486816406 452.47021484375 228.7483367919922H428.6897888183594C426.6884765625 228.65211486816406 425.1153259277344 227.00148010253906 425.1153259277344 224.99786376953125ZM431.835205078125 159.42578125 431.3453369140625 172.2850799560547C431.3453369140625 174.27403259277344 432.9175109863281 175.90724182128906 434.905029296875 175.9829559326172H446.2549743652344C448.24249267578125 175.90724182128906 449.8146667480469 174.27403259277344 449.8146667480469 172.2850799560547L449.3247985839844 159.42578125C449.3247985839844 158.41989135742188 448.9153137207031 157.4573516845703 448.19061279296875 156.75975036621094C447.4659423828125 156.06214904785156 446.4884948730469 155.68960571289062 445.48333740234375 155.7279052734375H435.6766357421875C434.6714782714844 155.68960571289062 433.6940612792969 156.06214904785156 432.9693603515625 156.75975036621094C432.24468994140625 157.4573516845703 431.835205078125 158.41989135742188 431.835205078125 159.42578125Z" fill="#B8BCC3" />
<path fill="#B8BCC3" d="M 457.4158740709279 154.47778715089282 A 2.330062 2.330062 0 0 1 459.63404309892985 152.15041333333332 L 501.5751590989299 152.15041333333332 A 2.330062 2.330062 0 0 1 503.90522109892987 154.48047533333332 L 503.90522109892987 175.01021079279278 A 2.330062 2.330062 0 0 1 501.5751590989299 177.34027279279277 L 460.8450940344808 177.34027279279277 A 2.330062 2.330062 0 0 1 458.40313906248275 175.01289897523327 Z" />
<path fill="#B8BCC3" d="M 442.95804 184.42432879279278 A 2.327976 2.327976 0 0 1 445.28601599999996 182.09635279279277 L 487.189584 182.09635279279277 A 2.327976 2.327976 0 0 1 489.51756 184.42432879279278 L 489.51756 196.69911133824732 A 2.327976 2.327976 0 0 1 487.19179722686135 198.92559950814675 L 445.28380277313863 197.09688702289336 A 2.327976 2.327976 0 0 1 442.95804 194.66742319279277 Z" />
<path fill="#B8BCC3" d="M 373.79201890107015 154.6536133333333 A 2.5032 2.5032 0 0 1 376.29521890107014 152.15041333333332 L 421.3528189010702 152.15041333333332 A 2.5032 2.5032 0 0 1 423.7358115900606 154.6507254023319 L 422.7419066854525 175.3239474181809 A 2.5032 2.5032 0 0 1 420.11849937444293 177.82425948717946 L 376.29521890107014 177.82425948717946 A 2.5032 2.5032 0 0 1 373.79201890107015 175.32105948717947 Z" />
<path fill="#B8BCC3" d="M 374.2064416821352 184.9896694871795 A 2.40933 2.40933 0 0 1 376.61577168213523 182.5803394871795 L 419.9837116821352 182.5803394871795 A 2.40933 2.40933 0 0 1 422.2773421452885 184.9868898535906 L 421.2698837529186 205.942024414886 A 2.40933 2.40933 0 0 1 418.7448542160719 208.34857478129712 L 376.61577168213523 208.34857478129712 A 2.40933 2.40933 0 0 1 374.2064416821352 205.9392447812971 Z" />
<path fill="#B8BCC3" d="M 433.42168120660364 159.42693415998698 A 2.1152040000000003 2.1152040000000003 0 0 1 435.61740599999996 157.3132633333333 L 445.54259399999995 157.3132633333333 A 2.1152040000000003 2.1152040000000003 0 0 1 447.7383187933963 159.42693415998698 L 448.2281092066037 172.28393250667963 A 2.1152040000000003 2.1152040000000003 0 0 1 446.193426 174.3976033333333 L 434.966574 174.3976033333333 A 2.1152040000000003 2.1152040000000003 0 0 1 432.9318907933963 172.28393250667963 Z" />
<rect x="193.0" y="0.0" width="334.0" height="16.0" fill="#E11D48" fill-opacity="0.35" stroke="#E11D48" stroke-width="1.5" />
<rect x="193.0" y="256.74833333333333" width="334.0" height="16.0" fill="#E11D48" fill-opacity="0.35" stroke="#E11D48" stroke-width="1.5" />
<rect x="0.0" y="81.18708333333333" width="16.0" height="110.37416666666667" fill="#E11D48" fill-opacity="0.35" stroke="#E11D48" stroke-width="1.5" />
<rect x="704.0" y="81.18708333333333" width="16.0" height="110.37416666666667" fill="#E11D48" fill-opacity="0.35" stroke="#E11D48" stroke-width="1.5" />
<rect x="0.5" y="0.5" width="719.0" height="271.74833333333333" fill="none" stroke="#9CA3AF" stroke-width="1.0" />
</svg>