<?xml version="1.0" encoding="UTF-8"?>
<svg xmlns="http://www.w3.org/2000/svg" xmlns:xlink="http://www.w3.org/1999/xlink"
     width="720.0" height="272.74833333333333" viewBox="0 0 720.0 272.74833333333333">
<defs>
</defs>
<rect x="0.0" y="0.0" width="720.0" height="272.74833333333333" fill="#FFFFFF" stroke="none" />
<rect x="18.0" y="18.0" width="684.0" height="236.74833333333333" rx="8.0" ry="8.0" fill="#F3F4F6" stroke="#6B7280" stroke-width="4.0" />
<circle cx="311.5" cy="94.86383333333332" r="9.4245" fill="#B8BCC3" />
<rect x="301.496" y="64.33333333333333" width="20.008" height="20.008" rx="1.5006" ry="1.5006" fill="#B8BCC3" />
<rect x="301.496" y="81.34013333333333" width="20.008" height="3.0012" rx="1.5006" ry="1.5006" fill="#B8BCC3" />
<rect x="322.0225" y="84.34133333333332" width="20.008" height="20.008" rx="1.5006" ry="1.5006" fill="#B8BCC3" />
<rect x="322.0225" y="84.34133333333332" width="3.0012" height="20.008" rx="1.5006" ry="1.5006" fill="#B8BCC3" />
<rect x="301.496" y="105.38633333333333" width="20.008" height="20.008" rx="1.5006" ry="1.5006" fill="#B8BCC3" />
<rect x="301.496" y="105.38633333333333" width="20.008" height="3.0012" rx="1.5006" ry="1.5006" fill="#B8BCC3" />
<rect x="280.9695" y="84.34133333333332" width="20.008" height="20.008" rx="1.5006" ry="1.5006" fill="#B8BCC3" />
<rect x="297.9763" y="84.34133333333332" width="3.0012" height="20.008" rx="1.5006" ry="1.5006" fill="#B8BCC3" />
<circle cx="232.5" cy="74.53049999999999" r="9.4245" fill="#B8BCC3" />
<rect x="222.496" y="44.0" width="20.008" height="20.008" rx="1.5006" ry="1.5006" fill="#B8BCC3" />
<rect x="222.496" y="61.0068" width="20.008" height="3.0012" rx="1.5006" ry="1.5006" fill="#B8BCC3" />
<rect x="243.02249999999998" y="64.008" width="20.008" height="20.008" rx="1.5006" ry="1.5006" fill="#B8BCC3" />
<rect x="243.02249999999998" y="64.008" width="3.0012" height="20.008" rx="1.5006" ry="1.5006" fill="#B8BCC3" />
<rect x="222.496" y="85.053" width="20.008" height="20.008" rx="1.5006" ry="1.5006" fill="#B8BCC3" />
<rect x="222.496" y="85.053" width="20.008" height="3.0012" rx="1.5006" ry="1.5006" fill="#B8BCC3" />
<rect x="201.9695" y="64.008" width="20.008" height="20.008" rx="1.5006" ry="1.5006" fill="#B8BCC3" />
<rect x="218.9763" y="64.008" width="3.0012" height="20.008" rx="1.5006" ry="1.5006" fill="#B8BCC3" />
<circle cx="153.5" cy="74.53049999999999" r="9.4245" fill="#B8BCC3" />
<rect x="143.496" y="44.0" width="20.008" height="20.008" rx="1.5006" ry="1.5006" fill="#B8BCC3" />
<rect x="143.496" y="61.0068" width="20.008" height="3.0012" rx="1.5006" ry="1.5006" fill="#B8BCC3" />
<rect x="164.02249999999998" y="64.008" width="20.008" height="20.008" rx="1.5006" ry="1.5006" fill="#B8BCC3" />
<rect x="164.02249999999998" y="64.008" width="3.0012" height="20.008" rx="1.5006" ry="1.5006" fill="#B8BCC3" />
<rect x="143.496" y="85.053" width="20.008" height="20.008" rx="1.5006" ry="1.5006" fill="#B8BCC3" />
<rect x="143.496" y="85.053" width="20.008" height="3.0012" rx="1.5006" ry="1.5006" fill="#B8BCC3" />
<rect x="122.9695" y="64.008" width="20.008" height="20.008" rx="1.5006" ry="1.5006" fill="#B8BCC3" />
<rect x="139.97629999999998" y="64.008" width="3.0012" height="20.008" rx="1.5006" ry="1.5006" fill="#B8BCC3" />
<circle cx="74.5" cy="94.86383333333332" r="9.4245" fill="#B8BCC3" />
<rect x="64.49600000000001" y="64.33333333333333" width="20.008" height="20.008" rx="1.5006" ry="1.5006" fill="#B8BCC3" />
<rect x="64.49600000000001" y="81.34013333333333" width="20.008" height="3.0012" rx="1.5006" ry="1.5006" fill="#B8BCC3" />
<rect x="85.0225" y="84.34133333333332" width="20.008" height="20.008" rx="1.5006" ry="1.5006" fill="#B8BCC3" />
<rect x="85.0225" y="84.34133333333332" width="3.0012" height="20.008" rx="1.5006" ry="1.5006" fill="#B8BCC3" />
<rect x="64.49600000000001" y="105.38633333333333" width="20.008" height="20.008" rx="1.5006" ry="1.5006" fill="#B8BCC3" />
<rect x="64.49600000000001" y="105.38633333333333" width="20.008" height="3.0012" rx="1.5006" ry="1.5006" fill="#B8BCC3" />
<rect x="43.9695" y="84.34133333333332" width="20.008" height="20.008" rx="1.5006" ry="1.5006" fill="#B8BCC3" />
<rect x="60.976299999999995" y="84.34133333333332" width="3.0012" height="20.008" rx="1.5006" ry="1.5006" fill="#B8BCC3" />
<circle cx="408.5" cy="94.86383333333332" r="9.4245" fill="#B8BCC3" />
<rect x="398.496" y="64.33333333333333" width="20.008" height="20.008" rx="1.5006" ry="1.5006" fill="#B8BCC3" />
<rect x="398.496" y="81.34013333333333" width="20.008" height="3.0012" rx="1.5006" ry="1.5006" fill="#B8BCC3" />
<rect x="419.0225" y="84.34133333333332" width="20.008" height="20.008" rx="1.5006" ry="1.5006" fill="#B8BCC3" />
<rect x="419.0225" y="84.34133333333332" width="3.0012" height="20.008" rx="1.5006" ry="1.5006" fill="#B8BCC3" />
<rect x="398.496" y="105.38633333333333" width="20.008" height="20.008" rx="1.5006" ry="1.5006" fill="#B8BCC3" />
<rect x="398.496" y="105.38633333333333" width="20.008" height="3.0012" rx="1.5006" ry="1.5006" fill="#B8BCC3" />
<rect x="377.9695" y="84.34133333333332" width="20.008" height="20.008" rx="1.5006" ry="1.5006" fill="#B8BCC3" />
<rect x="394.9763" y="84.34133333333332" width="3.0012" height="20.008" rx="1.5006" ry="1.5006" fill="#B8BCC3" />
<circle cx="487.5" cy="74.53049999999999" r="9.4245" fill="#B8BCC3" />
<rect x="477.496" y="44.0" width="20.008" height="20.008" rx="1.5006" ry="1.5006" fill="#B8BCC3" />
<rect x="477.496" y="61.0068" width="20.008" height="3.0012" rx="1.5006" ry="1.5006" fill="#B8BCC3" />
<rect x="498.0225" y="64.008" width="20.008" height="20.008" rx="1.5006" ry="1.5006" fill="#B8BCC3" />
<rect x="498.0225" y="64.008" width="3.0012" height="20.008" rx="1.5006" ry="1.5006" fill="#B8BCC3" />
<rect x="477.496" y="85.053" width="20.008" height="20.008" rx="1.5006" ry="1.5006" fill="#B8BCC3" />
<rect x="477.496" y="85.053" width="20.008" height="3.0012" rx="1.5006" ry="1.5006" fill="#B8BCC3" />
<rect x="456.9695" y="64.008" width="20.008" height="20.008" rx="1.5006" ry="1.5006" fill="#B8BCC3" />
<rect x="473.9763" y="64.008" width="3.0012" height="20.008" rx="1.5006" ry="1.5006" fill="#B8BCC3" />
<circle cx="566.5" cy="74.53049999999999" r="9.4245" fill="#B8BCC3" />
<rect x="556.496" y="44.0" width="20.008" height="20.008" rx="1.5006" ry="1.5006" fill="#B8BCC3" />
<rect x="556.496" y="61.0068" width="20.008" height="3.0012" rx="1.5006" ry="1.5006" fill="#B8BCC3" />
<rect x="577.0225" y="64.008" width="20.008" height="20.008" rx="1.5006" ry="1.5006" fill="#B8BCC3" />
<rect x="577.0225" y="64.008" width="3.0012" height="20.008" rx="1.5006" ry="1.5006" fill="#B8BCC3" />
<rect x="556.496" y="85.053" width="20.008" height="20.008" rx="1.5006" ry="1.5006" fill="#B8BCC3" />
<rect x="556.496" y="85.053" width="20.008" height="3.0012" rx="1.5006" ry="1.5006" fill="#B8BCC3" />
<rect x="535.9695" y="64.008" width="20.008" height="20.008" rx="1.5006" ry="1.5006" fill="#B8BCC3" />
<rect x="552.9763" y="64.008" width="3.0012" height="20.008" rx="1.5006" ry="1.5006" fill="#B8BCC3" />
<circle cx="645.5" cy="94.86383333333332" r="9.4245" fill="#B8BCC3" />
<rect x="635.496" y="64.33333333333333" width="20.008" height="20.008" rx="1.5006" ry="1.5006" fill="#B8BCC3" />
<rect x="635.496" y="81.34013333333333" width="20.008" height="3.0012" rx="1.5006" ry="1.5006" fill="#B8BCC3" />
<rect x="656.0225" y="84.34133333333332" width="20.008" height="20.008" rx="1.5006" ry="1.5006" fill="#B8BCC3" />
<rect x="656.0225" y="84.34133333333332" width="3.0012" height="20.008" rx="1.5006" ry="1.5006" fill="#B8BCC3" />
<rect x="635.496" y="105.38633333333333" width="20.008" height="20.008" rx="1.5006" ry="1.5006" fill="#B8BCC3" />
<rect x="635.496" y="105.38633333333333" width="20.008" height="3.0012" rx="1.5006" ry="1.5006" fill="#B8BCC3" />
<rect x="614.9695" y="84.34133333333332" width="20.008" height="20.008" rx="1.5006" ry="1.5006" fill="#B8BCC3" />
<rect x="631.9763" y="84.34133333333332" width="3.0012" height="20.008" rx="1.5006" ry="1.5006" fill="#B8BCC3" />
<path fill="#B8BCC3" d="M 267.5059390334857 151.14480143683116 A 3.7548 3.7548 0 0 1 271.44104999999996 147.39433333333332 L 287.39895 147.39433333333332 A 3.7548 3.7548 0 0 1 291.3340609665143 151.14480143683116 L 294.8846890334857 224.9978652298355 A 3.7548 3.7548 0 0 1 291.3102 228.74833333333333 L 267.52979999999997 228.74833333333333 A 3.7548 3.7548 0 0 1 263.9553109665143 224.9978652298355 Z" />
<path fill="#B8BCC3" d="M 218.59224 154.52845333333332 A 2.37804 2.37804 0 0 1 220.97028 152.15041333333332 L 263.77500000000003 152.15041333333332 A 2.37804 2.37804 0 0 1 265.99938367995526 154.52348391317503 L 264.64206832004476 175.48588329403213 A 2.37804 2.37804 0 0 1 262.110372 177.85895387387384 L 220.97028 177.85895387387384 A 2.37804 2.37804 0 0 1 218.59224 175.48091387387385 Z" />
<path fill="#FFFFFF" d="M 229.318452 183.14420133333334 A 2.327976 2.327976 0 0 1 231.64642800000001 180.81622533333334 L 275.87797200000006 180.81622533333334 A 2.327976 2.327976 0 0 1 278.20594800000003 183.14420133333334 L 278.20594800000003 195.74320744533333 A 2.327976 2.327976 0 0 1 275.8806636845101 198.18309907745288 L 231.6437363154899 200.31221664666833 A 2.327976 2.327976 0 0 1 229.318452 198.09615627878787 Z" />
<path fill="#B8BCC3" d="M 230.48244 184.30818933333333 A 2.327976 2.327976 0 0 1 232.810416 181.98021333333332 L 274.71398400000004 181.98021333333332 A 2.327976 2.327976 0 0 1 277.04196 184.30818933333333 L 277.04196 194.55128373333332 A 2.327976 2.327976 0 0 1 274.71619722686137 196.9807475634339 L 232.80820277313862 198.8094600486873 A 2.327976 2.327976 0 0 1 230.48244 196.58297187878787 Z" />
<path fill="#B8BCC3" d="M 292.8331472689584 154.64934100783583 A 2.5032 2.5032 0 0 1 295.19016 152.15041333333332 L 340.24776 152.15041333333332 A 2.5032 2.5032 0 0 1 342.75096 154.6536133333333 L 342.75096 175.32105948717947 A 2.5032 2.5032 0 0 1 340.24776 177.82425948717946 L 296.69208 177.82425948717946 A 2.5032 2.5032 0 0 1 294.0426927310416 175.32533181267695 Z" />
<path fill="#B8BCC3" d="M 294.6903399456048 184.38624743579433 A 2.40933 2.40933 0 0 1 296.97369 181.98021333333332 L 340.34162999999995 181.98021333333332 A 2.40933 2.40933 0 0 1 342.75095999999996 184.38954333333334 L 342.75095999999996 205.33911862745094 A 2.40933 2.40933 0 0 1 340.34162999999995 207.74844862745095 L 298.3229148 207.74844862745095 A 2.40933 2.40933 0 0 1 295.7876048543951 205.34241452498995 Z" />
<path fill="#B8BCC3" stroke="#FFFFFF" stroke-width="0.8135400000000002" d="M 271.8585662944213 159.0203002367476 A 2.1152040000000003 2.1152040000000003 0 0 1 274.050636 156.90649333333332 L 284.78936400000003 156.90649333333332 A 2.1152040000000003 2.1152040000000003 0 0 1 286.98143370557875 159.0203002367476 L 287.4785342944213 172.69056642991904 A 2.1152040000000003 2.1152040000000003 0 0 1 285.440196 174.80437333333333 L 273.399804 174.80437333333333 A 2.1152040000000003 2.1152040000000003 0 0 1 271.3614657055787 172.69056642991904 Z" />
<path fill="#B8BCC3" d="M 428.6659390334857 151.14480143683116 A 3.7548 3.7548 0 0 1 432.60105 147.39433333333332 L 448.55895000000004 147.39433333333332 A 3.7548 3.7548 0 0 1 452.4940609665143 151.14480143683116 L 456.0446890334857 224.9978652298355 A 3.7548 3.7548 0 0 1 452.47020000000003 228.74833333333333 L 428.6898 228.74833333333333 A 3.7548 3.7548 0 0 1 425.1153109665143 224.9978652298355 Z" />
<path fill="#B8BCC3" d="M 454.00061632004474 154.52348391317503 A 2.37804 2.37804 0 0 1 456.22499999999997 152.15041333333332 L 499.02971999999994 152.15041333333332 A 2.37804 2.37804 0 0 1 501.40775999999994 154.52845333333332 L 501.40775999999994 175.48091387387385 A 2.37804 2.37804 0 0 1 499.02971999999994 177.85895387387384 L 457.88962799999996 177.85895387387384 A 2.37804 2.37804 0 0 1 455.3579316799552 175.48588329403213 Z" />
<path fill="#FFFFFF" d="M 441.79405199999997 183.14420133333334 A 2.327976 2.327976 0 0 1 444.12202799999994 180.81622533333334 L 488.353572 180.81622533333334 A 2.327976 2.327976 0 0 1 490.68154799999996 183.14420133333334 L 490.68154799999996 198.09615627878787 A 2.327976 2.327976 0 0 1 488.35626368451005 200.31221664666833 L 444.1193363154899 198.18309907745288 A 2.327976 2.327976 0 0 1 441.79405199999997 195.74320744533333 Z" />
<path fill="#B8BCC3" d="M 442.95804 184.30818933333333 A 2.327976 2.327976 0 0 1 445.28601599999996 181.98021333333332 L 487.189584 181.98021333333332 A 2.327976 2.327976 0 0 1 489.51756 184.30818933333333 L 489.51756 196.58297187878787 A 2.327976 2.327976 0 0 1 487.19179722686135 198.8094600486873 L 445.28380277313863 196.9807475634339 A 2.327976 2.327976 0 0 1 442.95804 194.55128373333332 Z" />
<path fill="#B8BCC3" d="M 377.24904 154.6536133333333 A 2.5032 2.5032 0 0 1 379.75224 152.15041333333332 L 424.80984 152.15041333333332 A 2.5032 2.5032 0 0 1 427.1668527310416 154.64934100783583 L 425.95730726895835 175.32533181267695 A 2.5032 2.5032 0 0 1 423.30791999999997 177.82425948717946 L 379.75224 177.82425948717946 A 2.5032 2.5032 0 0 1 377.24904 175.32105948717947 Z" />
<path fill="#B8BCC3" d="M 377.24904 184.38954333333334 A 2.40933 2.40933 0 0 1 379.65837 181.98021333333332 L 423.02630999999997 181.98021333333332 A 2.40933 2.40933 0 0 1 425.3096600543951 184.38624743579433 L 424.21239514560483 205.34241452498995 A 2.40933 2.40933 0 0 1 421.67708519999996 207.74844862745095 L 379.65837 207.74844862745095 A 2.40933 2.40933 0 0 1 377.24904 205.33911862745094 Z" />
<path fill="#B8BCC3" stroke="#FFFFFF" stroke-width="0.8135400000000002" d="M 433.01856629442125 159.0203002367476 A 2.1152040000000003 2.1152040000000003 0 0 1 435.21063599999997 156.90649333333332 L 445.949364 156.90649333333332 A 2.1152040000000003 2.1152040000000003 0 0 1 448.1414337055787 159.0203002367476 L 448.6385342944213 172.69056642991904 A 2.1152040000000003 2.1152040000000003 0 0 1 446.600196 174.80437333333333 L 434.559804 174.80437333333333 A 2.1152040000000003 2.1152040000000003 0 0 1 432.5214657055787 172.69056642991904 Z" />
<rect x="193.0" y="0.0" width="334.0" height="16.0" fill="#E11D48" fill-opacity="0.35" stroke="#E11D48" stroke-width="1.5" />
<rect x="193.0" y="256.74833333333333" width="334.0" height="16.0" fill="#E11D48" fill-opacity="0.35" stroke="#E11D48" stroke-width="1.5" />
<rect x="0.0" y="81.18708333333333" width="16.0" height="110.37416666666667" fill="#E11D48" fill-opacity="0.35" stroke="#E11D48" stroke-width="1.5" />
<rect x="704.0" y="81.18708333333333" width="16.0" height="110.37416666666667" fill="#E11D48" fill-opacity="0.35" stroke="#E11D48" stroke-width="1.5" />
<rect x="0.5" y="0.5" width="719.0" height="271.74833333333333" fill="none" stroke="#9CA3AF" stroke-width="1.0" />
</svg>