<?xml version="1.0" encoding="UTF-8"?>
<svg xmlns="http://www.w3.org/2000/svg" xmlns:xlink="http://www.w3.org/1999/xlink"
     width="720.0" height="269.9615" viewBox="0 0 720.0 269.9615">
<defs>
</defs>
<rect x="18.0" y="18.0" width="684.0" height="233.9615" rx="8.0" ry="8.0" fill="#FFFFFF" stroke="#6B7280" stroke-width="2.0" />
<circle cx="311.25" cy="93.28075" r="9.50175" fill="#B8BCC3" />
<rect x="301.164" y="62.5" width="20.172" height="20.172" rx="1.5129" ry="1.5129" fill="#B8BCC3" />
<rect x="301.164" y="79.6462" width="20.172" height="3.0258" rx="1.5129" ry="1.5129" fill="#B8BCC3" />
<rect x="321.85875" y="82.672" width="20.172" height="20.172" rx="1.5129" ry="1.5129" fill="#B8BCC3" />
<rect x="321.85875" y="82.672" width="3.0258" height="20.172" rx="1.5129" ry="1.5129" fill="#B8BCC3" />
<rect x="301.164" y="103.8895" width="20.172" height="20.172" rx="1.5129" ry="1.5129" fill="#B8BCC3" />
<rect x="301.164" y="103.8895" width="20.172" height="3.0258" rx="1.5129" ry="1.5129" fill="#B8BCC3" />
<rect x="280.46925" y="82.672" width="20.172" height="20.172" rx="1.5129" ry="1.5129" fill="#B8BCC3" />
<rect x="297.61545" y="82.672" width="3.0258" height="20.172" rx="1.5129" ry="1.5129" fill="#B8BCC3" />
<circle cx="231.74999999999997" cy="72.78075" r="9.50175" fill="#B8BCC3" />
<rect x="221.664" y="42.0" width="20.172" height="20.172" rx="1.5129" ry="1.5129" fill="#B8BCC3" />
<rect x="221.664" y="59.1462" width="20.172" height="3.0258" rx="1.5129" ry="1.5129" fill="#B8BCC3" />
<rect x="242.35875" y="62.172" width="20.172" height="20.172" rx="1.5129" ry="1.5129" fill="#B8BCC3" />
<rect x="242.35875" y="62.172" width="3.0258" height="20.172" rx="1.5129" ry="1.5129" fill="#B8BCC3" />
<rect x="221.664" y="83.3895" width="20.172" height="20.172" rx="1.5129" ry="1.5129" fill="#B8BCC3" />
<rect x="221.664" y="83.3895" width="20.172" height="3.0258" rx="1.5129" ry="1.5129" fill="#B8BCC3" />
<rect x="200.96925" y="62.172" width="20.172" height="20.172" rx="1.5129" ry="1.5129" fill="#B8BCC3" />
<rect x="218.11544999999998" y="62.172" width="3.0258" height="20.172" rx="1.5129" ry="1.5129" fill="#B8BCC3" />
<circle cx="152.24999999999997" cy="72.78075" r="9.50175" fill="#B8BCC3" />
<rect x="142.164" y="42.0" width="20.172" height="20.172" rx="1.5129" ry="1.5129" fill="#B8BCC3" />
<rect x="142.164" y="59.1462" width="20.172" height="3.0258" rx="1.5129" ry="1.5129" fill="#B8BCC3" />
<rect x="162.85875" y="62.172" width="20.172" height="20.172" rx="1.5129" ry="1.5129" fill="#B8BCC3" />
<rect x="162.85875" y="62.172" width="3.0258" height="20.172" rx="1.5129" ry="1.5129" fill="#B8BCC3" />
<rect x="142.164" y="83.3895" width="20.172" height="20.172" rx="1.5129" ry="1.5129" fill="#B8BCC3" />
<rect x="142.164" y="83.3895" width="20.172" height="3.0258" rx="1.5129" ry="1.5129" fill="#B8BCC3" />
<rect x="121.46925" y="62.172" width="20.172" height="20.172" rx="1.5129" ry="1.5129" fill="#B8BCC3" />
<rect x="138.61545" y="62.172" width="3.0258" height="20.172" rx="1.5129" ry="1.5129" fill="#B8BCC3" />
<circle cx="72.75" cy="93.28075" r="9.50175" fill="#B8BCC3" />
<rect x="62.664" y="62.5" width="20.172" height="20.172" rx="1.5129" ry="1.5129" fill="#B8BCC3" />
<rect x="62.664" y="79.6462" width="20.172" height="3.0258" rx="1.5129" ry="1.5129" fill="#B8BCC3" />
<rect x="83.35875" y="82.672" width="20.172" height="20.172" rx="1.5129" ry="1.5129" fill="#B8BCC3" />
<rect x="83.35875" y="82.672" width="3.0258" height="20.172" rx="1.5129" ry="1.5129" fill="#B8BCC3" />
<rect x="62.664" y="103.8895" width="20.172" height="20.172" rx="1.5129" ry="1.5129" fill="#B8BCC3" />
<rect x="62.664" y="103.8895" width="20.172" height="3.0258" rx="1.5129" ry="1.5129" fill="#B8BCC3" />
<rect x="41.96925" y="82.672" width="20.172" height="20.172" rx="1.5129" ry="1.5129" fill="#B8BCC3" />
<rect x="59.11545" y="82.672" width="3.0258" height="20.172" rx="1.5129" ry="1.5129" fill="#B8BCC3" />
<circle cx="408.75" cy="93.28075" r="9.50175" fill="#B8BCC3" />
<rect x="398.664" y="62.5" width="20.172" height="20.172" rx="1.5129" ry="1.5129" fill="#B8BCC3" />
<rect x="398.664" y="79.6462" width="20.172" height="3.0258" rx="1.5129" ry="1.5129" fill="#B8BCC3" />
<rect x="419.35875" y="82.672" width="20.172" height="20.172" rx="1.5129" ry="1.5129" fill="#B8BCC3" />
<rect x="419.35875" y="82.672" width="3.0258" height="20.172" rx="1.5129" ry="1.5129" fill="#B8BCC3" />
<rect x="398.664" y="103.8895" width="20.172" height="20.172" rx="1.5129" ry="1.5129" fill="#B8BCC3" />
<rect x="398.664" y="103.8895" width="20.172" height="3.0258" rx="1.5129" ry="1.5129" fill="#B8BCC3" />
<rect x="377.96925" y="82.672" width="20.172" height="20.172" rx="1.5129" ry="1.5129" fill="#B8BCC3" />
<rect x="395.11545" y="82.672" width="3.0258" height="20.172" rx="1.5129" ry="1.5129" fill="#B8BCC3" />
<circle cx="488.25" cy="72.78075" r="9.50175" fill="#B8BCC3" />
<rect x="478.164" y="42.0" width="20.172" height="20.172" rx="1.5129" ry="1.5129" fill="#B8BCC3" />
<rect x="478.164" y="59.1462" width="20.172" height="3.0258" rx="1.5129" ry="1.5129" fill="#B8BCC3" />
<rect x="498.85875" y="62.172" width="20.172" height="20.172" rx="1.5129" ry="1.5129" fill="#B8BCC3" />
<rect x="498.85875" y="62.172" width="3.0258" height="20.172" rx="1.5129" ry="1.5129" fill="#B8BCC3" />
<rect x="478.164" y="83.3895" width="20.172" height="20.172" rx="1.5129" ry="1.5129" fill="#B8BCC3" />
<rect x="478.164" y="83.3895" width="20.172" height="3.0258" rx="1.5129" ry="1.5129" fill="#B8BCC3" />
<rect x="457.46925" y="62.172" width="20.172" height="20.172" rx="1.5129" ry="1.5129" fill="#B8BCC3" />
<rect x="474.61545" y="62.172" width="3.0258" height="20.172" rx="1.5129" ry="1.5129" fill="#B8BCC3" />
<circle cx="567.75" cy="72.78075" r="9.50175" fill="#B8BCC3" />
<rect x="557.664" y="42.0" width="20.172" height="20.172" rx="1.5129" ry="1.5129" fill="#B8BCC3" />
<rect x="557.664" y="59.1462" width="20.172" height="3.0258" rx="1.5129" ry="1.5129" fill="#B8BCC3" />
<rect x="578.35875" y="62.172" width="20.172" height="20.172" rx="1.5129" ry="1.5129" fill="#B8BCC3" />
<rect x="578.35875" y="62.172" width="3.0258" height="20.172" rx="1.5129" ry="1.5129" fill="#B8BCC3" />
<rect x="557.664" y="83.3895" width="20.172" height="20.172" rx="1.5129" ry="1.5129" fill="#B8BCC3" />
<rect x="557.664" y="83.3895" width="20.172" height="3.0258" rx="1.5129" ry="1.5129" fill="#B8BCC3" />
<rect x="536.96925" y="62.172" width="20.172" height="20.172" rx="1.5129" ry="1.5129" fill="#B8BCC3" />
<rect x="554.11545" y="62.172" width="3.0258" height="20.172" rx="1.5129" ry="1.5129" fill="#B8BCC3" />
<circle cx="647.25" cy="93.28075" r="9.50175" fill="#B8BCC3" />
<rect x="637.164" y="62.5" width="20.172" height="20.172" rx="1.5129" ry="1.5129" fill="#B8BCC3" />
<rect x="637.164" y="79.6462" width="20.172" height="3.0258" rx="1.5129" ry="1.5129" fill="#B8BCC3" />
<rect x="657.85875" y="82.672" width="20.172" height="20.172" rx="1.5129" ry="1.5129" fill="#B8BCC3" />
<rect x="657.85875" y="82.672" width="3.0258" height="20.172" rx="1.5129" ry="1.5129" fill="#B8BCC3" />
<rect x="637.164" y="103.8895" width="20.172" height="20.172" rx="1.5129" ry="1.5129" fill="#B8BCC3" />
<rect x="637.164" y="103.8895" width="20.172" height="3.0258" rx="1.5129" ry="1.5129" fill="#B8BCC3" />
<rect x="616.46925" y="82.672" width="20.172" height="20.172" rx="1.5129" ry="1.5129" fill="#B8BCC3" />
<rect x="633.61545" y="82.672" width="3.0258" height="20.172" rx="1.5129" ry="1.5129" fill="#B8BCC3" />
<path fill="#B8BCC3" d="M 267.0059788927708 149.83713903036696 A 3.78 3.78 0 0 1 270.9675 146.0615 L 287.0325 146.0615 A 3.78 3.78 0 0 1 290.9940211072292 149.83713903036696 L 294.5684788927708 224.18586096963304 A 3.78 3.78 0 0 1 290.97 227.9615 L 267.03 227.9615 A 3.78 3.78 0 0 1 263.4315211072292 224.18586096963304 Z" />
<path fill="#B8BCC3" d="M 217.764 153.2435 A 2.394 2.394 0 0 1 220.15800000000002 150.8495 L 263.25 150.8495 A 2.394 2.394 0 0 1 265.48931242948515 153.2384972280286 L 264.1228875705149 174.3415838530525 A 2.394 2.394 0 0 1 261.5742 176.73058108108108 L 220.15800000000002 176.73058108108108 A 2.394 2.394 0 0 1 217.764 174.33658108108108 Z" />
<path fill="#FFFFFF" d="M 228.56220000000002 182.05130000000003 A 2.3436 2.3436 0 0 1 230.90580000000003 179.70770000000002 L 275.43420000000003 179.70770000000002 A 2.3436 2.3436 0 0 1 277.7778 182.05130000000003 L 277.7778 194.7348632 A 2.3436 2.3436 0 0 1 275.4369097495068 197.19112994374453 L 230.9030902504932 199.33453689261916 A 2.3436 2.3436 0 0 1 228.56220000000002 197.10360363636366 Z" />
<path fill="#B8BCC3" d="M 229.734 183.22310000000002 A 2.3436 2.3436 0 0 1 232.07760000000002 180.8795 L 274.2624 180.8795 A 2.3436 2.3436 0 0 1 276.606 183.22310000000002 L 276.606 193.53494 A 2.3436 2.3436 0 0 1 274.2646280807329 195.98070895647712 L 232.07537191926707 197.82169467988655 A 2.3436 2.3436 0 0 1 229.734 195.58026363636364 Z" />
<path fill="#B8BCC3" d="M 292.50316839156886 153.36519900117702 A 2.5200000000000005 2.5200000000000005 0 0 1 294.876 150.8495 L 340.236 150.8495 A 2.5200000000000005 2.5200000000000005 0 0 1 342.756 153.36950000000002 L 342.756 174.17565384615384 A 2.5200000000000005 2.5200000000000005 0 0 1 340.236 176.69565384615385 L 296.388 176.69565384615385 A 2.5200000000000005 2.5200000000000005 0 0 1 293.7208316084311 174.17995484497683 Z" />
<path fill="#B8BCC3" d="M 294.37282544859545 183.30168198234333 A 2.4255 2.4255 0 0 1 296.6715 180.8795 L 340.3305 180.8795 A 2.4255 2.4255 0 0 1 342.756 183.305 L 342.756 204.39517647058824 A 2.4255 2.4255 0 0 1 340.3305 206.82067647058824 L 298.02977999999996 206.82067647058824 A 2.4255 2.4255 0 0 1 295.4774545514045 204.39849448824492 Z" />
<path fill="#B8BCC3" stroke="#FFFFFF" stroke-width="0.819" d="M 271.38781841720265 157.76549352692712 A 2.1294 2.1294 0 0 1 273.59459999999996 155.6375 L 284.40540000000004 155.6375 A 2.1294 2.1294 0 0 1 286.61218158279735 157.76549352692712 L 287.11261841720267 171.52750647307286 A 2.1294 2.1294 0 0 1 285.0606 173.6555 L 272.9394 173.6555 A 2.1294 2.1294 0 0 1 270.88738158279733 171.52750647307286 Z" />
<path fill="#B8BCC3" d="M 429.0059788927708 149.83713903036696 A 3.78 3.78 0 0 1 432.9675 146.0615 L 449.0325 146.0615 A 3.78 3.78 0 0 1 452.9940211072292 149.83713903036696 L 456.5684788927708 224.18586096963304 A 3.78 3.78 0 0 1 452.97 227.9615 L 429.03 227.9615 A 3.78 3.78 0 0 1 425.4315211072292 224.18586096963304 Z" />
<path fill="#B8BCC3" d="M 454.51068757051485 153.2384972280286 A 2.394 2.394 0 0 1 456.75 150.8495 L 499.842 150.8495 A 2.394 2.394 0 0 1 502.236 153.2435 L 502.236 174.33658108108108 A 2.394 2.394 0 0 1 499.842 176.73058108108108 L 458.4258 176.73058108108108 A 2.394 2.394 0 0 1 455.8771124294851 174.3415838530525 Z" />
<path fill="#FFFFFF" d="M 442.2222 182.05130000000003 A 2.3436 2.3436 0 0 1 444.56579999999997 179.70770000000002 L 489.0942 179.70770000000002 A 2.3436 2.3436 0 0 1 491.4378 182.05130000000003 L 491.4378 197.10360363636366 A 2.3436 2.3436 0 0 1 489.0969097495068 199.33453689261916 L 444.5630902504932 197.19112994374453 A 2.3436 2.3436 0 0 1 442.2222 194.7348632 Z" />
<path fill="#B8BCC3" d="M 443.394 183.22310000000002 A 2.3436 2.3436 0 0 1 445.7376 180.8795 L 487.92240000000004 180.8795 A 2.3436 2.3436 0 0 1 490.266 183.22310000000002 L 490.266 195.58026363636364 A 2.3436 2.3436 0 0 1 487.92462808073293 197.82169467988655 L 445.7353719192671 195.98070895647712 A 2.3436 2.3436 0 0 1 443.394 193.53494 Z" />
<path fill="#B8BCC3" d="M 377.24399999999997 153.36950000000002 A 2.5200000000000005 2.5200000000000005 0 0 1 379.76399999999995 150.8495 L 425.124 150.8495 A 2.5200000000000005 2.5200000000000005 0 0 1 427.49683160843114 153.36519900117702 L 426.2791683915688 174.17995484497683 A 2.5200000000000005 2.5200000000000005 0 0 1 423.61199999999997 176.69565384615385 L 379.76399999999995 176.69565384615385 A 2.5200000000000005 2.5200000000000005 0 0 1 377.24399999999997 174.17565384615384 Z" />
<path fill="#B8BCC3" d="M 377.24399999999997 183.305 A 2.4255 2.4255 0 0 1 379.66949999999997 180.8795 L 423.32849999999996 180.8795 A 2.4255 2.4255 0 0 1 425.6271745514045 183.30168198234333 L 424.52254544859545 204.39849448824492 A 2.4255 2.4255 0 0 1 421.97022 206.82067647058824 L 379.66949999999997 206.82067647058824 A 2.4255 2.4255 0 0 1 377.24399999999997 204.39517647058824 Z" />
<path fill="#B8BCC3" stroke="#FFFFFF" stroke-width="0.819" d="M 433.38781841720265 157.76549352692712 A 2.1294 2.1294 0 0 1 435.59459999999996 155.6375 L 446.40540000000004 155.6375 A 2.1294 2.1294 0 0 1 448.61218158279735 157.76549352692712 L 449.11261841720267 171.52750647307286 A 2.1294 2.1294 0 0 1 447.0606 173.6555 L 434.9394 173.6555 A 2.1294 2.1294 0 0 1 432.88738158279733 171.52750647307286 Z" />
<rect x="0.0" y="0.0" width="720.0" height="18.0" fill="#E11D48" fill-opacity="0.35" stroke="#E11D48" stroke-width="1.5" />
<rect x="0.0" y="251.9615" width="720.0" height="18.0" fill="#E11D48" fill-opacity="0.35" stroke="#E11D48" stroke-width="1.5" />
<rect x="0.0" y="18.0" width="18.0" height="233.9615" fill="#E11D48" fill-opacity="0.35" stroke="#E11D48" stroke-width="1.5" />
<rect x="702.0" y="18.0" width="18.0" height="233.9615" fill="#E11D48" fill-opacity="0.35" stroke="#E11D48" stroke-width="1.5" />
</svg>