<?xml version="1.0" encoding="UTF-8"?>
<svg xmlns="http://www.w3.org/2000/svg" xmlns:xlink="http://www.w3.org/1999/xlink"
     width="720.0" height="272.74833333333333" viewBox="0 0 720.0 272.74833333333333">
<defs>
</defs>
<rect x="0.0" y="0.0" width="720.0" height="272.74833333333333" fill="#FFFFFF" stroke="none" />
<rect x="18.0" y="18.0" width="684.0" height="236.74833333333333" rx="8.0" ry="8.0" fill="#F3F4F6" stroke="#6B7280" stroke-width="4.0" />
<circle cx="311.5" cy="94.86383333333332" r="9.4245" fill="#B8BCC3" />
<rect x="301.496" y="64.33333333333333" width="20.008" height="20.008" rx="1.5006" ry="1.5006" fill="#B8BCC3" />
<rect x="301.496" y="81.34013333333333" width="20.008" height="3.0012" rx="1.5006" ry="1.5006" fill="#B8BCC3" />
<rect x="322.0225" y="84.34133333333332" width="20.008" height="20.008" rx="1.5006" ry="1.5006" fill="#B8BCC3" />
<rect x="322.0225" y="84.34133333333332" width="3.0012" height="20.008" rx="1.5006" ry="1.5006" fill="#B8BCC3" />
<rect x="301.496" y="105.38633333333333" width="20.008" height="20.008" rx="1.5006" ry="1.5006" fill="#B8BCC3" />
<rect x="301.496" y="105.38633333333333" width="20.008" height="3.0012" rx="1.5006" ry="1.5006" fill="#B8BCC3" />
<rect x="280.9695" y="84.34133333333332" width="20.008" height="20.008" rx="1.5006" ry="1.5006" fill="#B8BCC3" />
<rect x="297.9763" y="84.34133333333332" width="3.0012" height="20.008" rx="1.5006" ry="1.5006" fill="#B8BCC3" />
<circle cx="232.5" cy="74.53049999999999" r="9.4245" fill="#B8BCC3" />
<rect x="222.496" y="44.0" width="20.008" height="20.008" rx="1.5006" ry="1.5006" fill="#B8BCC3" />
<rect x="222.496" y="61.0068" width="20.008" height="3.0012" rx="1.5006" ry="1.5006" fill="#B8BCC3" />
<rect x="243.02249999999998" y="64.008" width="20.008" height="20.008" rx="1.5006" ry="1.5006" fill="#B8BCC3" />
<rect x="243.02249999999998" y="64.008" width="3.0012" height="20.008" rx="1.5006" ry="1.5006" fill="#B8BCC3" />
<rect x="222.496" y="85.053" width="20.008" height="20.008" rx="1.5006" ry="1.5006" fill="#B8BCC3" />
<rect x="222.496" y="85.053" width="20.008" height="3.0012" rx="1.5006" ry="1.5006" fill="#B8BCC3" />
<rect x="201.9695" y="64.008" width="20.008" height="20.008" rx="1.5006" ry="1.5006" fill="#B8BCC3" />
<rect x="218.9763" y="64.008" width="3.0012" height="20.008" rx="1.5006" ry="1.5006" fill="#B8BCC3" />
<circle cx="153.5" cy="74.53049999999999" r="9.4245" fill="#B8BCC3" />
<rect x="143.496" y="44.0" width="20.008" height="20.008" rx="1.5006" ry="1.5006" fill="#B8BCC3" />
<rect x="143.496" y="61.0068" width="20.008" height="3.0012" rx="1.5006" ry="1.5006" fill="#B8BCC3" />
<rect x="164.02249999999998" y="64.008" width="20.008" height="20.008" rx="1.5006" ry="1.5006" fill="#B8BCC3" />
<rect x="164.02249999999998" y="64.008" width="3.0012" height="20.008" rx="1.5006" ry="1.5006" fill="#B8BCC3" />
<rect x="143.496" y="85.053" width="20.008" height="20.008" rx="1.5006" ry="1.5006" fill="#B8BCC3" />
<rect x="143.496" y="85.053" width="20.008" height="3.0012" rx="1.5006" ry="1.5006" fill="#B8BCC3" />
<rect x="122.9695" y="64.008" width="20.008" height="20.008" rx="1.5006" ry="1.5006" fill="#B8BCC3" />
<rect x="139.97629999999998" y="64.008" width="3.0012" height="20.008" rx="1.5006" ry="1.5006" fill="#B8BCC3" />
<circle cx="74.5" cy="94.86383333333332" r="9.4245" fill="#B8BCC3" />
<rect x="64.49600000000001" y="64.33333333333333" width="20.008" height="20.008" rx="1.5006" ry="1.5006" fill="#B8BCC3" />
<rect x="64.49600000000001" y="81.34013333333333" width="20.008" height="3.0012" rx="1.5006" ry="1.5006" fill="#B8BCC3" />
<rect x="85.0225" y="84.34133333333332" width="20.008" height="20.008" rx="1.5006" ry="1.5006" fill="#B8BCC3" />
<rect x="85.0225" y="84.34133333333332" width="3.0012" height="20.008" rx="1.5006" ry="1.5006" fill="#B8BCC3" />
<rect x="64.49600000000001" y="105.38633333333333" width="20.008" height="20.008" rx="1.5006" ry="1.5006" fill="#B8BCC3" />
<rect x="64.49600000000001" y="105.38633333333333" width="20.008" height="3.0012" rx="1.5006" ry="1.5006" fill="#B8BCC3" />
<rect x="43.9695" y="84.34133333333332" width="20.008" height="20.008" rx="1.5006" ry="1.5006" fill="#B8BCC3" />
<rect x="60.976299999999995" y="84.34133333333332" width="3.0012" height="20.008" rx="1.5006" ry="1.5006" fill="#B8BCC3" />
<circle cx="408.5" cy="94.86383333333332" r="9.4245" fill="#B8BCC3" />
<rect x="398.496" y="64.33333333333333" width="20.008" height="20.008" rx="1.5006" ry="1.5006" fill="#B8BCC3" />
<rect x="398.496" y="81.34013333333333" width="20.008" height="3.0012" rx="1.5006" ry="1.5006" fill="#B8BCC3" />
<rect x="419.0225" y="84.34133333333332" width="20.008" height="20.008" rx="1.5006" ry="1.5006" fill="#B8BCC3" />
<rect x="419.0225" y="84.34133333333332" width="3.0012" height="20.008" rx="1.5006" ry="1.5006" fill="#B8BCC3" />
<rect x="398.496" y="105.38633333333333" width="20.008" height="20.008" rx="1.5006" ry="1.5006" fill="#B8BCC3" />
<rect x="398.496" y="105.38633333333333" width="20.008" height="3.0012" rx="1.5006" ry="1.5006" fill="#B8BCC3" />
<rect x="377.9695" y="84.34133333333332" width="20.008" height="20.008" rx="1.5006" ry="1.5006" fill="#B8BCC3" />
<rect x="394.9763" y="84.34133333333332" width="3.0012" height="20.008" rx="1.5006" ry="1.5006" fill="#B8BCC3" />
<circle cx="487.5" cy="74.53049999999999" r="9.4245" fill="#B8BCC3" />
<rect x="477.496" y="44.0" width="20.008" height="20.008" rx="1.5006" ry="1.5006" fill="#B8BCC3" />
<rect x="477.496" y="61.0068" width="20.008" height="3.0012" rx="1.5006" ry="1.5006" fill="#B8BCC3" />
<rect x="498.0225" y="64.008" width="20.008" height="20.008" rx="1.5006" ry="1.5006" fill="#B8BCC3" />
<rect x="498.0225" y="64.008" width="3.0012" height="20.008" rx="1.5006" ry="1.5006" fill="#B8BCC3" />
<rect x="477.496" y="85.053" width="20.008" height="20.008" rx="1.5006" ry="1.5006" fill="#B8BCC3" />
<rect x="477.496" y="85.053" width="20.008" height="3.0012" rx="1.5006" ry="1.5006" fill="#B8BCC3" />
<rect x="456.9695" y="64.008" width="20.008" height="20.008" rx="1.5006" ry="1.5006" fill="#B8BCC3" />
<rect x="473.9763" y="64.008" width="3.0012" height="20.008" rx="1.5006" ry="1.5006" fill="#B8BCC3" />
<circle cx="566.5" cy="74.53049999999999" r="9.4245" fill="#B8BCC3" />
<rect x="556.496" y="44.0" width="20.008" height="20.008" rx="1.5006" ry="1.5006" fill="#B8BCC3" />
<rect x="556.496" y="61.0068" width="20.008" height="3.0012" rx="1.5006" ry="1.5006" fill="#B8BCC3" />
<rect x="577.0225" y="64.008" width="20.008" height="20.008" rx="1.5006" ry="1.5006" fill="#B8BCC3" />
<rect x="577.0225" y="64.008" width="3.0012" height="20.008" rx="1.5006" ry="1.5006" fill="#B8BCC3" />
<rect x="556.496" y="85.053" width="20.008" height="20.008" rx="1.5006" ry="1.5006" fill="#B8BCC3" />
<rect x="556.496" y="85.053" width="20.008" height="3.0012" rx="1.5006" ry="1.5006" fill="#B8BCC3" />
<rect x="535.9695" y="64.008" width="20.008" height="20.008" rx="1.5006" ry="1.5006" fill="#B8BCC3" />
<rect x="552.9763" y="64.008" width="3.0012" height="20.008" rx="1.5006" ry="1.5006" fill="#B8BCC3" />
<circle cx="645.5" cy="94.86383333333332" r="9.4245" fill="#B8BCC3" />
<rect x="635.496" y="64.33333333333333" width="20.008" height="20.008" rx="1.5006" ry="1.5006" fill="#B8BCC3" />
<rect x="635.496" y="81.34013333333333" width="20.008" height="3.0012" rx="1.5006" ry="1.5006" fill="#B8BCC3" />
<rect x="656.0225" y="84.34133333333332" width="20.008" height="20.008" rx="1.5006" ry="1.5006" fill="#B8BCC3" />
<rect x="656.0225" y="84.34133333333332" width="3.0012" height="20.008" rx="1.5006" ry="1.5006" fill="#B8BCC3" />
<rect x="635.496" y="105.38633333333333" width="20.008" height="20.008" rx="1.5006" ry="1.5006" fill="#B8BCC3" />
<rect x="635.496" y="105.38633333333333" width="20.008" height="3.0012" rx="1.5006" ry="1.5006" fill="#B8BCC3" />
<rect x="614.9695" y="84.34133333333332" width="20.008" height="20.008" rx="1.5006" ry="1.5006" fill="#B8BCC3" />
<rect x="631.9763" y="84.34133333333332" width="3.0012" height="20.008" rx="1.5006" ry="1.5006" fill="#B8BCC3" />
<path d="M266.0387878417969 151.14480590820312C266.0387878417969 150.11767578125 266.4595642089844 149.13539123535156 267.20306396484375 148.4267578125C267.94659423828125 147.71812438964844 268.9479675292969 147.3450164794922 269.9739074707031 147.3943328857422H285.9317932128906C286.9577331542969 147.3450164794922 287.9591064453125 147.71812438964844 288.7026062011719 148.4267578125C289.4461364746094 149.13539123535156 289.8669128417969 150.11767578125 289.8669128417969 151.14480590820312L293.41754150390625 224.99786376953125C293.41754150390625 227.00148010253906 291.8443603515625 228.65211486816406 289.8430480957031 228.7483367919922H266.0626525878906C264.06134033203125 228.65211486816406 262.4881591796875 227.00148010253906 262.4881591796875 224.99786376953125L263.88592529296875 195.92446899414062L274.0429382324219 195.48126220703125C275.02392578125 195.48126220703125 275.96234130859375 195.0805206298828 276.6407165527344 194.37188720703125C277.319091796875 193.66326904296875 277.67852783203125 192.70828247070312 277.6357727050781 191.72821044921875V181.5392608642578C277.6357727050781 179.5531005859375 276.0256652832031 177.9429931640625 274.0395202636719 177.9429931640625H264.75042724609375ZM269.5253601074219 156.2552947998047 269.0354919433594 169.1141357421875C269.0354919433594 170.9326629638672 270.47296142578125 172.4259490966797 272.2901916503906 172.49517822265625H283.6155090332031C285.4327392578125 172.4259490966797 286.8702087402344 170.9326629638672 286.8702087402344 169.1141357421875L286.3803405761719 156.2552947998047C286.3803405761719 155.33558654785156 286.0059509277344 154.4555206298828 285.3433532714844 153.81768798828125C284.6807556152344 153.17987060546875 283.7870788574219 152.83924865722656 282.8680419921875 152.87425231933594H273.03765869140625C272.1186218261719 152.83924865722656 271.22491455078125 153.17987060546875 270.5623474121094 153.81768798828125C269.8997497558594 154.4555206298828 269.5253601074219 155.33558654785156 269.5253601074219 156.2552947998047Z" fill="#B8BCC3" />
<path fill="#B8BCC3" d="M 215.76258260071342 152.92153799999997 A 2.3564846666666663 2.3564846666666663 0 0 1 218.11906726738007 150.5650533333333 L 260.53579126738003 150.5650533333333 A 2.3564846666666663 2.3564846666666663 0 0 1 262.77911410709913 152.91881933384335 L 261.7806536307102 173.68679724273318 A 2.3564846666666663 2.3564846666666663 0 0 1 259.31100713709594 176.0405632432432 L 218.11906726738007 176.0405632432432 A 2.3564846666666663 2.3564846666666663 0 0 1 215.76258260071342 173.68407857657655 Z" />
<path fill="#B8BCC3" d="M 229.80796666666666 181.53925924324324 A 2.327976 2.327976 0 0 1 232.13594266666666 179.21128324324323 L 274.0395106666667 179.21128324324323 A 2.327976 2.327976 0 0 1 276.36748666666665 181.53925924324324 L 276.36748666666665 191.78235364324323 A 2.327976 2.327976 0 0 1 274.041723893528 194.2118174733438 L 232.13372943980528 196.0405299585972 A 2.327976 2.327976 0 0 1 229.80796666666666 193.81404178869778 Z" />
<path fill="#B8BCC3" d="M 293.13362471029615 153.06536540233188 A 2.5032 2.5032 0 0 1 295.5166173992866 150.5650533333333 L 340.5742173992866 150.5650533333333 A 2.5032 2.5032 0 0 1 343.0774173992866 153.0682533333333 L 343.0774173992866 173.7356994871795 A 2.5032 2.5032 0 0 1 340.5742173992866 176.23889948717948 L 296.75093692591383 176.23889948717948 A 2.5032 2.5032 0 0 1 294.1275296149043 173.7385874181809 Z" />
<path fill="#B8BCC3" d="M 294.51587492429894 181.8161698535906 A 2.40933 2.40933 0 0 1 296.80950538745225 179.40961948717947 L 340.1774453874522 179.40961948717947 A 2.40933 2.40933 0 0 1 342.58677538745224 181.81894948717948 L 342.58677538745224 202.7685247812971 A 2.40933 2.40933 0 0 1 340.1774453874522 205.1778547812971 L 298.0483628535156 205.1778547812971 A 2.40933 2.40933 0 0 1 295.52333331666887 202.77130441488598 Z" />
<path fill="#B8BCC3" d="M 270.79452787327034 156.256214159987 A 2.1152040000000003 2.1152040000000003 0 0 1 272.99025266666666 154.14254333333332 L 282.91544066666665 154.14254333333332 A 2.1152040000000003 2.1152040000000003 0 0 1 285.111165460063 156.256214159987 L 285.6009558732704 169.11321250667964 A 2.1152040000000003 2.1152040000000003 0 0 1 283.5662726666667 171.22688333333332 L 272.3394206666667 171.22688333333332 A 2.1152040000000003 2.1152040000000003 0 0 1 270.304737460063 169.11321250667964 Z" />
<path d="M430.1330871582031 151.14480590820312C430.1330871582031 150.11767578125 430.5538635253906 149.13539123535156 431.2973937988281 148.4267578125C432.0408935546875 147.71812438964844 433.0422668457031 147.3450164794922 434.0682067871094 147.3943328857422H450.0260925292969C451.0520324707031 147.3450164794922 452.05340576171875 147.71812438964844 452.79693603515625 148.4267578125C453.5404357910156 149.13539123535156 453.9612121582031 150.11767578125 453.9612121582031 151.14480590820312L455.24957275390625 177.9429931640625H445.9604797363281C443.9743347167969 177.9429931640625 442.3642272949219 179.5531005859375 442.3642272949219 181.5392608642578V191.72821044921875C442.32147216796875 192.70828247070312 442.680908203125 193.66326904296875 443.3592834472656 194.37188720703125C444.03765869140625 195.0805206298828 444.97607421875 195.48126220703125 445.9570617675781 195.48126220703125L456.11407470703125 195.92446899414062L457.5118408203125 224.99786376953125C457.5118408203125 227.00148010253906 455.93865966796875 228.65211486816406 453.9373474121094 228.7483367919922H430.1569519042969C428.1556396484375 228.65211486816406 426.58245849609375 227.00148010253906 426.58245849609375 224.99786376953125ZM433.6196594238281 156.2552947998047 433.1297912597656 169.1141357421875C433.1297912597656 170.9326629638672 434.5672607421875 172.4259490966797 436.3844909667969 172.49517822265625H447.7098083496094C449.52703857421875 172.4259490966797 450.9645080566406 170.9326629638672 450.9645080566406 169.1141357421875L450.4746398925781 156.2552947998047C450.4746398925781 155.33558654785156 450.1002502441406 154.4555206298828 449.4376525878906 153.81768798828125C448.77508544921875 153.17987060546875 447.8813781738281 152.83924865722656 446.96234130859375 152.87425231933594H437.1319580078125C436.2129211425781 152.83924865722656 435.3192443847656 153.17987060546875 434.6566467285156 153.81768798828125C433.9940490722656 154.4555206298828 433.6196594238281 155.33558654785156 433.6196594238281 156.2552947998047Z" fill="#B8BCC3" />
<path fill="#B8BCC3" d="M 457.2208858929008 152.91881933384335 A 2.3564846666666663 2.3564846666666663 0 0 1 459.4642087326199 150.5650533333333 L 501.88093273261984 150.5650533333333 A 2.3564846666666663 2.3564846666666663 0 0 1 504.2374173992865 152.92153799999997 L 504.2374173992865 173.68407857657655 A 2.3564846666666663 2.3564846666666663 0 0 1 501.88093273261984 176.0405632432432 L 460.68899286290406 176.0405632432432 A 2.3564846666666663 2.3564846666666663 0 0 1 458.2193463692898 173.68679724273318 Z" />
<path fill="#B8BCC3" d="M 443.63251333333335 181.53925924324324 A 2.327976 2.327976 0 0 1 445.9604893333333 179.21128324324323 L 487.8640573333334 179.21128324324323 A 2.327976 2.327976 0 0 1 490.19203333333337 181.53925924324324 L 490.19203333333337 193.81404178869778 A 2.327976 2.327976 0 0 1 487.8662705601947 196.0405299585972 L 445.958276106472 194.2118174733438 A 2.327976 2.327976 0 0 1 443.63251333333335 191.78235364324323 Z" />
<path fill="#B8BCC3" d="M 376.92258260071344 153.0682533333333 A 2.5032 2.5032 0 0 1 379.42578260071343 150.5650533333333 L 424.48338260071347 150.5650533333333 A 2.5032 2.5032 0 0 1 426.8663752897039 153.06536540233188 L 425.87247038509577 173.7385874181809 A 2.5032 2.5032 0 0 1 423.2490630740862 176.23889948717948 L 379.42578260071343 176.23889948717948 A 2.5032 2.5032 0 0 1 376.92258260071344 173.7356994871795 Z" />
<path fill="#B8BCC3" d="M 377.41322461254776 181.81894948717948 A 2.40933 2.40933 0 0 1 379.8225546125478 179.40961948717947 L 423.19049461254775 179.40961948717947 A 2.40933 2.40933 0 0 1 425.48412507570106 181.8161698535906 L 424.47666668333113 202.77130441488598 A 2.40933 2.40933 0 0 1 421.9516371464844 205.1778547812971 L 379.8225546125478 205.1778547812971 A 2.40933 2.40933 0 0 1 377.41322461254776 202.7685247812971 Z" />
<path fill="#B8BCC3" d="M 434.88883453993697 156.256214159987 A 2.1152040000000003 2.1152040000000003 0 0 1 437.0845593333333 154.14254333333332 L 447.0097473333333 154.14254333333332 A 2.1152040000000003 2.1152040000000003 0 0 1 449.2054721267296 156.256214159987 L 449.695262539937 169.11321250667964 A 2.1152040000000003 2.1152040000000003 0 0 1 447.6605793333333 171.22688333333332 L 436.4337273333333 171.22688333333332 A 2.1152040000000003 2.1152040000000003 0 0 1 434.3990441267296 169.11321250667964 Z" />
<rect x="193.0" y="0.0" width="334.0" height="16.0" fill="#E11D48" fill-opacity="0.35" stroke="#E11D48" stroke-width="1.5" />
<rect x="193.0" y="256.74833333333333" width="334.0" height="16.0" fill="#E11D48" fill-opacity="0.35" stroke="#E11D48" stroke-width="1.5" />
<rect x="0.0" y="81.18708333333333" width="16.0" height="110.37416666666667" fill="#E11D48" fill-opacity="0.35" stroke="#E11D48" stroke-width="1.5" />
<rect x="704.0" y="81.18708333333333" width="16.0" height="110.37416666666667" fill="#E11D48" fill-opacity="0.35" stroke="#E11D48" stroke-width="1.5" />
<rect x="0.5" y="0.5" width="719.0" height="271.74833333333333" fill="none" stroke="#9CA3AF" stroke-width="1.0" />
</svg>