<?xml version="1.0" encoding="UTF-8"?>
<svg xmlns="http://www.w3.org/2000/svg" xmlns:xlink="http://www.w3.org/1999/xlink"
     width="574.0" height="109.0" viewBox="0 0 574.0 109.0">
<defs>
</defs>
<text x="12.0" y="12.0" font-size="11.0" font-weight="700" letter-spacing="3.0" text-anchor="start" dominant-baseline="text-before-edge" font-family="'Roboto', sans-serif" fill="#6B7280">TAP-DANCE</text>
<text x="332.0" y="12.0" font-size="10.0" text-anchor="end" dominant-baseline="text-before-edge" fill="#888" font-weight="400" letter-spacing="1.0" font-family="'Roboto', sans-serif">1 ENTRIES</text>
<path d="M12.0,32.0 L332.0,32.0" stroke="#6B7280" stroke-opacity="0.5" stroke-width="1.2" />
<text x="264.0" y="56.0" font-size="9.0" text-anchor="middle" dominant-baseline="text-before-edge" font-family="Roboto, sans-serif" fill="#4B5563" opacity="1.0" letter_spacing="1.5">TAP</text>
<text x="350.0" y="56.0" font-size="9.0" text-anchor="middle" dominant-baseline="text-before-edge" font-family="Roboto, sans-serif" fill="#4B5563" opacity="1.0" letter_spacing="1.5">HOLD</text>
<text x="436.0" y="56.0" font-size="9.0" text-anchor="middle" dominant-baseline="text-before-edge" font-family="Roboto, sans-serif" fill="#4B5563" opacity="1.0" letter_spacing="1.5">DOUBLE-TAP</text>
<text x="522.0" y="56.0" font-size="9.0" text-anchor="middle" dominant-baseline="text-before-edge" font-family="Roboto, sans-serif" fill="#4B5563" opacity="1.0" letter_spacing="1.5">TAP &amp; HOLD</text>
<path d="M16.0,75.0 L64.0,75.0 A4.0,4.0,0,0,1,68.0,79.0 L68.0,93.0 A4.0,4.0,0,0,1,64.0,97.0 L16.0,97.0 A4.0,4.0,0,0,1,12.0,93.0 L12.0,79.0 A4.0,4.0,0,0,1,16.0,75.0 Z" fill="#B8BCC3" />
<rect x="12.0" y="75.0" width="56.00000000000001" height="22.0" rx="4.0" ry="4.0" fill="none" stroke="#6B7280" stroke-width="1.2" />
<text x="29.5" y="86.5" font-size="12.0" text-anchor="start" dominant-baseline="central" font-family="'Symbols Nerd Font', 'Nerd Fonts', monospace" fill="#FFF" opacity="1.0">󰌏 </text>
<text x="43.5" y="85.5" font-size="12.0" text-anchor="start" dominant-baseline="central" font-family="Roboto, sans-serif" fill="#FFF" opacity="1.0">0</text>
<rect x="224.0" y="75.0" width="80.0" height="22.0" rx="4.0" ry="4.0" fill="#FAFAF6" stroke="#4B5563" stroke-opacity="0.18" />
<text x="259.5" y="86.5" font-size="12.0" text-anchor="start" dominant-baseline="central" font-family="Roboto, sans-serif" fill="#4B5563" opacity="1.0">—</text>
<rect x="310.0" y="75.0" width="80.0" height="22.0" rx="4.0" ry="4.0" fill="#FAFAF6" stroke="#4B5563" stroke-opacity="0.18" />
<text x="345.5" y="86.5" font-size="12.0" text-anchor="start" dominant-baseline="central" font-family="Roboto, sans-serif" fill="#4B5563" opacity="1.0">—</text>
<rect x="396.0" y="75.0" width="80.0" height="22.0" rx="4.0" ry="4.0" fill="#FAFAF6" stroke="#4B5563" stroke-opacity="0.18" />
<text x="431.5" y="86.5" font-size="12.0" text-anchor="start" dominant-baseline="central" font-family="Roboto, sans-serif" fill="#4B5563" opacity="1.0">—</text>
<rect x="482.0" y="75.0" width="80.0" height="22.0" rx="4.0" ry="4.0" fill="#FAFAF6" stroke="#4B5563" stroke-opacity="0.18" />
<text x="517.5" y="86.5" font-size="12.0" text-anchor="start" dominant-baseline="central" font-family="Roboto, sans-serif" fill="#4B5563" opacity="1.0">—</text>
<rect x="12.0" y="32.0" width="550.0" height="24.0" fill="#E11D48" fill-opacity="0.35" stroke="#E11D48" stroke-width="1.5" />
</svg>