<?xml version="1.0" encoding="UTF-8"?>
<svg xmlns="http://www.w3.org/2000/svg" xmlns:xlink="http://www.w3.org/1999/xlink"
     width="430.0" height="136.0" viewBox="0 0 430.0 136.0">
<defs>
</defs>
<text x="120.0" y="12.0" font-size="9.0" text-anchor="middle" dominant-baseline="text-before-edge" font-family="Roboto, sans-serif" fill="#4B5563" opacity="1.0" letter_spacing="1.5">TAP</text>
<text x="206.0" y="12.0" font-size="9.0" text-anchor="middle" dominant-baseline="text-before-edge" font-family="Roboto, sans-serif" fill="#4B5563" opacity="1.0" letter_spacing="1.5">HOLD</text>
<text x="292.0" y="12.0" font-size="9.0" text-anchor="middle" dominant-baseline="text-before-edge" font-family="Roboto, sans-serif" fill="#4B5563" opacity="1.0" letter_spacing="1.5">DOUBLE-TAP</text>
<text x="378.0" y="12.0" font-size="9.0" text-anchor="middle" dominant-baseline="text-before-edge" font-family="Roboto, sans-serif" fill="#4B5563" opacity="1.0" letter_spacing="1.5">TAP &amp; HOLD</text>
<path d="M16.0,31.0 L64.0,31.0 A4.0,4.0,0,0,1,68.0,35.0 L68.0,49.0 A4.0,4.0,0,0,1,64.0,53.0 L16.0,53.0 A4.0,4.0,0,0,1,12.0,49.0 L12.0,35.0 A4.0,4.0,0,0,1,16.0,31.0 Z" fill="#B8BCC3" />
<rect x="12.0" y="31.0" width="56.00000000000001" height="22.0" rx="4.0" ry="4.0" fill="none" stroke="#6B7280" stroke-width="1.2" />
<text x="29.5" y="42.5" font-size="12.0" text-anchor="start" dominant-baseline="central" font-family="'Symbols Nerd Font', 'Nerd Fonts', monospace" fill="#FFF" opacity="1.0">󰌏 </text>
<text x="43.5" y="41.5" font-size="12.0" text-anchor="start" dominant-baseline="central" font-family="Roboto, sans-serif" fill="#FFF" opacity="1.0">0</text>
<rect x="80.0" y="31.0" width="80.0" height="22.0" rx="4.0" ry="4.0" fill="#FAFAF6" stroke="#4B5563" stroke-opacity="0.18" />
<text x="115.5" y="42.5" font-size="12.0" text-anchor="start" dominant-baseline="central" font-family="Roboto, sans-serif" fill="#4B5563" opacity="1.0">—</text>
<rect x="166.0" y="31.0" width="80.0" height="22.0" rx="4.0" ry="4.0" fill="#FAFAF6" stroke="#4B5563" stroke-opacity="0.18" />
<text x="201.5" y="42.5" font-size="12.0" text-anchor="start" dominant-baseline="central" font-family="Roboto, sans-serif" fill="#4B5563" opacity="1.0">—</text>
<rect x="252.0" y="31.0" width="80.0" height="22.0" rx="4.0" ry="4.0" fill="#FAFAF6" stroke="#4B5563" stroke-opacity="0.18" />
<text x="287.5" y="42.5" font-size="12.0" text-anchor="start" dominant-baseline="central" font-family="Roboto, sans-serif" fill="#4B5563" opacity="1.0">—</text>
<rect x="338.0" y="31.0" width="80.0" height="22.0" rx="4.0" ry="4.0" fill="#FAFAF6" stroke="#4B5563" stroke-opacity="0.18" />
<text x="373.5" y="42.5" font-size="12.0" text-anchor="start" dominant-baseline="central" font-family="Roboto, sans-serif" fill="#4B5563" opacity="1.0">—</text>
<path d="M16.0,62.0 L64.0,62.0 A4.0,4.0,0,0,1,68.0,66.0 L68.0,80.0 A4.0,4.0,0,0,1,64.0,84.0 L16.0,84.0 A4.0,4.0,0,0,1,12.0,80.0 L12.0,66.0 A4.0,4.0,0,0,1,16.0,62.0 Z" fill="#B8BCC3" />
<rect x="12.0" y="62.0" width="56.00000000000001" height="22.0" rx="4.0" ry="4.0" fill="none" stroke="#6B7280" stroke-width="1.2" />
<text x="29.5" y="73.5" font-size="12.0" text-anchor="start" dominant-baseline="central" font-family="'Symbols Nerd Font', 'Nerd Fonts', monospace" fill="#FFF" opacity="1.0">󰌏 </text>
<text x="43.5" y="72.5" font-size="12.0" text-anchor="start" dominant-baseline="central" font-family="Roboto, sans-serif" fill="#FFF" opacity="1.0">1</text>
<rect x="80.0" y="62.0" width="80.0" height="22.0" rx="4.0" ry="4.0" fill="#FAFAF6" stroke="#4B5563" stroke-opacity="0.18" />
<text x="115.5" y="73.5" font-size="12.0" text-anchor="start" dominant-baseline="central" font-family="Roboto, sans-serif" fill="#4B5563" opacity="1.0">—</text>
<rect x="166.0" y="62.0" width="80.0" height="22.0" rx="4.0" ry="4.0" fill="#FAFAF6" stroke="#4B5563" stroke-opacity="0.18" />
<text x="201.5" y="73.5" font-size="12.0" text-anchor="start" dominant-baseline="central" font-family="Roboto, sans-serif" fill="#4B5563" opacity="1.0">—</text>
<rect x="252.0" y="62.0" width="80.0" height="22.0" rx="4.0" ry="4.0" fill="#FAFAF6" stroke="#4B5563" stroke-opacity="0.18" />
<text x="287.5" y="73.5" font-size="12.0" text-anchor="start" dominant-baseline="central" font-family="Roboto, sans-serif" fill="#4B5563" opacity="1.0">—</text>
<rect x="338.0" y="62.0" width="80.0" height="22.0" rx="4.0" ry="4.0" fill="#FAFAF6" stroke="#4B5563" stroke-opacity="0.18" />
<text x="373.5" y="73.5" font-size="12.0" text-anchor="start" dominant-baseline="central" font-family="Roboto, sans-serif" fill="#4B5563" opacity="1.0">—</text>
<path d="M16.0,93.0 L64.0,93.0 A4.0,4.0,0,0,1,68.0,97.0 L68.0,111.0 A4.0,4.0,0,0,1,64.0,115.0 L16.0,115.0 A4.0,4.0,0,0,1,12.0,111.0 L12.0,97.0 A4.0,4.0,0,0,1,16.0,93.0 Z" fill="#B8BCC3" />
<rect x="12.0" y="93.0" width="56.00000000000001" height="22.0" rx="4.0" ry="4.0" fill="none" stroke="#6B7280" stroke-width="1.2" />
<text x="29.5" y="104.5" font-size="12.0" text-anchor="start" dominant-baseline="central" font-family="'Symbols Nerd Font', 'Nerd Fonts', monospace" fill="#FFF" opacity="1.0">󰌏 </text>
<text x="43.5" y="103.5" font-size="12.0" text-anchor="start" dominant-baseline="central" font-family="Roboto, sans-serif" fill="#FFF" opacity="1.0">2</text>
<rect x="80.0" y="93.0" width="80.0" height="22.0" rx="4.0" ry="4.0" fill="#FAFAF6" stroke="#4B5563" stroke-opacity="0.18" />
<text x="115.5" y="104.5" font-size="12.0" text-anchor="start" dominant-baseline="central" font-family="Roboto, sans-serif" fill="#4B5563" opacity="1.0">—</text>
<rect x="166.0" y="93.0" width="80.0" height="22.0" rx="4.0" ry="4.0" fill="#FAFAF6" stroke="#4B5563" stroke-opacity="0.18" />
<text x="201.5" y="104.5" font-size="12.0" text-anchor="start" dominant-baseline="central" font-family="Roboto, sans-serif" fill="#4B5563" opacity="1.0">—</text>
<rect x="252.0" y="93.0" width="80.0" height="22.0" rx="4.0" ry="4.0" fill="#FAFAF6" stroke="#4B5563" stroke-opacity="0.18" />
<text x="287.5" y="104.5" font-size="12.0" text-anchor="start" dominant-baseline="central" font-family="Roboto, sans-serif" fill="#4B5563" opacity="1.0">—</text>
<rect x="338.0" y="93.0" width="80.0" height="22.0" rx="4.0" ry="4.0" fill="#FAFAF6" stroke="#4B5563" stroke-opacity="0.18" />
<text x="373.5" y="104.5" font-size="12.0" text-anchor="start" dominant-baseline="central" font-family="Roboto, sans-serif" fill="#4B5563" opacity="1.0">—</text>
<rect x="12.0" y="53.0" width="406.0" height="9.0" fill="#E11D48" fill-opacity="0.35" stroke="#E11D48" stroke-width="1.5" />
<rect x="12.0" y="84.0" width="406.0" height="9.0" fill="#E11D48" fill-opacity="0.35" stroke="#E11D48" stroke-width="1.5" />
</svg>