<?xml version="1.0" encoding="UTF-8"?>
<svg xmlns="http://www.w3.org/2000/svg" xmlns:xlink="http://www.w3.org/1999/xlink"
     width="574.0" height="65.0" viewBox="0 0 574.0 65.0">
<defs>
</defs>
<text x="264.0" y="12.0" font-size="9.0" text-anchor="middle" dominant-baseline="text-before-edge" font-family="Roboto, sans-serif" fill="#4B5563" opacity="1.0" letter_spacing="1.5">TAP</text>
<text x="350.0" y="12.0" font-size="9.0" text-anchor="middle" dominant-baseline="text-before-edge" font-family="Roboto, sans-serif" fill="#4B5563" opacity="1.0" letter_spacing="1.5">HOLD</text>
<text x="436.0" y="12.0" font-size="9.0" text-anchor="middle" dominant-baseline="text-before-edge" font-family="Roboto, sans-serif" fill="#4B5563" opacity="1.0" letter_spacing="1.5">DOUBLE-TAP</text>
<text x="522.0" y="12.0" font-size="9.0" text-anchor="middle" dominant-baseline="text-before-edge" font-family="Roboto, sans-serif" fill="#4B5563" opacity="1.0" letter_spacing="1.5">TAP &amp; HOLD</text>
<path d="M16.0,31.0 L64.0,31.0 A4.0,4.0,0,0,1,68.0,35.0 L68.0,49.0 A4.0,4.0,0,0,1,64.0,53.0 L16.0,53.0 A4.0,4.0,0,0,1,12.0,49.0 L12.0,35.0 A4.0,4.0,0,0,1,16.0,31.0 Z" fill="#B8BCC3" />
<rect x="12.0" y="31.0" width="56.00000000000001" height="22.0" rx="4.0" ry="4.0" fill="none" stroke="#6B7280" stroke-width="1.2" />
<text x="29.5" y="42.5" font-size="12.0" text-anchor="start" dominant-baseline="central" font-family="'Symbols Nerd Font', 'Nerd Fonts', monospace" fill="#FFF" opacity="1.0">󰌏 </text>
<text x="43.5" y="41.5" font-size="12.0" text-anchor="start" dominant-baseline="central" font-family="Roboto, sans-serif" fill="#FFF" opacity="1.0">0</text>
<rect x="224.0" y="31.0" width="80.0" height="22.0" rx="4.0" ry="4.0" fill="#FAFAF6" stroke="#4B5563" stroke-opacity="0.18" />
<text x="259.5" y="42.5" font-size="12.0" text-anchor="start" dominant-baseline="central" font-family="Roboto, sans-serif" fill="#4B5563" opacity="1.0">—</text>
<rect x="310.0" y="31.0" width="80.0" height="22.0" rx="4.0" ry="4.0" fill="#FAFAF6" stroke="#4B5563" stroke-opacity="0.18" />
<text x="345.5" y="42.5" font-size="12.0" text-anchor="start" dominant-baseline="central" font-family="Roboto, sans-serif" fill="#4B5563" opacity="1.0">—</text>
<rect x="396.0" y="31.0" width="80.0" height="22.0" rx="4.0" ry="4.0" fill="#FAFAF6" stroke="#4B5563" stroke-opacity="0.18" />
<text x="431.5" y="42.5" font-size="12.0" text-anchor="start" dominant-baseline="central" font-family="Roboto, sans-serif" fill="#4B5563" opacity="1.0">—</text>
<rect x="482.0" y="31.0" width="80.0" height="22.0" rx="4.0" ry="4.0" fill="#FAFAF6" stroke="#4B5563" stroke-opacity="0.18" />
<text x="517.5" y="42.5" font-size="12.0" text-anchor="start" dominant-baseline="central" font-family="Roboto, sans-serif" fill="#4B5563" opacity="1.0">—</text>
<rect x="12.0" y="19.0" width="550.0" height="12.0" fill="#E11D48" fill-opacity="0.35" stroke="#E11D48" stroke-width="1.5" />
</svg>