<?xml version="1.0" encoding="UTF-8"?>
<svg xmlns="http://www.w3.org/2000/svg" xmlns:xlink="http://www.w3.org/1999/xlink"
     width="384.0" height="258.0" viewBox="0 0 384.0 258.0">
<defs>
</defs>
<path fill="#B8BCC3" d="M 157.73136826505947 22.787540086762718 A 10.799999999999999 10.799999999999999 0 0 1 169.05 12.0 L 214.95 12.0 A 10.799999999999999 10.799999999999999 0 0 1 226.26863173494053 22.787540086762718 L 236.48136826505947 235.2124599132373 A 10.799999999999999 10.799999999999999 0 0 1 226.2 246.0 L 157.8 246.0 A 10.799999999999999 10.799999999999999 0 0 1 147.51863173494053 235.2124599132373 Z" />
<path fill="#B8BCC3" d="M 17.03999999999999 32.52 A 6.840000000000001 6.840000000000001 0 0 1 23.87999999999999 25.68 L 147.0 25.68 A 6.840000000000001 6.840000000000001 0 0 1 153.39803551281472 32.50570636579593 L 149.49396448718528 92.80023958015002 A 6.840000000000001 6.840000000000001 0 0 1 142.212 99.62594594594594 L 23.87999999999999 99.62594594594594 A 6.840000000000001 6.840000000000001 0 0 1 17.03999999999999 92.78594594594594 Z" />
<path fill="#FFFFFF" d="M 47.89200000000001 114.828 A 6.696 6.696 0 0 1 54.58800000000001 108.132 L 181.81199999999998 108.132 A 6.696 6.696 0 0 1 188.50799999999998 114.828 L 188.50799999999998 151.066752 A 6.696 6.696 0 0 1 181.81974214144805 158.0846569821272 L 54.580257858551946 164.20867683605462 A 6.696 6.696 0 0 1 47.89200000000001 157.83458181818182 Z" />
<path fill="#B8BCC3" d="M 51.24000000000001 118.176 A 6.696 6.696 0 0 1 57.93600000000001 111.48 L 178.464 111.48 A 6.696 6.696 0 0 1 185.16 118.176 L 185.16 147.63840000000002 A 6.696 6.696 0 0 1 178.47036594495123 154.62631130422034 L 57.92963405504879 159.8862705139615 A 6.696 6.696 0 0 1 51.24000000000001 153.48218181818183 Z" />
<path fill="#B8BCC3" d="M 230.58048111876815 32.86771143193433 A 7.2 7.2 0 0 1 237.35999999999999 25.68 L 366.96 25.68 A 7.2 7.2 0 0 1 374.15999999999997 32.88 L 374.15999999999997 92.32615384615384 A 7.2 7.2 0 0 1 366.96 99.52615384615385 L 241.67999999999998 99.52615384615385 A 7.2 7.2 0 0 1 234.05951888123184 92.33844241421951 Z" />
<path fill="#B8BCC3" d="M 235.92235842455852 118.4005199495523 A 6.93 6.93 0 0 1 242.48999999999998 111.48 L 367.22999999999996 111.48 A 6.93 6.93 0 0 1 374.15999999999997 118.41 L 374.15999999999997 178.66764705882352 A 6.93 6.93 0 0 1 367.22999999999996 185.59764705882353 L 246.37079999999997 185.59764705882353 A 6.93 6.93 0 0 1 239.07844157544142 178.67712710927123 Z" />
<path fill="#B8BCC3" stroke="#FFFFFF" stroke-width="2.3400000000000003" d="M 170.2509097634361 45.4399815055061 A 6.0840000000000005 6.0840000000000005 0 0 1 176.55599999999998 39.36 L 207.444 39.36 A 6.0840000000000005 6.0840000000000005 0 0 1 213.74909023656386 45.4399815055061 L 215.17890976343614 84.7600184944939 A 6.0840000000000005 6.0840000000000005 0 0 1 209.316 90.84 L 174.684 90.84 A 6.0840000000000005 6.0840000000000005 0 0 1 168.82109023656386 84.7600184944939 Z" />
<rect x="17.03999999999999" y="12.0" width="136.8" height="13.68" fill="#E11D48" fill-opacity="0.35" stroke="#E11D48" stroke-width="1.5" />
<rect x="230.16" y="12.0" width="144.0" height="13.68" fill="#E11D48" fill-opacity="0.35" stroke="#E11D48" stroke-width="1.5" />
<rect x="51.24000000000001" y="97.80000000000001" width="133.92" height="13.68" fill="#E11D48" fill-opacity="0.35" stroke="#E11D48" stroke-width="1.5" />
<rect x="235.55999999999997" y="97.80000000000001" width="138.6" height="13.68" fill="#E11D48" fill-opacity="0.35" stroke="#E11D48" stroke-width="1.5" />
</svg>