<?xml version="1.0" encoding="UTF-8"?>
<svg xmlns="http://www.w3.org/2000/svg" xmlns:xlink="http://www.w3.org/1999/xlink"
     width="384.0" height="258.0" viewBox="0 0 384.0 258.0">
<defs>
</defs>
<path d="M157.7313690185547 22.787540435791016C157.7313690185547 19.833200454711914 158.94163513183594 17.007829666137695 161.08023071289062 14.969573020935059C163.21884155273438 12.931315422058105 166.0990753173828 11.858128547668457 169.0500030517578 12.0H214.9499969482422C217.9009246826172 11.858128547668457 220.78115844726562 12.931315422058105 222.91976928710938 14.969573020935059C225.05836486816406 17.007829666137695 226.2686309814453 19.833200454711914 226.2686309814453 22.787540435791016L236.4813690185547 235.21246337890625C236.4813690185547 240.9755096435547 231.95640563964844 245.72325134277344 226.1999969482422 246.0H157.8000030517578C152.04359436035156 245.72325134277344 147.5186309814453 240.9755096435547 147.5186309814453 235.21246337890625L151.53903198242188 151.588134765625L180.7538299560547 150.3133087158203C183.57546997070312 150.3133087158203 186.274658203125 149.16064453125 188.2258758544922 147.12240600585938C190.17710876464844 145.0841827392578 191.2110137939453 142.3373260498047 191.08799743652344 139.5183563232422V110.21167755126953C191.08799743652344 104.49884033203125 186.4568328857422 99.86767578125 180.74400329589844 99.86767578125H154.0255889892578ZM167.75985717773438 37.48694610595703 166.35086059570312 74.47305297851562C166.35086059570312 79.70374298095703 170.48548889160156 83.9988784790039 175.71238708496094 84.197998046875H208.28761291503906C213.51451110839844 83.9988784790039 217.64913940429688 79.70374298095703 217.64913940429688 74.47305297851562L216.24014282226562 37.48694610595703C216.24014282226562 34.84159469604492 215.16326904296875 32.31022262573242 213.25746154785156 30.475624084472656C211.3516387939453 28.64102554321289 208.78111267089844 27.661296844482422 206.13768005371094 27.761999130249023H177.86231994628906C175.21888732910156 27.661296844482422 172.6483612060547 28.64102554321289 170.74253845214844 30.475624084472656C168.83673095703125 32.31022262573242 167.75985717773438 34.84159469604492 167.75985717773438 37.48694610595703Z" fill="#B8BCC3" />
<path fill="#B8BCC3" d="M 13.121004604161357 27.897999999999996 A 6.7780000000000005 6.7780000000000005 0 0 1 19.899004604161355 21.119999999999997 L 141.90300460416137 21.119999999999997 A 6.7780000000000005 6.7780000000000005 0 0 1 148.35551516902925 27.890180250747935 L 145.48362501642444 87.62549542492773 A 6.7780000000000005 6.7780000000000005 0 0 1 138.38013558129234 94.39567567567568 L 19.899004604161355 94.39567567567568 A 6.7780000000000005 6.7780000000000005 0 0 1 13.121004604161357 87.61767567567567 Z" />
<path fill="#B8BCC3" d="M 53.52000000000001 110.21167567567568 A 6.696 6.696 0 0 1 60.21600000000001 103.51567567567568 L 180.744 103.51567567567568 A 6.696 6.696 0 0 1 187.44 110.21167567567568 L 187.44 139.67407567567568 A 6.696 6.696 0 0 1 180.75036594495123 146.661986979896 L 60.20963405504879 151.92194618963717 A 6.696 6.696 0 0 1 53.52000000000001 145.5178574938575 Z" />
<path fill="#B8BCC3" d="M 235.66474988579898 28.311693391175144 A 7.2 7.2 0 0 1 242.51899539583863 21.119999999999997 L 372.1189953958387 21.119999999999997 A 7.2 7.2 0 0 1 379.31899539583867 28.319999999999997 L 379.31899539583867 87.76615384615384 A 7.2 7.2 0 0 1 372.1189953958387 94.96615384615384 L 246.0692912538268 94.96615384615384 A 7.2 7.2 0 0 1 238.52353676386647 87.7744604549787 Z" />
<path fill="#B8BCC3" d="M 239.6405414888752 111.00815873515994 A 6.93 6.93 0 0 1 246.23775279228838 104.08615384615386 L 370.97775279228836 104.08615384615386 A 6.93 6.93 0 0 1 377.90775279228836 111.01615384615386 L 377.90775279228836 171.27380090497738 A 6.93 6.93 0 0 1 370.97775279228836 178.20380090497738 L 249.80110120857796 178.20380090497738 A 6.93 6.93 0 0 1 242.53831251199114 171.2817960159713 Z" />
<path fill="#B8BCC3" d="M 171.41039656741228 37.48959010542764 A 6.0840000000000005 6.0840000000000005 0 0 1 177.726 31.41 L 206.27399999999997 31.41 A 6.0840000000000005 6.0840000000000005 0 0 1 212.5896034325877 37.48959010542764 L 213.99839656741227 74.47040989457238 A 6.0840000000000005 6.0840000000000005 0 0 1 208.146 80.55000000000001 L 175.85399999999998 80.55000000000001 A 6.0840000000000005 6.0840000000000005 0 0 1 170.0016034325877 74.47040989457238 Z" />
<rect x="47.01100460416136" y="11.999999999999998" width="67.78" height="9.12" fill="#E11D48" fill-opacity="0.35" stroke="#E11D48" stroke-width="1.5" />
<rect x="271.31899539583867" y="11.999999999999998" width="72.0" height="9.12" fill="#E11D48" fill-opacity="0.35" stroke="#E11D48" stroke-width="1.5" />
<rect x="87.0" y="94.39567567567568" width="66.96" height="9.12" fill="#E11D48" fill-opacity="0.35" stroke="#E11D48" stroke-width="1.5" />
<rect x="273.9577527922884" y="94.96615384615386" width="69.3" height="9.12" fill="#E11D48" fill-opacity="0.35" stroke="#E11D48" stroke-width="1.5" />
</svg>