<?xml version="1.0" encoding="UTF-8"?>
<svg xmlns="http://www.w3.org/2000/svg" xmlns:xlink="http://www.w3.org/1999/xlink"
     width="384.0" height="258.0" viewBox="0 0 384.0 258.0">
<defs>
</defs>
<path d="M157.7313690185547 22.787540435791016C157.7313690185547 19.833200454711914 158.94163513183594 17.007829666137695 161.08023071289062 14.969573020935059C163.21884155273438 12.931315422058105 166.0990753173828 11.858128547668457 169.0500030517578 12.0H214.9499969482422C217.9009246826172 11.858128547668457 220.78115844726562 12.931315422058105 222.91976928710938 14.969573020935059C225.05836486816406 17.007829666137695 226.2686309814453 19.833200454711914 226.2686309814453 22.787540435791016L236.4813690185547 235.21246337890625C236.4813690185547 240.9755096435547 231.95640563964844 245.72325134277344 226.1999969482422 246.0H157.8000030517578C152.04359436035156 245.72325134277344 147.5186309814453 240.9755096435547 147.5186309814453 235.21246337890625L151.1000518798828 160.71905517578125L178.47470092773438 159.52452087402344C181.5451202392578 159.52452087402344 184.48226928710938 158.2702178955078 186.60552978515625 156.0522918701172C188.72879028320312 153.8343505859375 189.85385131835938 150.84530639648438 189.72000122070312 147.77781677246094V118.51005554199219C189.72000122070312 112.29353332519531 184.68051147460938 107.2540512084961 178.46400451660156 107.2540512084961H153.67047119140625ZM166.8472137451172 46.606285095214844 165.43817138671875 83.59371185302734C165.43817138671875 89.3145751953125 169.96026611328125 94.01222229003906 175.67697143554688 94.2300033569336H208.32302856445312C214.03973388671875 94.01222229003906 218.56182861328125 89.3145751953125 218.56182861328125 83.59371185302734L217.1527862548828 46.606285095214844C217.1527862548828 43.71303176879883 215.97499084472656 40.94444274902344 213.8905792236328 38.93791961669922C211.80616760253906 36.931400299072266 208.9947509765625 35.859859466552734 206.1035919189453 35.970001220703125H177.8964080810547C175.0052490234375 35.859859466552734 172.19383239746094 36.931400299072266 170.1094207763672 38.93791961669922C168.02500915527344 40.94444274902344 166.8472137451172 43.71303176879883 166.8472137451172 46.606285095214844Z" fill="#B8BCC3" />
<path fill="#B8BCC3" d="M 9.856506906242004 32.382 A 6.702 6.702 0 0 1 16.558506906242002 25.68 L 137.194506906242 25.68 A 6.702 6.702 0 0 1 143.57466710183724 32.37426793161887 L 140.7349787272788 91.43978612243518 A 6.702 6.702 0 0 1 133.71113892287403 98.13405405405405 L 16.558506906242002 98.13405405405405 A 6.702 6.702 0 0 1 9.856506906242004 91.43205405405405 Z" />
<path fill="#B8BCC3" d="M 51.24000000000001 118.51005405405405 A 6.696 6.696 0 0 1 57.93600000000001 111.81405405405405 L 178.464 111.81405405405405 A 6.696 6.696 0 0 1 185.16 118.51005405405405 L 185.16 147.97245405405405 A 6.696 6.696 0 0 1 178.47036594495123 154.96036535827437 L 57.92963405504879 160.22032456801554 A 6.696 6.696 0 0 1 51.24000000000001 153.81623587223586 Z" />
<path fill="#B8BCC3" d="M 240.44924758371835 32.87169339117514 A 7.2 7.2 0 0 1 247.303493093758 25.68 L 376.903493093758 25.68 A 7.2 7.2 0 0 1 384.103493093758 32.88 L 384.103493093758 92.32615384615384 A 7.2 7.2 0 0 1 376.903493093758 99.52615384615385 L 250.85378895174617 99.52615384615385 A 7.2 7.2 0 0 1 243.30803446178584 92.3344604549787 Z" />
<path fill="#B8BCC3" d="M 244.64426995602528 120.12815873515993 A 6.93 6.93 0 0 1 251.24148125943847 113.20615384615385 L 375.98148125943845 113.20615384615385 A 6.93 6.93 0 0 1 382.91148125943846 120.13615384615386 L 382.91148125943846 180.39380090497735 A 6.93 6.93 0 0 1 375.98148125943845 187.32380090497736 L 254.80482967572806 187.32380090497736 A 6.93 6.93 0 0 1 247.54204097914123 180.40179601597129 Z" />
<path fill="#B8BCC3" d="M 171.41039656741228 46.609590105427635 A 6.0840000000000005 6.0840000000000005 0 0 1 177.726 40.53 L 206.27399999999997 40.53 A 6.0840000000000005 6.0840000000000005 0 0 1 212.5896034325877 46.609590105427635 L 213.99839656741227 83.59040989457239 A 6.0840000000000005 6.0840000000000005 0 0 1 208.146 89.67000000000002 L 175.85399999999998 89.67000000000002 A 6.0840000000000005 6.0840000000000005 0 0 1 170.0016034325877 83.59040989457239 Z" />
<rect x="43.366506906242" y="12.0" width="67.02" height="13.68" fill="#E11D48" fill-opacity="0.35" stroke="#E11D48" stroke-width="1.5" />
<rect x="276.103493093758" y="12.0" width="72.0" height="13.68" fill="#E11D48" fill-opacity="0.35" stroke="#E11D48" stroke-width="1.5" />
<rect x="84.72" y="98.13405405405405" width="66.96" height="13.68" fill="#E11D48" fill-opacity="0.35" stroke="#E11D48" stroke-width="1.5" />
<rect x="278.9614812594385" y="99.52615384615385" width="69.3" height="13.68" fill="#E11D48" fill-opacity="0.35" stroke="#E11D48" stroke-width="1.5" />
</svg>