<?xml version="1.0" encoding="UTF-8"?>
<svg xmlns="http://www.w3.org/2000/svg" xmlns:xlink="http://www.w3.org/1999/xlink"
     width="384.0" height="258.0" viewBox="0 0 384.0 258.0">
<defs>
</defs>
<path d="M153.51136779785156 22.787540435791016C153.51136779785156 19.833200454711914 154.7216339111328 17.007829666137695 156.8602294921875 14.969573020935059C158.99884033203125 12.931315422058105 161.8790740966797 11.858128547668457 164.8300018310547 12.0H210.72999572753906C213.68093872070312 11.858128547668457 216.5611572265625 12.931315422058105 218.69976806640625 14.969573020935059C220.83836364746094 17.007829666137695 222.0486297607422 19.833200454711914 222.0486297607422 22.787540435791016L232.26136779785156 235.21246337890625C232.26136779785156 240.9755096435547 227.7364044189453 245.72325134277344 221.97999572753906 246.0H153.5800018310547C147.82359313964844 245.72325134277344 143.2986297607422 240.9755096435547 143.2986297607422 235.21246337890625L147.31903076171875 151.588134765625L176.53382873535156 150.3133087158203C179.35546875 150.3133087158203 182.05465698242188 149.16064453125 184.00587463378906 147.12240600585938C185.9571075439453 145.0841827392578 186.9910125732422 142.3373260498047 186.8679962158203 139.5183563232422V110.21167755126953C186.8679962158203 104.49884033203125 182.23683166503906 99.86767578125 176.5240020751953 99.86767578125H149.8055877685547ZM163.53985595703125 37.48694610595703 162.130859375 74.47305297851562C162.130859375 79.70374298095703 166.26548767089844 83.9988784790039 171.4923858642578 84.197998046875H204.06761169433594C209.2945098876953 83.9988784790039 213.42913818359375 79.70374298095703 213.42913818359375 74.47305297851562L212.0201416015625 37.48694610595703C212.0201416015625 34.84159469604492 210.9432830810547 32.31022262573242 209.03746032714844 30.475624084472656C207.1316375732422 28.64102554321289 204.5611114501953 27.661296844482422 201.9176788330078 27.761999130249023H173.64231872558594C170.99888610839844 27.661296844482422 168.42835998535156 28.64102554321289 166.5225372314453 30.475624084472656C164.61672973632812 32.31022262573242 163.53985595703125 34.84159469604492 163.53985595703125 37.48694610595703Z" fill="#B8BCC3" />
<path fill="#B8BCC3" d="M 8.90100460416133 27.897999999999996 A 6.7780000000000005 6.7780000000000005 0 0 1 15.67900460416133 21.119999999999997 L 137.68300460416134 21.119999999999997 A 6.7780000000000005 6.7780000000000005 0 0 1 144.13551516902922 27.890180250747935 L 141.2636250164244 87.62549542492773 A 6.7780000000000005 6.7780000000000005 0 0 1 134.1601355812923 94.39567567567568 L 15.67900460416133 94.39567567567568 A 6.7780000000000005 6.7780000000000005 0 0 1 8.90100460416133 87.61767567567567 Z" />
<path fill="#B8BCC3" d="M 49.29999999999998 110.21167567567568 A 6.696 6.696 0 0 1 55.99599999999998 103.51567567567568 L 176.52399999999997 103.51567567567568 A 6.696 6.696 0 0 1 183.21999999999997 110.21167567567568 L 183.21999999999997 139.67407567567568 A 6.696 6.696 0 0 1 176.5303659449512 146.661986979896 L 55.98963405504876 151.92194618963717 A 6.696 6.696 0 0 1 49.29999999999998 145.5178574938575 Z" />
<path fill="#B8BCC3" d="M 231.44474988579896 28.311693391175144 A 7.2 7.2 0 0 1 238.2989953958386 21.119999999999997 L 367.89899539583865 21.119999999999997 A 7.2 7.2 0 0 1 375.09899539583864 28.319999999999997 L 375.09899539583864 87.76615384615384 A 7.2 7.2 0 0 1 367.89899539583865 94.96615384615384 L 241.84929125382678 94.96615384615384 A 7.2 7.2 0 0 1 234.30353676386645 87.7744604549787 Z" />
<path fill="#B8BCC3" d="M 235.42054148887516 111.00815873515994 A 6.93 6.93 0 0 1 242.01775279228835 104.08615384615386 L 366.75775279228833 104.08615384615386 A 6.93 6.93 0 0 1 373.68775279228834 111.01615384615386 L 373.68775279228834 171.27380090497738 A 6.93 6.93 0 0 1 366.75775279228833 178.20380090497738 L 245.58110120857793 178.20380090497738 A 6.93 6.93 0 0 1 238.3183125119911 171.2817960159713 Z" />
<path fill="#B8BCC3" d="M 167.19039656741225 37.48959010542764 A 6.0840000000000005 6.0840000000000005 0 0 1 173.50599999999997 31.41 L 202.05399999999995 31.41 A 6.0840000000000005 6.0840000000000005 0 0 1 208.36960343258767 37.48959010542764 L 209.77839656741224 74.47040989457238 A 6.0840000000000005 6.0840000000000005 0 0 1 203.92599999999996 80.55000000000001 L 171.63399999999996 80.55000000000001 A 6.0840000000000005 6.0840000000000005 0 0 1 165.78160343258767 74.47040989457238 Z" />
<rect x="42.79100460416133" y="11.999999999999998" width="67.78" height="9.12" fill="#E11D48" fill-opacity="0.35" stroke="#E11D48" stroke-width="1.5" />
<rect x="267.09899539583864" y="11.999999999999998" width="72.0" height="9.12" fill="#E11D48" fill-opacity="0.35" stroke="#E11D48" stroke-width="1.5" />
<rect x="82.77999999999997" y="94.39567567567568" width="66.96" height="9.12" fill="#E11D48" fill-opacity="0.35" stroke="#E11D48" stroke-width="1.5" />
<rect x="269.73775279228835" y="94.96615384615386" width="69.3" height="9.12" fill="#E11D48" fill-opacity="0.35" stroke="#E11D48" stroke-width="1.5" />
</svg>