<?xml version="1.0" encoding="UTF-8"?>
<svg xmlns="http://www.w3.org/2000/svg" xmlns:xlink="http://www.w3.org/1999/xlink"
     width="500.0" height="272.22" viewBox="0 0 500.0 272.22">
<defs>
</defs>
<circle cx="126.0" cy="126.10999999999999" r="33.99" fill="#B8BCC3" />
<rect x="89.92" y="16.0" width="72.16" height="72.16" rx="5.412" ry="5.412" fill="#3F7BB6" />
<rect x="89.92" y="77.336" width="72.16" height="10.824" rx="5.412" ry="5.412" fill="#3F7BB6" />
<rect x="163.95000000000002" y="88.16" width="72.16" height="72.16" rx="5.412" ry="5.412" fill="#B8BCC3" />
<rect x="163.95000000000002" y="88.16" width="10.824" height="72.16" rx="5.412" ry="5.412" fill="#B8BCC3" />
<rect x="89.92" y="164.06" width="72.16" height="72.16" rx="5.412" ry="5.412" fill="#B8BCC3" />
<rect x="89.92" y="164.06" width="72.16" height="10.824" rx="5.412" ry="5.412" fill="#B8BCC3" />
<rect x="15.89" y="88.16" width="72.16" height="72.16" rx="5.412" ry="5.412" fill="#B8BCC3" />
<rect x="77.226" y="88.16" width="10.824" height="72.16" rx="5.412" ry="5.412" fill="#B8BCC3" />
<path d="M126.0,4.0 L126.0,20.0" stroke="#3F7BB6" stroke-width="2.0" />
<circle cx="126.0" cy="20.0" r="2.0" fill="#3F7BB6" />
<circle cx="126.0" cy="-15.844000000000001" r="19.844" fill="#3F7BB6" stroke="#3F7BB6" stroke-width="2.0" />
<text x="119.55069999999999" y="-15.844000000000003" font-size="23.8128" text-anchor="start" dominant-baseline="central" font-family="Roboto, sans-serif" fill="white" opacity="1.0">2</text>
<text x="126.0" y="244.22" font-size="12.0" text-anchor="middle" dominant-baseline="text-before-edge" font-family="Roboto, sans-serif" fill="#4B5563">true</text>
<circle cx="374.0" cy="126.10999999999999" r="33.99" fill="#B8BCC3" />
<rect x="337.92" y="16.0" width="72.16" height="72.16" rx="5.412" ry="5.412" fill="#B8BCC3" />
<rect x="337.92" y="77.336" width="72.16" height="10.824" rx="5.412" ry="5.412" fill="#B8BCC3" />
<rect x="411.95000000000005" y="88.16" width="72.16" height="72.16" rx="5.412" ry="5.412" fill="#B8BCC3" />
<rect x="411.95000000000005" y="88.16" width="10.824" height="72.16" rx="5.412" ry="5.412" fill="#B8BCC3" />
<rect x="337.92" y="164.06" width="72.16" height="72.16" rx="5.412" ry="5.412" fill="#B8BCC3" />
<rect x="337.92" y="164.06" width="72.16" height="10.824" rx="5.412" ry="5.412" fill="#B8BCC3" />
<rect x="263.89" y="88.16" width="72.16" height="72.16" rx="5.412" ry="5.412" fill="#B8BCC3" />
<rect x="325.22599999999994" y="88.16" width="10.824" height="72.16" rx="5.412" ry="5.412" fill="#B8BCC3" />
<path d="M374.0,4.0 L374.0,20.0" stroke="#3F7BB6" stroke-width="2.0" />
<circle cx="374.0" cy="20.0" r="2.0" fill="#3F7BB6" />
<circle cx="374.0" cy="-15.844000000000001" r="19.844" fill="#3F7BB6" stroke="#3F7BB6" stroke-width="2.0" />
<text x="367.5507" y="-15.844000000000003" font-size="23.8128" text-anchor="start" dominant-baseline="central" font-family="Roboto, sans-serif" fill="white" opacity="1.0">2</text>
<text x="374.0" y="244.22" font-size="12.0" text-anchor="middle" dominant-baseline="text-before-edge" font-family="Roboto, sans-serif" fill="#4B5563">false</text>
</svg>