<?xml version="1.0" encoding="UTF-8"?>
<svg xmlns="http://www.w3.org/2000/svg" xmlns:xlink="http://www.w3.org/1999/xlink"
     width="710.45" height="323.29834871652497" viewBox="0 0 710.45 323.29834871652497">
<defs>
</defs>
<rect x="0.5" y="0.5" width="709.45" height="322.29834871652497" rx="18.0" ry="18.0" fill="#FFFFFF" stroke="#D4D8DD" stroke-width="1.0" />
<text x="22.75" y="32.17748138716" font-size="8.0636094" text-anchor="start" dominant-baseline="text-after-edge" font-family="Roboto, sans-serif" fill="#6F768B">LAYERS</text>
<rect x="16.0" y="33.790203267159995" width="64.09260324" height="17.919132" rx="3.5838264000000004" ry="3.5838264000000004" fill="#037065" />
<text x="27.265621264" y="42.74976926716" font-size="8.0636094" text-anchor="end" dominant-baseline="central" font-family="Roboto, sans-serif" fill="white">0</text>
<text x="34.015621264" y="42.74976926716" font-size="8.0636094" text-anchor="start" dominant-baseline="central" font-family="Roboto, sans-serif" fill="white">BASE</text>
<circle cx="359.92708932249997" cy="43.1463315097975" r="8.379836599927499" fill="#053F3A" />
<rect x="351.03198768891997" y="16.0" width="17.79020326716" height="17.79020326716" rx="1.3342652450369998" ry="1.3342652450369998" fill="#86BE81" />
<rect x="351.03198768891997" y="31.121672777085998" width="17.79020326716" height="2.6685304900739997" rx="1.3342652450369998" ry="1.3342652450369998" fill="#079E7C" />
<rect x="369.2832175651375" y="33.790203267159995" width="17.79020326716" height="17.79020326716" rx="1.3342652450369998" ry="1.3342652450369998" fill="#079E7C" />
<rect x="369.2832175651375" y="33.790203267159995" width="2.6685304900739997" height="17.79020326716" rx="1.3342652450369998" ry="1.3342652450369998" fill="#037065" />
<rect x="351.03198768891997" y="52.502459752434994" width="17.79020326716" height="17.79020326716" rx="1.3342652450369998" ry="1.3342652450369998" fill="#037065" />
<rect x="351.03198768891997" y="52.502459752434994" width="17.79020326716" height="2.6685304900739997" rx="1.3342652450369998" ry="1.3342652450369998" fill="#053F3A" />
<rect x="332.78075781270246" y="33.790203267159995" width="17.79020326716" height="17.79020326716" rx="1.3342652450369998" ry="1.3342652450369998" fill="#BDDCA7" />
<rect x="347.9024305897885" y="33.790203267159995" width="2.6685304900739997" height="17.79020326716" rx="1.3342652450369998" ry="1.3342652450369998" fill="#86BE81" />
<circle cx="287.6886647275" cy="43.1463315097975" r="8.379836599927499" fill="#053F3A" />
<rect x="278.79356309392" y="16.0" width="17.79020326716" height="17.79020326716" rx="1.3342652450369998" ry="1.3342652450369998" fill="#86BE81" />
<rect x="278.79356309392" y="31.121672777085998" width="17.79020326716" height="2.6685304900739997" rx="1.3342652450369998" ry="1.3342652450369998" fill="#079E7C" />
<rect x="297.0447929701375" y="33.790203267159995" width="17.79020326716" height="17.79020326716" rx="1.3342652450369998" ry="1.3342652450369998" fill="#079E7C" />
<rect x="297.0447929701375" y="33.790203267159995" width="2.6685304900739997" height="17.79020326716" rx="1.3342652450369998" ry="1.3342652450369998" fill="#037065" />
<rect x="278.79356309392" y="52.502459752434994" width="17.79020326716" height="17.79020326716" rx="1.3342652450369998" ry="1.3342652450369998" fill="#037065" />
<rect x="278.79356309392" y="52.502459752434994" width="17.79020326716" height="2.6685304900739997" rx="1.3342652450369998" ry="1.3342652450369998" fill="#053F3A" />
<rect x="260.5423332177025" y="33.790203267159995" width="17.79020326716" height="17.79020326716" rx="1.3342652450369998" ry="1.3342652450369998" fill="#BDDCA7" />
<rect x="275.6640059947885" y="33.790203267159995" width="2.6685304900739997" height="17.79020326716" rx="1.3342652450369998" ry="1.3342652450369998" fill="#86BE81" />
<circle cx="215.45024013249997" cy="43.1463315097975" r="8.379836599927499" fill="#053F3A" />
<rect x="206.55513849891997" y="16.0" width="17.79020326716" height="17.79020326716" rx="1.3342652450369998" ry="1.3342652450369998" fill="#86BE81" />
<rect x="206.55513849891997" y="31.121672777085998" width="17.79020326716" height="2.6685304900739997" rx="1.3342652450369998" ry="1.3342652450369998" fill="#079E7C" />
<rect x="224.80636837513748" y="33.790203267159995" width="17.79020326716" height="17.79020326716" rx="1.3342652450369998" ry="1.3342652450369998" fill="#079E7C" />
<rect x="224.80636837513748" y="33.790203267159995" width="2.6685304900739997" height="17.79020326716" rx="1.3342652450369998" ry="1.3342652450369998" fill="#037065" />
<rect x="206.55513849891997" y="52.502459752434994" width="17.79020326716" height="17.79020326716" rx="1.3342652450369998" ry="1.3342652450369998" fill="#037065" />
<rect x="206.55513849891997" y="52.502459752434994" width="17.79020326716" height="2.6685304900739997" rx="1.3342652450369998" ry="1.3342652450369998" fill="#053F3A" />
<rect x="188.3039086227025" y="33.790203267159995" width="17.79020326716" height="17.79020326716" rx="1.3342652450369998" ry="1.3342652450369998" fill="#BDDCA7" />
<rect x="203.42558139978848" y="33.790203267159995" width="2.6685304900739997" height="17.79020326716" rx="1.3342652450369998" ry="1.3342652450369998" fill="#86BE81" />
<circle cx="143.2118155375" cy="43.1463315097975" r="8.379836599927499" fill="#053F3A" />
<rect x="134.31671390392" y="16.0" width="17.79020326716" height="17.79020326716" rx="1.3342652450369998" ry="1.3342652450369998" fill="#86BE81" />
<rect x="134.31671390392" y="31.121672777085998" width="17.79020326716" height="2.6685304900739997" rx="1.3342652450369998" ry="1.3342652450369998" fill="#079E7C" />
<rect x="152.5679437801375" y="33.790203267159995" width="17.79020326716" height="17.79020326716" rx="1.3342652450369998" ry="1.3342652450369998" fill="#079E7C" />
<rect x="152.5679437801375" y="33.790203267159995" width="2.6685304900739997" height="17.79020326716" rx="1.3342652450369998" ry="1.3342652450369998" fill="#037065" />
<rect x="134.31671390392" y="52.502459752434994" width="17.79020326716" height="17.79020326716" rx="1.3342652450369998" ry="1.3342652450369998" fill="#037065" />
<rect x="134.31671390392" y="52.502459752434994" width="17.79020326716" height="2.6685304900739997" rx="1.3342652450369998" ry="1.3342652450369998" fill="#053F3A" />
<rect x="116.0654840277025" y="33.790203267159995" width="17.79020326716" height="17.79020326716" rx="1.3342652450369998" ry="1.3342652450369998" fill="#BDDCA7" />
<rect x="131.1871568047885" y="33.790203267159995" width="2.6685304900739997" height="17.79020326716" rx="1.3342652450369998" ry="1.3342652450369998" fill="#86BE81" />
<circle cx="450.1655139175" cy="43.1463315097975" r="8.379836599927499" fill="#053F3A" />
<rect x="441.27041228392" y="16.0" width="17.79020326716" height="17.79020326716" rx="1.3342652450369998" ry="1.3342652450369998" fill="#86BE81" />
<rect x="441.27041228392" y="31.121672777085998" width="17.79020326716" height="2.6685304900739997" rx="1.3342652450369998" ry="1.3342652450369998" fill="#079E7C" />
<rect x="459.5216421601375" y="33.790203267159995" width="17.79020326716" height="17.79020326716" rx="1.3342652450369998" ry="1.3342652450369998" fill="#BDDCA7" />
<rect x="459.5216421601375" y="33.790203267159995" width="2.6685304900739997" height="17.79020326716" rx="1.3342652450369998" ry="1.3342652450369998" fill="#86BE81" />
<rect x="441.27041228392" y="52.502459752434994" width="17.79020326716" height="17.79020326716" rx="1.3342652450369998" ry="1.3342652450369998" fill="#037065" />
<rect x="441.27041228392" y="52.502459752434994" width="17.79020326716" height="2.6685304900739997" rx="1.3342652450369998" ry="1.3342652450369998" fill="#053F3A" />
<rect x="423.0191824077025" y="33.790203267159995" width="17.79020326716" height="17.79020326716" rx="1.3342652450369998" ry="1.3342652450369998" fill="#079E7C" />
<rect x="438.1408551847885" y="33.790203267159995" width="2.6685304900739997" height="17.79020326716" rx="1.3342652450369998" ry="1.3342652450369998" fill="#037065" />
<circle cx="522.4039385125" cy="43.1463315097975" r="8.379836599927499" fill="#053F3A" />
<rect x="513.50883687892" y="16.0" width="17.79020326716" height="17.79020326716" rx="1.3342652450369998" ry="1.3342652450369998" fill="#86BE81" />
<rect x="513.50883687892" y="31.121672777085998" width="17.79020326716" height="2.6685304900739997" rx="1.3342652450369998" ry="1.3342652450369998" fill="#079E7C" />
<rect x="531.7600667551375" y="33.790203267159995" width="17.79020326716" height="17.79020326716" rx="1.3342652450369998" ry="1.3342652450369998" fill="#BDDCA7" />
<rect x="531.7600667551375" y="33.790203267159995" width="2.6685304900739997" height="17.79020326716" rx="1.3342652450369998" ry="1.3342652450369998" fill="#86BE81" />
<rect x="513.50883687892" y="52.502459752434994" width="17.79020326716" height="17.79020326716" rx="1.3342652450369998" ry="1.3342652450369998" fill="#037065" />
<rect x="513.50883687892" y="52.502459752434994" width="17.79020326716" height="2.6685304900739997" rx="1.3342652450369998" ry="1.3342652450369998" fill="#053F3A" />
<rect x="495.25760700270246" y="33.790203267159995" width="17.79020326716" height="17.79020326716" rx="1.3342652450369998" ry="1.3342652450369998" fill="#079E7C" />
<rect x="510.3792797797885" y="33.790203267159995" width="2.6685304900739997" height="17.79020326716" rx="1.3342652450369998" ry="1.3342652450369998" fill="#037065" />
<circle cx="594.6423631075" cy="43.1463315097975" r="8.379836599927499" fill="#053F3A" />
<rect x="585.74726147392" y="16.0" width="17.79020326716" height="17.79020326716" rx="1.3342652450369998" ry="1.3342652450369998" fill="#86BE81" />
<rect x="585.74726147392" y="31.121672777085998" width="17.79020326716" height="2.6685304900739997" rx="1.3342652450369998" ry="1.3342652450369998" fill="#079E7C" />
<rect x="603.9984913501376" y="33.790203267159995" width="17.79020326716" height="17.79020326716" rx="1.3342652450369998" ry="1.3342652450369998" fill="#BDDCA7" />
<rect x="603.9984913501376" y="33.790203267159995" width="2.6685304900739997" height="17.79020326716" rx="1.3342652450369998" ry="1.3342652450369998" fill="#86BE81" />
<rect x="585.74726147392" y="52.502459752434994" width="17.79020326716" height="17.79020326716" rx="1.3342652450369998" ry="1.3342652450369998" fill="#037065" />
<rect x="585.74726147392" y="52.502459752434994" width="17.79020326716" height="2.6685304900739997" rx="1.3342652450369998" ry="1.3342652450369998" fill="#053F3A" />
<rect x="567.4960315977025" y="33.790203267159995" width="17.79020326716" height="17.79020326716" rx="1.3342652450369998" ry="1.3342652450369998" fill="#079E7C" />
<rect x="582.6177043747886" y="33.790203267159995" width="2.6685304900739997" height="17.79020326716" rx="1.3342652450369998" ry="1.3342652450369998" fill="#037065" />
<circle cx="666.8807877025" cy="43.1463315097975" r="8.379836599927499" fill="#053F3A" />
<rect x="657.98568606892" y="16.0" width="17.79020326716" height="17.79020326716" rx="1.3342652450369998" ry="1.3342652450369998" fill="#86BE81" />
<rect x="657.98568606892" y="31.121672777085998" width="17.79020326716" height="2.6685304900739997" rx="1.3342652450369998" ry="1.3342652450369998" fill="#079E7C" />
<rect x="676.2369159451375" y="33.790203267159995" width="17.79020326716" height="17.79020326716" rx="1.3342652450369998" ry="1.3342652450369998" fill="#BDDCA7" />
<rect x="676.2369159451375" y="33.790203267159995" width="2.6685304900739997" height="17.79020326716" rx="1.3342652450369998" ry="1.3342652450369998" fill="#86BE81" />
<rect x="657.98568606892" y="52.502459752434994" width="17.79020326716" height="17.79020326716" rx="1.3342652450369998" ry="1.3342652450369998" fill="#037065" />
<rect x="657.98568606892" y="52.502459752434994" width="17.79020326716" height="2.6685304900739997" rx="1.3342652450369998" ry="1.3342652450369998" fill="#053F3A" />
<rect x="639.7344561927025" y="33.790203267159995" width="17.79020326716" height="17.79020326716" rx="1.3342652450369998" ry="1.3342652450369998" fill="#079E7C" />
<rect x="654.8561289697885" y="33.790203267159995" width="2.6685304900739997" height="17.79020326716" rx="1.3342652450369998" ry="1.3342652450369998" fill="#037065" />
<rect x="16.0" y="106.08286628675499" width="64.09260324" height="17.919132" rx="3.5838264000000004" ry="3.5838264000000004" fill="#0E7695" />
<text x="27.265621264" y="115.04243228675499" font-size="8.0636094" text-anchor="end" dominant-baseline="central" font-family="Roboto, sans-serif" fill="white">1</text>
<text x="34.015621264" y="115.04243228675499" font-size="8.0636094" text-anchor="start" dominant-baseline="central" font-family="Roboto, sans-serif" fill="white">LOWER</text>
<circle cx="359.92708932249997" cy="115.43899452939249" r="8.379836599927499" fill="#1D3052" />
<rect x="351.03198768891997" y="88.292663019595" width="17.79020326716" height="17.79020326716" rx="1.3342652450369998" ry="1.3342652450369998" fill="#7AC0C6" />
<rect x="351.03198768891997" y="103.41433579668099" width="17.79020326716" height="2.6685304900739997" rx="1.3342652450369998" ry="1.3342652450369998" fill="#05A1B0" />
<rect x="369.2832175651375" y="106.08286628675499" width="17.79020326716" height="17.79020326716" rx="1.3342652450369998" ry="1.3342652450369998" fill="#05A1B0" />
<rect x="369.2832175651375" y="106.08286628675499" width="2.6685304900739997" height="17.79020326716" rx="1.3342652450369998" ry="1.3342652450369998" fill="#0E7695" />
<rect x="351.03198768891997" y="124.79512277203" width="17.79020326716" height="17.79020326716" rx="1.3342652450369998" ry="1.3342652450369998" fill="#0E7695" />
<rect x="351.03198768891997" y="124.79512277203" width="17.79020326716" height="2.6685304900739997" rx="1.3342652450369998" ry="1.3342652450369998" fill="#1D3052" />
<rect x="332.78075781270246" y="106.08286628675499" width="17.79020326716" height="17.79020326716" rx="1.3342652450369998" ry="1.3342652450369998" fill="#A6D7DE" />
<rect x="347.9024305897885" y="106.08286628675499" width="2.6685304900739997" height="17.79020326716" rx="1.3342652450369998" ry="1.3342652450369998" fill="#7AC0C6" />
<circle cx="287.6886647275" cy="115.43899452939249" r="8.379836599927499" fill="#1D3052" />
<rect x="278.79356309392" y="88.292663019595" width="17.79020326716" height="17.79020326716" rx="1.3342652450369998" ry="1.3342652450369998" fill="#7AC0C6" />
<rect x="278.79356309392" y="103.41433579668099" width="17.79020326716" height="2.6685304900739997" rx="1.3342652450369998" ry="1.3342652450369998" fill="#05A1B0" />
<rect x="297.0447929701375" y="106.08286628675499" width="17.79020326716" height="17.79020326716" rx="1.3342652450369998" ry="1.3342652450369998" fill="#05A1B0" />
<rect x="297.0447929701375" y="106.08286628675499" width="2.6685304900739997" height="17.79020326716" rx="1.3342652450369998" ry="1.3342652450369998" fill="#0E7695" />
<rect x="278.79356309392" y="124.79512277203" width="17.79020326716" height="17.79020326716" rx="1.3342652450369998" ry="1.3342652450369998" fill="#0E7695" />
<rect x="278.79356309392" y="124.79512277203" width="17.79020326716" height="2.6685304900739997" rx="1.3342652450369998" ry="1.3342652450369998" fill="#1D3052" />
<rect x="260.5423332177025" y="106.08286628675499" width="17.79020326716" height="17.79020326716" rx="1.3342652450369998" ry="1.3342652450369998" fill="#A6D7DE" />
<rect x="275.6640059947885" y="106.08286628675499" width="2.6685304900739997" height="17.79020326716" rx="1.3342652450369998" ry="1.3342652450369998" fill="#7AC0C6" />
<circle cx="215.45024013249997" cy="115.43899452939249" r="8.379836599927499" fill="#1D3052" />
<rect x="206.55513849891997" y="88.292663019595" width="17.79020326716" height="17.79020326716" rx="1.3342652450369998" ry="1.3342652450369998" fill="#7AC0C6" />
<rect x="206.55513849891997" y="103.41433579668099" width="17.79020326716" height="2.6685304900739997" rx="1.3342652450369998" ry="1.3342652450369998" fill="#05A1B0" />
<rect x="224.80636837513748" y="106.08286628675499" width="17.79020326716" height="17.79020326716" rx="1.3342652450369998" ry="1.3342652450369998" fill="#05A1B0" />
<rect x="224.80636837513748" y="106.08286628675499" width="2.6685304900739997" height="17.79020326716" rx="1.3342652450369998" ry="1.3342652450369998" fill="#0E7695" />
<rect x="206.55513849891997" y="124.79512277203" width="17.79020326716" height="17.79020326716" rx="1.3342652450369998" ry="1.3342652450369998" fill="#0E7695" />
<rect x="206.55513849891997" y="124.79512277203" width="17.79020326716" height="2.6685304900739997" rx="1.3342652450369998" ry="1.3342652450369998" fill="#1D3052" />
<rect x="188.3039086227025" y="106.08286628675499" width="17.79020326716" height="17.79020326716" rx="1.3342652450369998" ry="1.3342652450369998" fill="#A6D7DE" />
<rect x="203.42558139978848" y="106.08286628675499" width="2.6685304900739997" height="17.79020326716" rx="1.3342652450369998" ry="1.3342652450369998" fill="#7AC0C6" />
<circle cx="143.2118155375" cy="115.43899452939249" r="8.379836599927499" fill="#1D3052" />
<rect x="134.31671390392" y="88.292663019595" width="17.79020326716" height="17.79020326716" rx="1.3342652450369998" ry="1.3342652450369998" fill="#7AC0C6" />
<rect x="134.31671390392" y="103.41433579668099" width="17.79020326716" height="2.6685304900739997" rx="1.3342652450369998" ry="1.3342652450369998" fill="#05A1B0" />
<rect x="152.5679437801375" y="106.08286628675499" width="17.79020326716" height="17.79020326716" rx="1.3342652450369998" ry="1.3342652450369998" fill="#05A1B0" />
<rect x="152.5679437801375" y="106.08286628675499" width="2.6685304900739997" height="17.79020326716" rx="1.3342652450369998" ry="1.3342652450369998" fill="#0E7695" />
<rect x="134.31671390392" y="124.79512277203" width="17.79020326716" height="17.79020326716" rx="1.3342652450369998" ry="1.3342652450369998" fill="#0E7695" />
<rect x="134.31671390392" y="124.79512277203" width="17.79020326716" height="2.6685304900739997" rx="1.3342652450369998" ry="1.3342652450369998" fill="#1D3052" />
<rect x="116.0654840277025" y="106.08286628675499" width="17.79020326716" height="17.79020326716" rx="1.3342652450369998" ry="1.3342652450369998" fill="#A6D7DE" />
<rect x="131.1871568047885" y="106.08286628675499" width="2.6685304900739997" height="17.79020326716" rx="1.3342652450369998" ry="1.3342652450369998" fill="#7AC0C6" />
<circle cx="450.1655139175" cy="115.43899452939249" r="8.379836599927499" fill="#1D3052" />
<rect x="441.27041228392" y="88.292663019595" width="17.79020326716" height="17.79020326716" rx="1.3342652450369998" ry="1.3342652450369998" fill="#7AC0C6" />
<rect x="441.27041228392" y="103.41433579668099" width="17.79020326716" height="2.6685304900739997" rx="1.3342652450369998" ry="1.3342652450369998" fill="#05A1B0" />
<rect x="459.5216421601375" y="106.08286628675499" width="17.79020326716" height="17.79020326716" rx="1.3342652450369998" ry="1.3342652450369998" fill="#A6D7DE" />
<rect x="459.5216421601375" y="106.08286628675499" width="2.6685304900739997" height="17.79020326716" rx="1.3342652450369998" ry="1.3342652450369998" fill="#7AC0C6" />
<rect x="441.27041228392" y="124.79512277203" width="17.79020326716" height="17.79020326716" rx="1.3342652450369998" ry="1.3342652450369998" fill="#0E7695" />
<rect x="441.27041228392" y="124.79512277203" width="17.79020326716" height="2.6685304900739997" rx="1.3342652450369998" ry="1.3342652450369998" fill="#1D3052" />
<rect x="423.0191824077025" y="106.08286628675499" width="17.79020326716" height="17.79020326716" rx="1.3342652450369998" ry="1.3342652450369998" fill="#05A1B0" />
<rect x="438.1408551847885" y="106.08286628675499" width="2.6685304900739997" height="17.79020326716" rx="1.3342652450369998" ry="1.3342652450369998" fill="#0E7695" />
<circle cx="522.4039385125" cy="115.43899452939249" r="8.379836599927499" fill="#1D3052" />
<rect x="513.50883687892" y="88.292663019595" width="17.79020326716" height="17.79020326716" rx="1.3342652450369998" ry="1.3342652450369998" fill="#7AC0C6" />
<rect x="513.50883687892" y="103.41433579668099" width="17.79020326716" height="2.6685304900739997" rx="1.3342652450369998" ry="1.3342652450369998" fill="#05A1B0" />
<rect x="531.7600667551375" y="106.08286628675499" width="17.79020326716" height="17.79020326716" rx="1.3342652450369998" ry="1.3342652450369998" fill="#A6D7DE" />
<rect x="531.7600667551375" y="106.08286628675499" width="2.6685304900739997" height="17.79020326716" rx="1.3342652450369998" ry="1.3342652450369998" fill="#7AC0C6" />
<rect x="513.50883687892" y="124.79512277203" width="17.79020326716" height="17.79020326716" rx="1.3342652450369998" ry="1.3342652450369998" fill="#0E7695" />
<rect x="513.50883687892" y="124.79512277203" width="17.79020326716" height="2.6685304900739997" rx="1.3342652450369998" ry="1.3342652450369998" fill="#1D3052" />
<rect x="495.25760700270246" y="106.08286628675499" width="17.79020326716" height="17.79020326716" rx="1.3342652450369998" ry="1.3342652450369998" fill="#05A1B0" />
<rect x="510.3792797797885" y="106.08286628675499" width="2.6685304900739997" height="17.79020326716" rx="1.3342652450369998" ry="1.3342652450369998" fill="#0E7695" />
<circle cx="594.6423631075" cy="115.43899452939249" r="8.379836599927499" fill="#1D3052" />
<rect x="585.74726147392" y="88.292663019595" width="17.79020326716" height="17.79020326716" rx="1.3342652450369998" ry="1.3342652450369998" fill="#7AC0C6" />
<rect x="585.74726147392" y="103.41433579668099" width="17.79020326716" height="2.6685304900739997" rx="1.3342652450369998" ry="1.3342652450369998" fill="#05A1B0" />
<rect x="603.9984913501376" y="106.08286628675499" width="17.79020326716" height="17.79020326716" rx="1.3342652450369998" ry="1.3342652450369998" fill="#A6D7DE" />
<rect x="603.9984913501376" y="106.08286628675499" width="2.6685304900739997" height="17.79020326716" rx="1.3342652450369998" ry="1.3342652450369998" fill="#7AC0C6" />
<rect x="585.74726147392" y="124.79512277203" width="17.79020326716" height="17.79020326716" rx="1.3342652450369998" ry="1.3342652450369998" fill="#0E7695" />
<rect x="585.74726147392" y="124.79512277203" width="17.79020326716" height="2.6685304900739997" rx="1.3342652450369998" ry="1.3342652450369998" fill="#1D3052" />
<rect x="567.4960315977025" y="106.08286628675499" width="17.79020326716" height="17.79020326716" rx="1.3342652450369998" ry="1.3342652450369998" fill="#05A1B0" />
<rect x="582.6177043747886" y="106.08286628675499" width="2.6685304900739997" height="17.79020326716" rx="1.3342652450369998" ry="1.3342652450369998" fill="#0E7695" />
<circle cx="666.8807877025" cy="115.43899452939249" r="8.379836599927499" fill="#1D3052" />
<rect x="657.98568606892" y="88.292663019595" width="17.79020326716" height="17.79020326716" rx="1.3342652450369998" ry="1.3342652450369998" fill="#7AC0C6" />
<rect x="657.98568606892" y="103.41433579668099" width="17.79020326716" height="2.6685304900739997" rx="1.3342652450369998" ry="1.3342652450369998" fill="#05A1B0" />
<rect x="676.2369159451375" y="106.08286628675499" width="17.79020326716" height="17.79020326716" rx="1.3342652450369998" ry="1.3342652450369998" fill="#A6D7DE" />
<rect x="676.2369159451375" y="106.08286628675499" width="2.6685304900739997" height="17.79020326716" rx="1.3342652450369998" ry="1.3342652450369998" fill="#7AC0C6" />
<rect x="657.98568606892" y="124.79512277203" width="17.79020326716" height="17.79020326716" rx="1.3342652450369998" ry="1.3342652450369998" fill="#0E7695" />
<rect x="657.98568606892" y="124.79512277203" width="17.79020326716" height="2.6685304900739997" rx="1.3342652450369998" ry="1.3342652450369998" fill="#1D3052" />
<rect x="639.7344561927025" y="106.08286628675499" width="17.79020326716" height="17.79020326716" rx="1.3342652450369998" ry="1.3342652450369998" fill="#05A1B0" />
<rect x="654.8561289697885" y="106.08286628675499" width="2.6685304900739997" height="17.79020326716" rx="1.3342652450369998" ry="1.3342652450369998" fill="#0E7695" />
<rect x="16.0" y="178.37552930635" width="64.09260324" height="17.919132" rx="3.5838264000000004" ry="3.5838264000000004" fill="#8673B5" />
<text x="27.265621264" y="187.33509530634998" font-size="8.0636094" text-anchor="end" dominant-baseline="central" font-family="Roboto, sans-serif" fill="white">2</text>
<text x="34.015621264" y="187.33509530634998" font-size="8.0636094" text-anchor="start" dominant-baseline="central" font-family="Roboto, sans-serif" fill="white">RAISE</text>
<circle cx="359.92708932249997" cy="187.7316575489875" r="8.379836599927499" fill="#31164F" />
<rect x="351.03198768891997" y="160.58532603919" width="17.79020326716" height="17.79020326716" rx="1.3342652450369998" ry="1.3342652450369998" fill="#A69DC6" />
<rect x="351.03198768891997" y="175.70699881627598" width="17.79020326716" height="2.6685304900739997" rx="1.3342652450369998" ry="1.3342652450369998" fill="#8673B5" />
<rect x="369.2832175651375" y="178.37552930635" width="17.79020326716" height="17.79020326716" rx="1.3342652450369998" ry="1.3342652450369998" fill="#8673B5" />
<rect x="369.2832175651375" y="178.37552930635" width="2.6685304900739997" height="17.79020326716" rx="1.3342652450369998" ry="1.3342652450369998" fill="#605181" />
<rect x="351.03198768891997" y="197.08778579162498" width="17.79020326716" height="17.79020326716" rx="1.3342652450369998" ry="1.3342652450369998" fill="#605181" />
<rect x="351.03198768891997" y="197.08778579162498" width="17.79020326716" height="2.6685304900739997" rx="1.3342652450369998" ry="1.3342652450369998" fill="#31164F" />
<rect x="332.78075781270246" y="178.37552930635" width="17.79020326716" height="17.79020326716" rx="1.3342652450369998" ry="1.3342652450369998" fill="#CDC5EA" />
<rect x="347.9024305897885" y="178.37552930635" width="2.6685304900739997" height="17.79020326716" rx="1.3342652450369998" ry="1.3342652450369998" fill="#A69DC6" />
<circle cx="287.6886647275" cy="187.7316575489875" r="8.379836599927499" fill="#31164F" />
<rect x="278.79356309392" y="160.58532603919" width="17.79020326716" height="17.79020326716" rx="1.3342652450369998" ry="1.3342652450369998" fill="#A69DC6" />
<rect x="278.79356309392" y="175.70699881627598" width="17.79020326716" height="2.6685304900739997" rx="1.3342652450369998" ry="1.3342652450369998" fill="#8673B5" />
<rect x="297.0447929701375" y="178.37552930635" width="17.79020326716" height="17.79020326716" rx="1.3342652450369998" ry="1.3342652450369998" fill="#8673B5" />
<rect x="297.0447929701375" y="178.37552930635" width="2.6685304900739997" height="17.79020326716" rx="1.3342652450369998" ry="1.3342652450369998" fill="#605181" />
<rect x="278.79356309392" y="197.08778579162498" width="17.79020326716" height="17.79020326716" rx="1.3342652450369998" ry="1.3342652450369998" fill="#605181" />
<rect x="278.79356309392" y="197.08778579162498" width="17.79020326716" height="2.6685304900739997" rx="1.3342652450369998" ry="1.3342652450369998" fill="#31164F" />
<rect x="260.5423332177025" y="178.37552930635" width="17.79020326716" height="17.79020326716" rx="1.3342652450369998" ry="1.3342652450369998" fill="#CDC5EA" />
<rect x="275.6640059947885" y="178.37552930635" width="2.6685304900739997" height="17.79020326716" rx="1.3342652450369998" ry="1.3342652450369998" fill="#A69DC6" />
<circle cx="215.45024013249997" cy="187.7316575489875" r="8.379836599927499" fill="#31164F" />
<rect x="206.55513849891997" y="160.58532603919" width="17.79020326716" height="17.79020326716" rx="1.3342652450369998" ry="1.3342652450369998" fill="#A69DC6" />
<rect x="206.55513849891997" y="175.70699881627598" width="17.79020326716" height="2.6685304900739997" rx="1.3342652450369998" ry="1.3342652450369998" fill="#8673B5" />
<rect x="224.80636837513748" y="178.37552930635" width="17.79020326716" height="17.79020326716" rx="1.3342652450369998" ry="1.3342652450369998" fill="#8673B5" />
<rect x="224.80636837513748" y="178.37552930635" width="2.6685304900739997" height="17.79020326716" rx="1.3342652450369998" ry="1.3342652450369998" fill="#605181" />
<rect x="206.55513849891997" y="197.08778579162498" width="17.79020326716" height="17.79020326716" rx="1.3342652450369998" ry="1.3342652450369998" fill="#605181" />
<rect x="206.55513849891997" y="197.08778579162498" width="17.79020326716" height="2.6685304900739997" rx="1.3342652450369998" ry="1.3342652450369998" fill="#31164F" />
<rect x="188.3039086227025" y="178.37552930635" width="17.79020326716" height="17.79020326716" rx="1.3342652450369998" ry="1.3342652450369998" fill="#CDC5EA" />
<rect x="203.42558139978848" y="178.37552930635" width="2.6685304900739997" height="17.79020326716" rx="1.3342652450369998" ry="1.3342652450369998" fill="#A69DC6" />
<circle cx="143.2118155375" cy="187.7316575489875" r="8.379836599927499" fill="#31164F" />
<rect x="134.31671390392" y="160.58532603919" width="17.79020326716" height="17.79020326716" rx="1.3342652450369998" ry="1.3342652450369998" fill="#A69DC6" />
<rect x="134.31671390392" y="175.70699881627598" width="17.79020326716" height="2.6685304900739997" rx="1.3342652450369998" ry="1.3342652450369998" fill="#8673B5" />
<rect x="152.5679437801375" y="178.37552930635" width="17.79020326716" height="17.79020326716" rx="1.3342652450369998" ry="1.3342652450369998" fill="#8673B5" />
<rect x="152.5679437801375" y="178.37552930635" width="2.6685304900739997" height="17.79020326716" rx="1.3342652450369998" ry="1.3342652450369998" fill="#605181" />
<rect x="134.31671390392" y="197.08778579162498" width="17.79020326716" height="17.79020326716" rx="1.3342652450369998" ry="1.3342652450369998" fill="#605181" />
<rect x="134.31671390392" y="197.08778579162498" width="17.79020326716" height="2.6685304900739997" rx="1.3342652450369998" ry="1.3342652450369998" fill="#31164F" />
<rect x="116.0654840277025" y="178.37552930635" width="17.79020326716" height="17.79020326716" rx="1.3342652450369998" ry="1.3342652450369998" fill="#CDC5EA" />
<rect x="131.1871568047885" y="178.37552930635" width="2.6685304900739997" height="17.79020326716" rx="1.3342652450369998" ry="1.3342652450369998" fill="#A69DC6" />
<circle cx="450.1655139175" cy="187.7316575489875" r="8.379836599927499" fill="#31164F" />
<rect x="441.27041228392" y="160.58532603919" width="17.79020326716" height="17.79020326716" rx="1.3342652450369998" ry="1.3342652450369998" fill="#A69DC6" />
<rect x="441.27041228392" y="175.70699881627598" width="17.79020326716" height="2.6685304900739997" rx="1.3342652450369998" ry="1.3342652450369998" fill="#8673B5" />
<rect x="459.5216421601375" y="178.37552930635" width="17.79020326716" height="17.79020326716" rx="1.3342652450369998" ry="1.3342652450369998" fill="#CDC5EA" />
<rect x="459.5216421601375" y="178.37552930635" width="2.6685304900739997" height="17.79020326716" rx="1.3342652450369998" ry="1.3342652450369998" fill="#A69DC6" />
<rect x="441.27041228392" y="197.08778579162498" width="17.79020326716" height="17.79020326716" rx="1.3342652450369998" ry="1.3342652450369998" fill="#605181" />
<rect x="441.27041228392" y="197.08778579162498" width="17.79020326716" height="2.6685304900739997" rx="1.3342652450369998" ry="1.3342652450369998" fill="#31164F" />
<rect x="423.0191824077025" y="178.37552930635" width="17.79020326716" height="17.79020326716" rx="1.3342652450369998" ry="1.3342652450369998" fill="#8673B5" />
<rect x="438.1408551847885" y="178.37552930635" width="2.6685304900739997" height="17.79020326716" rx="1.3342652450369998" ry="1.3342652450369998" fill="#605181" />
<circle cx="522.4039385125" cy="187.7316575489875" r="8.379836599927499" fill="#31164F" />
<rect x="513.50883687892" y="160.58532603919" width="17.79020326716" height="17.79020326716" rx="1.3342652450369998" ry="1.3342652450369998" fill="#A69DC6" />
<rect x="513.50883687892" y="175.70699881627598" width="17.79020326716" height="2.6685304900739997" rx="1.3342652450369998" ry="1.3342652450369998" fill="#8673B5" />
<rect x="531.7600667551375" y="178.37552930635" width="17.79020326716" height="17.79020326716" rx="1.3342652450369998" ry="1.3342652450369998" fill="#CDC5EA" />
<rect x="531.7600667551375" y="178.37552930635" width="2.6685304900739997" height="17.79020326716" rx="1.3342652450369998" ry="1.3342652450369998" fill="#A69DC6" />
<rect x="513.50883687892" y="197.08778579162498" width="17.79020326716" height="17.79020326716" rx="1.3342652450369998" ry="1.3342652450369998" fill="#605181" />
<rect x="513.50883687892" y="197.08778579162498" width="17.79020326716" height="2.6685304900739997" rx="1.3342652450369998" ry="1.3342652450369998" fill="#31164F" />
<rect x="495.25760700270246" y="178.37552930635" width="17.79020326716" height="17.79020326716" rx="1.3342652450369998" ry="1.3342652450369998" fill="#8673B5" />
<rect x="510.3792797797885" y="178.37552930635" width="2.6685304900739997" height="17.79020326716" rx="1.3342652450369998" ry="1.3342652450369998" fill="#605181" />
<circle cx="594.6423631075" cy="187.7316575489875" r="8.379836599927499" fill="#31164F" />
<rect x="585.74726147392" y="160.58532603919" width="17.79020326716" height="17.79020326716" rx="1.3342652450369998" ry="1.3342652450369998" fill="#A69DC6" />
<rect x="585.74726147392" y="175.70699881627598" width="17.79020326716" height="2.6685304900739997" rx="1.3342652450369998" ry="1.3342652450369998" fill="#8673B5" />
<rect x="603.9984913501376" y="178.37552930635" width="17.79020326716" height="17.79020326716" rx="1.3342652450369998" ry="1.3342652450369998" fill="#CDC5EA" />
<rect x="603.9984913501376" y="178.37552930635" width="2.6685304900739997" height="17.79020326716" rx="1.3342652450369998" ry="1.3342652450369998" fill="#A69DC6" />
<rect x="585.74726147392" y="197.08778579162498" width="17.79020326716" height="17.79020326716" rx="1.3342652450369998" ry="1.3342652450369998" fill="#605181" />
<rect x="585.74726147392" y="197.08778579162498" width="17.79020326716" height="2.6685304900739997" rx="1.3342652450369998" ry="1.3342652450369998" fill="#31164F" />
<rect x="567.4960315977025" y="178.37552930635" width="17.79020326716" height="17.79020326716" rx="1.3342652450369998" ry="1.3342652450369998" fill="#8673B5" />
<rect x="582.6177043747886" y="178.37552930635" width="2.6685304900739997" height="17.79020326716" rx="1.3342652450369998" ry="1.3342652450369998" fill="#605181" />
<circle cx="666.8807877025" cy="187.7316575489875" r="8.379836599927499" fill="#31164F" />
<rect x="657.98568606892" y="160.58532603919" width="17.79020326716" height="17.79020326716" rx="1.3342652450369998" ry="1.3342652450369998" fill="#A69DC6" />
<rect x="657.98568606892" y="175.70699881627598" width="17.79020326716" height="2.6685304900739997" rx="1.3342652450369998" ry="1.3342652450369998" fill="#8673B5" />
<rect x="676.2369159451375" y="178.37552930635" width="17.79020326716" height="17.79020326716" rx="1.3342652450369998" ry="1.3342652450369998" fill="#CDC5EA" />
<rect x="676.2369159451375" y="178.37552930635" width="2.6685304900739997" height="17.79020326716" rx="1.3342652450369998" ry="1.3342652450369998" fill="#A69DC6" />
<rect x="657.98568606892" y="197.08778579162498" width="17.79020326716" height="17.79020326716" rx="1.3342652450369998" ry="1.3342652450369998" fill="#605181" />
<rect x="657.98568606892" y="197.08778579162498" width="17.79020326716" height="2.6685304900739997" rx="1.3342652450369998" ry="1.3342652450369998" fill="#31164F" />
<rect x="639.7344561927025" y="178.37552930635" width="17.79020326716" height="17.79020326716" rx="1.3342652450369998" ry="1.3342652450369998" fill="#8673B5" />
<rect x="654.8561289697885" y="178.37552930635" width="2.6685304900739997" height="17.79020326716" rx="1.3342652450369998" ry="1.3342652450369998" fill="#605181" />
<rect x="16.0" y="237.20241008492977" width="64.09260324" height="17.919132" rx="3.5838264000000004" ry="3.5838264000000004" fill="black" />
<text x="22.75" y="246.16197608492976" font-size="8.0636094" text-anchor="start" dominant-baseline="central" font-family="Roboto, sans-serif" fill="white">THUMBS</text>
<path d="M319.3132629394531 236.28807067871094C319.3132629394531 235.35415649414062 319.69586181640625 234.46102905273438 320.37188720703125 233.81671142578125C321.0479431152344 233.17239379882812 321.9584045410156 232.83314514160156 322.8912353515625 232.87799072265625H337.40081787109375C338.3336486816406 232.83314514160156 339.2441101074219 233.17239379882812 339.920166015625 233.81671142578125C340.59619140625 234.46102905273438 340.978759765625 235.35415649414062 340.978759765625 236.28807067871094L344.2071533203125 303.4382629394531C344.2071533203125 305.2600402832031 342.7767639160156 306.7608642578125 340.95709228515625 306.8483581542969H319.3349609375C317.5152893066406 306.7608642578125 316.08489990234375 305.2600402832031 316.08489990234375 303.4382629394531L317.3558044433594 277.0035705566406L326.5909729003906 276.6005859375C327.4829406738281 276.6005859375 328.336181640625 276.2362060546875 328.9529724121094 275.5918884277344C329.5697937011719 274.94757080078125 329.8966064453125 274.0792541503906 329.85772705078125 273.1881408691406V263.9239501953125C329.85772705078125 262.1180419921875 328.3937683105469 260.6540832519531 326.5878601074219 260.6540832519531H318.1418151855469ZM322.4833984375 240.9347381591797 322.0379943847656 252.6265106201172C322.0379943847656 254.27999877929688 323.3450012207031 255.6377410888672 324.997314453125 255.70068359375H335.29473876953125C336.947021484375 255.6377410888672 338.2540588378906 254.27999877929688 338.2540588378906 252.6265106201172L337.80865478515625 240.9347381591797C337.80865478515625 240.0985107421875 337.4682312011719 239.29830932617188 336.86578369140625 238.71836853027344C336.2633361816406 238.138427734375 335.45074462890625 237.82872009277344 334.6151123046875 237.8605499267578H325.67694091796875C324.84130859375 237.82872009277344 324.0287170410156 238.138427734375 323.42626953125 238.71836853027344C322.8238220214844 239.29830932617188 322.4833984375 240.0985107421875 322.4833984375 240.9347381591797Z" fill="#037065" />
<path fill="#6F768B" d="M 273.60011203436494 237.90354793843775 A 2.14261152888958 2.14261152888958 0 0 1 275.7427235632545 235.76093640954818 L 314.30973108326697 235.76093640954818 A 2.14261152888958 2.14261152888958 0 0 1 316.3494512848851 237.90107601679412 L 315.44161048366414 256.7841646821896 A 2.14261152888958 2.14261152888958 0 0 1 313.1961076275031 258.92430428943555 L 275.7427235632545 258.92430428943555 A 2.14261152888958 2.14261152888958 0 0 1 273.60011203436494 256.781692760546 Z" />
<path fill="#053F3A" d="M 286.3707454499272 263.92394193194326 A 2.1166902917445602 2.1166902917445602 0 0 1 288.48743574167173 261.80725164019873 L 326.5878609930739 261.80725164019873 A 2.1166902917445602 2.1166902917445602 0 0 1 328.7045512848184 263.92394193194326 L 328.7045512848184 273.2373792156194 A 2.1166902917445602 2.1166902917445602 0 0 1 326.5898733487901 275.44634636275424 L 288.4854233859555 277.10908599749615 A 2.1166902917445602 2.1166902917445602 0 0 1 286.3707454499272 275.08467256114193 Z" />
<path fill="#6F768B" d="M 343.9490046756608 238.03432165182775 A 2.2760110663920003 2.2760110663920003 0 0 1 346.1157183746355 235.76093640954818 L 387.0839175696915 235.76093640954818 A 2.2760110663920003 2.2760110663920003 0 0 1 389.3599286360835 238.03694747594017 L 389.3599286360835 256.8286285882023 A 2.2760110663920003 2.2760110663920003 0 0 1 387.0839175696915 259.10463965459434 L 347.2380117998781 259.10463965459434 A 2.2760110663920003 2.2760110663920003 0 0 1 344.8527033660688 256.83125441231476 Z" />
<path fill="#6F768B" d="M 345.20580268764263 264.17572030105157 A 2.1906606514023 2.1906606514023 0 0 1 347.2912646229058 261.9875870053575 L 386.7231563481472 261.9875870053575 A 2.1906606514023 2.1906606514023 0 0 1 388.9138169995495 264.1782476567598 L 388.9138169995495 283.2264520374023 A 2.1906606514023 2.1906606514023 0 0 1 386.7231563481472 285.4171126888046 L 348.4176841269177 285.4171126888046 A 2.1906606514023 2.1906606514023 0 0 1 346.1218247593763 283.22897939311054 Z" />
<path fill="#053F3A" d="M 323.63739089559 240.93557088625016 A 1.9232293511012402 1.9232293511012402 0 0 1 325.63383302107786 239.01373555860008 L 334.65821689932216 239.01373555860008 A 1.9232293511012402 1.9232293511012402 0 0 1 336.65465902481003 240.93557088625016 L 337.09999635329865 252.6256757590754 A 1.9232293511012402 1.9232293511012402 0 0 1 335.2499797765841 254.54751108672548 L 325.0420701438159 254.54751108672548 A 1.9232293511012402 1.9232293511012402 0 0 1 323.19205356710137 252.6256757590754 Z" />
<path d="M469.11383056640625 236.28807067871094C469.11383056640625 235.35415649414062 469.49639892578125 234.46102905273438 470.1724548339844 233.81671142578125C470.8484802246094 233.17239379882812 471.75897216796875 232.83314514160156 472.6918029785156 232.87799072265625H487.20135498046875C488.1341857910156 232.83314514160156 489.044677734375 233.17239379882812 489.720703125 233.81671142578125C490.3967590332031 234.46102905273438 490.7793273925781 235.35415649414062 490.7793273925781 236.28807067871094L491.9507751464844 260.6540832519531H483.5047302246094C481.6988525390625 260.6540832519531 480.23486328125 262.1180419921875 480.23486328125 263.9239501953125V273.1881408691406C480.19598388671875 274.0792541503906 480.5228271484375 274.94757080078125 481.1396179199219 275.5918884277344C481.7564392089844 276.2362060546875 482.60968017578125 276.6005859375 483.50164794921875 276.6005859375L492.7367858886719 277.0035705566406L494.0076904296875 303.4382629394531C494.0076904296875 305.2600402832031 492.5773010253906 306.7608642578125 490.75762939453125 306.8483581542969H469.1355285644531C467.31585693359375 306.7608642578125 465.8854675292969 305.2600402832031 465.8854675292969 303.4382629394531ZM472.2839660644531 240.9347381591797 471.83856201171875 252.6265106201172C471.83856201171875 254.27999877929688 473.14556884765625 255.6377410888672 474.7978515625 255.70068359375H485.0953063964844C486.7475891113281 255.6377410888672 488.0545959472656 254.27999877929688 488.0545959472656 252.6265106201172L487.60919189453125 240.9347381591797C487.60919189453125 240.0985107421875 487.2687683105469 239.29830932617188 486.66632080078125 238.71836853027344C486.0638732910156 238.138427734375 485.2513122558594 237.82872009277344 484.4156799316406 237.8605499267578H475.47747802734375C474.641845703125 237.82872009277344 473.82928466796875 238.138427734375 473.2268371582031 238.71836853027344C472.6243591308594 239.29830932617188 472.2839660644531 240.0985107421875 472.2839660644531 240.9347381591797Z" fill="#037065" />
<path fill="#6F768B" d="M 493.7431519551149 237.90107601679412 A 2.14261152888958 2.14261152888958 0 0 1 495.78287215673305 235.76093640954818 L 534.3498796767456 235.76093640954818 A 2.14261152888958 2.14261152888958 0 0 1 536.4924912056351 237.90354793843775 L 536.4924912056351 256.781692760546 A 2.14261152888958 2.14261152888958 0 0 1 534.3498796767456 258.92430428943555 L 496.8964956124969 258.92430428943555 A 2.14261152888958 2.14261152888958 0 0 1 494.6509927563359 256.7841646821896 Z" />
<path fill="#053F3A" d="M 481.3880519551816 263.92394193194326 A 2.1166902917445602 2.1166902917445602 0 0 1 483.5047422469261 261.80725164019873 L 521.6051674983282 261.80725164019873 A 2.1166902917445602 2.1166902917445602 0 0 1 523.7218577900728 263.92394193194326 L 523.7218577900728 275.08467256114193 A 2.1166902917445602 2.1166902917445602 0 0 1 521.6071798540445 277.10908599749615 L 483.5027298912099 275.44634636275424 A 2.1166902917445602 2.1166902917445602 0 0 1 481.3880519551816 273.2373792156194 Z" />
<path fill="#6F768B" d="M 420.73267460391656 238.03694747594017 A 2.2760110663920003 2.2760110663920003 0 0 1 423.0086856703086 235.76093640954818 L 463.9768848653646 235.76093640954818 A 2.2760110663920003 2.2760110663920003 0 0 1 466.1435985643393 238.03432165182775 L 465.2398998739313 256.83125441231476 A 2.2760110663920003 2.2760110663920003 0 0 1 462.85459144012196 259.10463965459434 L 423.0086856703086 259.10463965459434 A 2.2760110663920003 2.2760110663920003 0 0 1 420.73267460391656 256.8286285882023 Z" />
<path fill="#6F768B" d="M 421.1787862404505 264.1782476567598 A 2.1906606514023 2.1906606514023 0 0 1 423.3694468918528 261.9875870053575 L 462.8013386170942 261.9875870053575 A 2.1906606514023 2.1906606514023 0 0 1 464.8868005523574 264.17572030105157 L 463.9707784806237 283.22897939311054 A 2.1906606514023 2.1906606514023 0 0 1 461.6749191130823 285.4171126888046 L 423.3694468918528 285.4171126888046 A 2.1906606514023 2.1906606514023 0 0 1 421.1787862404505 283.2264520374023 Z" />
<path fill="#053F3A" d="M 473.43794421519 240.93557088625016 A 1.9232293511012402 1.9232293511012402 0 0 1 475.43438634067786 239.01373555860008 L 484.45877021892215 239.01373555860008 A 1.9232293511012402 1.9232293511012402 0 0 1 486.45521234441003 240.93557088625016 L 486.90054967289865 252.6256757590754 A 1.9232293511012402 1.9232293511012402 0 0 1 485.0505330961841 254.54751108672548 L 474.8426234634159 254.54751108672548 A 1.9232293511012402 1.9232293511012402 0 0 1 472.99260688670137 252.6256757590754 Z" />
</svg>