<?xml version="1.0" encoding="UTF-8"?>
<svg xmlns="http://www.w3.org/2000/svg" xmlns:xlink="http://www.w3.org/1999/xlink"
     width="710.45" height="323.298348716525" viewBox="0 0 710.45 323.298348716525">
<defs>
</defs>
<rect x="0.5" y="0.5" width="709.45" height="322.298348716525" rx="18.0" ry="18.0" fill="#FFFFFF" stroke="#D4D8DD" stroke-width="1.0" />
<text x="22.75" y="124.1478410449" font-size="8.0636094" text-anchor="start" dominant-baseline="text-after-edge" font-family="Roboto, sans-serif" fill="#6F768B">LAYERS</text>
<rect x="16.0" y="125.7605629249" width="64.09260324" height="17.919132" rx="3.5838264000000004" ry="3.5838264000000004" fill="#037065" />
<text x="27.265621264" y="134.7201289249" font-size="8.0636094" text-anchor="end" dominant-baseline="central" font-family="Roboto, sans-serif" fill="white">0</text>
<text x="34.015621264" y="134.7201289249" font-size="8.0636094" text-anchor="start" dominant-baseline="central" font-family="Roboto, sans-serif" fill="white">BASE</text>
<circle cx="359.92708932249997" cy="135.1166911675375" r="8.379836599927499" fill="#053F3A" />
<rect x="351.03198768891997" y="107.97035965774" width="17.79020326716" height="17.79020326716" rx="1.3342652450369998" ry="1.3342652450369998" fill="#86BE81" />
<rect x="351.03198768891997" y="123.092032434826" width="17.79020326716" height="2.6685304900739997" rx="1.3342652450369998" ry="1.3342652450369998" fill="#079E7C" />
<rect x="369.2832175651375" y="125.7605629249" width="17.79020326716" height="17.79020326716" rx="1.3342652450369998" ry="1.3342652450369998" fill="#079E7C" />
<rect x="369.2832175651375" y="125.7605629249" width="2.6685304900739997" height="17.79020326716" rx="1.3342652450369998" ry="1.3342652450369998" fill="#037065" />
<rect x="351.03198768891997" y="144.472819410175" width="17.79020326716" height="17.79020326716" rx="1.3342652450369998" ry="1.3342652450369998" fill="#037065" />
<rect x="351.03198768891997" y="144.472819410175" width="17.79020326716" height="2.6685304900739997" rx="1.3342652450369998" ry="1.3342652450369998" fill="#053F3A" />
<rect x="332.78075781270246" y="125.7605629249" width="17.79020326716" height="17.79020326716" rx="1.3342652450369998" ry="1.3342652450369998" fill="#BDDCA7" />
<rect x="347.9024305897885" y="125.7605629249" width="2.6685304900739997" height="17.79020326716" rx="1.3342652450369998" ry="1.3342652450369998" fill="#86BE81" />
<circle cx="287.6886647275" cy="135.1166911675375" r="8.379836599927499" fill="#053F3A" />
<rect x="278.79356309392" y="107.97035965774" width="17.79020326716" height="17.79020326716" rx="1.3342652450369998" ry="1.3342652450369998" fill="#86BE81" />
<rect x="278.79356309392" y="123.092032434826" width="17.79020326716" height="2.6685304900739997" rx="1.3342652450369998" ry="1.3342652450369998" fill="#079E7C" />
<rect x="297.0447929701375" y="125.7605629249" width="17.79020326716" height="17.79020326716" rx="1.3342652450369998" ry="1.3342652450369998" fill="#079E7C" />
<rect x="297.0447929701375" y="125.7605629249" width="2.6685304900739997" height="17.79020326716" rx="1.3342652450369998" ry="1.3342652450369998" fill="#037065" />
<rect x="278.79356309392" y="144.472819410175" width="17.79020326716" height="17.79020326716" rx="1.3342652450369998" ry="1.3342652450369998" fill="#037065" />
<rect x="278.79356309392" y="144.472819410175" width="17.79020326716" height="2.6685304900739997" rx="1.3342652450369998" ry="1.3342652450369998" fill="#053F3A" />
<rect x="260.5423332177025" y="125.7605629249" width="17.79020326716" height="17.79020326716" rx="1.3342652450369998" ry="1.3342652450369998" fill="#BDDCA7" />
<rect x="275.6640059947885" y="125.7605629249" width="2.6685304900739997" height="17.79020326716" rx="1.3342652450369998" ry="1.3342652450369998" fill="#86BE81" />
<circle cx="215.45024013249997" cy="135.1166911675375" r="8.379836599927499" fill="#053F3A" />
<rect x="206.55513849891997" y="107.97035965774" width="17.79020326716" height="17.79020326716" rx="1.3342652450369998" ry="1.3342652450369998" fill="#86BE81" />
<rect x="206.55513849891997" y="123.092032434826" width="17.79020326716" height="2.6685304900739997" rx="1.3342652450369998" ry="1.3342652450369998" fill="#079E7C" />
<rect x="224.80636837513748" y="125.7605629249" width="17.79020326716" height="17.79020326716" rx="1.3342652450369998" ry="1.3342652450369998" fill="#079E7C" />
<rect x="224.80636837513748" y="125.7605629249" width="2.6685304900739997" height="17.79020326716" rx="1.3342652450369998" ry="1.3342652450369998" fill="#037065" />
<rect x="206.55513849891997" y="144.472819410175" width="17.79020326716" height="17.79020326716" rx="1.3342652450369998" ry="1.3342652450369998" fill="#037065" />
<rect x="206.55513849891997" y="144.472819410175" width="17.79020326716" height="2.6685304900739997" rx="1.3342652450369998" ry="1.3342652450369998" fill="#053F3A" />
<rect x="188.3039086227025" y="125.7605629249" width="17.79020326716" height="17.79020326716" rx="1.3342652450369998" ry="1.3342652450369998" fill="#BDDCA7" />
<rect x="203.42558139978848" y="125.7605629249" width="2.6685304900739997" height="17.79020326716" rx="1.3342652450369998" ry="1.3342652450369998" fill="#86BE81" />
<circle cx="143.2118155375" cy="135.1166911675375" r="8.379836599927499" fill="#053F3A" />
<rect x="134.31671390392" y="107.97035965774" width="17.79020326716" height="17.79020326716" rx="1.3342652450369998" ry="1.3342652450369998" fill="#86BE81" />
<rect x="134.31671390392" y="123.092032434826" width="17.79020326716" height="2.6685304900739997" rx="1.3342652450369998" ry="1.3342652450369998" fill="#079E7C" />
<rect x="152.5679437801375" y="125.7605629249" width="17.79020326716" height="17.79020326716" rx="1.3342652450369998" ry="1.3342652450369998" fill="#079E7C" />
<rect x="152.5679437801375" y="125.7605629249" width="2.6685304900739997" height="17.79020326716" rx="1.3342652450369998" ry="1.3342652450369998" fill="#037065" />
<rect x="134.31671390392" y="144.472819410175" width="17.79020326716" height="17.79020326716" rx="1.3342652450369998" ry="1.3342652450369998" fill="#037065" />
<rect x="134.31671390392" y="144.472819410175" width="17.79020326716" height="2.6685304900739997" rx="1.3342652450369998" ry="1.3342652450369998" fill="#053F3A" />
<rect x="116.0654840277025" y="125.7605629249" width="17.79020326716" height="17.79020326716" rx="1.3342652450369998" ry="1.3342652450369998" fill="#BDDCA7" />
<rect x="131.1871568047885" y="125.7605629249" width="2.6685304900739997" height="17.79020326716" rx="1.3342652450369998" ry="1.3342652450369998" fill="#86BE81" />
<circle cx="450.1655139175" cy="135.1166911675375" r="8.379836599927499" fill="#053F3A" />
<rect x="441.27041228392" y="107.97035965774" width="17.79020326716" height="17.79020326716" rx="1.3342652450369998" ry="1.3342652450369998" fill="#86BE81" />
<rect x="441.27041228392" y="123.092032434826" width="17.79020326716" height="2.6685304900739997" rx="1.3342652450369998" ry="1.3342652450369998" fill="#079E7C" />
<rect x="459.5216421601375" y="125.7605629249" width="17.79020326716" height="17.79020326716" rx="1.3342652450369998" ry="1.3342652450369998" fill="#BDDCA7" />
<rect x="459.5216421601375" y="125.7605629249" width="2.6685304900739997" height="17.79020326716" rx="1.3342652450369998" ry="1.3342652450369998" fill="#86BE81" />
<rect x="441.27041228392" y="144.472819410175" width="17.79020326716" height="17.79020326716" rx="1.3342652450369998" ry="1.3342652450369998" fill="#037065" />
<rect x="441.27041228392" y="144.472819410175" width="17.79020326716" height="2.6685304900739997" rx="1.3342652450369998" ry="1.3342652450369998" fill="#053F3A" />
<rect x="423.0191824077025" y="125.7605629249" width="17.79020326716" height="17.79020326716" rx="1.3342652450369998" ry="1.3342652450369998" fill="#079E7C" />
<rect x="438.1408551847885" y="125.7605629249" width="2.6685304900739997" height="17.79020326716" rx="1.3342652450369998" ry="1.3342652450369998" fill="#037065" />
<circle cx="522.4039385125" cy="135.1166911675375" r="8.379836599927499" fill="#053F3A" />
<rect x="513.50883687892" y="107.97035965774" width="17.79020326716" height="17.79020326716" rx="1.3342652450369998" ry="1.3342652450369998" fill="#86BE81" />
<rect x="513.50883687892" y="123.092032434826" width="17.79020326716" height="2.6685304900739997" rx="1.3342652450369998" ry="1.3342652450369998" fill="#079E7C" />
<rect x="531.7600667551375" y="125.7605629249" width="17.79020326716" height="17.79020326716" rx="1.3342652450369998" ry="1.3342652450369998" fill="#BDDCA7" />
<rect x="531.7600667551375" y="125.7605629249" width="2.6685304900739997" height="17.79020326716" rx="1.3342652450369998" ry="1.3342652450369998" fill="#86BE81" />
<rect x="513.50883687892" y="144.472819410175" width="17.79020326716" height="17.79020326716" rx="1.3342652450369998" ry="1.3342652450369998" fill="#037065" />
<rect x="513.50883687892" y="144.472819410175" width="17.79020326716" height="2.6685304900739997" rx="1.3342652450369998" ry="1.3342652450369998" fill="#053F3A" />
<rect x="495.25760700270246" y="125.7605629249" width="17.79020326716" height="17.79020326716" rx="1.3342652450369998" ry="1.3342652450369998" fill="#079E7C" />
<rect x="510.3792797797885" y="125.7605629249" width="2.6685304900739997" height="17.79020326716" rx="1.3342652450369998" ry="1.3342652450369998" fill="#037065" />
<circle cx="594.6423631075" cy="135.1166911675375" r="8.379836599927499" fill="#053F3A" />
<rect x="585.74726147392" y="107.97035965774" width="17.79020326716" height="17.79020326716" rx="1.3342652450369998" ry="1.3342652450369998" fill="#86BE81" />
<rect x="585.74726147392" y="123.092032434826" width="17.79020326716" height="2.6685304900739997" rx="1.3342652450369998" ry="1.3342652450369998" fill="#079E7C" />
<rect x="603.9984913501376" y="125.7605629249" width="17.79020326716" height="17.79020326716" rx="1.3342652450369998" ry="1.3342652450369998" fill="#BDDCA7" />
<rect x="603.9984913501376" y="125.7605629249" width="2.6685304900739997" height="17.79020326716" rx="1.3342652450369998" ry="1.3342652450369998" fill="#86BE81" />
<rect x="585.74726147392" y="144.472819410175" width="17.79020326716" height="17.79020326716" rx="1.3342652450369998" ry="1.3342652450369998" fill="#037065" />
<rect x="585.74726147392" y="144.472819410175" width="17.79020326716" height="2.6685304900739997" rx="1.3342652450369998" ry="1.3342652450369998" fill="#053F3A" />
<rect x="567.4960315977025" y="125.7605629249" width="17.79020326716" height="17.79020326716" rx="1.3342652450369998" ry="1.3342652450369998" fill="#079E7C" />
<rect x="582.6177043747886" y="125.7605629249" width="2.6685304900739997" height="17.79020326716" rx="1.3342652450369998" ry="1.3342652450369998" fill="#037065" />
<circle cx="666.8807877025" cy="135.1166911675375" r="8.379836599927499" fill="#053F3A" />
<rect x="657.98568606892" y="107.97035965774" width="17.79020326716" height="17.79020326716" rx="1.3342652450369998" ry="1.3342652450369998" fill="#86BE81" />
<rect x="657.98568606892" y="123.092032434826" width="17.79020326716" height="2.6685304900739997" rx="1.3342652450369998" ry="1.3342652450369998" fill="#079E7C" />
<rect x="676.2369159451375" y="125.7605629249" width="17.79020326716" height="17.79020326716" rx="1.3342652450369998" ry="1.3342652450369998" fill="#BDDCA7" />
<rect x="676.2369159451375" y="125.7605629249" width="2.6685304900739997" height="17.79020326716" rx="1.3342652450369998" ry="1.3342652450369998" fill="#86BE81" />
<rect x="657.98568606892" y="144.472819410175" width="17.79020326716" height="17.79020326716" rx="1.3342652450369998" ry="1.3342652450369998" fill="#037065" />
<rect x="657.98568606892" y="144.472819410175" width="17.79020326716" height="2.6685304900739997" rx="1.3342652450369998" ry="1.3342652450369998" fill="#053F3A" />
<rect x="639.7344561927025" y="125.7605629249" width="17.79020326716" height="17.79020326716" rx="1.3342652450369998" ry="1.3342652450369998" fill="#079E7C" />
<rect x="654.8561289697885" y="125.7605629249" width="2.6685304900739997" height="17.79020326716" rx="1.3342652450369998" ry="1.3342652450369998" fill="#037065" />
<rect x="16.0" y="198.053225944495" width="64.09260324" height="17.919132" rx="3.5838264000000004" ry="3.5838264000000004" fill="#0E7695" />
<text x="27.265621264" y="207.012791944495" font-size="8.0636094" text-anchor="end" dominant-baseline="central" font-family="Roboto, sans-serif" fill="white">1</text>
<text x="34.015621264" y="207.012791944495" font-size="8.0636094" text-anchor="start" dominant-baseline="central" font-family="Roboto, sans-serif" fill="white">LOWER</text>
<circle cx="359.92708932249997" cy="207.40935418713252" r="8.379836599927499" fill="#1D3052" />
<rect x="351.03198768891997" y="180.26302267733502" width="17.79020326716" height="17.79020326716" rx="1.3342652450369998" ry="1.3342652450369998" fill="#7AC0C6" />
<rect x="351.03198768891997" y="195.384695454421" width="17.79020326716" height="2.6685304900739997" rx="1.3342652450369998" ry="1.3342652450369998" fill="#05A1B0" />
<rect x="369.2832175651375" y="198.053225944495" width="17.79020326716" height="17.79020326716" rx="1.3342652450369998" ry="1.3342652450369998" fill="#05A1B0" />
<rect x="369.2832175651375" y="198.053225944495" width="2.6685304900739997" height="17.79020326716" rx="1.3342652450369998" ry="1.3342652450369998" fill="#0E7695" />
<rect x="351.03198768891997" y="216.76548242977" width="17.79020326716" height="17.79020326716" rx="1.3342652450369998" ry="1.3342652450369998" fill="#0E7695" />
<rect x="351.03198768891997" y="216.76548242977" width="17.79020326716" height="2.6685304900739997" rx="1.3342652450369998" ry="1.3342652450369998" fill="#1D3052" />
<rect x="332.78075781270246" y="198.053225944495" width="17.79020326716" height="17.79020326716" rx="1.3342652450369998" ry="1.3342652450369998" fill="#A6D7DE" />
<rect x="347.9024305897885" y="198.053225944495" width="2.6685304900739997" height="17.79020326716" rx="1.3342652450369998" ry="1.3342652450369998" fill="#7AC0C6" />
<circle cx="287.6886647275" cy="207.40935418713252" r="8.379836599927499" fill="#1D3052" />
<rect x="278.79356309392" y="180.26302267733502" width="17.79020326716" height="17.79020326716" rx="1.3342652450369998" ry="1.3342652450369998" fill="#7AC0C6" />
<rect x="278.79356309392" y="195.384695454421" width="17.79020326716" height="2.6685304900739997" rx="1.3342652450369998" ry="1.3342652450369998" fill="#05A1B0" />
<rect x="297.0447929701375" y="198.053225944495" width="17.79020326716" height="17.79020326716" rx="1.3342652450369998" ry="1.3342652450369998" fill="#05A1B0" />
<rect x="297.0447929701375" y="198.053225944495" width="2.6685304900739997" height="17.79020326716" rx="1.3342652450369998" ry="1.3342652450369998" fill="#0E7695" />
<rect x="278.79356309392" y="216.76548242977" width="17.79020326716" height="17.79020326716" rx="1.3342652450369998" ry="1.3342652450369998" fill="#0E7695" />
<rect x="278.79356309392" y="216.76548242977" width="17.79020326716" height="2.6685304900739997" rx="1.3342652450369998" ry="1.3342652450369998" fill="#1D3052" />
<rect x="260.5423332177025" y="198.053225944495" width="17.79020326716" height="17.79020326716" rx="1.3342652450369998" ry="1.3342652450369998" fill="#A6D7DE" />
<rect x="275.6640059947885" y="198.053225944495" width="2.6685304900739997" height="17.79020326716" rx="1.3342652450369998" ry="1.3342652450369998" fill="#7AC0C6" />
<circle cx="215.45024013249997" cy="207.40935418713252" r="8.379836599927499" fill="#1D3052" />
<rect x="206.55513849891997" y="180.26302267733502" width="17.79020326716" height="17.79020326716" rx="1.3342652450369998" ry="1.3342652450369998" fill="#7AC0C6" />
<rect x="206.55513849891997" y="195.384695454421" width="17.79020326716" height="2.6685304900739997" rx="1.3342652450369998" ry="1.3342652450369998" fill="#05A1B0" />
<rect x="224.80636837513748" y="198.053225944495" width="17.79020326716" height="17.79020326716" rx="1.3342652450369998" ry="1.3342652450369998" fill="#05A1B0" />
<rect x="224.80636837513748" y="198.053225944495" width="2.6685304900739997" height="17.79020326716" rx="1.3342652450369998" ry="1.3342652450369998" fill="#0E7695" />
<rect x="206.55513849891997" y="216.76548242977" width="17.79020326716" height="17.79020326716" rx="1.3342652450369998" ry="1.3342652450369998" fill="#0E7695" />
<rect x="206.55513849891997" y="216.76548242977" width="17.79020326716" height="2.6685304900739997" rx="1.3342652450369998" ry="1.3342652450369998" fill="#1D3052" />
<rect x="188.3039086227025" y="198.053225944495" width="17.79020326716" height="17.79020326716" rx="1.3342652450369998" ry="1.3342652450369998" fill="#A6D7DE" />
<rect x="203.42558139978848" y="198.053225944495" width="2.6685304900739997" height="17.79020326716" rx="1.3342652450369998" ry="1.3342652450369998" fill="#7AC0C6" />
<circle cx="143.2118155375" cy="207.40935418713252" r="8.379836599927499" fill="#1D3052" />
<rect x="134.31671390392" y="180.26302267733502" width="17.79020326716" height="17.79020326716" rx="1.3342652450369998" ry="1.3342652450369998" fill="#7AC0C6" />
<rect x="134.31671390392" y="195.384695454421" width="17.79020326716" height="2.6685304900739997" rx="1.3342652450369998" ry="1.3342652450369998" fill="#05A1B0" />
<rect x="152.5679437801375" y="198.053225944495" width="17.79020326716" height="17.79020326716" rx="1.3342652450369998" ry="1.3342652450369998" fill="#05A1B0" />
<rect x="152.5679437801375" y="198.053225944495" width="2.6685304900739997" height="17.79020326716" rx="1.3342652450369998" ry="1.3342652450369998" fill="#0E7695" />
<rect x="134.31671390392" y="216.76548242977" width="17.79020326716" height="17.79020326716" rx="1.3342652450369998" ry="1.3342652450369998" fill="#0E7695" />
<rect x="134.31671390392" y="216.76548242977" width="17.79020326716" height="2.6685304900739997" rx="1.3342652450369998" ry="1.3342652450369998" fill="#1D3052" />
<rect x="116.0654840277025" y="198.053225944495" width="17.79020326716" height="17.79020326716" rx="1.3342652450369998" ry="1.3342652450369998" fill="#A6D7DE" />
<rect x="131.1871568047885" y="198.053225944495" width="2.6685304900739997" height="17.79020326716" rx="1.3342652450369998" ry="1.3342652450369998" fill="#7AC0C6" />
<circle cx="450.1655139175" cy="207.40935418713252" r="8.379836599927499" fill="#1D3052" />
<rect x="441.27041228392" y="180.26302267733502" width="17.79020326716" height="17.79020326716" rx="1.3342652450369998" ry="1.3342652450369998" fill="#7AC0C6" />
<rect x="441.27041228392" y="195.384695454421" width="17.79020326716" height="2.6685304900739997" rx="1.3342652450369998" ry="1.3342652450369998" fill="#05A1B0" />
<rect x="459.5216421601375" y="198.053225944495" width="17.79020326716" height="17.79020326716" rx="1.3342652450369998" ry="1.3342652450369998" fill="#A6D7DE" />
<rect x="459.5216421601375" y="198.053225944495" width="2.6685304900739997" height="17.79020326716" rx="1.3342652450369998" ry="1.3342652450369998" fill="#7AC0C6" />
<rect x="441.27041228392" y="216.76548242977" width="17.79020326716" height="17.79020326716" rx="1.3342652450369998" ry="1.3342652450369998" fill="#0E7695" />
<rect x="441.27041228392" y="216.76548242977" width="17.79020326716" height="2.6685304900739997" rx="1.3342652450369998" ry="1.3342652450369998" fill="#1D3052" />
<rect x="423.0191824077025" y="198.053225944495" width="17.79020326716" height="17.79020326716" rx="1.3342652450369998" ry="1.3342652450369998" fill="#05A1B0" />
<rect x="438.1408551847885" y="198.053225944495" width="2.6685304900739997" height="17.79020326716" rx="1.3342652450369998" ry="1.3342652450369998" fill="#0E7695" />
<circle cx="522.4039385125" cy="207.40935418713252" r="8.379836599927499" fill="#1D3052" />
<rect x="513.50883687892" y="180.26302267733502" width="17.79020326716" height="17.79020326716" rx="1.3342652450369998" ry="1.3342652450369998" fill="#7AC0C6" />
<rect x="513.50883687892" y="195.384695454421" width="17.79020326716" height="2.6685304900739997" rx="1.3342652450369998" ry="1.3342652450369998" fill="#05A1B0" />
<rect x="531.7600667551375" y="198.053225944495" width="17.79020326716" height="17.79020326716" rx="1.3342652450369998" ry="1.3342652450369998" fill="#A6D7DE" />
<rect x="531.7600667551375" y="198.053225944495" width="2.6685304900739997" height="17.79020326716" rx="1.3342652450369998" ry="1.3342652450369998" fill="#7AC0C6" />
<rect x="513.50883687892" y="216.76548242977" width="17.79020326716" height="17.79020326716" rx="1.3342652450369998" ry="1.3342652450369998" fill="#0E7695" />
<rect x="513.50883687892" y="216.76548242977" width="17.79020326716" height="2.6685304900739997" rx="1.3342652450369998" ry="1.3342652450369998" fill="#1D3052" />
<rect x="495.25760700270246" y="198.053225944495" width="17.79020326716" height="17.79020326716" rx="1.3342652450369998" ry="1.3342652450369998" fill="#05A1B0" />
<rect x="510.3792797797885" y="198.053225944495" width="2.6685304900739997" height="17.79020326716" rx="1.3342652450369998" ry="1.3342652450369998" fill="#0E7695" />
<circle cx="594.6423631075" cy="207.40935418713252" r="8.379836599927499" fill="#1D3052" />
<rect x="585.74726147392" y="180.26302267733502" width="17.79020326716" height="17.79020326716" rx="1.3342652450369998" ry="1.3342652450369998" fill="#7AC0C6" />
<rect x="585.74726147392" y="195.384695454421" width="17.79020326716" height="2.6685304900739997" rx="1.3342652450369998" ry="1.3342652450369998" fill="#05A1B0" />
<rect x="603.9984913501376" y="198.053225944495" width="17.79020326716" height="17.79020326716" rx="1.3342652450369998" ry="1.3342652450369998" fill="#A6D7DE" />
<rect x="603.9984913501376" y="198.053225944495" width="2.6685304900739997" height="17.79020326716" rx="1.3342652450369998" ry="1.3342652450369998" fill="#7AC0C6" />
<rect x="585.74726147392" y="216.76548242977" width="17.79020326716" height="17.79020326716" rx="1.3342652450369998" ry="1.3342652450369998" fill="#0E7695" />
<rect x="585.74726147392" y="216.76548242977" width="17.79020326716" height="2.6685304900739997" rx="1.3342652450369998" ry="1.3342652450369998" fill="#1D3052" />
<rect x="567.4960315977025" y="198.053225944495" width="17.79020326716" height="17.79020326716" rx="1.3342652450369998" ry="1.3342652450369998" fill="#05A1B0" />
<rect x="582.6177043747886" y="198.053225944495" width="2.6685304900739997" height="17.79020326716" rx="1.3342652450369998" ry="1.3342652450369998" fill="#0E7695" />
<circle cx="666.8807877025" cy="207.40935418713252" r="8.379836599927499" fill="#1D3052" />
<rect x="657.98568606892" y="180.26302267733502" width="17.79020326716" height="17.79020326716" rx="1.3342652450369998" ry="1.3342652450369998" fill="#7AC0C6" />
<rect x="657.98568606892" y="195.384695454421" width="17.79020326716" height="2.6685304900739997" rx="1.3342652450369998" ry="1.3342652450369998" fill="#05A1B0" />
<rect x="676.2369159451375" y="198.053225944495" width="17.79020326716" height="17.79020326716" rx="1.3342652450369998" ry="1.3342652450369998" fill="#A6D7DE" />
<rect x="676.2369159451375" y="198.053225944495" width="2.6685304900739997" height="17.79020326716" rx="1.3342652450369998" ry="1.3342652450369998" fill="#7AC0C6" />
<rect x="657.98568606892" y="216.76548242977" width="17.79020326716" height="17.79020326716" rx="1.3342652450369998" ry="1.3342652450369998" fill="#0E7695" />
<rect x="657.98568606892" y="216.76548242977" width="17.79020326716" height="2.6685304900739997" rx="1.3342652450369998" ry="1.3342652450369998" fill="#1D3052" />
<rect x="639.7344561927025" y="198.053225944495" width="17.79020326716" height="17.79020326716" rx="1.3342652450369998" ry="1.3342652450369998" fill="#05A1B0" />
<rect x="654.8561289697885" y="198.053225944495" width="2.6685304900739997" height="17.79020326716" rx="1.3342652450369998" ry="1.3342652450369998" fill="#0E7695" />
<rect x="16.0" y="270.34588896409" width="64.09260324" height="17.919132" rx="3.5838264000000004" ry="3.5838264000000004" fill="#8673B5" />
<text x="27.265621264" y="279.30545496409" font-size="8.0636094" text-anchor="end" dominant-baseline="central" font-family="Roboto, sans-serif" fill="white">2</text>
<text x="34.015621264" y="279.30545496409" font-size="8.0636094" text-anchor="start" dominant-baseline="central" font-family="Roboto, sans-serif" fill="white">RAISE</text>
<circle cx="359.92708932249997" cy="279.70201720672753" r="8.379836599927499" fill="#31164F" />
<rect x="351.03198768891997" y="252.55568569693003" width="17.79020326716" height="17.79020326716" rx="1.3342652450369998" ry="1.3342652450369998" fill="#A69DC6" />
<rect x="351.03198768891997" y="267.67735847401605" width="17.79020326716" height="2.6685304900739997" rx="1.3342652450369998" ry="1.3342652450369998" fill="#8673B5" />
<rect x="369.2832175651375" y="270.34588896409" width="17.79020326716" height="17.79020326716" rx="1.3342652450369998" ry="1.3342652450369998" fill="#8673B5" />
<rect x="369.2832175651375" y="270.34588896409" width="2.6685304900739997" height="17.79020326716" rx="1.3342652450369998" ry="1.3342652450369998" fill="#605181" />
<rect x="351.03198768891997" y="289.05814544936504" width="17.79020326716" height="17.79020326716" rx="1.3342652450369998" ry="1.3342652450369998" fill="#605181" />
<rect x="351.03198768891997" y="289.05814544936504" width="17.79020326716" height="2.6685304900739997" rx="1.3342652450369998" ry="1.3342652450369998" fill="#31164F" />
<rect x="332.78075781270246" y="270.34588896409" width="17.79020326716" height="17.79020326716" rx="1.3342652450369998" ry="1.3342652450369998" fill="#CDC5EA" />
<rect x="347.9024305897885" y="270.34588896409" width="2.6685304900739997" height="17.79020326716" rx="1.3342652450369998" ry="1.3342652450369998" fill="#A69DC6" />
<circle cx="287.6886647275" cy="279.70201720672753" r="8.379836599927499" fill="#31164F" />
<rect x="278.79356309392" y="252.55568569693003" width="17.79020326716" height="17.79020326716" rx="1.3342652450369998" ry="1.3342652450369998" fill="#A69DC6" />
<rect x="278.79356309392" y="267.67735847401605" width="17.79020326716" height="2.6685304900739997" rx="1.3342652450369998" ry="1.3342652450369998" fill="#8673B5" />
<rect x="297.0447929701375" y="270.34588896409" width="17.79020326716" height="17.79020326716" rx="1.3342652450369998" ry="1.3342652450369998" fill="#8673B5" />
<rect x="297.0447929701375" y="270.34588896409" width="2.6685304900739997" height="17.79020326716" rx="1.3342652450369998" ry="1.3342652450369998" fill="#605181" />
<rect x="278.79356309392" y="289.05814544936504" width="17.79020326716" height="17.79020326716" rx="1.3342652450369998" ry="1.3342652450369998" fill="#605181" />
<rect x="278.79356309392" y="289.05814544936504" width="17.79020326716" height="2.6685304900739997" rx="1.3342652450369998" ry="1.3342652450369998" fill="#31164F" />
<rect x="260.5423332177025" y="270.34588896409" width="17.79020326716" height="17.79020326716" rx="1.3342652450369998" ry="1.3342652450369998" fill="#CDC5EA" />
<rect x="275.6640059947885" y="270.34588896409" width="2.6685304900739997" height="17.79020326716" rx="1.3342652450369998" ry="1.3342652450369998" fill="#A69DC6" />
<circle cx="215.45024013249997" cy="279.70201720672753" r="8.379836599927499" fill="#31164F" />
<rect x="206.55513849891997" y="252.55568569693003" width="17.79020326716" height="17.79020326716" rx="1.3342652450369998" ry="1.3342652450369998" fill="#A69DC6" />
<rect x="206.55513849891997" y="267.67735847401605" width="17.79020326716" height="2.6685304900739997" rx="1.3342652450369998" ry="1.3342652450369998" fill="#8673B5" />
<rect x="224.80636837513748" y="270.34588896409" width="17.79020326716" height="17.79020326716" rx="1.3342652450369998" ry="1.3342652450369998" fill="#8673B5" />
<rect x="224.80636837513748" y="270.34588896409" width="2.6685304900739997" height="17.79020326716" rx="1.3342652450369998" ry="1.3342652450369998" fill="#605181" />
<rect x="206.55513849891997" y="289.05814544936504" width="17.79020326716" height="17.79020326716" rx="1.3342652450369998" ry="1.3342652450369998" fill="#605181" />
<rect x="206.55513849891997" y="289.05814544936504" width="17.79020326716" height="2.6685304900739997" rx="1.3342652450369998" ry="1.3342652450369998" fill="#31164F" />
<rect x="188.3039086227025" y="270.34588896409" width="17.79020326716" height="17.79020326716" rx="1.3342652450369998" ry="1.3342652450369998" fill="#CDC5EA" />
<rect x="203.42558139978848" y="270.34588896409" width="2.6685304900739997" height="17.79020326716" rx="1.3342652450369998" ry="1.3342652450369998" fill="#A69DC6" />
<circle cx="143.2118155375" cy="279.70201720672753" r="8.379836599927499" fill="#31164F" />
<rect x="134.31671390392" y="252.55568569693003" width="17.79020326716" height="17.79020326716" rx="1.3342652450369998" ry="1.3342652450369998" fill="#A69DC6" />
<rect x="134.31671390392" y="267.67735847401605" width="17.79020326716" height="2.6685304900739997" rx="1.3342652450369998" ry="1.3342652450369998" fill="#8673B5" />
<rect x="152.5679437801375" y="270.34588896409" width="17.79020326716" height="17.79020326716" rx="1.3342652450369998" ry="1.3342652450369998" fill="#8673B5" />
<rect x="152.5679437801375" y="270.34588896409" width="2.6685304900739997" height="17.79020326716" rx="1.3342652450369998" ry="1.3342652450369998" fill="#605181" />
<rect x="134.31671390392" y="289.05814544936504" width="17.79020326716" height="17.79020326716" rx="1.3342652450369998" ry="1.3342652450369998" fill="#605181" />
<rect x="134.31671390392" y="289.05814544936504" width="17.79020326716" height="2.6685304900739997" rx="1.3342652450369998" ry="1.3342652450369998" fill="#31164F" />
<rect x="116.0654840277025" y="270.34588896409" width="17.79020326716" height="17.79020326716" rx="1.3342652450369998" ry="1.3342652450369998" fill="#CDC5EA" />
<rect x="131.1871568047885" y="270.34588896409" width="2.6685304900739997" height="17.79020326716" rx="1.3342652450369998" ry="1.3342652450369998" fill="#A69DC6" />
<circle cx="450.1655139175" cy="279.70201720672753" r="8.379836599927499" fill="#31164F" />
<rect x="441.27041228392" y="252.55568569693003" width="17.79020326716" height="17.79020326716" rx="1.3342652450369998" ry="1.3342652450369998" fill="#A69DC6" />
<rect x="441.27041228392" y="267.67735847401605" width="17.79020326716" height="2.6685304900739997" rx="1.3342652450369998" ry="1.3342652450369998" fill="#8673B5" />
<rect x="459.5216421601375" y="270.34588896409" width="17.79020326716" height="17.79020326716" rx="1.3342652450369998" ry="1.3342652450369998" fill="#CDC5EA" />
<rect x="459.5216421601375" y="270.34588896409" width="2.6685304900739997" height="17.79020326716" rx="1.3342652450369998" ry="1.3342652450369998" fill="#A69DC6" />
<rect x="441.27041228392" y="289.05814544936504" width="17.79020326716" height="17.79020326716" rx="1.3342652450369998" ry="1.3342652450369998" fill="#605181" />
<rect x="441.27041228392" y="289.05814544936504" width="17.79020326716" height="2.6685304900739997" rx="1.3342652450369998" ry="1.3342652450369998" fill="#31164F" />
<rect x="423.0191824077025" y="270.34588896409" width="17.79020326716" height="17.79020326716" rx="1.3342652450369998" ry="1.3342652450369998" fill="#8673B5" />
<rect x="438.1408551847885" y="270.34588896409" width="2.6685304900739997" height="17.79020326716" rx="1.3342652450369998" ry="1.3342652450369998" fill="#605181" />
<circle cx="522.4039385125" cy="279.70201720672753" r="8.379836599927499" fill="#31164F" />
<rect x="513.50883687892" y="252.55568569693003" width="17.79020326716" height="17.79020326716" rx="1.3342652450369998" ry="1.3342652450369998" fill="#A69DC6" />
<rect x="513.50883687892" y="267.67735847401605" width="17.79020326716" height="2.6685304900739997" rx="1.3342652450369998" ry="1.3342652450369998" fill="#8673B5" />
<rect x="531.7600667551375" y="270.34588896409" width="17.79020326716" height="17.79020326716" rx="1.3342652450369998" ry="1.3342652450369998" fill="#CDC5EA" />
<rect x="531.7600667551375" y="270.34588896409" width="2.6685304900739997" height="17.79020326716" rx="1.3342652450369998" ry="1.3342652450369998" fill="#A69DC6" />
<rect x="513.50883687892" y="289.05814544936504" width="17.79020326716" height="17.79020326716" rx="1.3342652450369998" ry="1.3342652450369998" fill="#605181" />
<rect x="513.50883687892" y="289.05814544936504" width="17.79020326716" height="2.6685304900739997" rx="1.3342652450369998" ry="1.3342652450369998" fill="#31164F" />
<rect x="495.25760700270246" y="270.34588896409" width="17.79020326716" height="17.79020326716" rx="1.3342652450369998" ry="1.3342652450369998" fill="#8673B5" />
<rect x="510.3792797797885" y="270.34588896409" width="2.6685304900739997" height="17.79020326716" rx="1.3342652450369998" ry="1.3342652450369998" fill="#605181" />
<circle cx="594.6423631075" cy="279.70201720672753" r="8.379836599927499" fill="#31164F" />
<rect x="585.74726147392" y="252.55568569693003" width="17.79020326716" height="17.79020326716" rx="1.3342652450369998" ry="1.3342652450369998" fill="#A69DC6" />
<rect x="585.74726147392" y="267.67735847401605" width="17.79020326716" height="2.6685304900739997" rx="1.3342652450369998" ry="1.3342652450369998" fill="#8673B5" />
<rect x="603.9984913501376" y="270.34588896409" width="17.79020326716" height="17.79020326716" rx="1.3342652450369998" ry="1.3342652450369998" fill="#CDC5EA" />
<rect x="603.9984913501376" y="270.34588896409" width="2.6685304900739997" height="17.79020326716" rx="1.3342652450369998" ry="1.3342652450369998" fill="#A69DC6" />
<rect x="585.74726147392" y="289.05814544936504" width="17.79020326716" height="17.79020326716" rx="1.3342652450369998" ry="1.3342652450369998" fill="#605181" />
<rect x="585.74726147392" y="289.05814544936504" width="17.79020326716" height="2.6685304900739997" rx="1.3342652450369998" ry="1.3342652450369998" fill="#31164F" />
<rect x="567.4960315977025" y="270.34588896409" width="17.79020326716" height="17.79020326716" rx="1.3342652450369998" ry="1.3342652450369998" fill="#8673B5" />
<rect x="582.6177043747886" y="270.34588896409" width="2.6685304900739997" height="17.79020326716" rx="1.3342652450369998" ry="1.3342652450369998" fill="#605181" />
<circle cx="666.8807877025" cy="279.70201720672753" r="8.379836599927499" fill="#31164F" />
<rect x="657.98568606892" y="252.55568569693003" width="17.79020326716" height="17.79020326716" rx="1.3342652450369998" ry="1.3342652450369998" fill="#A69DC6" />
<rect x="657.98568606892" y="267.67735847401605" width="17.79020326716" height="2.6685304900739997" rx="1.3342652450369998" ry="1.3342652450369998" fill="#8673B5" />
<rect x="676.2369159451375" y="270.34588896409" width="17.79020326716" height="17.79020326716" rx="1.3342652450369998" ry="1.3342652450369998" fill="#CDC5EA" />
<rect x="676.2369159451375" y="270.34588896409" width="2.6685304900739997" height="17.79020326716" rx="1.3342652450369998" ry="1.3342652450369998" fill="#A69DC6" />
<rect x="657.98568606892" y="289.05814544936504" width="17.79020326716" height="17.79020326716" rx="1.3342652450369998" ry="1.3342652450369998" fill="#605181" />
<rect x="657.98568606892" y="289.05814544936504" width="17.79020326716" height="2.6685304900739997" rx="1.3342652450369998" ry="1.3342652450369998" fill="#31164F" />
<rect x="639.7344561927025" y="270.34588896409" width="17.79020326716" height="17.79020326716" rx="1.3342652450369998" ry="1.3342652450369998" fill="#8673B5" />
<rect x="654.8561289697885" y="270.34588896409" width="2.6685304900739997" height="17.79020326716" rx="1.3342652450369998" ry="1.3342652450369998" fill="#605181" />
<rect x="16.0" y="20.3244210261448" width="64.09260324" height="17.919132" rx="3.5838264000000004" ry="3.5838264000000004" fill="black" />
<text x="22.75" y="29.2839870261448" font-size="8.0636094" text-anchor="start" dominant-baseline="central" font-family="Roboto, sans-serif" fill="white">THUMBS</text>
<path d="M317.9792785644531 19.410078048706055C317.9792785644531 18.476173400878906 318.3618469238281 17.583038330078125 319.03790283203125 16.938718795776367C319.71392822265625 16.294401168823242 320.6244201660156 15.95515251159668 321.5572509765625 16.0H336.0668029785156C336.9996337890625 15.95515251159668 337.9101257324219 16.294401168823242 338.5861511230469 16.938718795776367C339.26220703125 17.583038330078125 339.644775390625 18.476173400878906 339.644775390625 19.410078048706055L342.8731384277344 86.5602798461914C342.8731384277344 88.3820571899414 341.4427490234375 89.88287353515625 339.6230773925781 89.9703598022461H318.0009765625C316.1813049316406 89.88287353515625 314.75091552734375 88.3820571899414 314.75091552734375 86.5602798461914L316.0218200683594 60.12557601928711L325.2569885253906 59.72258758544922C326.14892578125 59.72258758544922 327.0021667480469 59.358211517333984 327.6189880371094 58.71390151977539C328.23577880859375 58.0695915222168 328.5626220703125 57.20127487182617 328.52374267578125 56.31016540527344V47.04595184326172C328.52374267578125 45.240055084228516 327.05975341796875 43.776084899902344 325.2538757324219 43.776084899902344H316.8078308105469ZM321.1494140625 24.056745529174805 320.7040100097656 35.7485237121582C320.7040100097656 37.402008056640625 322.0110168457031 38.75975799560547 323.6632995605469 38.82270050048828H333.96075439453125C335.613037109375 38.75975799560547 336.9200439453125 37.402008056640625 336.9200439453125 35.7485237121582L336.4746398925781 24.056745529174805C336.4746398925781 23.220516204833984 336.1342468261719 22.420318603515625 335.5317687988281 21.840377807617188C334.9293212890625 21.260438919067383 334.11676025390625 20.950735092163086 333.2811279296875 20.982566833496094H324.3429260253906C323.5072937011719 20.950735092163086 322.6947326660156 21.260438919067383 322.09228515625 21.840377807617188C321.4898376464844 22.420318603515625 321.1494140625 23.220516204833984 321.1494140625 24.056745529174805Z" fill="#037065" />
<path fill="#6F768B" d="M 272.26611665934075 21.02555887965278 A 2.14261152888958 2.14261152888958 0 0 1 274.4087281882303 18.8829473507632 L 312.9757357082428 18.8829473507632 A 2.14261152888958 2.14261152888958 0 0 1 315.0154559098609 21.023086958009152 L 314.10761510863995 39.90617562340459 A 2.14261152888958 2.14261152888958 0 0 1 311.86211225247894 42.04631523065055 L 274.4087281882303 42.04631523065055 A 2.14261152888958 2.14261152888958 0 0 1 272.26611665934075 39.90370370176097 Z" />
<path fill="#053F3A" d="M 285.036750074903 47.04595287315831 A 2.1166902917445602 2.1166902917445602 0 0 1 287.15344036664754 44.92926258141375 L 325.2538656180497 44.92926258141375 A 2.1166902917445602 2.1166902917445602 0 0 1 327.37055590979423 47.04595287315831 L 327.37055590979423 56.35939015683438 A 2.1166902917445602 2.1166902917445602 0 0 1 325.2558779737659 58.568357303969265 L 287.15142801093134 60.23109693871114 A 2.1166902917445602 2.1166902917445602 0 0 1 285.036750074903 58.2066835023569 Z" />
<path fill="#6F768B" d="M 342.61500930063653 21.156332593042762 A 2.2760110663920003 2.2760110663920003 0 0 1 344.78172299961125 18.8829473507632 L 385.7499221946672 18.8829473507632 A 2.2760110663920003 2.2760110663920003 0 0 1 388.0259332610592 21.1589584171552 L 388.0259332610592 39.95063952941736 A 2.2760110663920003 2.2760110663920003 0 0 1 385.7499221946672 42.22665059580936 L 345.90401642485386 42.22665059580936 A 2.2760110663920003 2.2760110663920003 0 0 1 343.51870799104455 39.9532653535298 Z" />
<path fill="#6F768B" d="M 343.87180731261844 47.29773124226664 A 2.1906606514023 2.1906606514023 0 0 1 345.95726924788164 45.10959794657256 L 385.389160973123 45.10959794657256 A 2.1906606514023 2.1906606514023 0 0 1 387.5798216245253 47.30025859797486 L 387.5798216245253 66.34846297861732 A 2.1906606514023 2.1906606514023 0 0 1 385.389160973123 68.53912363001962 L 347.08368875189353 68.53912363001962 A 2.1906606514023 2.1906606514023 0 0 1 344.7878293843521 66.35099033432554 Z" />
<path fill="#053F3A" d="M 322.3033955205658 24.05758182746518 A 1.9232293511012402 1.9232293511012402 0 0 1 324.2998376460537 22.1357464998151 L 333.32422152429797 22.1357464998151 A 1.9232293511012402 1.9232293511012402 0 0 1 335.32066364978584 24.05758182746518 L 335.76600097827446 35.747686700290416 A 1.9232293511012402 1.9232293511012402 0 0 1 333.9159844015599 37.6695220279405 L 323.70807476879173 37.6695220279405 A 1.9232293511012402 1.9232293511012402 0 0 1 321.8580581920772 35.747686700290416 Z" />
<path d="M470.44781494140625 19.410078048706055C470.44781494140625 18.476173400878906 470.8304138183594 17.583038330078125 471.5064392089844 16.938718795776367C472.1824951171875 16.294401168823242 473.09295654296875 15.95515251159668 474.0257873535156 16.0H488.5353698730469C489.46820068359375 15.95515251159668 490.378662109375 16.294401168823242 491.0546875 16.938718795776367C491.7307434082031 17.583038330078125 492.1133117675781 18.476173400878906 492.1133117675781 19.410078048706055L493.2847595214844 43.776084899902344H484.8387451171875C483.0328369140625 43.776084899902344 481.5688781738281 45.240055084228516 481.5688781738281 47.04595184326172V56.31016540527344C481.5299987792969 57.20127487182617 481.8568115234375 58.0695915222168 482.4736328125 58.71390151977539C483.0904235839844 59.358211517333984 483.94366455078125 59.72258758544922 484.83563232421875 59.72258758544922L494.07080078125 60.12557601928711L495.3417053222656 86.5602798461914C495.3417053222656 88.3820571899414 493.9112854003906 89.88287353515625 492.09161376953125 89.9703598022461H470.4695129394531C468.64984130859375 89.88287353515625 467.2194519042969 88.3820571899414 467.2194519042969 86.5602798461914ZM473.6179504394531 24.056745529174805 473.17254638671875 35.7485237121582C473.17254638671875 37.402008056640625 474.47955322265625 38.75975799560547 476.1318664550781 38.82270050048828H486.4292907714844C488.0815734863281 38.75975799560547 489.3885803222656 37.402008056640625 489.3885803222656 35.7485237121582L488.94317626953125 24.056745529174805C488.94317626953125 23.220516204833984 488.602783203125 22.420318603515625 488.0003356933594 21.840377807617188C487.3978576660156 21.260438919067383 486.5852966308594 20.950735092163086 485.7496643066406 20.982566833496094H476.81146240234375C475.9758605957031 20.950735092163086 475.16326904296875 21.260438919067383 474.5608215332031 21.840377807617188C473.9583740234375 22.420318603515625 473.6179504394531 23.220516204833984 473.6179504394531 24.056745529174805Z" fill="#037065" />
<path fill="#6F768B" d="M 495.0771473301391 21.023086958009152 A 2.14261152888958 2.14261152888958 0 0 1 497.11686753175724 18.8829473507632 L 535.6838750517697 18.8829473507632 A 2.14261152888958 2.14261152888958 0 0 1 537.8264865806593 21.02555887965278 L 537.8264865806593 39.90370370176097 A 2.14261152888958 2.14261152888958 0 0 1 535.6838750517697 42.04631523065055 L 498.2304909875211 42.04631523065055 A 2.14261152888958 2.14261152888958 0 0 1 495.98498813136007 39.90617562340459 Z" />
<path fill="#053F3A" d="M 482.7220473302058 47.04595287315831 A 2.1166902917445602 2.1166902917445602 0 0 1 484.8387376219503 44.92926258141375 L 522.9391628733524 44.92926258141375 A 2.1166902917445602 2.1166902917445602 0 0 1 525.055853165097 47.04595287315831 L 525.055853165097 58.2066835023569 A 2.1166902917445602 2.1166902917445602 0 0 1 522.9411752290687 60.23109693871114 L 484.8367252662341 58.568357303969265 A 2.1166902917445602 2.1166902917445602 0 0 1 482.7220473302058 56.35939015683438 Z" />
<path fill="#6F768B" d="M 422.06666997894075 21.1589584171552 A 2.2760110663920003 2.2760110663920003 0 0 1 424.34268104533277 18.8829473507632 L 465.31088024038877 18.8829473507632 A 2.2760110663920003 2.2760110663920003 0 0 1 467.4775939393635 21.156332593042762 L 466.57389524895547 39.9532653535298 A 2.2760110663920003 2.2760110663920003 0 0 1 464.18858681514615 42.22665059580936 L 424.34268104533277 42.22665059580936 A 2.2760110663920003 2.2760110663920003 0 0 1 422.06666997894075 39.95063952941736 Z" />
<path fill="#6F768B" d="M 422.5127816154747 47.30025859797486 A 2.1906606514023 2.1906606514023 0 0 1 424.703442266877 45.10959794657256 L 464.1353339921184 45.10959794657256 A 2.1906606514023 2.1906606514023 0 0 1 466.2207959273816 47.29773124226664 L 465.3047738556479 66.35099033432554 A 2.1906606514023 2.1906606514023 0 0 1 463.0089144881065 68.53912363001962 L 424.703442266877 68.53912363001962 A 2.1906606514023 2.1906606514023 0 0 1 422.5127816154747 66.34846297861732 Z" />
<path fill="#053F3A" d="M 474.7719395902142 24.05758182746518 A 1.9232293511012402 1.9232293511012402 0 0 1 476.76838171570205 22.1357464998151 L 485.79276559394634 22.1357464998151 A 1.9232293511012402 1.9232293511012402 0 0 1 487.7892077194342 24.05758182746518 L 488.23454504792284 35.747686700290416 A 1.9232293511012402 1.9232293511012402 0 0 1 486.3845284712083 37.6695220279405 L 476.1766188384401 37.6695220279405 A 1.9232293511012402 1.9232293511012402 0 0 1 474.32660226172555 35.747686700290416 Z" />
</svg>