<?xml version="1.0" encoding="UTF-8"?>
<svg xmlns="http://www.w3.org/2000/svg" xmlns:xlink="http://www.w3.org/1999/xlink"
     width="710.45" height="323.298348716525" viewBox="0 0 710.45 323.298348716525">
<defs>
</defs>
<rect x="0.5" y="0.5" width="709.45" height="322.298348716525" rx="18.0" ry="18.0" fill="#FFFFFF" stroke="#D4D8DD" stroke-width="1.0" />
<text x="22.75" y="124.1478410449" font-size="8.0636094" text-anchor="start" dominant-baseline="text-after-edge" font-family="Roboto, sans-serif" fill="#6F768B">LAYERS</text>
<rect x="16.0" y="125.7605629249" width="64.09260324" height="17.919132" rx="3.5838264000000004" ry="3.5838264000000004" fill="#037065" />
<text x="27.265621264" y="134.7201289249" font-size="8.0636094" text-anchor="end" dominant-baseline="central" font-family="Roboto, sans-serif" fill="white">0</text>
<text x="34.015621264" y="134.7201289249" font-size="8.0636094" text-anchor="start" dominant-baseline="central" font-family="Roboto, sans-serif" fill="white">BASE</text>
<circle cx="359.92708932249997" cy="135.1166911675375" r="8.379836599927499" fill="#053F3A" />
<rect x="351.03198768891997" y="107.97035965774" width="17.79020326716" height="17.79020326716" rx="1.3342652450369998" ry="1.3342652450369998" fill="#86BE81" />
<rect x="351.03198768891997" y="123.092032434826" width="17.79020326716" height="2.6685304900739997" rx="1.3342652450369998" ry="1.3342652450369998" fill="#079E7C" />
<rect x="369.2832175651375" y="125.7605629249" width="17.79020326716" height="17.79020326716" rx="1.3342652450369998" ry="1.3342652450369998" fill="#079E7C" />
<rect x="369.2832175651375" y="125.7605629249" width="2.6685304900739997" height="17.79020326716" rx="1.3342652450369998" ry="1.3342652450369998" fill="#037065" />
<rect x="351.03198768891997" y="144.472819410175" width="17.79020326716" height="17.79020326716" rx="1.3342652450369998" ry="1.3342652450369998" fill="#037065" />
<rect x="351.03198768891997" y="144.472819410175" width="17.79020326716" height="2.6685304900739997" rx="1.3342652450369998" ry="1.3342652450369998" fill="#053F3A" />
<rect x="332.78075781270246" y="125.7605629249" width="17.79020326716" height="17.79020326716" rx="1.3342652450369998" ry="1.3342652450369998" fill="#BDDCA7" />
<rect x="347.9024305897885" y="125.7605629249" width="2.6685304900739997" height="17.79020326716" rx="1.3342652450369998" ry="1.3342652450369998" fill="#86BE81" />
<circle cx="287.6886647275" cy="135.1166911675375" r="8.379836599927499" fill="#053F3A" />
<rect x="278.79356309392" y="107.97035965774" width="17.79020326716" height="17.79020326716" rx="1.3342652450369998" ry="1.3342652450369998" fill="#86BE81" />
<rect x="278.79356309392" y="123.092032434826" width="17.79020326716" height="2.6685304900739997" rx="1.3342652450369998" ry="1.3342652450369998" fill="#079E7C" />
<rect x="297.0447929701375" y="125.7605629249" width="17.79020326716" height="17.79020326716" rx="1.3342652450369998" ry="1.3342652450369998" fill="#079E7C" />
<rect x="297.0447929701375" y="125.7605629249" width="2.6685304900739997" height="17.79020326716" rx="1.3342652450369998" ry="1.3342652450369998" fill="#037065" />
<rect x="278.79356309392" y="144.472819410175" width="17.79020326716" height="17.79020326716" rx="1.3342652450369998" ry="1.3342652450369998" fill="#037065" />
<rect x="278.79356309392" y="144.472819410175" width="17.79020326716" height="2.6685304900739997" rx="1.3342652450369998" ry="1.3342652450369998" fill="#053F3A" />
<rect x="260.5423332177025" y="125.7605629249" width="17.79020326716" height="17.79020326716" rx="1.3342652450369998" ry="1.3342652450369998" fill="#BDDCA7" />
<rect x="275.6640059947885" y="125.7605629249" width="2.6685304900739997" height="17.79020326716" rx="1.3342652450369998" ry="1.3342652450369998" fill="#86BE81" />
<circle cx="215.45024013249997" cy="135.1166911675375" r="8.379836599927499" fill="#053F3A" />
<rect x="206.55513849891997" y="107.97035965774" width="17.79020326716" height="17.79020326716" rx="1.3342652450369998" ry="1.3342652450369998" fill="#86BE81" />
<rect x="206.55513849891997" y="123.092032434826" width="17.79020326716" height="2.6685304900739997" rx="1.3342652450369998" ry="1.3342652450369998" fill="#079E7C" />
<rect x="224.80636837513748" y="125.7605629249" width="17.79020326716" height="17.79020326716" rx="1.3342652450369998" ry="1.3342652450369998" fill="#079E7C" />
<rect x="224.80636837513748" y="125.7605629249" width="2.6685304900739997" height="17.79020326716" rx="1.3342652450369998" ry="1.3342652450369998" fill="#037065" />
<rect x="206.55513849891997" y="144.472819410175" width="17.79020326716" height="17.79020326716" rx="1.3342652450369998" ry="1.3342652450369998" fill="#037065" />
<rect x="206.55513849891997" y="144.472819410175" width="17.79020326716" height="2.6685304900739997" rx="1.3342652450369998" ry="1.3342652450369998" fill="#053F3A" />
<rect x="188.3039086227025" y="125.7605629249" width="17.79020326716" height="17.79020326716" rx="1.3342652450369998" ry="1.3342652450369998" fill="#BDDCA7" />
<rect x="203.42558139978848" y="125.7605629249" width="2.6685304900739997" height="17.79020326716" rx="1.3342652450369998" ry="1.3342652450369998" fill="#86BE81" />
<circle cx="143.2118155375" cy="135.1166911675375" r="8.379836599927499" fill="#053F3A" />
<rect x="134.31671390392" y="107.97035965774" width="17.79020326716" height="17.79020326716" rx="1.3342652450369998" ry="1.3342652450369998" fill="#86BE81" />
<rect x="134.31671390392" y="123.092032434826" width="17.79020326716" height="2.6685304900739997" rx="1.3342652450369998" ry="1.3342652450369998" fill="#079E7C" />
<rect x="152.5679437801375" y="125.7605629249" width="17.79020326716" height="17.79020326716" rx="1.3342652450369998" ry="1.3342652450369998" fill="#079E7C" />
<rect x="152.5679437801375" y="125.7605629249" width="2.6685304900739997" height="17.79020326716" rx="1.3342652450369998" ry="1.3342652450369998" fill="#037065" />
<rect x="134.31671390392" y="144.472819410175" width="17.79020326716" height="17.79020326716" rx="1.3342652450369998" ry="1.3342652450369998" fill="#037065" />
<rect x="134.31671390392" y="144.472819410175" width="17.79020326716" height="2.6685304900739997" rx="1.3342652450369998" ry="1.3342652450369998" fill="#053F3A" />
<rect x="116.0654840277025" y="125.7605629249" width="17.79020326716" height="17.79020326716" rx="1.3342652450369998" ry="1.3342652450369998" fill="#BDDCA7" />
<rect x="131.1871568047885" y="125.7605629249" width="2.6685304900739997" height="17.79020326716" rx="1.3342652450369998" ry="1.3342652450369998" fill="#86BE81" />
<circle cx="450.1655139175" cy="135.1166911675375" r="8.379836599927499" fill="#053F3A" />
<rect x="441.27041228392" y="107.97035965774" width="17.79020326716" height="17.79020326716" rx="1.3342652450369998" ry="1.3342652450369998" fill="#86BE81" />
<rect x="441.27041228392" y="123.092032434826" width="17.79020326716" height="2.6685304900739997" rx="1.3342652450369998" ry="1.3342652450369998" fill="#079E7C" />
<rect x="459.5216421601375" y="125.7605629249" width="17.79020326716" height="17.79020326716" rx="1.3342652450369998" ry="1.3342652450369998" fill="#BDDCA7" />
<rect x="459.5216421601375" y="125.7605629249" width="2.6685304900739997" height="17.79020326716" rx="1.3342652450369998" ry="1.3342652450369998" fill="#86BE81" />
<rect x="441.27041228392" y="144.472819410175" width="17.79020326716" height="17.79020326716" rx="1.3342652450369998" ry="1.3342652450369998" fill="#037065" />
<rect x="441.27041228392" y="144.472819410175" width="17.79020326716" height="2.6685304900739997" rx="1.3342652450369998" ry="1.3342652450369998" fill="#053F3A" />
<rect x="423.0191824077025" y="125.7605629249" width="17.79020326716" height="17.79020326716" rx="1.3342652450369998" ry="1.3342652450369998" fill="#079E7C" />
<rect x="438.1408551847885" y="125.7605629249" width="2.6685304900739997" height="17.79020326716" rx="1.3342652450369998" ry="1.3342652450369998" fill="#037065" />
<circle cx="522.4039385125" cy="135.1166911675375" r="8.379836599927499" fill="#053F3A" />
<rect x="513.50883687892" y="107.97035965774" width="17.79020326716" height="17.79020326716" rx="1.3342652450369998" ry="1.3342652450369998" fill="#86BE81" />
<rect x="513.50883687892" y="123.092032434826" width="17.79020326716" height="2.6685304900739997" rx="1.3342652450369998" ry="1.3342652450369998" fill="#079E7C" />
<rect x="531.7600667551375" y="125.7605629249" width="17.79020326716" height="17.79020326716" rx="1.3342652450369998" ry="1.3342652450369998" fill="#BDDCA7" />
<rect x="531.7600667551375" y="125.7605629249" width="2.6685304900739997" height="17.79020326716" rx="1.3342652450369998" ry="1.3342652450369998" fill="#86BE81" />
<rect x="513.50883687892" y="144.472819410175" width="17.79020326716" height="17.79020326716" rx="1.3342652450369998" ry="1.3342652450369998" fill="#037065" />
<rect x="513.50883687892" y="144.472819410175" width="17.79020326716" height="2.6685304900739997" rx="1.3342652450369998" ry="1.3342652450369998" fill="#053F3A" />
<rect x="495.25760700270246" y="125.7605629249" width="17.79020326716" height="17.79020326716" rx="1.3342652450369998" ry="1.3342652450369998" fill="#079E7C" />
<rect x="510.3792797797885" y="125.7605629249" width="2.6685304900739997" height="17.79020326716" rx="1.3342652450369998" ry="1.3342652450369998" fill="#037065" />
<circle cx="594.6423631075" cy="135.1166911675375" r="8.379836599927499" fill="#053F3A" />
<rect x="585.74726147392" y="107.97035965774" width="17.79020326716" height="17.79020326716" rx="1.3342652450369998" ry="1.3342652450369998" fill="#86BE81" />
<rect x="585.74726147392" y="123.092032434826" width="17.79020326716" height="2.6685304900739997" rx="1.3342652450369998" ry="1.3342652450369998" fill="#079E7C" />
<rect x="603.9984913501376" y="125.7605629249" width="17.79020326716" height="17.79020326716" rx="1.3342652450369998" ry="1.3342652450369998" fill="#BDDCA7" />
<rect x="603.9984913501376" y="125.7605629249" width="2.6685304900739997" height="17.79020326716" rx="1.3342652450369998" ry="1.3342652450369998" fill="#86BE81" />
<rect x="585.74726147392" y="144.472819410175" width="17.79020326716" height="17.79020326716" rx="1.3342652450369998" ry="1.3342652450369998" fill="#037065" />
<rect x="585.74726147392" y="144.472819410175" width="17.79020326716" height="2.6685304900739997" rx="1.3342652450369998" ry="1.3342652450369998" fill="#053F3A" />
<rect x="567.4960315977025" y="125.7605629249" width="17.79020326716" height="17.79020326716" rx="1.3342652450369998" ry="1.3342652450369998" fill="#079E7C" />
<rect x="582.6177043747886" y="125.7605629249" width="2.6685304900739997" height="17.79020326716" rx="1.3342652450369998" ry="1.3342652450369998" fill="#037065" />
<circle cx="666.8807877025" cy="135.1166911675375" r="8.379836599927499" fill="#053F3A" />
<rect x="657.98568606892" y="107.97035965774" width="17.79020326716" height="17.79020326716" rx="1.3342652450369998" ry="1.3342652450369998" fill="#86BE81" />
<rect x="657.98568606892" y="123.092032434826" width="17.79020326716" height="2.6685304900739997" rx="1.3342652450369998" ry="1.3342652450369998" fill="#079E7C" />
<rect x="676.2369159451375" y="125.7605629249" width="17.79020326716" height="17.79020326716" rx="1.3342652450369998" ry="1.3342652450369998" fill="#BDDCA7" />
<rect x="676.2369159451375" y="125.7605629249" width="2.6685304900739997" height="17.79020326716" rx="1.3342652450369998" ry="1.3342652450369998" fill="#86BE81" />
<rect x="657.98568606892" y="144.472819410175" width="17.79020326716" height="17.79020326716" rx="1.3342652450369998" ry="1.3342652450369998" fill="#037065" />
<rect x="657.98568606892" y="144.472819410175" width="17.79020326716" height="2.6685304900739997" rx="1.3342652450369998" ry="1.3342652450369998" fill="#053F3A" />
<rect x="639.7344561927025" y="125.7605629249" width="17.79020326716" height="17.79020326716" rx="1.3342652450369998" ry="1.3342652450369998" fill="#079E7C" />
<rect x="654.8561289697885" y="125.7605629249" width="2.6685304900739997" height="17.79020326716" rx="1.3342652450369998" ry="1.3342652450369998" fill="#037065" />
<rect x="16.0" y="198.053225944495" width="64.09260324" height="17.919132" rx="3.5838264000000004" ry="3.5838264000000004" fill="#0E7695" />
<text x="27.265621264" y="207.012791944495" font-size="8.0636094" text-anchor="end" dominant-baseline="central" font-family="Roboto, sans-serif" fill="white">1</text>
<text x="34.015621264" y="207.012791944495" font-size="8.0636094" text-anchor="start" dominant-baseline="central" font-family="Roboto, sans-serif" fill="white">LOWER</text>
<circle cx="359.92708932249997" cy="207.40935418713252" r="8.379836599927499" fill="#1D3052" />
<rect x="351.03198768891997" y="180.26302267733502" width="17.79020326716" height="17.79020326716" rx="1.3342652450369998" ry="1.3342652450369998" fill="#7AC0C6" />
<rect x="351.03198768891997" y="195.384695454421" width="17.79020326716" height="2.6685304900739997" rx="1.3342652450369998" ry="1.3342652450369998" fill="#05A1B0" />
<rect x="369.2832175651375" y="198.053225944495" width="17.79020326716" height="17.79020326716" rx="1.3342652450369998" ry="1.3342652450369998" fill="#05A1B0" />
<rect x="369.2832175651375" y="198.053225944495" width="2.6685304900739997" height="17.79020326716" rx="1.3342652450369998" ry="1.3342652450369998" fill="#0E7695" />
<rect x="351.03198768891997" y="216.76548242977" width="17.79020326716" height="17.79020326716" rx="1.3342652450369998" ry="1.3342652450369998" fill="#0E7695" />
<rect x="351.03198768891997" y="216.76548242977" width="17.79020326716" height="2.6685304900739997" rx="1.3342652450369998" ry="1.3342652450369998" fill="#1D3052" />
<rect x="332.78075781270246" y="198.053225944495" width="17.79020326716" height="17.79020326716" rx="1.3342652450369998" ry="1.3342652450369998" fill="#A6D7DE" />
<rect x="347.9024305897885" y="198.053225944495" width="2.6685304900739997" height="17.79020326716" rx="1.3342652450369998" ry="1.3342652450369998" fill="#7AC0C6" />
<circle cx="287.6886647275" cy="207.40935418713252" r="8.379836599927499" fill="#1D3052" />
<rect x="278.79356309392" y="180.26302267733502" width="17.79020326716" height="17.79020326716" rx="1.3342652450369998" ry="1.3342652450369998" fill="#7AC0C6" />
<rect x="278.79356309392" y="195.384695454421" width="17.79020326716" height="2.6685304900739997" rx="1.3342652450369998" ry="1.3342652450369998" fill="#05A1B0" />
<rect x="297.0447929701375" y="198.053225944495" width="17.79020326716" height="17.79020326716" rx="1.3342652450369998" ry="1.3342652450369998" fill="#05A1B0" />
<rect x="297.0447929701375" y="198.053225944495" width="2.6685304900739997" height="17.79020326716" rx="1.3342652450369998" ry="1.3342652450369998" fill="#0E7695" />
<rect x="278.79356309392" y="216.76548242977" width="17.79020326716" height="17.79020326716" rx="1.3342652450369998" ry="1.3342652450369998" fill="#0E7695" />
<rect x="278.79356309392" y="216.76548242977" width="17.79020326716" height="2.6685304900739997" rx="1.3342652450369998" ry="1.3342652450369998" fill="#1D3052" />
<rect x="260.5423332177025" y="198.053225944495" width="17.79020326716" height="17.79020326716" rx="1.3342652450369998" ry="1.3342652450369998" fill="#A6D7DE" />
<rect x="275.6640059947885" y="198.053225944495" width="2.6685304900739997" height="17.79020326716" rx="1.3342652450369998" ry="1.3342652450369998" fill="#7AC0C6" />
<circle cx="215.45024013249997" cy="207.40935418713252" r="8.379836599927499" fill="#1D3052" />
<rect x="206.55513849891997" y="180.26302267733502" width="17.79020326716" height="17.79020326716" rx="1.3342652450369998" ry="1.3342652450369998" fill="#7AC0C6" />
<rect x="206.55513849891997" y="195.384695454421" width="17.79020326716" height="2.6685304900739997" rx="1.3342652450369998" ry="1.3342652450369998" fill="#05A1B0" />
<rect x="224.80636837513748" y="198.053225944495" width="17.79020326716" height="17.79020326716" rx="1.3342652450369998" ry="1.3342652450369998" fill="#05A1B0" />
<rect x="224.80636837513748" y="198.053225944495" width="2.6685304900739997" height="17.79020326716" rx="1.3342652450369998" ry="1.3342652450369998" fill="#0E7695" />
<rect x="206.55513849891997" y="216.76548242977" width="17.79020326716" height="17.79020326716" rx="1.3342652450369998" ry="1.3342652450369998" fill="#0E7695" />
<rect x="206.55513849891997" y="216.76548242977" width="17.79020326716" height="2.6685304900739997" rx="1.3342652450369998" ry="1.3342652450369998" fill="#1D3052" />
<rect x="188.3039086227025" y="198.053225944495" width="17.79020326716" height="17.79020326716" rx="1.3342652450369998" ry="1.3342652450369998" fill="#A6D7DE" />
<rect x="203.42558139978848" y="198.053225944495" width="2.6685304900739997" height="17.79020326716" rx="1.3342652450369998" ry="1.3342652450369998" fill="#7AC0C6" />
<circle cx="143.2118155375" cy="207.40935418713252" r="8.379836599927499" fill="#1D3052" />
<rect x="134.31671390392" y="180.26302267733502" width="17.79020326716" height="17.79020326716" rx="1.3342652450369998" ry="1.3342652450369998" fill="#7AC0C6" />
<rect x="134.31671390392" y="195.384695454421" width="17.79020326716" height="2.6685304900739997" rx="1.3342652450369998" ry="1.3342652450369998" fill="#05A1B0" />
<rect x="152.5679437801375" y="198.053225944495" width="17.79020326716" height="17.79020326716" rx="1.3342652450369998" ry="1.3342652450369998" fill="#05A1B0" />
<rect x="152.5679437801375" y="198.053225944495" width="2.6685304900739997" height="17.79020326716" rx="1.3342652450369998" ry="1.3342652450369998" fill="#0E7695" />
<rect x="134.31671390392" y="216.76548242977" width="17.79020326716" height="17.79020326716" rx="1.3342652450369998" ry="1.3342652450369998" fill="#0E7695" />
<rect x="134.31671390392" y="216.76548242977" width="17.79020326716" height="2.6685304900739997" rx="1.3342652450369998" ry="1.3342652450369998" fill="#1D3052" />
<rect x="116.0654840277025" y="198.053225944495" width="17.79020326716" height="17.79020326716" rx="1.3342652450369998" ry="1.3342652450369998" fill="#A6D7DE" />
<rect x="131.1871568047885" y="198.053225944495" width="2.6685304900739997" height="17.79020326716" rx="1.3342652450369998" ry="1.3342652450369998" fill="#7AC0C6" />
<circle cx="450.1655139175" cy="207.40935418713252" r="8.379836599927499" fill="#1D3052" />
<rect x="441.27041228392" y="180.26302267733502" width="17.79020326716" height="17.79020326716" rx="1.3342652450369998" ry="1.3342652450369998" fill="#7AC0C6" />
<rect x="441.27041228392" y="195.384695454421" width="17.79020326716" height="2.6685304900739997" rx="1.3342652450369998" ry="1.3342652450369998" fill="#05A1B0" />
<rect x="459.5216421601375" y="198.053225944495" width="17.79020326716" height="17.79020326716" rx="1.3342652450369998" ry="1.3342652450369998" fill="#A6D7DE" />
<rect x="459.5216421601375" y="198.053225944495" width="2.6685304900739997" height="17.79020326716" rx="1.3342652450369998" ry="1.3342652450369998" fill="#7AC0C6" />
<rect x="441.27041228392" y="216.76548242977" width="17.79020326716" height="17.79020326716" rx="1.3342652450369998" ry="1.3342652450369998" fill="#0E7695" />
<rect x="441.27041228392" y="216.76548242977" width="17.79020326716" height="2.6685304900739997" rx="1.3342652450369998" ry="1.3342652450369998" fill="#1D3052" />
<rect x="423.0191824077025" y="198.053225944495" width="17.79020326716" height="17.79020326716" rx="1.3342652450369998" ry="1.3342652450369998" fill="#05A1B0" />
<rect x="438.1408551847885" y="198.053225944495" width="2.6685304900739997" height="17.79020326716" rx="1.3342652450369998" ry="1.3342652450369998" fill="#0E7695" />
<circle cx="522.4039385125" cy="207.40935418713252" r="8.379836599927499" fill="#1D3052" />
<rect x="513.50883687892" y="180.26302267733502" width="17.79020326716" height="17.79020326716" rx="1.3342652450369998" ry="1.3342652450369998" fill="#7AC0C6" />
<rect x="513.50883687892" y="195.384695454421" width="17.79020326716" height="2.6685304900739997" rx="1.3342652450369998" ry="1.3342652450369998" fill="#05A1B0" />
<rect x="531.7600667551375" y="198.053225944495" width="17.79020326716" height="17.79020326716" rx="1.3342652450369998" ry="1.3342652450369998" fill="#A6D7DE" />
<rect x="531.7600667551375" y="198.053225944495" width="2.6685304900739997" height="17.79020326716" rx="1.3342652450369998" ry="1.3342652450369998" fill="#7AC0C6" />
<rect x="513.50883687892" y="216.76548242977" width="17.79020326716" height="17.79020326716" rx="1.3342652450369998" ry="1.3342652450369998" fill="#0E7695" />
<rect x="513.50883687892" y="216.76548242977" width="17.79020326716" height="2.6685304900739997" rx="1.3342652450369998" ry="1.3342652450369998" fill="#1D3052" />
<rect x="495.25760700270246" y="198.053225944495" width="17.79020326716" height="17.79020326716" rx="1.3342652450369998" ry="1.3342652450369998" fill="#05A1B0" />
<rect x="510.3792797797885" y="198.053225944495" width="2.6685304900739997" height="17.79020326716" rx="1.3342652450369998" ry="1.3342652450369998" fill="#0E7695" />
<circle cx="594.6423631075" cy="207.40935418713252" r="8.379836599927499" fill="#1D3052" />
<rect x="585.74726147392" y="180.26302267733502" width="17.79020326716" height="17.79020326716" rx="1.3342652450369998" ry="1.3342652450369998" fill="#7AC0C6" />
<rect x="585.74726147392" y="195.384695454421" width="17.79020326716" height="2.6685304900739997" rx="1.3342652450369998" ry="1.3342652450369998" fill="#05A1B0" />
<rect x="603.9984913501376" y="198.053225944495" width="17.79020326716" height="17.79020326716" rx="1.3342652450369998" ry="1.3342652450369998" fill="#A6D7DE" />
<rect x="603.9984913501376" y="198.053225944495" width="2.6685304900739997" height="17.79020326716" rx="1.3342652450369998" ry="1.3342652450369998" fill="#7AC0C6" />
<rect x="585.74726147392" y="216.76548242977" width="17.79020326716" height="17.79020326716" rx="1.3342652450369998" ry="1.3342652450369998" fill="#0E7695" />
<rect x="585.74726147392" y="216.76548242977" width="17.79020326716" height="2.6685304900739997" rx="1.3342652450369998" ry="1.3342652450369998" fill="#1D3052" />
<rect x="567.4960315977025" y="198.053225944495" width="17.79020326716" height="17.79020326716" rx="1.3342652450369998" ry="1.3342652450369998" fill="#05A1B0" />
<rect x="582.6177043747886" y="198.053225944495" width="2.6685304900739997" height="17.79020326716" rx="1.3342652450369998" ry="1.3342652450369998" fill="#0E7695" />
<circle cx="666.8807877025" cy="207.40935418713252" r="8.379836599927499" fill="#1D3052" />
<rect x="657.98568606892" y="180.26302267733502" width="17.79020326716" height="17.79020326716" rx="1.3342652450369998" ry="1.3342652450369998" fill="#7AC0C6" />
<rect x="657.98568606892" y="195.384695454421" width="17.79020326716" height="2.6685304900739997" rx="1.3342652450369998" ry="1.3342652450369998" fill="#05A1B0" />
<rect x="676.2369159451375" y="198.053225944495" width="17.79020326716" height="17.79020326716" rx="1.3342652450369998" ry="1.3342652450369998" fill="#A6D7DE" />
<rect x="676.2369159451375" y="198.053225944495" width="2.6685304900739997" height="17.79020326716" rx="1.3342652450369998" ry="1.3342652450369998" fill="#7AC0C6" />
<rect x="657.98568606892" y="216.76548242977" width="17.79020326716" height="17.79020326716" rx="1.3342652450369998" ry="1.3342652450369998" fill="#0E7695" />
<rect x="657.98568606892" y="216.76548242977" width="17.79020326716" height="2.6685304900739997" rx="1.3342652450369998" ry="1.3342652450369998" fill="#1D3052" />
<rect x="639.7344561927025" y="198.053225944495" width="17.79020326716" height="17.79020326716" rx="1.3342652450369998" ry="1.3342652450369998" fill="#05A1B0" />
<rect x="654.8561289697885" y="198.053225944495" width="2.6685304900739997" height="17.79020326716" rx="1.3342652450369998" ry="1.3342652450369998" fill="#0E7695" />
<rect x="16.0" y="270.34588896409" width="64.09260324" height="17.919132" rx="3.5838264000000004" ry="3.5838264000000004" fill="#8673B5" />
<text x="27.265621264" y="279.30545496409" font-size="8.0636094" text-anchor="end" dominant-baseline="central" font-family="Roboto, sans-serif" fill="white">2</text>
<text x="34.015621264" y="279.30545496409" font-size="8.0636094" text-anchor="start" dominant-baseline="central" font-family="Roboto, sans-serif" fill="white">RAISE</text>
<circle cx="359.92708932249997" cy="279.70201720672753" r="8.379836599927499" fill="#31164F" />
<rect x="351.03198768891997" y="252.55568569693003" width="17.79020326716" height="17.79020326716" rx="1.3342652450369998" ry="1.3342652450369998" fill="#A69DC6" />
<rect x="351.03198768891997" y="267.67735847401605" width="17.79020326716" height="2.6685304900739997" rx="1.3342652450369998" ry="1.3342652450369998" fill="#8673B5" />
<rect x="369.2832175651375" y="270.34588896409" width="17.79020326716" height="17.79020326716" rx="1.3342652450369998" ry="1.3342652450369998" fill="#8673B5" />
<rect x="369.2832175651375" y="270.34588896409" width="2.6685304900739997" height="17.79020326716" rx="1.3342652450369998" ry="1.3342652450369998" fill="#605181" />
<rect x="351.03198768891997" y="289.05814544936504" width="17.79020326716" height="17.79020326716" rx="1.3342652450369998" ry="1.3342652450369998" fill="#605181" />
<rect x="351.03198768891997" y="289.05814544936504" width="17.79020326716" height="2.6685304900739997" rx="1.3342652450369998" ry="1.3342652450369998" fill="#31164F" />
<rect x="332.78075781270246" y="270.34588896409" width="17.79020326716" height="17.79020326716" rx="1.3342652450369998" ry="1.3342652450369998" fill="#CDC5EA" />
<rect x="347.9024305897885" y="270.34588896409" width="2.6685304900739997" height="17.79020326716" rx="1.3342652450369998" ry="1.3342652450369998" fill="#A69DC6" />
<circle cx="287.6886647275" cy="279.70201720672753" r="8.379836599927499" fill="#31164F" />
<rect x="278.79356309392" y="252.55568569693003" width="17.79020326716" height="17.79020326716" rx="1.3342652450369998" ry="1.3342652450369998" fill="#A69DC6" />
<rect x="278.79356309392" y="267.67735847401605" width="17.79020326716" height="2.6685304900739997" rx="1.3342652450369998" ry="1.3342652450369998" fill="#8673B5" />
<rect x="297.0447929701375" y="270.34588896409" width="17.79020326716" height="17.79020326716" rx="1.3342652450369998" ry="1.3342652450369998" fill="#8673B5" />
<rect x="297.0447929701375" y="270.34588896409" width="2.6685304900739997" height="17.79020326716" rx="1.3342652450369998" ry="1.3342652450369998" fill="#605181" />
<rect x="278.79356309392" y="289.05814544936504" width="17.79020326716" height="17.79020326716" rx="1.3342652450369998" ry="1.3342652450369998" fill="#605181" />
<rect x="278.79356309392" y="289.05814544936504" width="17.79020326716" height="2.6685304900739997" rx="1.3342652450369998" ry="1.3342652450369998" fill="#31164F" />
<rect x="260.5423332177025" y="270.34588896409" width="17.79020326716" height="17.79020326716" rx="1.3342652450369998" ry="1.3342652450369998" fill="#CDC5EA" />
<rect x="275.6640059947885" y="270.34588896409" width="2.6685304900739997" height="17.79020326716" rx="1.3342652450369998" ry="1.3342652450369998" fill="#A69DC6" />
<circle cx="215.45024013249997" cy="279.70201720672753" r="8.379836599927499" fill="#31164F" />
<rect x="206.55513849891997" y="252.55568569693003" width="17.79020326716" height="17.79020326716" rx="1.3342652450369998" ry="1.3342652450369998" fill="#A69DC6" />
<rect x="206.55513849891997" y="267.67735847401605" width="17.79020326716" height="2.6685304900739997" rx="1.3342652450369998" ry="1.3342652450369998" fill="#8673B5" />
<rect x="224.80636837513748" y="270.34588896409" width="17.79020326716" height="17.79020326716" rx="1.3342652450369998" ry="1.3342652450369998" fill="#8673B5" />
<rect x="224.80636837513748" y="270.34588896409" width="2.6685304900739997" height="17.79020326716" rx="1.3342652450369998" ry="1.3342652450369998" fill="#605181" />
<rect x="206.55513849891997" y="289.05814544936504" width="17.79020326716" height="17.79020326716" rx="1.3342652450369998" ry="1.3342652450369998" fill="#605181" />
<rect x="206.55513849891997" y="289.05814544936504" width="17.79020326716" height="2.6685304900739997" rx="1.3342652450369998" ry="1.3342652450369998" fill="#31164F" />
<rect x="188.3039086227025" y="270.34588896409" width="17.79020326716" height="17.79020326716" rx="1.3342652450369998" ry="1.3342652450369998" fill="#CDC5EA" />
<rect x="203.42558139978848" y="270.34588896409" width="2.6685304900739997" height="17.79020326716" rx="1.3342652450369998" ry="1.3342652450369998" fill="#A69DC6" />
<circle cx="143.2118155375" cy="279.70201720672753" r="8.379836599927499" fill="#31164F" />
<rect x="134.31671390392" y="252.55568569693003" width="17.79020326716" height="17.79020326716" rx="1.3342652450369998" ry="1.3342652450369998" fill="#A69DC6" />
<rect x="134.31671390392" y="267.67735847401605" width="17.79020326716" height="2.6685304900739997" rx="1.3342652450369998" ry="1.3342652450369998" fill="#8673B5" />
<rect x="152.5679437801375" y="270.34588896409" width="17.79020326716" height="17.79020326716" rx="1.3342652450369998" ry="1.3342652450369998" fill="#8673B5" />
<rect x="152.5679437801375" y="270.34588896409" width="2.6685304900739997" height="17.79020326716" rx="1.3342652450369998" ry="1.3342652450369998" fill="#605181" />
<rect x="134.31671390392" y="289.05814544936504" width="17.79020326716" height="17.79020326716" rx="1.3342652450369998" ry="1.3342652450369998" fill="#605181" />
<rect x="134.31671390392" y="289.05814544936504" width="17.79020326716" height="2.6685304900739997" rx="1.3342652450369998" ry="1.3342652450369998" fill="#31164F" />
<rect x="116.0654840277025" y="270.34588896409" width="17.79020326716" height="17.79020326716" rx="1.3342652450369998" ry="1.3342652450369998" fill="#CDC5EA" />
<rect x="131.1871568047885" y="270.34588896409" width="2.6685304900739997" height="17.79020326716" rx="1.3342652450369998" ry="1.3342652450369998" fill="#A69DC6" />
<circle cx="450.1655139175" cy="279.70201720672753" r="8.379836599927499" fill="#31164F" />
<rect x="441.27041228392" y="252.55568569693003" width="17.79020326716" height="17.79020326716" rx="1.3342652450369998" ry="1.3342652450369998" fill="#A69DC6" />
<rect x="441.27041228392" y="267.67735847401605" width="17.79020326716" height="2.6685304900739997" rx="1.3342652450369998" ry="1.3342652450369998" fill="#8673B5" />
<rect x="459.5216421601375" y="270.34588896409" width="17.79020326716" height="17.79020326716" rx="1.3342652450369998" ry="1.3342652450369998" fill="#CDC5EA" />
<rect x="459.5216421601375" y="270.34588896409" width="2.6685304900739997" height="17.79020326716" rx="1.3342652450369998" ry="1.3342652450369998" fill="#A69DC6" />
<rect x="441.27041228392" y="289.05814544936504" width="17.79020326716" height="17.79020326716" rx="1.3342652450369998" ry="1.3342652450369998" fill="#605181" />
<rect x="441.27041228392" y="289.05814544936504" width="17.79020326716" height="2.6685304900739997" rx="1.3342652450369998" ry="1.3342652450369998" fill="#31164F" />
<rect x="423.0191824077025" y="270.34588896409" width="17.79020326716" height="17.79020326716" rx="1.3342652450369998" ry="1.3342652450369998" fill="#8673B5" />
<rect x="438.1408551847885" y="270.34588896409" width="2.6685304900739997" height="17.79020326716" rx="1.3342652450369998" ry="1.3342652450369998" fill="#605181" />
<circle cx="522.4039385125" cy="279.70201720672753" r="8.379836599927499" fill="#31164F" />
<rect x="513.50883687892" y="252.55568569693003" width="17.79020326716" height="17.79020326716" rx="1.3342652450369998" ry="1.3342652450369998" fill="#A69DC6" />
<rect x="513.50883687892" y="267.67735847401605" width="17.79020326716" height="2.6685304900739997" rx="1.3342652450369998" ry="1.3342652450369998" fill="#8673B5" />
<rect x="531.7600667551375" y="270.34588896409" width="17.79020326716" height="17.79020326716" rx="1.3342652450369998" ry="1.3342652450369998" fill="#CDC5EA" />
<rect x="531.7600667551375" y="270.34588896409" width="2.6685304900739997" height="17.79020326716" rx="1.3342652450369998" ry="1.3342652450369998" fill="#A69DC6" />
<rect x="513.50883687892" y="289.05814544936504" width="17.79020326716" height="17.79020326716" rx="1.3342652450369998" ry="1.3342652450369998" fill="#605181" />
<rect x="513.50883687892" y="289.05814544936504" width="17.79020326716" height="2.6685304900739997" rx="1.3342652450369998" ry="1.3342652450369998" fill="#31164F" />
<rect x="495.25760700270246" y="270.34588896409" width="17.79020326716" height="17.79020326716" rx="1.3342652450369998" ry="1.3342652450369998" fill="#8673B5" />
<rect x="510.3792797797885" y="270.34588896409" width="2.6685304900739997" height="17.79020326716" rx="1.3342652450369998" ry="1.3342652450369998" fill="#605181" />
<circle cx="594.6423631075" cy="279.70201720672753" r="8.379836599927499" fill="#31164F" />
<rect x="585.74726147392" y="252.55568569693003" width="17.79020326716" height="17.79020326716" rx="1.3342652450369998" ry="1.3342652450369998" fill="#A69DC6" />
<rect x="585.74726147392" y="267.67735847401605" width="17.79020326716" height="2.6685304900739997" rx="1.3342652450369998" ry="1.3342652450369998" fill="#8673B5" />
<rect x="603.9984913501376" y="270.34588896409" width="17.79020326716" height="17.79020326716" rx="1.3342652450369998" ry="1.3342652450369998" fill="#CDC5EA" />
<rect x="603.9984913501376" y="270.34588896409" width="2.6685304900739997" height="17.79020326716" rx="1.3342652450369998" ry="1.3342652450369998" fill="#A69DC6" />
<rect x="585.74726147392" y="289.05814544936504" width="17.79020326716" height="17.79020326716" rx="1.3342652450369998" ry="1.3342652450369998" fill="#605181" />
<rect x="585.74726147392" y="289.05814544936504" width="17.79020326716" height="2.6685304900739997" rx="1.3342652450369998" ry="1.3342652450369998" fill="#31164F" />
<rect x="567.4960315977025" y="270.34588896409" width="17.79020326716" height="17.79020326716" rx="1.3342652450369998" ry="1.3342652450369998" fill="#8673B5" />
<rect x="582.6177043747886" y="270.34588896409" width="2.6685304900739997" height="17.79020326716" rx="1.3342652450369998" ry="1.3342652450369998" fill="#605181" />
<circle cx="666.8807877025" cy="279.70201720672753" r="8.379836599927499" fill="#31164F" />
<rect x="657.98568606892" y="252.55568569693003" width="17.79020326716" height="17.79020326716" rx="1.3342652450369998" ry="1.3342652450369998" fill="#A69DC6" />
<rect x="657.98568606892" y="267.67735847401605" width="17.79020326716" height="2.6685304900739997" rx="1.3342652450369998" ry="1.3342652450369998" fill="#8673B5" />
<rect x="676.2369159451375" y="270.34588896409" width="17.79020326716" height="17.79020326716" rx="1.3342652450369998" ry="1.3342652450369998" fill="#CDC5EA" />
<rect x="676.2369159451375" y="270.34588896409" width="2.6685304900739997" height="17.79020326716" rx="1.3342652450369998" ry="1.3342652450369998" fill="#A69DC6" />
<rect x="657.98568606892" y="289.05814544936504" width="17.79020326716" height="17.79020326716" rx="1.3342652450369998" ry="1.3342652450369998" fill="#605181" />
<rect x="657.98568606892" y="289.05814544936504" width="17.79020326716" height="2.6685304900739997" rx="1.3342652450369998" ry="1.3342652450369998" fill="#31164F" />
<rect x="639.7344561927025" y="270.34588896409" width="17.79020326716" height="17.79020326716" rx="1.3342652450369998" ry="1.3342652450369998" fill="#8673B5" />
<rect x="654.8561289697885" y="270.34588896409" width="2.6685304900739997" height="17.79020326716" rx="1.3342652450369998" ry="1.3342652450369998" fill="#605181" />
<rect x="16.0" y="20.3244210261448" width="64.09260324" height="17.919132" rx="3.5838264000000004" ry="3.5838264000000004" fill="black" />
<text x="22.75" y="29.2839870261448" font-size="8.0636094" text-anchor="start" dominant-baseline="central" font-family="Roboto, sans-serif" fill="white">THUMBS</text>
<path d="M319.3132629394531 19.410078048706055C319.3132629394531 18.476173400878906 319.69586181640625 17.583038330078125 320.37188720703125 16.938718795776367C321.0479431152344 16.294401168823242 321.9584045410156 15.95515251159668 322.8912353515625 16.0H337.40081787109375C338.3336486816406 15.95515251159668 339.2441101074219 16.294401168823242 339.920166015625 16.938718795776367C340.59619140625 17.583038330078125 340.978759765625 18.476173400878906 340.978759765625 19.410078048706055L344.2071533203125 86.5602798461914C344.2071533203125 88.3820571899414 342.7767639160156 89.88287353515625 340.95709228515625 89.9703598022461H319.3349609375C317.5152893066406 89.88287353515625 316.08489990234375 88.3820571899414 316.08489990234375 86.5602798461914L317.3558044433594 60.12557601928711L326.5909729003906 59.72258758544922C327.4829406738281 59.72258758544922 328.336181640625 59.358211517333984 328.9529724121094 58.71390151977539C329.5697937011719 58.0695915222168 329.8966064453125 57.20127487182617 329.85772705078125 56.31016540527344V47.04595184326172C329.85772705078125 45.240055084228516 328.3937683105469 43.776084899902344 326.5878601074219 43.776084899902344H318.1418151855469ZM322.4833984375 24.056745529174805 322.0379943847656 35.7485237121582C322.0379943847656 37.402008056640625 323.3450012207031 38.75975799560547 324.997314453125 38.82270050048828H335.29473876953125C336.947021484375 38.75975799560547 338.2540588378906 37.402008056640625 338.2540588378906 35.7485237121582L337.80865478515625 24.056745529174805C337.80865478515625 23.220516204833984 337.4682312011719 22.420318603515625 336.86578369140625 21.840377807617188C336.2633361816406 21.260438919067383 335.45074462890625 20.950735092163086 334.6151123046875 20.982566833496094H325.67694091796875C324.84130859375 20.950735092163086 324.0287170410156 21.260438919067383 323.42626953125 21.840377807617188C322.8238220214844 22.420318603515625 322.4833984375 23.220516204833984 322.4833984375 24.056745529174805Z" fill="#037065" />
<path fill="#6F768B" d="M 273.60011203436494 21.02555887965278 A 2.14261152888958 2.14261152888958 0 0 1 275.7427235632545 18.8829473507632 L 314.30973108326697 18.8829473507632 A 2.14261152888958 2.14261152888958 0 0 1 316.3494512848851 21.023086958009152 L 315.44161048366414 39.90617562340459 A 2.14261152888958 2.14261152888958 0 0 1 313.1961076275031 42.04631523065055 L 275.7427235632545 42.04631523065055 A 2.14261152888958 2.14261152888958 0 0 1 273.60011203436494 39.90370370176097 Z" />
<path fill="#053F3A" d="M 286.3707454499272 47.04595287315831 A 2.1166902917445602 2.1166902917445602 0 0 1 288.48743574167173 44.92926258141375 L 326.5878609930739 44.92926258141375 A 2.1166902917445602 2.1166902917445602 0 0 1 328.7045512848184 47.04595287315831 L 328.7045512848184 56.35939015683438 A 2.1166902917445602 2.1166902917445602 0 0 1 326.5898733487901 58.568357303969265 L 288.4854233859555 60.23109693871114 A 2.1166902917445602 2.1166902917445602 0 0 1 286.3707454499272 58.2066835023569 Z" />
<path fill="#6F768B" d="M 343.9490046756608 21.156332593042762 A 2.2760110663920003 2.2760110663920003 0 0 1 346.1157183746355 18.8829473507632 L 387.0839175696915 18.8829473507632 A 2.2760110663920003 2.2760110663920003 0 0 1 389.3599286360835 21.1589584171552 L 389.3599286360835 39.95063952941736 A 2.2760110663920003 2.2760110663920003 0 0 1 387.0839175696915 42.22665059580936 L 347.2380117998781 42.22665059580936 A 2.2760110663920003 2.2760110663920003 0 0 1 344.8527033660688 39.9532653535298 Z" />
<path fill="#6F768B" d="M 345.20580268764263 47.29773124226664 A 2.1906606514023 2.1906606514023 0 0 1 347.2912646229058 45.10959794657256 L 386.7231563481472 45.10959794657256 A 2.1906606514023 2.1906606514023 0 0 1 388.9138169995495 47.30025859797486 L 388.9138169995495 66.34846297861732 A 2.1906606514023 2.1906606514023 0 0 1 386.7231563481472 68.53912363001962 L 348.4176841269177 68.53912363001962 A 2.1906606514023 2.1906606514023 0 0 1 346.1218247593763 66.35099033432554 Z" />
<path fill="#053F3A" d="M 323.63739089559 24.05758182746518 A 1.9232293511012402 1.9232293511012402 0 0 1 325.63383302107786 22.1357464998151 L 334.65821689932216 22.1357464998151 A 1.9232293511012402 1.9232293511012402 0 0 1 336.65465902481003 24.05758182746518 L 337.09999635329865 35.747686700290416 A 1.9232293511012402 1.9232293511012402 0 0 1 335.2499797765841 37.6695220279405 L 325.0420701438159 37.6695220279405 A 1.9232293511012402 1.9232293511012402 0 0 1 323.19205356710137 35.747686700290416 Z" />
<path d="M469.11383056640625 19.410078048706055C469.11383056640625 18.476173400878906 469.49639892578125 17.583038330078125 470.1724548339844 16.938718795776367C470.8484802246094 16.294401168823242 471.75897216796875 15.95515251159668 472.6918029785156 16.0H487.20135498046875C488.1341857910156 15.95515251159668 489.044677734375 16.294401168823242 489.720703125 16.938718795776367C490.3967590332031 17.583038330078125 490.7793273925781 18.476173400878906 490.7793273925781 19.410078048706055L491.9507751464844 43.776084899902344H483.5047302246094C481.6988525390625 43.776084899902344 480.23486328125 45.240055084228516 480.23486328125 47.04595184326172V56.31016540527344C480.19598388671875 57.20127487182617 480.5228271484375 58.0695915222168 481.1396179199219 58.71390151977539C481.7564392089844 59.358211517333984 482.60968017578125 59.72258758544922 483.50164794921875 59.72258758544922L492.7367858886719 60.12557601928711L494.0076904296875 86.5602798461914C494.0076904296875 88.3820571899414 492.5773010253906 89.88287353515625 490.75762939453125 89.9703598022461H469.1355285644531C467.31585693359375 89.88287353515625 465.8854675292969 88.3820571899414 465.8854675292969 86.5602798461914ZM472.2839660644531 24.056745529174805 471.83856201171875 35.7485237121582C471.83856201171875 37.402008056640625 473.14556884765625 38.75975799560547 474.7978515625 38.82270050048828H485.0953063964844C486.7475891113281 38.75975799560547 488.0545959472656 37.402008056640625 488.0545959472656 35.7485237121582L487.60919189453125 24.056745529174805C487.60919189453125 23.220516204833984 487.2687683105469 22.420318603515625 486.66632080078125 21.840377807617188C486.0638732910156 21.260438919067383 485.2513122558594 20.950735092163086 484.4156799316406 20.982566833496094H475.47747802734375C474.641845703125 20.950735092163086 473.82928466796875 21.260438919067383 473.2268371582031 21.840377807617188C472.6243591308594 22.420318603515625 472.2839660644531 23.220516204833984 472.2839660644531 24.056745529174805Z" fill="#037065" />
<path fill="#6F768B" d="M 493.7431519551149 21.023086958009152 A 2.14261152888958 2.14261152888958 0 0 1 495.78287215673305 18.8829473507632 L 534.3498796767456 18.8829473507632 A 2.14261152888958 2.14261152888958 0 0 1 536.4924912056351 21.02555887965278 L 536.4924912056351 39.90370370176097 A 2.14261152888958 2.14261152888958 0 0 1 534.3498796767456 42.04631523065055 L 496.8964956124969 42.04631523065055 A 2.14261152888958 2.14261152888958 0 0 1 494.6509927563359 39.90617562340459 Z" />
<path fill="#053F3A" d="M 481.3880519551816 47.04595287315831 A 2.1166902917445602 2.1166902917445602 0 0 1 483.5047422469261 44.92926258141375 L 521.6051674983282 44.92926258141375 A 2.1166902917445602 2.1166902917445602 0 0 1 523.7218577900728 47.04595287315831 L 523.7218577900728 58.2066835023569 A 2.1166902917445602 2.1166902917445602 0 0 1 521.6071798540445 60.23109693871114 L 483.5027298912099 58.568357303969265 A 2.1166902917445602 2.1166902917445602 0 0 1 481.3880519551816 56.35939015683438 Z" />
<path fill="#6F768B" d="M 420.73267460391656 21.1589584171552 A 2.2760110663920003 2.2760110663920003 0 0 1 423.0086856703086 18.8829473507632 L 463.9768848653646 18.8829473507632 A 2.2760110663920003 2.2760110663920003 0 0 1 466.1435985643393 21.156332593042762 L 465.2398998739313 39.9532653535298 A 2.2760110663920003 2.2760110663920003 0 0 1 462.85459144012196 42.22665059580936 L 423.0086856703086 42.22665059580936 A 2.2760110663920003 2.2760110663920003 0 0 1 420.73267460391656 39.95063952941736 Z" />
<path fill="#6F768B" d="M 421.1787862404505 47.30025859797486 A 2.1906606514023 2.1906606514023 0 0 1 423.3694468918528 45.10959794657256 L 462.8013386170942 45.10959794657256 A 2.1906606514023 2.1906606514023 0 0 1 464.8868005523574 47.29773124226664 L 463.9707784806237 66.35099033432554 A 2.1906606514023 2.1906606514023 0 0 1 461.6749191130823 68.53912363001962 L 423.3694468918528 68.53912363001962 A 2.1906606514023 2.1906606514023 0 0 1 421.1787862404505 66.34846297861732 Z" />
<path fill="#053F3A" d="M 473.43794421519 24.05758182746518 A 1.9232293511012402 1.9232293511012402 0 0 1 475.43438634067786 22.1357464998151 L 484.45877021892215 22.1357464998151 A 1.9232293511012402 1.9232293511012402 0 0 1 486.45521234441003 24.05758182746518 L 486.90054967289865 35.747686700290416 A 1.9232293511012402 1.9232293511012402 0 0 1 485.0505330961841 37.6695220279405 L 474.8426234634159 37.6695220279405 A 1.9232293511012402 1.9232293511012402 0 0 1 472.99260688670137 35.747686700290416 Z" />
</svg>