<?xml version="1.0" encoding="UTF-8"?>
<svg xmlns="http://www.w3.org/2000/svg" xmlns:xlink="http://www.w3.org/1999/xlink"
     width="350.0" height="240.0" viewBox="0 0 350.0 240.0">
<defs>
</defs>
<rect x="0.5" y="0.5" width="349.0" height="239.0" rx="18.0" ry="18.0" fill="#FFFFFF" stroke="#D4D8DD" stroke-width="1.0" />
<path d="M143.5870819091797 22.638578414916992C143.5870819091797 19.93043327331543 144.6964874267578 17.340511322021484 146.65687561035156 15.472108840942383C148.6172637939453 13.603705406188965 151.25747680664062 12.619951248168945 153.96249389648438 12.75H196.03750610351562C198.74252319335938 12.619951248168945 201.3827362060547 13.603705406188965 203.34312438964844 15.472108840942383C205.3035125732422 17.340511322021484 206.4129180908203 19.93043327331543 206.4129180908203 22.638578414916992L215.7745819091797 217.36141967773438C215.7745819091797 222.64422607421875 211.626708984375 226.99630737304688 206.35000610351562 227.25H143.64999389648438C138.373291015625 226.99630737304688 134.2254180908203 222.64422607421875 134.2254180908203 217.36141967773438L137.91078186035156 140.70579528808594L164.69100952148438 139.53720092773438C167.2775115966797 139.53720092773438 169.75177001953125 138.4805908203125 171.54039001464844 136.61221313476562C173.32901000976562 134.74383544921875 174.27676391601562 132.2258758544922 174.16400146484375 129.64183044433594V102.7773666381836C174.16400146484375 97.54060363769531 169.91876220703125 93.29537200927734 164.6820068359375 93.29537200927734H140.19012451171875ZM152.7798614501953 36.113033294677734 151.48828125 70.0169677734375C151.48828125 74.81175994873047 155.2783660888672 78.74897003173828 160.06968688964844 78.93150329589844H189.93031311035156C194.7216339111328 78.74897003173828 198.51171875 74.81175994873047 198.51171875 70.0169677734375L197.2201385498047 36.113033294677734C197.2201385498047 33.68812561035156 196.23300170898438 31.36770248413086 194.4860076904297 29.68598747253418C192.73899841308594 28.004274368286133 190.3826904296875 27.106189727783203 187.95953369140625 27.19849967956543H162.04046630859375C159.6173095703125 27.106189727783203 157.26100158691406 28.004274368286133 155.5139923095703 29.68598747253418C153.76699829101562 31.36770248413086 152.7798614501953 33.68812561035156 152.7798614501953 36.113033294677734Z" fill="#037065" />
<path fill="#6F768B" d="M 11.027587553814541 27.323166666666665 A 6.213166666666667 6.213166666666667 0 0 1 17.240754220481207 21.11 L 129.0777542204812 21.11 A 6.213166666666667 6.213166666666667 0 0 1 134.9925555716101 27.31599856318561 L 132.35998959838903 82.07337080618376 A 6.213166666666667 6.213166666666667 0 0 1 125.84845761618459 88.27936936936936 L 17.240754220481207 88.27936936936936 A 6.213166666666667 6.213166666666667 0 0 1 11.027587553814541 82.0662027027027 Z" />
<path fill="#053F3A" d="M 48.059999999999995 102.77736936936937 A 6.138000000000001 6.138000000000001 0 0 1 54.19799999999999 96.63936936936936 L 164.682 96.63936936936936 A 6.138000000000001 6.138000000000001 0 0 1 170.82 102.77736936936937 L 170.82 129.78456936936936 A 6.138000000000001 6.138000000000001 0 0 1 164.6878354495386 136.1901547315713 L 54.19216455046138 141.01178400716742 A 6.138000000000001 6.138000000000001 0 0 1 48.059999999999995 135.14136936936936 Z" />
<path fill="#6F768B" d="M 215.02602072864912 27.702385608577217 A 6.6000000000000005 6.6000000000000005 0 0 1 221.30907911285212 21.11 L 340.1090791128521 21.11 A 6.6000000000000005 6.6000000000000005 0 0 1 346.7090791128521 27.71 L 346.7090791128521 82.20230769230771 A 6.6000000000000005 6.6000000000000005 0 0 1 340.1090791128521 88.8023076923077 L 224.5635169826746 88.8023076923077 A 6.6000000000000005 6.6000000000000005 0 0 1 217.6465753668776 82.20992208373049 Z" />
<path fill="#6F768B" d="M 218.6704963648023 103.50747884056328 A 6.3525 6.3525 0 0 1 224.71794005959768 97.1623076923077 L 339.0629400595977 97.1623076923077 A 6.3525 6.3525 0 0 1 345.4154400595977 103.51480769230771 L 345.4154400595977 158.75098416289595 A 6.3525 6.3525 0 0 1 339.0629400595977 165.10348416289594 L 227.9843427745298 165.10348416289594 A 6.3525 6.3525 0 0 1 221.3267864693252 158.75831301464038 Z" />
<path fill="#053F3A" d="M 156.12619685346127 36.115457596641996 A 5.577 5.577 0 0 1 161.9155 30.5425 L 188.0845 30.5425 A 5.577 5.577 0 0 1 193.87380314653873 36.115457596641996 L 195.16519685346125 70.014542403358 A 5.577 5.577 0 0 1 189.8005 75.5875 L 160.1995 75.5875 A 5.577 5.577 0 0 1 154.83480314653875 70.014542403358 Z" />
<path d="M121.75,192.93 L137.75,192.93" stroke="#A69DC6" stroke-width="2.0" />
<circle cx="137.75" cy="192.93" r="2.0" fill="#A69DC6" />
<circle cx="105.25" cy="192.93" r="16.5" fill="#8673B5" stroke="#A69DC6" stroke-width="2.0" />
<text x="99.80499999999999" y="192.93" font-size="19.8" text-anchor="start" dominant-baseline="central" font-family="Roboto, sans-serif" fill="white" opacity="1.0">2</text>
</svg>