<?xml version="1.0" encoding="UTF-8"?>
<svg xmlns="http://www.w3.org/2000/svg" xmlns:xlink="http://www.w3.org/1999/xlink"
     width="350.0" height="240.0" viewBox="0 0 350.0 240.0">
<defs>
</defs>
<rect x="0.5" y="0.5" width="349.0" height="239.0" rx="18.0" ry="18.0" fill="#FFFFFF" stroke="#D4D8DD" stroke-width="1.0" />
<path d="M143.5870819091797 22.638578414916992C143.5870819091797 19.93043327331543 144.6964874267578 17.340511322021484 146.65687561035156 15.472108840942383C148.6172637939453 13.603705406188965 151.25747680664062 12.619951248168945 153.96249389648438 12.75H196.03750610351562C198.74252319335938 12.619951248168945 201.3827362060547 13.603705406188965 203.34312438964844 15.472108840942383C205.3035125732422 17.340511322021484 206.4129180908203 19.93043327331543 206.4129180908203 22.638578414916992L215.7745819091797 217.36141967773438C215.7745819091797 222.64422607421875 211.626708984375 226.99630737304688 206.35000610351562 227.25H143.64999389648438C138.373291015625 226.99630737304688 134.2254180908203 222.64422607421875 134.2254180908203 217.36141967773438L137.5083770751953 149.07579040527344L162.601806640625 147.98080444335938C165.41635131835938 147.98080444335938 168.10874938964844 146.83103942871094 170.05506896972656 144.7979278564453C172.0013885498047 142.76483154296875 173.03269958496094 140.02487182617188 172.91000366210938 137.21299743652344V110.38421630859375C172.91000366210938 104.68574523925781 168.2904815673828 100.06621551513672 162.5919952392578 100.06621551513672H139.86460876464844ZM151.9432830810547 44.47242736816406 150.6516571044922 78.37757110595703C150.6516571044922 83.62169647216797 154.79690551757812 87.92787170410156 160.0372314453125 88.12750244140625H189.9627685546875C195.20309448242188 87.92787170410156 199.3483428955078 83.62169647216797 199.3483428955078 78.37757110595703L198.0567169189453 44.47242736816406C198.0567169189453 41.82027816772461 196.97708129882812 39.282405853271484 195.0663604736328 37.44309616088867C193.15565490722656 35.603782653808594 190.57852172851562 34.62154006958008 187.9282989501953 34.72249984741211H162.0717010498047C159.42147827148438 34.62154006958008 156.84434509277344 35.603782653808594 154.9336395263672 37.44309616088867C153.02291870117188 39.282405853271484 151.9432830810547 41.82027816772461 151.9432830810547 44.47242736816406Z" fill="#037065" />
<path fill="#6F768B" d="M 8.035131330721825 31.4335 A 6.1435 6.1435 0 0 1 14.178631330721824 25.29 L 124.76163133072181 25.29 A 6.1435 6.1435 0 0 1 130.61011151001745 31.426412270650626 L 128.00706383333886 85.56980394556558 A 6.1435 6.1435 0 0 1 121.5685440126345 91.7062162162162 L 14.178631330721824 91.7062162162162 A 6.1435 6.1435 0 0 1 8.035131330721825 85.5627162162162 Z" />
<path fill="#053F3A" d="M 45.97 110.3842162162162 A 6.138000000000001 6.138000000000001 0 0 1 52.108 104.2462162162162 L 162.592 104.2462162162162 A 6.138000000000001 6.138000000000001 0 0 1 168.73000000000002 110.3842162162162 L 168.73000000000002 137.3914162162162 A 6.138000000000001 6.138000000000001 0 0 1 162.59783544953862 143.79700157841813 L 52.10216455046138 148.61863085401427 A 6.138000000000001 6.138000000000001 0 0 1 45.97 142.7482162162162 Z" />
<path fill="#6F768B" d="M 219.41181028507518 31.882385608577216 A 6.6000000000000005 6.6000000000000005 0 0 1 225.69486866927818 25.29 L 344.49486866927816 25.29 A 6.6000000000000005 6.6000000000000005 0 0 1 351.0948686692782 31.89 L 351.0948686692782 86.3823076923077 A 6.6000000000000005 6.6000000000000005 0 0 1 344.49486866927816 92.9823076923077 L 228.94930653910066 92.9823076923077 A 6.6000000000000005 6.6000000000000005 0 0 1 222.03236492330367 86.38992208373048 Z" />
<path fill="#6F768B" d="M 223.25724745968986 111.86747884056327 A 6.3525 6.3525 0 0 1 229.30469115448525 105.52230769230769 L 343.64969115448525 105.52230769230769 A 6.3525 6.3525 0 0 1 350.0021911544853 111.8748076923077 L 350.0021911544853 167.1109841628959 A 6.3525 6.3525 0 0 1 343.64969115448525 173.4634841628959 L 232.57109386941738 173.4634841628959 A 6.3525 6.3525 0 0 1 225.9135375642128 167.11831301464034 Z" />
<path fill="#053F3A" d="M 156.12619685346127 44.475457596641995 A 5.577 5.577 0 0 1 161.9155 38.902499999999996 L 188.0845 38.902499999999996 A 5.577 5.577 0 0 1 193.87380314653873 44.475457596641995 L 195.16519685346125 78.37454240335799 A 5.577 5.577 0 0 1 189.8005 83.94749999999999 L 160.1995 83.94749999999999 A 5.577 5.577 0 0 1 154.83480314653875 78.37454240335799 Z" />
<path d="M121.75,192.93 L137.75,192.93" stroke="#A69DC6" stroke-width="2.0" />
<circle cx="137.75" cy="192.93" r="2.0" fill="#A69DC6" />
<circle cx="105.25" cy="192.93" r="16.5" fill="#8673B5" stroke="#A69DC6" stroke-width="2.0" />
<text x="99.80499999999999" y="192.93" font-size="19.8" text-anchor="start" dominant-baseline="central" font-family="Roboto, sans-serif" fill="white" opacity="1.0">2</text>
</svg>